<svg xmlns="http://www.w3.org/2000/svg" xml:space="preserve" viewBox="0 0 45 45"><defs><clipPath id="a" clipPathUnits="userSpaceOnUse"><path d="M45.237 12.791c0-3.15-2.238-5.703-4.999-5.703H5.236c-2.761 0-4.999 2.553-4.999 5.703v21.797a5 5 0 0 0 4.999 5h35.002a5 5 0 0 0 4.999-5V24.106z" style="fill:#8a1e04;fill-opacity:1;fill-rule:nonzero;stroke:none;stroke-width:.999997"/></clipPath></defs><g clip-path="url(#a)"><path d="M.237 28.755h45v10.833h-45z" style="fill:#99c6ea;fill-opacity:1;fill-rule:evenodd;stroke-width:2.43439;stroke-linecap:round;stroke-linejoin:round;stroke-opacity:.630027;paint-order:stroke fill markers"/><path d="M.237 17.921h45v10.833h-45z" style="fill:#f9fdea;fill-opacity:1;fill-rule:evenodd;stroke-width:2.43439;stroke-linecap:round;stroke-linejoin:round;stroke-opacity:.630027;paint-order:stroke fill markers"/><path d="M.237 7.088h45v10.833h-45z" style="fill:#99c6ea;fill-opacity:1;fill-rule:evenodd;stroke-width:2.43439;stroke-linecap:round;stroke-linejoin:round;stroke-opacity:.630027;paint-order:stroke fill markers"/><path d="M86.427 50.733c-.29 1.39.782 1.673 1.755 2.246.53.312.946.944 1.59 1.017.634.073.987-.394 1.48-.69.326-.194.707-.254 1.042-.426.768-.393 1.183-1.082 1.207-1.927-.644.353-1.21.857-1.92 1.084-1.866.596-3.602-.406-5.154-1.304" style="fill:#acdd4d;fill-opacity:1;stroke:none;stroke-width:.054835" transform="translate(-44.167 -11.933)scale(.74203)"/><path d="M100.959 47.992c-.278.55-.626 1.09-1.153 1.434-.648.423-1.51.558-2.247.756-1.365.366-2.626.912-3.357 2.196-.244.428-.35.89-.427 1.371 1.96-1.057 4.373.298 6.126-1.491a3.3 3.3 0 0 0 .637-.921c.225-.486.357-1.01.446-1.536.102-.606.194-1.22-.025-1.81m-21.276-.328c-1.256 2.582.244 5.1 3.016 5.574 1.284.22 2.416-.347 3.619.348-.143-1.378-.902-2.634-2.194-3.227-1.332-.611-2.847-.431-3.832-1.71-.228-.297-.368-.638-.5-.985z" style="fill:#659533;fill-opacity:1;stroke:none;stroke-width:.054835" transform="translate(-44.167 -11.933)scale(.74203)"/><path d="M90.595 48.595c-1.22-.414-1.368-1.33-1.152-2.468-1.115.35-.979 1.17-.57 2.028.127.267.19.602.488.733.43.189.896-.032 1.234-.293m1.865-2.577c.153.523.367 1.036.366 1.59-.003 1.623-1.364 2.399-2.725 2.796v.11c.681.4 1.438.589 2.19.238.307-.142.536-.397.833-.55.3-.155.814-.089.978-.44.138-.294-.03-.692-.032-1.003-.009-1.286-.093-2.493-1.61-2.741m-2.907 4.167c-1.389-.39-2.347-1.485-2.388-2.961-.014-.537.158-1.066.25-1.59-1.656.342-1.666 1.584-1.546 2.96.032.36-.134.836.115 1.144.213.263.65.254.937.406.895.476 1.878 1.182 2.632.041m-.11-4.935c1.26.314 1.64 1.122 1.371 2.358 1.024-.408 1.041-1.108.559-1.973-.154-.275-.312-.558-.622-.678-.455-.177-.94.024-1.308.293" style="fill:#acdd4d;fill-opacity:1;stroke:none;stroke-width:.054835" transform="translate(-44.167 -11.933)scale(.74203)"/><path d="M92.514 45.743c.75-.423 1.053-1.342.436-2.054-.278-.321-.69-.443-1.01-.707-.273-.225-.432-.594-.761-.748-.487-.227-.95.145-1.407.265-.423.111-.856.081-1.26.274-.6.286-1.738 1.572-.88 2.21.316.233 1.12-.753 1.428-.91.974-.497 2.55-.432 3.19.58.207.325.207.72.264 1.09" style="fill:#acdd4d;fill-opacity:1;stroke:none;stroke-width:.054835" transform="translate(-44.167 -11.933)scale(.74203)"/><path d="M91.966 41.521c.454.629 1.258.915 1.79 1.485.825.884 1.542 2.494 1.464 3.724-.033.511-.26.995-.403 1.48 1.045-.087 2.188-.673 2.17-1.863-.009-.556-.297-1.046-.342-1.59-.037-.435.372-.882.17-1.298-.207-.426-.752-.345-1.07-.63-.306-.277-.428-.705-.733-.992-.869-.82-2.015-.653-3.046-.316m-7.403 5.977c.218-.754.208-1.568.48-2.303.706-1.904 2.292-2.827 4.071-3.51-.573-.707-1.91-.775-2.687-.393-.454.223-.797.62-1.26.825-.445.197-1.075.046-1.395.48-.318.43.064 1.146-.09 1.666-.344 1.163-.541 2.696.881 3.235" style="fill:#acdd4d;fill-opacity:1;stroke:none;stroke-width:.054835" transform="translate(-44.167 -11.933)scale(.74203)"/></g></svg>