<svg xmlns="http://www.w3.org/2000/svg" xml:space="preserve" viewBox="0 0 45 45"><path fill="#ea596e" d="M160.09 167.296a4 4 0 0 0-4-4.002h-28.008a4 4 0 0 0-4.001 4.001v28.008a4 4 0 0 0 4 4.001h28.008a4 4 0 0 0 4.001-4z" style="fill:#67757f;fill-opacity:1;stroke-width:1.00027" transform="translate(-155.059 -203.928)scale(1.24966)"/><path fill="#fff" d="M142.086 172.797c-4.689 0-8.503 3.814-8.503 8.502s3.814 8.503 8.503 8.503c4.688 0 8.502-3.814 8.502-8.503 0-4.688-3.814-8.502-8.502-8.502m0 14.004a5.51 5.51 0 0 1-5.502-5.502 5.51 5.51 0 0 1 5.502-5.501 5.51 5.51 0 0 1 5.501 5.501 5.51 5.51 0 0 1-5.501 5.502" style="stroke-width:1.00027" transform="translate(-155.059 -203.928)scale(1.24966)"/></svg>