<?xml version="1.0" encoding="UTF-8" standalone="no"?>
<svg
   xmlns:dc="http://purl.org/dc/elements/1.1/"
   xmlns:cc="http://creativecommons.org/ns#"
   xmlns:rdf="http://www.w3.org/1999/02/22-rdf-syntax-ns#"
   xmlns:svg="http://www.w3.org/2000/svg"
   xmlns="http://www.w3.org/2000/svg"
   xmlns:sodipodi="http://sodipodi.sourceforge.net/DTD/sodipodi-0.dtd"
   xmlns:inkscape="http://www.inkscape.org/namespaces/inkscape"
   inkscape:export-ydpi="1092.2667"
   inkscape:export-xdpi="1092.2667"
   inkscape:export-filename="F:\My Art\SVG &amp; SALES\MOREmoji\SET 3\png\agender_sign_1.png"
   viewBox="0 0 45 45"
   style="enable-background:new 0 0 45 45;"
   xml:space="preserve"
   version="1.1"
   id="svg2"
   sodipodi:docname="agender_sign_1.svg"
   inkscape:version="1.0 (4035a4fb49, 2020-05-01)"><sodipodi:namedview
     inkscape:document-rotation="0"
     pagecolor="#ffffff"
     bordercolor="#666666"
     borderopacity="1"
     objecttolerance="10"
     gridtolerance="10"
     guidetolerance="10"
     inkscape:pageopacity="0"
     inkscape:pageshadow="2"
     inkscape:window-width="1920"
     inkscape:window-height="1027"
     id="namedview24"
     showgrid="false"
     inkscape:zoom="11.910821"
     inkscape:cx="41.926182"
     inkscape:cy="16.946862"
     inkscape:window-x="-8"
     inkscape:window-y="-8"
     inkscape:window-maximized="1"
     inkscape:current-layer="svg2" /><metadata
     id="metadata8"><rdf:RDF><cc:Work
         rdf:about=""><dc:format>image/svg+xml</dc:format><dc:type
           rdf:resource="http://purl.org/dc/dcmitype/StillImage" /><dc:title /></cc:Work></rdf:RDF></metadata><defs
     id="defs6"><clipPath
       id="clipPath16"
       clipPathUnits="userSpaceOnUse"><path
         id="path18"
         d="M 0,36 36,36 36,0 0,0 0,36 Z" /></clipPath></defs><g
     id="g2711"
     transform="matrix(1.2496626,0,0,1.2496626,-155.05903,-203.92761)"><path
       style="fill:#67757f;fill-opacity:1;stroke-width:1.00027"
       id="path849-3-1"
       d="m 160.09044,167.2955 c 0,-2.20959 -1.79148,-4.00108 -4.00108,-4.00108 H 128.0818 c -2.2096,0 -4.00108,1.79149 -4.00108,4.00108 v 28.00757 c 0,2.2096 1.79148,4.00108 4.00108,4.00108 h 28.00756 c 2.2096,0 4.00108,-1.79148 4.00108,-4.00108 z"
       fill="#ea596e" /><path
       style="stroke-width:1.00027"
       id="path851-3-6"
       d="m 142.08557,172.79699 c -4.68825,0 -8.50228,3.81403 -8.50228,8.5023 0,4.68826 3.81403,8.50229 8.50228,8.50229 4.68828,0 8.5023,-3.81403 8.5023,-8.50229 0,-4.68827 -3.81402,-8.5023 -8.5023,-8.5023 z m 0,14.00378 c -3.03381,0 -5.50147,-2.46866 -5.50147,-5.50147 0,-3.03282 2.46766,-5.50149 5.50147,-5.50149 3.03383,0 5.50149,2.46867 5.50149,5.50149 0,3.03281 -2.46766,5.50147 -5.50149,5.50147 z"
       fill="#ffffff" /></g></svg>
