<?xml version="1.0" encoding="UTF-8" standalone="no"?>
<svg
   xmlns:dc="http://purl.org/dc/elements/1.1/"
   xmlns:cc="http://creativecommons.org/ns#"
   xmlns:rdf="http://www.w3.org/1999/02/22-rdf-syntax-ns#"
   xmlns:svg="http://www.w3.org/2000/svg"
   xmlns="http://www.w3.org/2000/svg"
   xmlns:sodipodi="http://sodipodi.sourceforge.net/DTD/sodipodi-0.dtd"
   xmlns:inkscape="http://www.inkscape.org/namespaces/inkscape"
   inkscape:export-ydpi="1092.2666"
   inkscape:export-xdpi="1092.2666"
   inkscape:export-filename="F:\My Art\SVG &amp; SALES\MOREmoji\SET 3\png\agender_sign_2.png"
   viewBox="0 0 45 45"
   style="enable-background:new 0 0 45 45;"
   xml:space="preserve"
   version="1.1"
   id="svg2"
   sodipodi:docname="agender_sign_2.svg"
   inkscape:version="1.0 (4035a4fb49, 2020-05-01)"><sodipodi:namedview
     inkscape:document-rotation="0"
     pagecolor="#ffffff"
     bordercolor="#666666"
     borderopacity="1"
     objecttolerance="10"
     gridtolerance="10"
     guidetolerance="10"
     inkscape:pageopacity="0"
     inkscape:pageshadow="2"
     inkscape:window-width="1920"
     inkscape:window-height="1027"
     id="namedview24"
     showgrid="false"
     inkscape:zoom="11.910821"
     inkscape:cx="41.926182"
     inkscape:cy="16.946862"
     inkscape:window-x="-8"
     inkscape:window-y="-8"
     inkscape:window-maximized="1"
     inkscape:current-layer="svg2" /><metadata
     id="metadata8"><rdf:RDF><cc:Work
         rdf:about=""><dc:format>image/svg+xml</dc:format><dc:type
           rdf:resource="http://purl.org/dc/dcmitype/StillImage" /><dc:title /></cc:Work></rdf:RDF></metadata><defs
     id="defs6"><clipPath
       id="clipPath16"
       clipPathUnits="userSpaceOnUse"><path
         id="path18"
         d="M 0,36 36,36 36,0 0,0 0,36 Z" /></clipPath></defs><g
     id="g2694"
     transform="matrix(1.2496621,0,0,1.2496621,-52.265695,-254.79322)"><g
       id="g2541"><path
         style="fill:#292f33;fill-opacity:1;stroke-width:1.00027"
         id="path849-9"
         d="m 77.833601,207.99906 c 0,-2.20959 -1.79149,-4.00108 -4.00108,-4.00108 H 45.824947 c -2.209601,0 -4.001081,1.79149 -4.001081,4.00108 v 28.00757 c 0,2.2096 1.79148,4.00108 4.001081,4.00108 h 28.007574 c 2.20959,0 4.00108,-1.79148 4.00108,-4.00108 z"
         fill="#ea596e" /><g
         id="g2398"
         transform="translate(-48.946239,-11.573495)"><path
           fill="#ffffff"
           d="m 108.77496,229.07513 c -4.68826,0 -8.50229,3.81403 -8.50229,8.5023 0,4.68826 3.81403,8.50229 8.50229,8.50229 4.68827,0 8.50231,-3.81403 8.50231,-8.50229 0,-4.68827 -3.81404,-8.5023 -8.50231,-8.5023 z m 0,14.00378 c -3.03381,0 -5.50148,-2.46866 -5.50148,-5.50148 0,-3.03282 2.46767,-5.50149 5.50148,-5.50149 3.03382,0 5.5015,2.46867 5.5015,5.50149 0,3.03282 -2.46767,5.50148 -5.5015,5.50148 z"
           id="path851-3"
           style="stroke-width:1.00027" /><path
           fill="#ffffff"
           d="m 108.77496,220.07294 c -0.82921,0 -1.5004,0.67217 -1.5004,1.50037 v 9.00226 c 0,0.8282 0.67119,1.50037 1.5004,1.50037 0.82924,0 1.50041,-0.67217 1.50041,-1.50037 v -9.00226 c 0,-0.8282 -0.67117,-1.50037 -1.50041,-1.50037 z"
           id="path853-1"
           style="stroke-width:1.00026" /><path
           fill="#ffffff"
           d="m 113.65128,236.07705 h -9.75263 c -0.82923,0 -1.50041,0.67216 -1.50041,1.50037 0,0.82821 0.67118,1.50038 1.50041,1.50038 h 9.75263 c 0.82922,0 1.50041,-0.67217 1.50041,-1.50038 0,-0.82821 -0.67119,-1.50037 -1.50041,-1.50037 z"
           id="path855-8"
           style="stroke-width:1.00026" /></g></g></g></svg>
