<svg xmlns="http://www.w3.org/2000/svg" xml:space="preserve" viewBox="0 0 45 45"><defs><clipPath id="a" clipPathUnits="userSpaceOnUse"><path d="M-4.646-44.034v2.5a5 5 0 0 0 5 5h35.002a5 5 0 0 0 4.998-5v-21.797c0-3.15-2.237-5.703-4.998-5.703H.353c-2.761 0-4.999 2.553-4.999 5.703v12.43z" style="fill:#000;fill-opacity:1;fill-rule:nonzero;stroke:none"/></clipPath></defs><g clip-path="url(#a)" transform="translate(4.942 76.16)"><path d="M-4.646-44.034v2.5a5 5 0 0 0 5 5h35.002a5 5 0 0 0 4.998-5v-21.797c0-3.15-2.237-5.703-4.998-5.703H.353c-2.761 0-4.999 2.553-4.999 5.703v12.43z" style="fill:#000;fill-opacity:1;fill-rule:nonzero;stroke:none"/><path d="M-4.646-64.392h45v23.215h-45z" style="opacity:1;fill:#bcc5c6;fill-opacity:1;fill-rule:nonzero;stroke:none;stroke-width:.60000002;stroke-linecap:round;stroke-linejoin:round;stroke-miterlimit:4;stroke-dasharray:none;stroke-dashoffset:0;stroke-opacity:1"/><path d="M-4.646-59.749h45v13.929h-45z" style="opacity:1;fill:#fff;fill-opacity:1;fill-rule:nonzero;stroke:none;stroke-width:.60000002;stroke-linecap:round;stroke-linejoin:round;stroke-miterlimit:4;stroke-dasharray:none;stroke-dashoffset:0;stroke-opacity:1"/><path d="M-4.646-55.106h45v4.643h-45z" style="opacity:1;fill:#b5f582;fill-opacity:1;fill-rule:nonzero;stroke:none;stroke-width:.60000002;stroke-linecap:round;stroke-linejoin:round;stroke-miterlimit:4;stroke-dasharray:none;stroke-dashoffset:0;stroke-opacity:1"/></g></svg>