<svg xmlns="http://www.w3.org/2000/svg" xml:space="preserve" viewBox="0 0 45 45"><path fill="#ea596e" d="M77.834 208a4 4 0 0 0-4.001-4.002H45.825a4 4 0 0 0-4.001 4.001v28.008a4 4 0 0 0 4 4h28.009a4 4 0 0 0 4-4z" style="fill:#292f33;fill-opacity:1;stroke-width:1.00027" transform="translate(-52.266 -254.793)scale(1.24966)"/><g fill="#fff"><path d="M108.775 229.075c-4.688 0-8.502 3.814-8.502 8.502s3.814 8.503 8.502 8.503 8.502-3.814 8.502-8.503c0-4.688-3.814-8.502-8.502-8.502m0 14.004a5.51 5.51 0 0 1-5.502-5.502 5.51 5.51 0 0 1 5.502-5.501 5.51 5.51 0 0 1 5.501 5.501 5.51 5.51 0 0 1-5.501 5.502" style="stroke-width:1.00027" transform="translate(-113.432 -269.256)scale(1.24966)"/><path d="M108.775 220.073a1.5 1.5 0 0 0-1.5 1.5v9.003a1.5 1.5 0 1 0 3 0v-9.003a1.5 1.5 0 0 0-1.5-1.5m4.876 16.004H103.9a1.5 1.5 0 1 0 0 3h9.752a1.5 1.5 0 1 0 0-3" style="stroke-width:1.00026" transform="translate(-113.432 -269.256)scale(1.24966)"/></g></svg>