<svg xmlns="http://www.w3.org/2000/svg" xml:space="preserve" viewBox="0 0 45 45"><path d="M45 22.736c0 12.426-10.074 22.5-22.5 22.5S0 35.162 0 22.736 10.075.236 22.5.236 45 10.311 45 22.736" style="fill:#ffcc4d;fill-opacity:1;fill-rule:nonzero;stroke:none"/><path d="M0 0a5 5 0 0 0-5-5 5 5 0 0 0-5 5 5 5 0 0 0 5 5 5 5 0 0 0 5-5" style="fill:#ff7892;fill-opacity:1;fill-rule:nonzero;stroke:none" transform="matrix(1.25 0 0 -1.25 42.5 28.75)"/><path d="M0 0a5 5 0 0 0-5-5 5 5 0 0 0-5 5 5 5 0 0 0 5 5 5 5 0 0 0 5-5" style="fill:#ff7892;fill-opacity:1;fill-rule:nonzero;stroke:none" transform="matrix(1.25 0 0 -1.25 15 28.75)"/><path d="M0 0c0-1.934-1.119-3.5-2.5-3.5S-5-1.934-5 0s1.119 3.5 2.5 3.5S0 1.933 0 0" style="fill:#664500;fill-opacity:1;fill-rule:nonzero;stroke:none" transform="matrix(1.39901 0 0 -1.39901 18.978 19.559)"/><path d="M0 0c0-1.934-1.119-3.5-2.5-3.5S-5-1.934-5 0s1.119 3.5 2.5 3.5S0 1.933 0 0" style="fill:#664500;fill-opacity:1;fill-rule:nonzero;stroke:none" transform="matrix(1.39901 0 0 -1.39901 33.017 19.559)"/><g style="fill:#ffcc4d;fill-opacity:1"><path d="M38.15 15.518a1.5 1.5 0 0 0-1.182-.263c-5.793 1.152-9.44-1.465-9.592-1.579-.58-.426-1.432-.363-1.902.143-.471.507-.389 1.263.187 1.696.192.144 4.79 3.52 11.948 2.098.728-.144 1.173-.79.996-1.44a1.22 1.22 0 0 0-.454-.655" style="fill:#ffcc4d;fill-opacity:1;fill-rule:nonzero;stroke:none" transform="translate(-.005 -.371)"/><g style="fill:#ffcc4d;fill-opacity:1"><path d="M0 0a1 1 0 0 0-.799 1.6C2.463 5.95 6.817 6 7.001 6a1 1 0 0 0 .004-2C6.85 3.998 3.436 3.914.801.4A1 1 0 0 0 0 0" style="fill:#ffcc4d;fill-opacity:1;fill-rule:nonzero;stroke:none" transform="matrix(1.0462 -.78615 .86092 .9167 6.854 15.148)"/></g></g><path d="M38.113 15.492a1.7 1.7 0 0 0-1.201-.138c-5.67 1.438-9.531-.555-9.693-.642-.616-.326-1.459-.206-1.882.268-.426.476-.278 1.125.333 1.456.205.111 5.078 2.69 12.086.914.712-.18 1.1-.774.867-1.325a1.1 1.1 0 0 0-.51-.533" style="fill:#664500;fill-opacity:1;fill-rule:nonzero;stroke:none"/><path d="M0 0a1 1 0 0 0-.799 1.6C2.463 5.95 6.817 6 7.001 6a1 1 0 0 0 .004-2C6.85 3.998 3.436 3.914.801.4A1 1 0 0 0 0 0" style="fill:#664500;fill-opacity:1;fill-rule:nonzero;stroke:none" transform="matrix(1.11073 -.6024 .77774 .86033 6.897 15.493)"/><g transform="translate(0 -.118)"><path d="M12.975 19.595c-.218-.447-.1-.655.122-.825.36-.276 1.108.026 1.355.159.047-.277.292-.93.693-1.06.262-.086.553-.156.77.292a1 1 0 0 1 .07.194c.228.755-.19 1.874-.649 2.348-.656.07-1.795-.289-2.249-.934a1 1 0 0 1-.112-.174" style="fill:#fff;fill-opacity:1;fill-rule:nonzero;stroke:none"/><circle cx="16.705" cy="21.842" r=".619" style="fill:#fff;fill-opacity:1;stroke:none;stroke-opacity:1"/></g><g transform="translate(14.032 -.118)"><path d="M12.975 19.595c-.218-.447-.1-.655.122-.825.36-.276 1.108.026 1.355.159.047-.277.292-.93.693-1.06.262-.086.553-.156.77.292a1 1 0 0 1 .07.194c.228.755-.19 1.874-.649 2.348-.656.07-1.795-.289-2.249-.934a1 1 0 0 1-.112-.174" style="fill:#fff;fill-opacity:1;fill-rule:nonzero;stroke:none"/><circle cx="16.705" cy="21.842" r=".619" style="fill:#fff;fill-opacity:1;stroke:none;stroke-opacity:1"/></g><path d="M37.782 23.206a1.47 1.47 0 0 1-1.038.417c-5.467-.022-8.385 2.788-8.507 2.908-.463.456-1.25.543-1.758.193-.51-.351-.553-1.003-.095-1.463.153-.154 3.82-3.76 10.576-3.735.687.003 1.195.474 1.135 1.053a1.05 1.05 0 0 1-.313.627" style="fill:#f4900c;fill-opacity:1;fill-rule:nonzero;stroke:none"/><g style="fill:#f4900c;fill-opacity:1"><path d="M0 0a1 1 0 0 0-.799 1.6C2.463 5.95 6.817 6 7.001 6a1 1 0 0 0 .004-2C6.85 3.998 3.436 3.914.801.4A1 1 0 0 0 0 0" style="fill:#f4900c;fill-opacity:1;fill-rule:nonzero;stroke:none" transform="matrix(.83178 .8357 .92926 -.63267 7.218 23.205)"/></g><path d="M6.78 7.064c1.233.085 2.738-.584 2.662-2.58-.026-.68-.597-.982-1.41.366-.45.746-1.345.736-2.743-.198C3.111 3.381 2.181-2.12 1.048-.273.155 1.18 3.684 6.85 6.78 7.064" style="fill:#664500;fill-opacity:1;fill-rule:nonzero;stroke:none" transform="matrix(.8707 -.96625 .89494 .99818 5.877 12.143)"/><path d="M5.744 6.562c.616.043.798-.483.974.154.44 1.596 3.155-.323 3.258-1.67.082-1.082-2.263 1.078-2.282.579-.026-.681-.322-2.6-1.135-1.252-.45.746-.908.712-2.306-.222C2.074 2.88 1.633-1.922.5-.075c-.892 1.454 2.148 6.423 5.244 6.637" style="fill:#664500;fill-opacity:1;fill-rule:nonzero;stroke:none" transform="matrix(-.73015 -1.1508 -1.01288 .77824 38.495 11.226)"/><path d="M-6.171-.344C-8.534-.096-11 1-11-1c0-4 9.282-6.04 11-6.04S11-5 11-1c0 2-2.07.947-4.18.672C4.025-.69 3.893-.26.052-.26S-3.809-.592-6.17-.344" style="fill:#664500;fill-opacity:1;fill-rule:nonzero;stroke:none" transform="matrix(.75016 0 0 -1.75368 22.5 28.782)"/><path d="M19.16 31.552c1.114.145 2.221-.467 3.339-.446 1.04.019 2.166.564 3.099.53.907-.034 1.965-.515 3.368-1.308.179.541.073 2.466-.233 3.251-1.947-.922-3.98-.793-6.25-.793s-5.03.166-6.038.8c-.453-1.103-.62-2.162-.405-3.292 1.308.86 2.045 1.118 3.12 1.258" style="fill:#fff;fill-opacity:1;fill-rule:nonzero;stroke:none"/><g style="fill:#5dadec;fill-opacity:1"><path d="M0 0a5 5 0 0 0-5-5 5 5 0 0 0-5 5 5 5 0 0 0 5 5 5 5 0 0 0 5-5" style="fill:#5dadec;fill-opacity:1;fill-rule:nonzero;stroke:none" transform="matrix(.55303 0 0 -.3 37.398 21.205)"/></g><g style="fill:#5dadec;fill-opacity:1"><path d="M0 0a5 5 0 0 0-5-5 5 5 0 0 0-5 5 5 5 0 0 0 5 5 5 5 0 0 0 5-5" style="fill:#5dadec;fill-opacity:1;fill-rule:nonzero;stroke:none" transform="matrix(.55303 0 0 -.3 13.132 21.205)"/></g><path d="M22.528 43.083c-5.811-.011-6.024-8.476-2.457-8.476.94 0 1.498.932 2.425.932.78 0 1.516-.893 2.482-.893 3.467 0 3.33 8.449-2.45 8.437" style="fill:#e75a70;fill-opacity:1;fill-rule:nonzero;stroke:none"/><path d="M0 0a5 5 0 0 0-5-5 5 5 0 0 0-5 5c0 2.762 4 10 5 10S0 2.762 0 0" style="fill:#5dadec;fill-opacity:1;fill-rule:nonzero;stroke:none" transform="matrix(.48102 0 0 -.48102 44.42 26.257)"/><path d="M0 0a5 5 0 0 0-5-5 5 5 0 0 0-5 5c0 2.762 4 10 5 10S0 2.762 0 0" style="fill:#5dadec;fill-opacity:1;fill-rule:nonzero;stroke:none" transform="matrix(.34502 0 0 -.34502 12.304 36.909)"/><path d="M0 0a5 5 0 0 0-5-5 5 5 0 0 0-5 5c0 2.762 4 10 5 10S0 2.762 0 0" style="fill:#5dadec;fill-opacity:1;fill-rule:nonzero;stroke:none" transform="matrix(.5429 0 0 -.5429 7.385 18.545)"/></svg>