<svg xmlns="http://www.w3.org/2000/svg" xml:space="preserve" viewBox="0 0 45 45"><defs><clipPath id="a" clipPathUnits="userSpaceOnUse"><path d="M.059 32.55v2.499a5 5 0 0 0 4.999 5H40.06a5 5 0 0 0 4.999-5V13.253c0-3.15-2.238-5.704-5-5.704h-35c-2.762 0-5 2.553-5 5.703v12.431z" style="fill:#5bcefa;fill-opacity:1;fill-rule:nonzero;stroke:none"/></clipPath></defs><g clip-path="url(#a)" transform="translate(-.02 -.1)"><path d="M.059 26.088v8.961a5 5 0 0 0 5 5h35a5 5 0 0 0 5-5v-8.96z" style="fill:#000;fill-opacity:1;fill-rule:nonzero;stroke:none"/><path d="M45.059 25.278V13.252c0-3.15-2.24-5.703-5-5.703h-35c-2.762 0-5 2.553-5 5.703v12.026z" style="fill:#3da542;fill-opacity:1;fill-rule:nonzero;stroke:none"/><path d="M.059 24.336V14.05h45v10.478z" style="opacity:1;fill:#a8d379;fill-opacity:1;fill-rule:nonzero;stroke:none;stroke-width:.60000002;stroke-linecap:round;stroke-linejoin:round;stroke-miterlimit:4;stroke-dasharray:none;stroke-dashoffset:0;stroke-opacity:1"/><path d="M45.059 25.48v8.07h-45v-7.974z" style="opacity:1;fill:#a9a9a9;fill-opacity:1;fill-rule:nonzero;stroke:none;stroke-width:.60000002;stroke-linecap:round;stroke-linejoin:round;stroke-miterlimit:4;stroke-dasharray:none;stroke-dashoffset:0;stroke-opacity:1"/><path d="M.059 20.549h45v6.5h-45z" style="opacity:1;fill:#fff;fill-opacity:1;fill-rule:nonzero;stroke:none;stroke-width:.60000002;stroke-linecap:round;stroke-linejoin:round;stroke-miterlimit:4;stroke-dasharray:none;stroke-dashoffset:0;stroke-opacity:1"/></g></svg>