<svg xmlns="http://www.w3.org/2000/svg" xml:space="preserve" viewBox="0 0 45 45"><defs><clipPath id="a" clipPathUnits="userSpaceOnUse"><path d="M-25.75 33.535c0-2.25-2.237-4.074-4.999-4.074H-65.75c-2.761 0-4.999 1.824-4.999 4.074v15.569c0 1.972 2.238 3.572 4.999 3.572h35.002c2.762 0 5-1.6 5-3.572v-7.486z" style="fill:#8a1e04;fill-opacity:1;fill-rule:nonzero;stroke:none;stroke-width:.845153"/></clipPath></defs><g clip-path="url(#a)" transform="matrix(1 0 0 1.4 70.987 -34.158)"><path d="M-70.75 38.747h45v4.643h-45z" style="fill:#fff;fill-opacity:1;fill-rule:evenodd;stroke-width:1.59368;stroke-linecap:round;stroke-linejoin:round;stroke-opacity:.630027;paint-order:stroke fill markers"/><path d="M-70.75 34.104h45v4.643h-45z" style="fill:#fdf44d;fill-opacity:1;fill-rule:evenodd;stroke-width:1.59368;stroke-linecap:round;stroke-linejoin:round;stroke-opacity:.630027;paint-order:stroke fill markers"/><path d="M-70.75 29.461h45v4.643h-45z" style="fill:#ed79aa;fill-opacity:1;fill-rule:evenodd;stroke-width:1.59368;stroke-linecap:round;stroke-linejoin:round;stroke-opacity:.630027;paint-order:stroke fill markers"/><path d="M-70.75 43.39h45v4.643h-45z" style="fill:#ae6dbf;fill-opacity:1;fill-rule:evenodd;stroke-width:1.59368;stroke-linecap:round;stroke-linejoin:round;stroke-opacity:.630027;paint-order:stroke fill markers"/><path d="M-70.75-52.676h45v4.643h-45z" style="fill:#719de2;fill-opacity:1;fill-rule:evenodd;stroke-width:1.59368;stroke-linecap:round;stroke-linejoin:round;stroke-opacity:.630027;paint-order:stroke fill markers" transform="scale(1 -1)"/></g></svg>