<svg xmlns="http://www.w3.org/2000/svg" xml:space="preserve" viewBox="0 0 45 45"><defs><clipPath id="a" clipPathUnits="userSpaceOnUse"><path d="M92.582 10.909v2.5a5 5 0 0 0 4.999 5h35.002a5 5 0 0 0 4.999-5V-8.387c0-3.15-2.238-5.704-5-5.704h-35c-2.762 0-5 2.553-5 5.703v12.43z" style="fill:#5bcefa;fill-opacity:1;fill-rule:nonzero;stroke:none"/></clipPath></defs><g clip-path="url(#a)" transform="translate(-92.285 21.216)"><path d="M92.582 3.272v8.961a5 5 0 0 0 5 5h35a5 5 0 0 0 5-5V3.272z" style="fill:#3f48cc;fill-opacity:1;fill-rule:nonzero;stroke:none" transform="translate(0 1.176)"/><path d="M137.582 2.461V-9.564c0-3.15-2.24-5.703-5-5.703h-35c-2.762 0-5 2.553-5 5.703V2.46z" style="fill:#ec1c89;fill-opacity:1;fill-rule:nonzero;stroke:none" transform="translate(0 1.176)"/><path d="M92.582 6.074v-7.978h45v8.125z" style="opacity:1;fill:#9e49c2;fill-opacity:1;fill-rule:nonzero;stroke:none;stroke-width:.60000002;stroke-linecap:round;stroke-linejoin:round;stroke-miterlimit:4;stroke-dasharray:none;stroke-dashoffset:0;stroke-opacity:1"/></g></svg>