<svg xmlns="http://www.w3.org/2000/svg" width="210mm" height="297mm" viewBox="0 0 210 297"><defs><clipPath id="a" clipPathUnits="userSpaceOnUse"><path fill="#77b255" d="M19.076 259.163c-1.104 1.238-6.612-1.994-6.448-21.065-14.032 1.616-25.489-7.627-32.978-21.577-8.418-15.683-6.392-35.463 10.443-51.933 9.439-9.235-5.553-20.258 6.2-33.446 8.84-9.917 20.754-6.581 27.829-.283 11.72 10.434 5.928 27.986 6.331 33.835 2.115 30.837-8.108 90.802-11.377 94.469" style="fill:#66757f;fill-opacity:1;stroke-width:3.31681"/></clipPath></defs><g transform="translate(-10.583 6.426)"><path fill="#66757f" d="M108.753 192.46h-9.95a1.659 1.659 0 0 1 0-3.318h9.95a1.659 1.659 0 0 1 0 3.317m9.95 6.633c-.425 0-.85-.163-1.174-.484a1.66 1.66 0 0 1 0-2.345l6.15-6.15v-9.264a1.659 1.659 0 0 1 3.316 0v10.637l-7.118 7.118c-.325.325-.75.488-1.174.488" style="fill:#f4900c;fill-opacity:1;stroke-width:3.31679"/><path fill="#66757f" d="M102.119 199.093c-.425 0-.85-.163-1.174-.484a1.66 1.66 0 0 1 0-2.345l6.15-6.15v-9.264a1.659 1.659 0 0 1 3.316 0v10.637l-7.118 7.118c-.325.325-.75.488-1.174.488m23.217-6.633h-9.95a1.659 1.659 0 0 1 0-3.318h9.95a1.659 1.659 0 0 1 0 3.317" style="fill:#f4900c;fill-opacity:1;stroke-width:3.31679"/><path fill="#f4900c" d="M57.289 123.986c1.946 1.042 8.784-3.25 10.044-7.62s-2.352-4.875-6.64-2.857c-4.287 2.018-5.086 9.577-3.404 10.477" style="stroke-width:2.30371"/><path fill="#77b255" d="M158.587 187.1c-.046 1.654-6.355 2.726-18.547-11.938-9.708 10.25-24.458 10.554-39.208 4.717-16.58-6.564-27.805-22.966-25.543-46.356 1.267-13.114-17.34-11.897-16.852-29.516.368-13.25 11.652-18.358 21.141-18.096 15.722.434 22.62 17.556 26.707 21.761 21.54 22.183 52.438 74.528 52.302 79.427" style="fill:#99aab5;fill-opacity:1;stroke-width:3.31679"/><path fill="#ffac33" d="M63.727 101.415c-5.886 2.303-9.855 7.782-9.892 14.025-.037 6.217 2.808 10.189 5.976 9.323.866-.238-.698-4.428 1.958-10.07 1.313-2.78 3.002-3.11 3.859-3.025.86.083 1.02-11.396-1.9-10.253" style="stroke-width:2.30371"/><path fill="#3b88c3" d="M87.641 135.633s5.761 19.197 24.312 31.134 28.087 8.392 28.087 8.392-9.748 11.154-25.364 6.912c-15.615-4.242-30.915-19.89-27.035-46.438" style="fill:#ccd6dd;fill-opacity:1;stroke-width:3.31679"/><path fill="#bf6952" d="M105.501 81.614s-46.02-3.776-47.026 22.448c-.4 10.432 16.612-3.803 16.612-3.803S94.044 81.765 105.5 81.614" style="fill:#ffdc5e;fill-opacity:1;stroke-width:5.18266"/><path fill="#bf6952" d="M120.32 90.909s-41.954-19.289-51.868 5.01c-3.944 9.666 16.91 2.108 16.91 2.108s24.139-10.895 34.958-7.118" style="fill:#ffdc5e;fill-opacity:1;stroke-width:5.18266"/><path fill="#bf6952" d="M128.167 101.084s-23.98-23.724-36.858-9.52c-5.122 5.65 11.082 5.671 11.082 5.671s19.293-1.447 25.776 3.849" style="fill:#ffdc5e;fill-opacity:1;stroke-width:3.78614"/><path fill="#bf6952" d="M119.896 106.981s-15.126-17.83-24.876-8.8c-3.878 3.592 7.31 4.586 7.31 4.586s13.409.166 17.566 4.214" style="fill:#ffdc5e;fill-opacity:1;stroke-width:2.62428"/><ellipse cx="12.464" cy="137.38" clip-path="url(#a)" rx="24.841" ry="28.195" style="fill:#ffdc5e;fill-opacity:1;fill-rule:evenodd;stroke-width:.349314" transform="matrix(.76628 -.6425 .64593 .7634 -23.435 1.512)"/><circle cx="80.509" cy="116.606" r="9.26" style="fill:#f26522;fill-opacity:1;fill-rule:evenodd;stroke-width:.350394"/><path fill="#5c913b" d="M79.644 126.983c-2.62 0-5.005-.627-6.554-1.493a1.71 1.71 0 0 1-.656-2.325 1.714 1.714 0 0 1 2.325-.657c2.205 1.237 7.98 2.09 11.987-1.403a1.707 1.707 0 1 1 2.242 2.574c-2.773 2.418-6.226 3.304-9.344 3.304" style="fill:#d14a15;fill-opacity:1;stroke-width:3.31679"/><circle cx="70.609" cy="102.906" r="3.317" fill="#292f33" style="stroke-width:3.31679"/><path fill="#5c913b" d="M100.255 114.24c-8.305-1.95-22.11 23.625-3.347 44.418 24.664 27.334 43.132 16.504 43.132 16.504s-13.758-54.813-39.785-60.923" style="fill:#748796;fill-opacity:1;stroke-width:3.31679"/></g></svg>