<?xml version="1.0" encoding="UTF-8" standalone="no"?>
<svg
   xmlns:osb="http://www.openswatchbook.org/uri/2009/osb"
   xmlns:dc="http://purl.org/dc/elements/1.1/"
   xmlns:cc="http://creativecommons.org/ns#"
   xmlns:rdf="http://www.w3.org/1999/02/22-rdf-syntax-ns#"
   xmlns:svg="http://www.w3.org/2000/svg"
   xmlns="http://www.w3.org/2000/svg"
   xmlns:sodipodi="http://sodipodi.sourceforge.net/DTD/sodipodi-0.dtd"
   xmlns:inkscape="http://www.inkscape.org/namespaces/inkscape"
   sodipodi:docname="cockatiel.svg"
   inkscape:version="1.0 (4035a4fb49, 2020-05-01)"
   id="svg893"
   version="1.1"
   viewBox="0 0 210 297"
   height="297mm"
   width="210mm">
  <defs
     id="defs887">
    <linearGradient
       osb:paint="solid"
       id="linearGradient2155">
      <stop
         id="stop2153"
         offset="0"
         style="stop-color:#99aab5;stop-opacity:1;" />
    </linearGradient>
    <clipPath
       clipPathUnits="userSpaceOnUse"
       id="clipPath1538-0">
      <path
         style="stroke-width:3.31679"
         id="path1540-7"
         d="m 156.69407,175.38205 c -0.0464,1.65508 -6.35497,2.7264 -18.54747,-11.93711 -9.70824,10.24887 -24.45799,10.554 -39.207739,4.71647 C 82.358241,161.59748 71.134237,145.19597 73.396287,121.806 74.6633,108.69142 56.056125,109.90868 56.543694,92.28991 56.911856,79.03935 68.195566,73.931489 77.684892,74.193519 c 15.721568,0.434501 22.620488,17.55575 26.706768,21.761442 21.53921,22.182669 52.4384,74.528199 52.30241,79.427089 z"
         fill="#77b255" />
    </clipPath>
    <clipPath
       clipPathUnits="userSpaceOnUse"
       id="clipPath1538-5">
      <path
         style="stroke-width:3.31679"
         id="path1540-6"
         d="m 156.69407,175.38205 c -0.0464,1.65508 -6.35497,2.7264 -18.54747,-11.93711 -9.70824,10.24887 -24.45799,10.554 -39.207739,4.71647 C 82.358241,161.59748 71.134237,145.19597 73.396287,121.806 74.6633,108.69142 56.056125,109.90868 56.543694,92.28991 56.911856,79.03935 68.195566,73.931489 77.684892,74.193519 c 15.721568,0.434501 22.620488,17.55575 26.706768,21.761442 21.53921,22.182669 52.4384,74.528199 52.30241,79.427089 z"
         fill="#77b255" />
    </clipPath>
    <clipPath
       id="clipPath1627"
       clipPathUnits="userSpaceOnUse">
      <circle
         transform="translate(0.00332,-0.00332)"
         style="fill:#f9f9f9;fill-opacity:1;fill-rule:evenodd;stroke-width:0.302001"
         id="circle1629"
         cx="77.775436"
         cy="91.53981"
         r="22.880037"
         clip-path="url(#clipPath1538-5)" />
    </clipPath>
    <clipPath
       id="clipPath2097"
       clipPathUnits="userSpaceOnUse">
      <path
         style="fill:#66757f;fill-opacity:1;stroke-width:3.31681"
         id="path2099"
         d="m 19.076491,259.16264 c -1.104496,1.23846 -6.612503,-1.99396 -6.448649,-21.06427 -14.0314284,1.6159 -25.488564,-7.62721 -32.97793,-21.57735 -8.417864,-15.68313 -6.392022,-35.46298 10.4432417,-51.93301 9.4384103,-9.23545 -5.5526787,-20.25806 6.2001143,-33.44582 8.8400585,-9.91718 20.753452,-6.58132 27.828403,-0.28351 11.721274,10.43429 5.928729,27.98673 6.331614,33.83499 2.11458,30.83753 -8.108613,90.80239 -11.376794,94.46897 z"
         fill="#77b255" />
    </clipPath>
  </defs>
  <sodipodi:namedview
     inkscape:window-maximized="0"
     inkscape:window-y="129"
     inkscape:window-x="565"
     inkscape:window-height="914"
     inkscape:window-width="1182"
     showguides="false"
     showgrid="false"
     inkscape:document-rotation="0"
     inkscape:current-layer="layer1"
     inkscape:document-units="mm"
     inkscape:cy="531.85456"
     inkscape:cx="330.02787"
     inkscape:zoom="0.7"
     inkscape:pageshadow="2"
     inkscape:pageopacity="0.0"
     borderopacity="1.0"
     bordercolor="#666666"
     pagecolor="#ffffff"
     id="base" />
  <metadata
     id="metadata890">
    <rdf:RDF>
      <cc:Work
         rdf:about="">
        <dc:format>image/svg+xml</dc:format>
        <dc:type
           rdf:resource="http://purl.org/dc/dcmitype/StillImage" />
        <dc:title></dc:title>
      </cc:Work>
    </rdf:RDF>
  </metadata>
  <g
     id="layer1"
     inkscape:groupmode="layer"
     inkscape:label="Layer 1">
    <g
       inkscape:export-ydpi="110.5214"
       inkscape:export-xdpi="110.5214"
       inkscape:export-filename="F:\My Art\SVG &amp; SALES\MOREmoji\SET 3\png\cockatiel.png"
       transform="translate(-10.583333,6.4255952)"
       id="g4093">
      <path
         fill="#66757f"
         d="m 108.75255,192.45924 h -9.950364 c -0.91543,0 -1.65839,-0.74296 -1.65839,-1.65839 0,-0.91544 0.74296,-1.6584 1.65839,-1.6584 h 9.950364 c 0.91543,0 1.65839,0.74296 1.65839,1.6584 0,0.91543 -0.74296,1.65839 -1.65839,1.65839 z m 9.95036,6.63357 c -0.42455,0 -0.8491,-0.16252 -1.17415,-0.48425 -0.64677,-0.64677 -0.64677,-1.69819 0,-2.34496 l 6.14933,-6.14933 v -9.26378 c 0,-0.91544 0.74296,-1.6584 1.65839,-1.6584 0.91543,0 1.65839,0.74296 1.65839,1.6584 v 10.63693 l -7.11782,7.11783 c -0.32505,0.32504 -0.74959,0.48756 -1.17414,0.48756 z"
         id="path1458"
         style="fill:#f4900c;fill-opacity:1;stroke-width:3.31679" />
      <path
         fill="#66757f"
         d="m 102.11897,199.09281 c -0.42454,0 -0.84909,-0.16252 -1.17413,-0.48425 -0.64678,-0.64677 -0.64678,-1.69819 0,-2.34496 l 6.14931,-6.14933 v -9.26378 c 0,-0.91544 0.74296,-1.6584 1.6584,-1.6584 0.91543,0 1.65839,0.74296 1.65839,1.6584 v 10.63693 l -7.11782,7.11783 c -0.32505,0.32504 -0.7496,0.48756 -1.17415,0.48756 z"
         id="path1456"
         style="fill:#f4900c;fill-opacity:1;stroke-width:3.31679" />
      <path
         fill="#66757f"
         d="m 125.33648,192.45924 h -9.95036 c -0.91543,0 -1.65839,-0.74296 -1.65839,-1.65839 0,-0.91544 0.74296,-1.6584 1.65839,-1.6584 h 9.95036 c 0.91543,0 1.65839,0.74296 1.65839,1.6584 0,0.91543 -0.74296,1.65839 -1.65839,1.65839 z"
         id="path1460"
         style="fill:#f4900c;fill-opacity:1;stroke-width:3.31679" />
      <path
         fill="#f4900c"
         d="m 57.288519,123.98636 c 1.946636,1.04128 8.784053,-3.25053 10.044183,-7.62067 1.26013,-4.37014 -2.35209,-4.87466 -6.639297,-2.8566 -4.287208,2.01804 -5.086596,9.57652 -3.404886,10.47727 z"
         id="path1462"
         style="stroke-width:2.30371" />
      <path
         fill="#77b255"
         d="m 158.58727,187.09931 c -0.0464,1.65508 -6.35497,2.7264 -18.54747,-11.93711 -9.70824,10.24887 -24.45799,10.55401 -39.20774,4.71647 C 84.251446,173.31475 73.027438,156.91324 75.289487,133.52326 76.556499,120.40868 57.949326,121.62594 58.436893,104.00717 58.805057,90.756613 70.088765,85.648761 79.578096,85.910787 c 15.72156,0.434499 22.620484,17.555743 26.706764,21.761433 21.53921,22.18267 52.4384,74.5282 52.30241,79.42709 z"
         id="path1466"
         style="fill:#99aab5;fill-opacity:1;stroke-width:3.31679"
         sodipodi:nodetypes="cccccccc" />
      <path
         fill="#ffac33"
         d="m 63.727393,101.4146 c -5.885984,2.30371 -9.855279,7.78193 -9.892138,14.02499 -0.03686,6.21772 2.808224,10.18932 5.975828,9.32313 0.866195,-0.23729 -0.698025,-4.42773 1.958155,-10.06952 1.313116,-2.78059 3.001736,-3.11002 3.858717,-3.02478 0.859285,0.0829 1.020544,-11.39646 -1.900562,-10.25382 z"
         id="path1464"
         style="stroke-width:2.30371" />
      <path
         fill="#3b88c3"
         d="m 87.641196,135.63273 c 0,0 5.76126,19.19757 24.312054,31.13468 18.55078,11.93712 28.08655,8.39147 28.08655,8.39147 0,0 -9.74804,11.15436 -25.36347,6.91219 C 99.060896,177.82889 83.760556,162.1803 87.641196,135.63273 Z"
         id="path1470"
         style="fill:#ccd6dd;fill-opacity:1;stroke-width:3.31679" />
      <path
         sodipodi:nodetypes="csccc"
         fill="#bf6952"
         d="m 105.50147,81.613869 c 0,0 -46.020822,-3.77608 -47.02627,22.448321 -0.399953,10.4317 16.611372,-3.80344 16.611372,-3.80344 0,0 18.957144,-18.493439 30.414898,-18.644883 z"
         id="path1867"
         style="fill:#ffdc5e;fill-opacity:1;stroke-width:5.18266" />
      <path
         style="fill:#ffdc5e;fill-opacity:1;stroke-width:5.18266"
         id="path1867-8"
         d="m 120.31958,90.908865 c 0,0 -41.953924,-19.288402 -51.868007,5.010597 -3.943683,9.665778 16.910443,2.10736 16.910443,2.10736 0,0 24.139014,-10.894429 34.957574,-7.117958 z"
         fill="#bf6952"
         sodipodi:nodetypes="csccc" />
      <path
         sodipodi:nodetypes="csccc"
         fill="#bf6952"
         d="m 128.16736,101.08357 c 0,0 -23.98124,-23.723712 -36.858394,-9.520005 -5.12236,5.650026 11.082164,5.671891 11.082164,5.671891 0,0 19.29307,-1.44748 25.77624,3.848114 z"
         id="path1867-8-3"
         style="fill:#ffdc5e;fill-opacity:1;stroke-width:3.78614" />
      <path
         sodipodi:nodetypes="csccc"
         fill="#bf6952"
         d="m 119.89554,106.98112 c 0,0 -15.12566,-17.829705 -24.875264,-8.800094 -3.87826,3.591844 7.309494,4.585864 7.309494,4.585864 0,0 13.40913,0.16602 17.56578,4.21423 z"
         id="path1867-8-2"
         style="fill:#ffdc5e;fill-opacity:1;stroke-width:2.62428" />
      <ellipse
         style="fill:#ffdc5e;fill-opacity:1;fill-rule:evenodd;stroke-width:0.349314"
         id="path1499"
         cx="12.464235"
         cy="137.38036"
         clip-path="url(#clipPath2097)"
         rx="24.840527"
         ry="28.194771"
         transform="matrix(0.76627923,-0.6425077,0.64592859,0.76339784,-23.434524,1.5119048)" />
      <circle
         style="fill:#f26522;fill-opacity:1;fill-rule:evenodd;stroke-width:0.350394"
         id="path1556"
         cx="80.508934"
         cy="116.60565"
         r="9.260416" />
      <path
         fill="#5c913b"
         d="m 79.644426,126.98255 c -2.62026,0 -5.00503,-0.62687 -6.553969,-1.49255 -0.822563,-0.46103 -1.11444,-1.5025 -0.656724,-2.32507 0.46435,-0.82256 1.505821,-1.11444 2.325068,-0.65672 2.205665,1.23716 7.980185,2.08958 11.986865,-1.403 0.70648,-0.62024 1.78775,-0.54727 2.40799,0.16584 0.62024,0.70979 0.54395,1.79106 -0.16584,2.40799 -2.77283,2.41793 -6.22561,3.30351 -9.34339,3.30351 z"
         id="path1476"
         style="fill:#d14a15;fill-opacity:1;stroke-width:3.31679" />
      <circle
         fill="#292f33"
         cx="70.609497"
         cy="102.906"
         r="3.3167868"
         id="circle1474"
         style="stroke-width:3.31679" />
      <path
         fill="#5c913b"
         d="m 100.25494,114.23946 c -8.305234,-1.95027 -22.109704,23.62547 -3.346634,44.41841 24.663624,27.33364 43.131494,16.50433 43.131494,16.50433 0,0 -13.75804,-54.81322 -39.78486,-60.92274 z"
         id="path1472"
         style="fill:#748796;fill-opacity:1;stroke-width:3.31679" />
    </g>
  </g>
</svg>
