<svg xmlns="http://www.w3.org/2000/svg" xml:space="preserve" viewBox="0 0 45 45"><defs><clipPath id="a" clipPathUnits="userSpaceOnUse"/></defs><path d="M45.046 22.5c0 12.426-10.074 22.5-22.5 22.5S.046 34.926.046 22.5 10.121 0 22.546 0s22.5 10.075 22.5 22.5" style="fill:#bdddf4;fill-opacity:1;fill-rule:nonzero;stroke:none"/><g style="fill:#5dadec;fill-opacity:1"><path d="M0 .144c8.749 0 16.033-4.51 17.656-10.484.222 1.128.344 2.292.344 3.484C18-.606 14.814 4.9 9.978 8.127A17.9 17.9 0 0 1 0 11.144c-9.94 0-18-8.06-18-18 0-1.192.123-2.356.344-3.484C-16.033-4.365-8.748.144 0 .144" style="fill:#5dadec;fill-opacity:1;fill-rule:nonzero;stroke:none" transform="matrix(1.25 0 0 -1.25 22.546 13.94)"/></g><path d="M0 0c-5.554 0-7.802 4.367-7.895 4.553a1 1 0 0 0 1.788.898C-6.033 5.306-4.287 2 0 2a1 1 0 1 0 0-2" style="fill:#664500;fill-opacity:1;fill-rule:nonzero;stroke:none" transform="matrix(1.25 0 0 -1.25 36.296 17.136)"/><path d="M0 0a1 1 0 0 0 0 2c5.083 0 5.996 3.12 6.033 3.253.145.528.692.848 1.219.709a.995.995 0 0 0 .718-1.205C7.921 4.563 6.704 0 0 0" style="fill:#664500;fill-opacity:1;fill-rule:nonzero;stroke:none" transform="matrix(1.25 0 0 -1.25 8.796 17.136)"/><path d="M0 0a1 1 0 0 0-.601 1.8c.143.107 2.951 2.182 6.856 2.932C3.78 5.973 1.033 6 .998 6a1 1 0 0 0 .001 2c.221 0 5.452-.038 8.707-3.293A1 1 0 0 0 8.999 3C4.386 3 .636.227.599.2A1 1 0 0 0 0 0" style="fill:#664500;fill-opacity:1;fill-rule:nonzero;stroke:none" transform="matrix(1.25 0 0 -1.25 7.547 29.188)"/><path d="M0 0a1 1 0 0 0-.598.198c-.038.028-3.811 2.801-8.401 2.801a.999.999 0 0 0-.707 1.707C-6.45 7.961-1.22 7.999-.999 7.999a1 1 0 0 0 .002-2c-.036 0-2.783-.027-5.258-1.268C-2.35 3.981.458 1.906.601 1.799A1 1 0 0 0 0 0" style="fill:#664500;fill-opacity:1;fill-rule:nonzero;stroke:none" transform="matrix(1.25 0 0 -1.25 37.545 29.186)"/><path d="M0 0c-.118.257-2.939 6.291-7.21 6.291-4.249 0-7.546-6.007-7.684-6.262a.5.5 0 0 1 .751-.629c.032.025 3.163 2.48 6.933 2.48 3.743 0 6.388-2.43 6.414-2.454A.501.501 0 0 1 0 0" style="fill:#664500;fill-opacity:1;fill-rule:nonzero;stroke:none" transform="matrix(1.25 0 0 -1.25 31.864 38.926)"/><path d="M0 0a.5.5 0 0 0-1 0v6a.5.5 0 0 0 1 0z" style="fill:#5dadec;fill-opacity:1;fill-rule:nonzero;stroke:none" transform="translate(39.537 32.398)scale(1.25)"/><path d="M0 0a.5.5 0 0 0-.5-.866l-5.196 3a.5.5 0 1 0 .5.866z" style="fill:#5dadec;fill-opacity:1;fill-rule:nonzero;stroke:none" transform="translate(42.472 34.814)scale(1.25)"/><path d="M0 0a.5.5 0 0 1 .5-.866l5.196 3a.5.5 0 1 1-.5.866z" style="fill:#5dadec;fill-opacity:1;fill-rule:nonzero;stroke:none" transform="translate(35.351 34.814)scale(1.25)"/><path d="M0 0a.5.5 0 0 0-1 0v6a.5.5 0 0 0 1 0z" style="fill:#5dadec;fill-opacity:1;fill-rule:nonzero;stroke:none" transform="matrix(1.25 0 0 -1.25 6.072 35.452)"/><path d="M0 0a.5.5 0 0 0-.5-.866l-5.196 3a.5.5 0 1 0 .5.866z" style="fill:#5dadec;fill-opacity:1;fill-rule:nonzero;stroke:none" transform="matrix(1.25 0 0 -1.25 9.007 33.036)"/><path d="M0 0a.5.5 0 0 1 .5-.866l5.196 3a.5.5 0 1 1-.5.866z" style="fill:#5dadec;fill-opacity:1;fill-rule:nonzero;stroke:none" transform="matrix(1.25 0 0 -1.25 1.886 33.036)"/><g clip-path="url(#a)"><g style="fill:#bdddf4;fill-opacity:1;stroke:none;stroke-width:.47999999;stroke-linecap:butt;stroke-linejoin:bevel;stroke-miterlimit:4;stroke-dasharray:none;stroke-opacity:1"><path d="M0 0a.5.5 0 0 0-1 0v6a.5.5 0 0 0 1 0z" style="fill:#bdddf4;fill-opacity:1;fill-rule:nonzero;stroke:none;stroke-width:.47999999;stroke-linecap:butt;stroke-linejoin:bevel;stroke-miterlimit:4;stroke-dasharray:none;stroke-opacity:1" transform="translate(40.722 -15.195)scale(4.14964)"/></g><g style="fill:#bdddf4;fill-opacity:1;stroke:none;stroke-width:.47999999;stroke-linecap:butt;stroke-linejoin:bevel;stroke-miterlimit:4;stroke-dasharray:none;stroke-opacity:1"><path d="M0 0a.5.5 0 0 0-.5-.866l-5.196 3a.5.5 0 1 0 .5.866z" style="fill:#bdddf4;fill-opacity:1;fill-rule:nonzero;stroke:none;stroke-width:.47999999;stroke-linecap:butt;stroke-linejoin:bevel;stroke-miterlimit:4;stroke-dasharray:none;stroke-opacity:1" transform="translate(57.793 -3.018)scale(4.14964)"/></g><g style="fill:#bdddf4;fill-opacity:1;stroke:none;stroke-width:.47999999;stroke-linecap:butt;stroke-linejoin:bevel;stroke-miterlimit:4;stroke-dasharray:none;stroke-opacity:1"><path d="M0 0a.5.5 0 0 1 .5-.866l5.196 3a.5.5 0 1 1-.5.866z" style="fill:#bdddf4;fill-opacity:1;fill-rule:nonzero;stroke:none;stroke-width:.47999999;stroke-linecap:butt;stroke-linejoin:bevel;stroke-miterlimit:4;stroke-dasharray:none;stroke-opacity:1" transform="translate(34.112 5.39)scale(4.14964)"/></g></g><g style="stroke:none;stroke-width:.60000002;stroke-linecap:butt;stroke-linejoin:bevel;stroke-miterlimit:4;stroke-dasharray:none;stroke-opacity:1"><g style="stroke:none;stroke-width:.47999999;stroke-linecap:butt;stroke-linejoin:bevel;stroke-miterlimit:4;stroke-dasharray:none;stroke-opacity:1"><path d="M0 0a.5.5 0 0 0-1 0v6a.5.5 0 0 0 1 0z" style="fill:#5dadec;fill-opacity:1;fill-rule:nonzero;stroke:none;stroke-width:.47999999;stroke-linecap:butt;stroke-linejoin:bevel;stroke-miterlimit:4;stroke-dasharray:none;stroke-opacity:1" transform="translate(39.297 1.86)scale(1.25)"/></g><g style="stroke:none;stroke-width:.47999999;stroke-linecap:butt;stroke-linejoin:bevel;stroke-miterlimit:4;stroke-dasharray:none;stroke-opacity:1"><path d="M0 0a.5.5 0 0 0-.5-.866l-5.196 3a.5.5 0 1 0 .5.866z" style="fill:#5dadec;fill-opacity:1;fill-rule:nonzero;stroke:none;stroke-width:.47999999;stroke-linecap:butt;stroke-linejoin:bevel;stroke-miterlimit:4;stroke-dasharray:none;stroke-opacity:1" transform="translate(42.232 4.275)scale(1.25)"/></g><g style="stroke:none;stroke-width:.47999999;stroke-linecap:butt;stroke-linejoin:bevel;stroke-miterlimit:4;stroke-dasharray:none;stroke-opacity:1"><path d="M0 0a.5.5 0 0 1 .5-.866l5.196 3a.5.5 0 1 1-.5.866z" style="fill:#5dadec;fill-opacity:1;fill-rule:nonzero;stroke:none;stroke-width:.47999999;stroke-linecap:butt;stroke-linejoin:bevel;stroke-miterlimit:4;stroke-dasharray:none;stroke-opacity:1" transform="translate(35.111 4.275)scale(1.25)"/></g></g></svg>