<svg xmlns="http://www.w3.org/2000/svg" width="210mm" height="297mm" viewBox="0 0 210 297"><g transform="matrix(.89281 0 0 .89282 25.09 6.587)"><rect width=".614" height="8.288" x="-71.441" y="195.432" ry=".307" style="fill:#d99e82;fill-opacity:1;fill-rule:evenodd;stroke-width:.218215;stroke-linecap:round;stroke-linejoin:round" transform="rotate(-45)"/><path d="M90.812 191.41c-.251.252-.342.62-.146.763l.408.297c.196.144.455.16.707-.09.251-.252.234-.511.09-.707l-.297-.408c-.143-.196-.51-.106-.762.146" style="fill:#933813;fill-opacity:1;fill-rule:evenodd;stroke-width:.0459031;stroke-linecap:round;stroke-linejoin:round"/><path d="M84.7 185.298c-.985.985-.703 2.63.582 3.708l2.672 2.241c1.285 1.078 2.507 1.782 3.492.798.985-.985.28-2.207-.798-3.493l-2.241-2.67c-1.079-1.286-2.723-1.568-3.707-.584" style="fill:#c15829;fill-opacity:1;fill-rule:evenodd;stroke-width:.239747;stroke-linecap:round;stroke-linejoin:round"/></g><path d="M93.676 180.13s1.089-.36 1.393-.01-.508 1.028-.204 1.378c.305.351 1.09-.36 1.394-.01.305.35-.509 1.028-.204 1.379.305.35 1.089-.36 1.393-.01s-.508 1.028-.204 1.378 1.394-.01 1.394-.01" style="fill:none;fill-opacity:1;stroke:#ffcc4d;stroke-width:.5;stroke-linecap:round;stroke-linejoin:round;stroke-miterlimit:4;stroke-dasharray:none;stroke-opacity:1" transform="translate(7.915 -7.823)"/></svg>