<svg xmlns="http://www.w3.org/2000/svg" xml:space="preserve" viewBox="0 0 45 45"><path d="M45 22.736c0 12.426-10.073 22.5-22.5 22.5-12.424 0-22.5-10.074-22.5-22.5S10.077.236 22.5.236c12.427 0 22.5 10.075 22.5 22.5" style="fill:#ffcc4d;fill-opacity:1;fill-rule:nonzero;stroke:none"/><path d="M0 0a5 5 0 0 0-5-5 5 5 0 0 0-5 5 5 5 0 0 0 5 5 5 5 0 0 0 5-5" style="fill:#ff7892;fill-opacity:1;fill-rule:nonzero;stroke:none" transform="matrix(1.25 0 0 -1.25 42.5 28.75)"/><path d="M0 0a5 5 0 0 0-5-5 5 5 0 0 0-5 5 5 5 0 0 0 5 5 5 5 0 0 0 5-5" style="fill:#ff7892;fill-opacity:1;fill-rule:nonzero;stroke:none" transform="matrix(1.25 0 0 -1.25 15 28.75)"/><g style="fill:#664500;fill-opacity:1"><path d="M0 0s1-4 5-4 5 4 5 4-1-1-5-1-5 1-5 1" style="fill:#664500;fill-opacity:1;stroke:#664500;stroke-width:.82359511;stroke-linecap:round;stroke-linejoin:round;stroke-miterlimit:4;stroke-dasharray:none;stroke-opacity:1" transform="matrix(1.6389 0 0 -1.40552 14.306 32.245)"/></g><g style="fill:#664500;fill-opacity:1"><path d="M0 0c0-1.934-1.119-3.5-2.5-3.5S-5-1.934-5 0s1.119 3.5 2.5 3.5S0 1.933 0 0" style="fill:#664500;fill-opacity:1;fill-rule:nonzero;stroke:none" transform="matrix(2.19063 0 0 -1.88135 35.807 19.491)"/></g><g style="fill:#fff;fill-opacity:1"><path d="M0 0c0-1.934-1.119-3.5-2.5-3.5S-5-1.934-5 0s1.119 3.5 2.5 3.5S0 1.933 0 0" style="fill:#fff;fill-opacity:1;fill-rule:nonzero;stroke:none" transform="matrix(.9556 0 0 -.82069 31.656 18.379)"/></g><g style="fill:#fff;fill-opacity:1"><path d="M0 0c0-1.934-1.119-3.5-2.5-3.5S-5-1.934-5 0s1.119 3.5 2.5 3.5S0 1.933 0 0" style="fill:#fff;fill-opacity:1;fill-rule:nonzero;stroke:none" transform="matrix(.4116 0 0 -.35349 33.551 22.268)"/></g><g transform="rotate(20 14.74 -11.599)"><path d="M31.384 20.544c-4.07-4.07-8.21-2.45-8.993-2.158-1.395.522-3.714 2.74-3.714 3.18-.002.688.557.807 1.247.808 2.4-.71 2.69-.915-1.424 1.803a1.25 1.25 0 0 0 1.5 2c.046-.035 4.734-3.5 10.5-3.5a1.25 1.25 0 0 0 .884-2.134" style="fill:#664500;fill-opacity:1;fill-rule:nonzero;stroke:none"/><ellipse cx="20.79" cy="24.128" rx="1.941" ry="1.147" style="fill:#fff;fill-opacity:1;stroke:none;stroke-opacity:1" transform="rotate(-10)"/><ellipse cx="26.496" cy="23.858" rx=".927" ry=".656" style="fill:#fff;fill-opacity:1;stroke:none;stroke-opacity:1" transform="rotate(-5)"/></g><path d="M22.53 42.114c-5.813-.012-6.026-8.477-2.459-8.477.94 0 1.498.933 2.426.933.779 0 1.515-.893 2.481-.893 3.468 0 3.331 8.448-2.449 8.437" style="fill:#e75a70;fill-opacity:1;fill-rule:nonzero;stroke:none"/><path d="M0 0c-5.554 0-7.802 4.367-7.895 4.553a1 1 0 0 0 1.788.898C-6.033 5.306-4.287 2 0 2a1 1 0 1 0 0-2" style="fill:#664500;fill-opacity:1;fill-rule:nonzero;stroke:none" transform="rotate(10 -37.916 107.456)scale(1.25)"/><path d="M0 0a1 1 0 0 0 0 2c5.083 0 5.996 3.12 6.033 3.253.145.528.692.848 1.219.709a.995.995 0 0 0 .718-1.205C7.921 4.563 6.704 0 0 0" style="fill:#664500;fill-opacity:1;fill-rule:nonzero;stroke:none" transform="rotate(-10 60.416 -149.732)scale(1.25)"/></svg>