<svg xmlns="http://www.w3.org/2000/svg" xml:space="preserve" viewBox="0 0 45 45"><path d="M0 0c0-9.941-8.059-18-18-18S-36-9.941-36 0s8.059 18 18 18S0 9.941 0 0" style="fill:#ffcc4d;fill-opacity:1;fill-rule:nonzero;stroke:none" transform="matrix(1.25 0 0 -1.25 45 22.5)"/><path d="M0 0c0-1.934-1.119-3.5-2.5-3.5S-5-1.934-5 0s1.119 3.5 2.5 3.5S0 1.933 0 0" style="fill:#664500;fill-opacity:1;fill-rule:nonzero;stroke:none" transform="matrix(1.25 0 0 -1.25 18.125 18.241)"/><path d="M0 0c0-1.934-1.119-3.5-2.5-3.5S-5-1.934-5 0s1.119 3.5 2.5 3.5S0 1.933 0 0" style="fill:#664500;fill-opacity:1;fill-rule:nonzero;stroke:none" transform="matrix(1.25 0 0 -1.25 33.125 18.241)"/><path d="M39.468 24.594a1.47 1.47 0 0 1-1.038.417c-5.467-.022-8.385 2.788-8.507 2.908-.463.456-1.25.543-1.758.193-.51-.351-.553-1.003-.096-1.463.154-.154 3.82-3.76 10.577-3.735.687.003 1.195.474 1.135 1.053a1.05 1.05 0 0 1-.313.627" style="fill:#f4900c;fill-opacity:1;fill-rule:nonzero;stroke:none" transform="translate(-1.686 -3.44)"/><g style="fill:#f4900c;fill-opacity:1"><path d="M0 0a1 1 0 0 0-.799 1.6C2.463 5.95 6.817 6 7.001 6a1 1 0 0 0 .004-2C6.85 3.998 3.436 3.914.801.4A1 1 0 0 0 0 0" style="fill:#f4900c;fill-opacity:1;fill-rule:nonzero;stroke:none" transform="matrix(.83178 .8357 .92926 -.63267 7.218 21.152)"/></g><path d="M6.78 7.064c1.233.085 2.738-.584 2.662-2.58-.026-.68-.597-.982-1.41.366-.45.746-1.345.736-2.743-.198C3.111 3.381 2.181-2.12 1.048-.273.155 1.18 3.684 6.85 6.78 7.064" style="fill:#664500;fill-opacity:1;fill-rule:nonzero;stroke:none" transform="matrix(.8707 -.96625 .89494 .99818 5.96 14.103)"/><path d="M5.744 6.562c.616.043.798-.483.974.154.44 1.596 3.155-.323 3.258-1.67.082-1.082-2.263 1.078-2.282.579-.026-.681-.322-2.6-1.135-1.252-.45.746-.908.712-2.306-.222C2.074 2.88 1.633-1.922.5-.075c-.892 1.454 2.148 6.423 5.244 6.637" style="fill:#664500;fill-opacity:1;fill-rule:nonzero;stroke:none" transform="matrix(-.73015 -1.1508 -1.01288 .77824 38.578 13.185)"/><path d="M0 0a5 5 0 0 0-5-5 5 5 0 0 0-5 5c0 2.762 4 10 5 10S0 2.762 0 0" style="fill:#5dadec;fill-opacity:1;fill-rule:nonzero;stroke:none" transform="matrix(1.25 0 0 -1.25 13.25 34.225)"/><path d="M22.5 26.235c.315 7.22-.665 8.739 0 12.5 9.254 0 14.106-5.785 15.895-11.25.778-2.376-.62-2.844-2.89-2.5-4.296.722-7.77 1.25-13.005 1.25" style="fill:#664500;fill-opacity:1;fill-rule:nonzero;stroke:none" transform="matrix(.558 0 0 -.96171 9.921 62.758)"/><path d="M22.586 26.235c-.316 7.22.665 8.739 0 12.5-9.254 0-14.107-5.785-15.895-11.25-.778-2.376.62-2.844 2.89-2.5 4.296.722 7.77 1.25 13.005 1.25" style="fill:#664500;fill-opacity:1;fill-rule:nonzero;stroke:none" transform="matrix(.558 0 0 -.96171 9.921 62.758)"/><path d="M22.506 35.816c.319-6.237-.11-5.201 0-8.197 3.479 0 5.154 3.299 6.08 7.98.403 2.038-.338 1.262-1.191 1.036-1.615-.473-2.921-.82-4.89-.82" style="fill:#fff;fill-opacity:1;fill-rule:nonzero;stroke:none" transform="matrix(1.17148 0 0 1 -3.877 0)"/><path d="M22.527 35.816c-.32-6.237.11-5.201 0-8.197-3.48 0-5.155 3.299-6.08 7.98-.403 2.038.338 1.262 1.19 1.036 1.616-.473 2.922-.82 4.89-.82" style="fill:#fff;fill-opacity:1;fill-rule:nonzero;stroke:none" transform="matrix(1.17148 0 0 1 -3.877 0)"/><path d="M25.977 28.657s.38 4.608-.065 8.409l1.854.1c.288-2.463.228-5.315.15-7.01-.321-.823-.54-.311-1.064-1.497z" style="color:#000;font-style:normal;font-variant:normal;font-weight:400;font-stretch:normal;font-size:medium;line-height:normal;font-family:sans-serif;text-indent:0;text-align:start;text-decoration:none;text-decoration-line:none;text-decoration-style:solid;text-decoration-color:#000;letter-spacing:normal;word-spacing:normal;text-transform:none;direction:ltr;block-progression:tb;writing-mode:lr-tb;baseline-shift:baseline;text-anchor:start;white-space:normal;clip-rule:nonzero;display:inline;overflow:visible;visibility:visible;opacity:1;isolation:auto;mix-blend-mode:normal;color-interpolation:sRGB;color-interpolation-filters:linearRGB;solid-color:#000;solid-opacity:1;fill:#664500;fill-opacity:1;fill-rule:evenodd;stroke:none;stroke-width:.80000001px;stroke-linecap:butt;stroke-linejoin:miter;stroke-miterlimit:4;stroke-dasharray:none;stroke-dashoffset:0;stroke-opacity:1;color-rendering:auto;image-rendering:auto;shape-rendering:auto;text-rendering:auto" transform="matrix(1.17148 0 0 1 -4.045 0)"/><path d="M28.17 24.28s.318 5.198-.054 9.486l1.55.114c.37-4.28.051-9.595.051-9.595z" style="color:#000;font-style:normal;font-variant:normal;font-weight:400;font-stretch:normal;font-size:medium;line-height:normal;font-family:sans-serif;text-indent:0;text-align:start;text-decoration:none;text-decoration-line:none;text-decoration-style:solid;text-decoration-color:#000;letter-spacing:normal;word-spacing:normal;text-transform:none;direction:ltr;block-progression:tb;writing-mode:lr-tb;baseline-shift:baseline;text-anchor:start;white-space:normal;clip-rule:nonzero;display:inline;overflow:visible;visibility:visible;opacity:1;isolation:auto;mix-blend-mode:normal;color-interpolation:sRGB;color-interpolation-filters:linearRGB;solid-color:#000;solid-opacity:1;fill:#664500;fill-opacity:1;fill-rule:evenodd;stroke:none;stroke-width:.80000001px;stroke-linecap:butt;stroke-linejoin:miter;stroke-miterlimit:4;stroke-dasharray:none;stroke-dashoffset:0;stroke-opacity:1;color-rendering:auto;image-rendering:auto;shape-rendering:auto;text-rendering:auto" transform="matrix(1.17148 0 0 1 -11.673 3.17)"/><path d="M30.17 24.28s-.317 5.198.055 9.486l-1.549.114c-.37-4.28-.052-9.595-.052-9.595z" style="color:#000;font-style:normal;font-variant:normal;font-weight:400;font-stretch:normal;font-size:medium;line-height:normal;font-family:sans-serif;text-indent:0;text-align:start;text-decoration:none;text-decoration-line:none;text-decoration-style:solid;text-decoration-color:#000;letter-spacing:normal;word-spacing:normal;text-transform:none;direction:ltr;block-progression:tb;writing-mode:lr-tb;baseline-shift:baseline;text-anchor:start;white-space:normal;clip-rule:nonzero;display:inline;overflow:visible;visibility:visible;opacity:1;isolation:auto;mix-blend-mode:normal;color-interpolation:sRGB;color-interpolation-filters:linearRGB;solid-color:#000;solid-opacity:1;fill:#664500;fill-opacity:1;fill-rule:evenodd;stroke:none;stroke-width:.80000001px;stroke-linecap:butt;stroke-linejoin:miter;stroke-miterlimit:4;stroke-dasharray:none;stroke-dashoffset:0;stroke-opacity:1;color-rendering:auto;image-rendering:auto;shape-rendering:auto;text-rendering:auto" transform="matrix(1.17148 0 0 1 -11.673 3.17)"/><path d="M19.341 28.657s-.38 4.608.065 8.409l-1.853.1c-.288-2.463-.228-5.315-.151-7.01.322-.823.54-.311 1.065-1.497z" style="color:#000;font-style:normal;font-variant:normal;font-weight:400;font-stretch:normal;font-size:medium;line-height:normal;font-family:sans-serif;text-indent:0;text-align:start;text-decoration:none;text-decoration-line:none;text-decoration-style:solid;text-decoration-color:#000;letter-spacing:normal;word-spacing:normal;text-transform:none;direction:ltr;block-progression:tb;writing-mode:lr-tb;baseline-shift:baseline;text-anchor:start;white-space:normal;clip-rule:nonzero;display:inline;overflow:visible;visibility:visible;opacity:1;isolation:auto;mix-blend-mode:normal;color-interpolation:sRGB;color-interpolation-filters:linearRGB;solid-color:#000;solid-opacity:1;fill:#664500;fill-opacity:1;fill-rule:evenodd;stroke:none;stroke-width:.80000001px;stroke-linecap:butt;stroke-linejoin:miter;stroke-miterlimit:4;stroke-dasharray:none;stroke-dashoffset:0;stroke-opacity:1;color-rendering:auto;image-rendering:auto;shape-rendering:auto;text-rendering:auto" transform="matrix(1.17148 0 0 1 -4.045 0)"/></svg>