<svg xmlns="http://www.w3.org/2000/svg" xml:space="preserve" viewBox="0 0 45 45"><path fill="#ea596e" d="M120.237 238.964a4 4 0 0 1-4 4H88.228a4 4 0 0 1-4.001-4v-28.008a4 4 0 0 1 4-4.001h28.008a4 4 0 0 1 4.001 4.001z" style="fill:#f4abba;fill-opacity:1;stroke-width:1.00027" transform="translate(-105.256 -258.488)scale(1.24966)"/><g fill="#fff"><path d="M59.416 145.796c-4.688 0-8.502-3.814-8.502-8.503 0-4.688 3.814-8.502 8.502-8.502s8.502 3.814 8.502 8.502-3.814 8.503-8.502 8.503m0-14.004a5.51 5.51 0 0 0-5.502 5.501 5.51 5.51 0 0 0 5.502 5.502 5.51 5.51 0 0 0 5.501-5.502 5.51 5.51 0 0 0-5.501-5.501" style="stroke-width:1.00027" transform="translate(-51.75 -153.935)scale(1.24966)"/><path d="M59.416 154.798a1.5 1.5 0 0 1-1.5-1.5v-9.003a1.5 1.5 0 1 1 3 0v9.003a1.5 1.5 0 0 1-1.5 1.5" style="stroke-width:1.00026" transform="translate(-51.75 -153.935)scale(1.24966)"/><path d="M59 150.797h-4.46a1.5 1.5 0 1 1 0-3H59a1.5 1.5 0 1 1 0 3" style="stroke-width:1.00026" transform="translate(-51.75 -153.935)scale(1.24966)"/></g></svg>