<svg xmlns="http://www.w3.org/2000/svg" xml:space="preserve" viewBox="0 0 45 45"><defs><clipPath id="a" clipPathUnits="userSpaceOnUse"/></defs><path d="M.297 25.733v8.961a5 5 0 0 0 5 5h35a5 5 0 0 0 5-5v-8.96z" style="fill:#d2d2d2;fill-opacity:1;fill-rule:nonzero;stroke:none" transform="matrix(1 0 0 1.02558 0 -1.015)"/><path d="M45.297 25.733V13.708c0-3.15-2.239-5.703-5-5.703h-35c-2.761 0-5 2.553-5 5.703v12.025z" style="fill:#fff;fill-opacity:1;fill-rule:nonzero;stroke:none" transform="matrix(1 0 0 1.02558 0 -1.015)"/><path d="M.297 26.74v-5.89h45v6z" style="opacity:1;fill:#3da542;fill-opacity:1;fill-rule:nonzero;stroke:none;stroke-width:.51560277;stroke-linecap:round;stroke-linejoin:round;stroke-miterlimit:4;stroke-dasharray:none;stroke-dashoffset:0;stroke-opacity:1" transform="matrix(1 0 0 1.02558 0 -1.015)"/><path d="M14.295 36.291h-29.371L-.391 10.855z" clip-path="url(#a)" style="fill:#000;fill-opacity:1;stroke:none;stroke-width:.37795275;stroke-linecap:round;stroke-linejoin:round;stroke-miterlimit:4;stroke-dasharray:none;stroke-opacity:1;paint-order:markers fill stroke" transform="matrix(0 1.10652 -.83711 0 30.677 23.877)"/></svg>