<svg xmlns="http://www.w3.org/2000/svg" xml:space="preserve" viewBox="0 0 45 45"><defs><clipPath id="a" clipPathUnits="userSpaceOnUse"><path d="M45.248 12.828c0-3.15-2.238-5.703-4.999-5.703H5.247c-2.761 0-4.999 2.553-4.999 5.703v21.797a5 5 0 0 0 4.999 5h35.002a5 5 0 0 0 4.999-5V24.143z" style="fill:#8a1e04;fill-opacity:1;fill-rule:nonzero;stroke:none"/></clipPath></defs><g clip-path="url(#a)" transform="translate(-.011 -.037)"><path d="M45.248 23.027V12.828c0-3.15-2.238-5.703-4.999-5.703H5.247c-2.761 0-4.999 2.553-4.999 5.703v10.785m0 1.646v9.366a5 5 0 0 0 4.999 5h35.002a5 5 0 0 0 4.999-5v-9.366" style="fill:#7f7f7f;fill-opacity:1;fill-rule:nonzero;stroke:none"/><path d="M.248 21.894h45v4.64h-45z" style="opacity:1;fill:#fff;fill-opacity:1;fill-rule:nonzero;stroke:none;stroke-width:.59981906;stroke-linecap:round;stroke-linejoin:round;stroke-miterlimit:4;stroke-dasharray:none;stroke-dashoffset:0;stroke-opacity:1" transform="matrix(1 0 0 1.03788 0 -1.756)"/><path d="M.248 26.534h45v4.64h-45z" style="opacity:1;fill:#9ad9ea;fill-opacity:1;fill-rule:nonzero;stroke:none;stroke-width:.59981906;stroke-linecap:round;stroke-linejoin:round;stroke-miterlimit:4;stroke-dasharray:none;stroke-dashoffset:0;stroke-opacity:1" transform="matrix(1 0 0 1.03788 0 -1.756)"/><path d="M.248 31.174h45v4.64h-45z" style="opacity:1;fill:#c4c4c4;fill-opacity:1;fill-rule:nonzero;stroke:none;stroke-width:.59981906;stroke-linecap:round;stroke-linejoin:round;stroke-miterlimit:4;stroke-dasharray:none;stroke-dashoffset:0;stroke-opacity:1" transform="matrix(1 0 0 1.03788 0 -1.756)"/><path d="M.248 17.254h45v4.64h-45z" style="opacity:1;fill:#9ad9ea;fill-opacity:1;fill-rule:nonzero;stroke:none;stroke-width:.59981906;stroke-linecap:round;stroke-linejoin:round;stroke-miterlimit:4;stroke-dasharray:none;stroke-dashoffset:0;stroke-opacity:1" transform="matrix(1 0 0 1.03788 0 -1.756)"/><path d="M.248 12.614h45v4.64h-45z" style="opacity:1;fill:#c4c4c4;fill-opacity:1;fill-rule:nonzero;stroke:none;stroke-width:.59981906;stroke-linecap:round;stroke-linejoin:round;stroke-miterlimit:4;stroke-dasharray:none;stroke-dashoffset:0;stroke-opacity:1" transform="matrix(1 0 0 1.03788 0 -1.756)"/></g></svg>