<svg xmlns="http://www.w3.org/2000/svg" xml:space="preserve" viewBox="0 0 45 45"><path fill="#269" d="M160.263 238.24a4 4 0 0 1-4.002 4.001h-28.007a4 4 0 0 1-4.001-4v-28.008a4 4 0 0 1 4-4.002h28.008a4 4 0 0 1 4.002 4.002z" style="fill:#5dadec;fill-opacity:1;stroke-width:1.00028" transform="translate(-155.273 -257.582)scale(1.24965)"/><g fill="#fff"><path d="M56.415 195.25c-4.688 0-8.502-3.815-8.502-8.503s3.814-8.502 8.502-8.502 8.502 3.814 8.502 8.502-3.814 8.502-8.502 8.502m0-14.004a5.51 5.51 0 0 0-5.501 5.501 5.51 5.51 0 0 0 5.501 5.502 5.51 5.51 0 0 0 5.502-5.502 5.51 5.51 0 0 0-5.502-5.501" style="stroke-width:1.00028" transform="translate(-51.75 -205.734)scale(1.24965)"/><path d="M69.919 171.743h-8.972a1.5 1.5 0 1 0 0 3h5.35l-7.002 6.882 2.121 2.121 10.003-10.503a1.5 1.5 0 0 0-1.5-1.5" style="stroke-width:1.00028" transform="translate(-51.75 -205.734)scale(1.24965)"/></g></svg>