<svg xmlns="http://www.w3.org/2000/svg" xml:space="preserve" viewBox="0 0 45 45"><path d="M0 0c0-9.941-8.059-18-18-18-9.94 0-18 8.059-18 18 0 9.94 8.06 18 18 18C-8.059 18 0 9.94 0 0" style="fill:#ffcc4d;fill-opacity:1;fill-rule:nonzero;stroke:none" transform="matrix(1.25 0 0 -1.25 45 22.736)"/><path d="M3.649-11.196c0-1.934-1.12-3.5-2.5-3.5-1.381 0-2.5 1.566-2.5 3.5s1.119 3.5 2.5 3.5c1.38 0 2.5-1.567 2.5-3.5" style="fill:#664500;fill-opacity:1;fill-rule:nonzero;stroke:none" transform="matrix(1.01294 0 0 -1.25044 34.155 18.843)"/><path d="M3.649-11.196c0-1.934-1.12-3.5-2.5-3.5-1.381 0-2.5 1.566-2.5 3.5s1.119 3.5 2.5 3.5c1.38 0 2.5-1.567 2.5-3.5" style="fill:#664500;fill-opacity:1;fill-rule:nonzero;stroke:none" transform="matrix(1.25044 0 0 -1.25044 14.22 19.53)"/><g style="fill:#ffcc4d;fill-opacity:1;stroke:#ffcc4d;stroke-opacity:1"><path d="M.536.018S4 1 6-1" style="fill:#ffcc4d;fill-opacity:1;stroke:#ffcc4d;stroke-width:2;stroke-linecap:round;stroke-linejoin:round;stroke-miterlimit:4;stroke-dasharray:none;stroke-opacity:1" transform="matrix(1.12724 .4156 -.41028 1.14185 31.823 27.134)"/></g><g style="fill:#ffcc4d;fill-opacity:1;stroke:#ffcc4d;stroke-opacity:1"><path d="M.536.018S4 1 6-1" style="fill:#ffcc4d;fill-opacity:1;stroke:#ffcc4d;stroke-width:2;stroke-linecap:round;stroke-linejoin:round;stroke-miterlimit:4;stroke-dasharray:none;stroke-opacity:1" transform="matrix(1.12724 .4156 -.41028 1.14185 10.786 28.195)"/></g><path d="M.536.018S4 1 6-1" style="fill:none;stroke:#664500;stroke-width:2;stroke-linecap:round;stroke-linejoin:round;stroke-miterlimit:4;stroke-dasharray:none;stroke-opacity:1" transform="matrix(1.12724 .4156 -.41028 1.14185 31.775 28.844)"/><path d="M.02-.225s-4 1-6-1" style="fill:none;stroke:#664500;stroke-width:2;stroke-linecap:round;stroke-linejoin:round;stroke-miterlimit:4;stroke-dasharray:none;stroke-opacity:1" transform="rotate(-20 94.321 -39.189)scale(1.27941)"/><path d="M-9 .984c-.679.19-2 0-2-2.892C-11-7.69-6.405-14.92 0-14.92c6.404 0 12.582 6.315 12.582 12.098 0 2.892-3.858 1.732-4.537 1.541-2.973-.835-4.97-.506-8.428-.4C-3.843-1.575-6.027.148-9 .984" style="fill:#664500;fill-opacity:1;fill-rule:nonzero;stroke:none" transform="matrix(.9622 -.08418 .0211 .24115 23.961 41.125)"/><path d="M0 0a5 5 0 0 0-5-5 5 5 0 0 0-5 5c0 2.762 4 10 5 10S0 2.762 0 0" style="fill:#5dadec;fill-opacity:1;fill-rule:nonzero;stroke:none" transform="matrix(1.25 0 0 -1.25 14.46 19.918)"/></svg>