<svg xmlns="http://www.w3.org/2000/svg" xml:space="preserve" viewBox="0 0 45 45"><path d="M45.03 22.5c0 12.426-10.074 22.5-22.5 22.5S.03 34.926.03 22.5 10.103 0 22.53 0s22.5 10.075 22.5 22.5" style="fill:#ffcc4d;fill-opacity:1;fill-rule:nonzero;stroke:none"/><path d="M0 0c-5.554 0-7.802 4.367-7.895 4.553a1 1 0 0 0 1.788.898C-6.033 5.306-4.287 2 0 2a1 1 0 1 0 0-2" style="fill:#664500;fill-opacity:1;fill-rule:nonzero;stroke:none" transform="matrix(1.25 0 0 -1.25 36.28 17.136)"/><path d="M0 0a1 1 0 0 0 0 2c5.083 0 5.996 3.12 6.033 3.253.145.528.692.848 1.219.709a.995.995 0 0 0 .718-1.205C7.921 4.563 6.704 0 0 0" style="fill:#664500;fill-opacity:1;fill-rule:nonzero;stroke:none" transform="matrix(1.25 0 0 -1.25 8.78 17.136)"/><path d="M-5.485 4.379c-2.95 0-6.92-4.595-4.088-4.595.98.027.463.299 4.107.299" style="fill:#664500;fill-opacity:1;fill-rule:nonzero;stroke:none" transform="matrix(1.89673 0 0 -2.39104 32.951 38.438)"/><path d="M-5.485 4.379c-2.95 0-6.92-4.595-4.088-4.595.98.027.463.299 4.107.299" style="fill:#664500;fill-opacity:1;fill-rule:nonzero;stroke:none" transform="matrix(-1.89673 0 0 -2.39104 12.107 38.438)"/><path d="M36.903 64.18c-5.811-.012-6.024-8.477-2.457-8.477.94 0 1.498.932 2.425.932.78 0 1.516-.893 2.482-.893 3.467 0 3.33 8.449-2.45 8.437" style="fill:#e75a70;fill-opacity:1;fill-rule:nonzero;stroke:none" transform="translate(-14.346 -22.539)"/><path d="M0 0a1 1 0 0 0-.601 1.8c.143.107 2.951 2.182 6.856 2.932C3.78 5.973 1.033 6 .998 6a1 1 0 0 0 .001 2c.221 0 5.452-.038 8.707-3.293A1 1 0 0 0 8.999 3C4.386 3 .636.227.599.2A1 1 0 0 0 0 0" style="fill:#664500;fill-opacity:1;fill-rule:nonzero;stroke:none" transform="matrix(1.25 0 0 -1.25 7.53 29.188)"/><path d="M0 0a1 1 0 0 0-.598.198c-.038.028-3.811 2.801-8.401 2.801a.999.999 0 0 0-.707 1.707C-6.45 7.961-1.22 7.999-.999 7.999a1 1 0 0 0 .002-2c-.036 0-2.783-.027-5.258-1.268C-2.35 3.981.458 1.906.601 1.799A1 1 0 0 0 0 0" style="fill:#664500;fill-opacity:1;fill-rule:nonzero;stroke:none" transform="matrix(1.25 0 0 -1.25 37.528 29.186)"/></svg>