<svg xmlns="http://www.w3.org/2000/svg" xml:space="preserve" viewBox="0 0 45 45"><path d="M0 0c0-9.941-8.059-18-18-18S-36-9.941-36 0s8.059 18 18 18S0 9.941 0 0" style="fill:#ffcc4d;fill-opacity:1;fill-rule:nonzero;stroke:none" transform="matrix(1.25 0 0 -1.25 45 22.5)"/><path d="M0 0c-5.554 0-7.802 4.367-7.895 4.553a1 1 0 0 0 1.788.898C-6.033 5.306-4.287 2 0 2a1 1 0 1 0 0-2" style="fill:#664500;fill-opacity:1;fill-rule:nonzero;stroke:none" transform="translate(36.25 9.937)scale(1.25)"/><path d="M0 0a1 1 0 0 0 0 2c5.083 0 5.996 3.12 6.033 3.253.145.528.692.848 1.219.709a.995.995 0 0 0 .718-1.205C7.921 4.563 6.704 0 0 0" style="fill:#664500;fill-opacity:1;fill-rule:nonzero;stroke:none" transform="translate(8.75 9.937)scale(1.25)"/><path d="M0 0a1 1 0 0 0-.601 1.8c.143.107 2.951 2.182 6.856 2.932C3.78 5.973 1.033 6 .998 6a1 1 0 0 0 .001 2c.221 0 5.452-.038 8.707-3.293A1 1 0 0 0 8.999 3C4.386 3 .636.227.599.2A1 1 0 0 0 0 0" style="fill:#664500;fill-opacity:1;fill-rule:nonzero;stroke:none" transform="matrix(1.25 0 0 -1.25 7.501 28.75)"/><path d="M0 0a1 1 0 0 0-.598.198c-.038.028-3.811 2.801-8.401 2.801a.999.999 0 0 0-.707 1.707C-6.45 7.961-1.22 7.999-.999 7.999a1 1 0 0 0 .002-2c-.036 0-2.783-.027-5.258-1.268C-2.35 3.981.458 1.906.601 1.799A1 1 0 0 0 0 0" style="fill:#664500;fill-opacity:1;fill-rule:nonzero;stroke:none" transform="matrix(1.25 0 0 -1.25 37.499 28.749)"/><path d="M0 0c-.118.257-2.939 6.291-7.21 6.291-4.249 0-7.546-6.007-7.684-6.262a.5.5 0 0 1 .751-.629c.032.025 3.163 2.48 6.933 2.48 3.743 0 6.388-2.43 6.414-2.454A.501.501 0 0 1 0 0" style="fill:#664500;fill-opacity:1;fill-rule:nonzero;stroke:none" transform="matrix(1.25 0 0 -1.25 31.818 38.489)"/><path d="M0 0a5 5 0 0 0-5-5 5 5 0 0 0-5 5c0 2.762 4 10 5 10S0 2.762 0 0" style="fill:#5dadec;fill-opacity:1;fill-rule:nonzero;stroke:none" transform="matrix(1.25 0 0 -1.25 43.814 13.633)"/><g style="fill:#b55005;fill-opacity:1"><path d="M0 0s-1.394 1.291-.103 2.686c1.291 1.393 2.686.101 2.686.101l6.471-5.994c-.102.096.45.879.368.955L.44 6.067S-.954 7.358.337 8.751c1.292 1.394 2.686.103 2.686.103l8.448-7.825c-.02.018.609.731.597.742l-9.794 9.072s-1.394 1.291-.103 2.685c1.292 1.393 2.686.102 2.686.102l9.793-9.072c.012-.01.683.664.703.645l-9.154 8.479s-1.394 1.291-.103 2.685c1.292 1.393 2.686.102 2.686.102l9.679-8.965c2.866-2.655 3.512-1.958 3.512-1.958l-2.588 2.397-2.989 2.767s-1.394 1.291-.102 2.685 2.685.104 2.685.104l7.667-7.102c4.618-4.278 4.895-11.491.616-16.11-4.278-4.619-11.492-4.894-16.111-.617-.244.226-.682.663-.663.684l-.033-.038z" style="fill:#b55005;fill-opacity:1;fill-rule:nonzero;stroke:none" transform="rotate(165 11.513 15.135)scale(.86822)"/></g><path d="M25.768 26.093s.88-1.395-.517-2.274c-1.396-.88-2.275.516-2.275.516l-4.08 6.483c.065-.104-.575-.637-.523-.719l5.663-8.995s.879-1.396-.517-2.275-2.275.517-2.275.517l-5.326 8.462c.012-.02-.676-.476-.668-.488l6.175-9.81s.879-1.395-.517-2.274-2.275.517-2.275.517l-6.175 9.808c-.008.013-.721-.402-.734-.382l5.77-9.168s.88-1.396-.516-2.274-2.275.517-2.275.517L8.6 23.95c-1.806 2.87-2.506 2.43-2.506 2.43l1.633-2.592 1.884-2.992s.878-1.396-.517-2.275c-1.397-.878-2.276.517-2.276.517l-4.833 7.678C-.927 31.341.462 37.453 5.088 40.365s10.737 1.522 13.65-3.104c.154-.244.423-.709.402-.721l.037.024z" style="fill:#f4900c;fill-opacity:1;fill-rule:nonzero;stroke:none"/></svg>