<svg xmlns="http://www.w3.org/2000/svg" xml:space="preserve" viewBox="0 0 45 45"><path d="M0 0c0-9.941-8.059-18-18-18-9.94 0-18 8.059-18 18 0 9.94 8.06 18 18 18C-8.059 18 0 9.94 0 0" style="fill:#ffcc4d;fill-opacity:1;fill-rule:nonzero;stroke:none" transform="matrix(1.25 0 0 -1.25 45 22.736)"/><path d="M0 0a5 5 0 0 0-5-5 5 5 0 0 0-5 5c0 2.762 4 10 5 10S0 2.762 0 0" style="fill:#5dadec;fill-opacity:1;fill-rule:nonzero;stroke:none" transform="matrix(.48102 0 0 -.48102 43.638 27.022)"/><path d="M0 0a5 5 0 0 0-5-5 5 5 0 0 0-5 5c0 2.762 4 10 5 10S0 2.762 0 0" style="fill:#5dadec;fill-opacity:1;fill-rule:nonzero;stroke:none" transform="matrix(.34502 0 0 -.34502 11.523 37.674)"/><path d="M0 0a5 5 0 0 0-5-5 5 5 0 0 0-5 5c0 2.762 4 10 5 10S0 2.762 0 0" style="fill:#5dadec;fill-opacity:1;fill-rule:nonzero;stroke:none" transform="matrix(.5429 0 0 -.5429 6.604 19.31)"/><path d="M0 0c0-1.934-1.119-3.5-2.5-3.5S-5-1.934-5 0s1.119 3.5 2.5 3.5S0 1.933 0 0" style="fill:#664500;fill-opacity:1;fill-rule:nonzero;stroke:none" transform="matrix(1.25 0 0 -1.25 18.125 19.559)"/><path d="M0 0c0-1.934-1.119-3.5-2.5-3.5S-5-1.934-5 0s1.119 3.5 2.5 3.5S0 1.933 0 0" style="fill:#664500;fill-opacity:1;fill-rule:nonzero;stroke:none" transform="matrix(1.25 0 0 -1.25 33.125 19.559)"/><g style="fill:#ffcc4d;fill-opacity:1"><path d="M38.15 15.518a1.5 1.5 0 0 0-1.182-.263c-5.793 1.152-9.44-1.465-9.592-1.579-.58-.426-1.432-.363-1.902.143-.471.507-.389 1.263.187 1.696.192.144 4.79 3.52 11.948 2.098.728-.144 1.173-.79.996-1.44a1.22 1.22 0 0 0-.454-.655" style="fill:#ffcc4d;fill-opacity:1;fill-rule:nonzero;stroke:none" transform="matrix(.87951 0 0 1.49294 3.133 -7.933)"/><g style="fill:#ffcc4d;fill-opacity:1"><path d="M0 0a1 1 0 0 0-.799 1.6C2.463 5.95 6.817 6 7.001 6a1 1 0 0 0 .004-2C6.85 3.998 3.436 3.914.801.4A1 1 0 0 0 0 0" style="fill:#ffcc4d;fill-opacity:1;fill-rule:nonzero;stroke:none" transform="matrix(.92014 -1.17368 .75719 1.36858 9.166 15.236)"/></g></g><path d="M37.829 23.14c-.27.227-.657.347-1.062.298-5.446-.656-8.538 1.833-8.667 1.94-.492.405-1.282.4-1.765-.01-.484-.413-.484-1.074.002-1.483.163-.137 4.055-3.34 10.784-2.53.684.081 1.158.615 1.06 1.19a1 1 0 0 1-.352.595" style="fill:#f4900c;fill-opacity:1;fill-rule:nonzero;stroke:none"/><g style="fill:#f4900c;fill-opacity:1"><path d="M0 0a1 1 0 0 0-.799 1.6C2.463 5.95 6.817 6 7.001 6a1 1 0 0 0 .004-2C6.85 3.998 3.436 3.914.801.4A1 1 0 0 0 0 0" style="fill:#f4900c;fill-opacity:1;fill-rule:nonzero;stroke:none" transform="scale(1.25 -1.05256)rotate(-45 -23.667 -17.916)"/></g><path d="M6.78 7.064c1.233.085 2.738-.584 2.662-2.58-.026-.68-.597-.982-1.41.366-.45.746-1.345.736-2.743-.198C3.111 3.381 2.181-2.12 1.048-.273.155 1.18 3.684 6.85 6.78 7.064" style="fill:#664500;fill-opacity:1;fill-rule:nonzero;stroke:none" transform="matrix(.65126 -1.24244 1.0605 .66545 7.218 19.692)"/><path d="M5.744 6.562c.616.043.798-.483.974.154.44 1.596 3.155-.323 3.258-1.67.082-1.082-2.263 1.078-2.282.579-.026-.681-.322-2.6-1.135-1.252-.45.746-.908.712-2.306-.222C2.074 2.88 1.633-1.922.5-.075c-.892 1.454 2.148 6.423 5.244 6.637" style="fill:#664500;fill-opacity:1;fill-rule:nonzero;stroke:none" transform="matrix(-.73015 -1.16217 -1.01288 .78592 38.268 18.586)"/><path d="M-8.49.188c-.607.127-1.343.141-1.343-1.795 0-3.871 4.107-8.711 9.833-8.711 5.725 0 8.795 4.627 8.795 8.5 0 1.935-.143 2.275-.75 2.147C5.388-.23 3.117-2.839.297-2.919-2.826-3.007-5.833-.371-8.49.188" style="fill:#664500;fill-opacity:1;fill-rule:nonzero;stroke:none" transform="matrix(1.19157 0 0 -1.25 23.384 28.282)"/><g style="fill:#664500;fill-opacity:1"><path d="M-.551.97c-.442.332-.579.188-.248.63C2.463 5.95 3.126 6.637 3.31 6.637c2.992.399 7.902-6.685 7.58-6.758C10.737-.123 3.437 3.914.802.4.604.138.269.499-.035.499" style="fill:#664500;fill-opacity:1;fill-rule:nonzero;stroke:none" transform="matrix(1.8358 .1563 1.54863 1.25189 11.422 27.02)"/></g><g style="fill:#664500;fill-opacity:1"><path d="M2.059 6.56c4.414.315 7.434-3.7 7.109-3.977-.394-.335-1.735 2.099-5.602 1.293C1.238 3.391 1.25.841-.28 1.916" style="fill:#664500;fill-opacity:1;fill-rule:nonzero;stroke:none" transform="matrix(1.72986 -.63419 1.93261 .48012 12.674 30.29)"/></g><g style="fill:#664500;fill-opacity:1"><path d="M-1.336 3.408c.835 2.408 4.55 3.58 5.83 3.55.706-.016.994-2.917.296-3.106-2.174-.59-3.468-1.089-4.914-2.542-.612-.615-1.52 1.211-1.212 2.098" style="fill:#664500;fill-opacity:1;fill-rule:nonzero;stroke:none" transform="matrix(-.90892 .0699 .06199 .61118 14.16 25.014)"/></g><g style="fill:#fff;fill-opacity:1"><path d="M-8.257-.671c-.794.521-1.388.324-.928-1.558C-7.91-7.43-3.948-11.06 1.777-11.06s9.988 5.463 9.988 9.335c0 1.936-.634 0-4.094-.591-2.657-.56-4.954-.641-7.421-.416-2.907.265-5.498.481-8.507 2.062" style="fill:#fff;fill-opacity:1;fill-rule:nonzero;stroke:none" transform="matrix(.83763 0 0 -.84382 21.789 29.785)"/></g><g style="fill:#664500;fill-opacity:1"><path d="M-4.704 2.503c.835 2.41 7.919 4.485 9.197 4.455.707-.016 1.354-2.806.655-2.996C2.975 3.372-2.206 1.726-4.09.27c-.596-.46-.92 1.347-.613 2.233" style="fill:#664500;fill-opacity:1;fill-rule:nonzero;stroke:none" transform="matrix(-.17518 .72296 .4255 .12416 22.945 35.015)"/></g><path d="M17.696 29.867c-.818 1.096-.485 7.629-.265 8.747.122.618 1.363 1.273 1.324.631-.121-1.997-.343-7.303-.074-9.177.085-.593-.684-.605-.985-.201" style="fill:#664500;fill-opacity:1;fill-rule:nonzero;stroke:none" transform="matrix(1.06877 0 0 .8234 -1.282 6.152)"/><g style="fill:#664500;fill-opacity:1"><path d="M-4.704 2.503c.62 3.026 7.767 5.053 9.197 4.455.665-.278 3.456-2.364 1.039-2.838-2.186-.429-2.584.915-9.623-3.85-.612-.414-.805 1.296-.613 2.233" style="fill:#664500;fill-opacity:1;fill-rule:nonzero;stroke:none" transform="matrix(-.15989 .6645 .38836 .11412 29.263 33.347)"/></g><g style="fill:#664500;fill-opacity:1"><path d="M-4.704 2.503c.835 2.41 7.919 4.485 9.197 4.455.707-.016 1.354-2.806.655-2.996C2.975 3.372-2.206 1.726-4.09.27c-.596-.46-.92 1.347-.613 2.233" style="fill:#664500;fill-opacity:1;fill-rule:nonzero;stroke:none" transform="matrix(-.17518 .72296 .4255 .12416 22.455 35.015)"/></g><path d="M17.696 29.867c-.818 1.096-.485 7.629-.265 8.747.122.618 1.363 1.273 1.324.631-.121-1.997-.343-7.303-.074-9.177.085-.593-.684-.605-.985-.201" style="fill:#664500;fill-opacity:1;fill-rule:nonzero;stroke:none" transform="matrix(1.06877 0 0 .8234 -1.772 6.152)"/><g style="fill:#664500;fill-opacity:1"><path d="M-4.704 2.503c.62 3.026 7.767 5.053 9.197 4.455.665-.278 3.456-2.364 1.039-2.838-2.186-.429-2.584.915-9.623-3.85-.612-.414-.805 1.296-.613 2.233" style="fill:#664500;fill-opacity:1;fill-rule:nonzero;stroke:none" transform="matrix(-.15989 .6645 .38836 .11412 28.773 33.347)"/></g></svg>