<svg xmlns="http://www.w3.org/2000/svg" width="210mm" height="297mm" viewBox="0 0 210 297"><defs><clipPath id="a" clipPathUnits="userSpaceOnUse"/><clipPath id="b" clipPathUnits="userSpaceOnUse"/></defs><path d="M0 0c4.863 1.533 4 5 4 9s3.32 6.472-.347 9.514c-2.177 1.806-6.07 2.653-8.195 1.861-1.952-.727-4.175-2.515-4.458-5.208-.198-1.882-.823-3.164-.928-4.682C-10.502 2.175-6.875-2.167 0 0" style="fill:#f5f8fa;fill-opacity:1;fill-rule:nonzero;stroke:none" transform="matrix(5.68513 2.09977 2.93832 -1.99215 50.683 167.176)"/><path d="M.104-3.826c0-1.129-.941-1.399-4-1.555s-4 .426-4 1.555 1.79 2.045 4 2.045 4-.916 4-2.045" style="fill:#ffac33;fill-opacity:1;fill-rule:nonzero;stroke:none;stroke-width:.714877" transform="matrix(5.0989 0 0 -6.1755 88.43 109.06)"/><path d="M134.17 136.307c6.013 11.894-5.926 13.02-14.032 13.498-15.53.913-23.418 15.172-36.082 17.506-8.552 1.336-34.467-4.606-44.1-9.221-13.08-6.267-24.187-11.092-22.316-24.589l-2.94 10.69.802 14.968 65.213 16.704 29-14.299 27.868-9.996 3.213-11.055z" clip-path="url(#a)" style="fill:#eee;fill-opacity:1;stroke:none;stroke-width:.264583px;stroke-linecap:butt;stroke-linejoin:miter;stroke-opacity:1" transform="translate(-8.315 -.756)"/><path d="M55.592 132.031s1.47 8.285 21.783 7.216c20.312-1.069 21.782-7.75 21.782-7.75l-.668 9.889-20.045 3.207-22.05-2.138z" clip-path="url(#b)" style="fill:#f4900c;fill-opacity:1;stroke:none;stroke-width:.264583px;stroke-linecap:butt;stroke-linejoin:miter;stroke-opacity:1" transform="translate(-8.315 -.756)"/><path d="M0 0c4.863 1.533 4 5 4 9s3.32 6.472-.347 9.514c-2.177 1.806-6.07 2.653-8.195 1.861-1.952-.727-4.175-2.515-4.458-5.208-.198-1.882-.823-3.164-.928-4.682C-10.502 2.175-6.875-2.167 0 0" style="fill:#f5f8fa;fill-opacity:1;fill-rule:nonzero;stroke:none" transform="matrix(5.68513 2.09977 2.93832 -1.99215 132.929 224.823)"/><path d="M.104-3.826c0-1.129-.941-1.399-4-1.555s-4 .426-4 1.555 1.79 2.045 4 2.045 4-.916 4-2.045" style="fill:#ffac33;fill-opacity:1;fill-rule:nonzero;stroke:none;stroke-width:.714877" transform="matrix(5.0989 0 0 -6.1755 170.675 166.707)"/></svg>