<svg xmlns="http://www.w3.org/2000/svg" width="210mm" height="297mm" viewBox="0 0 210 297"><g transform="translate(69.926 -2.268)"><ellipse cx="5.345" cy="169.049" fill="#929497" rx="29.5" ry="16.389" style="stroke-width:1.6389"/><ellipse cx="5.345" cy="166.181" fill="#ccd6dc" rx="29.5" ry="16.389" style="stroke-width:1.6389"/><path fill="#5c913b" d="M-14.9 168.66s6.743-3.04 12.122-1.469c4.093 1.196 8.91 3.865 8.746 5.247s-4.63 3.649-9.734 3.04c-5.103-.61-11.134-6.818-11.134-6.818" style="stroke-width:1.39062"/><path d="M28.29 149.102a22.95 22.95 0 0 1-11.472 19.87 22.95 22.95 0 0 1-22.945 0 22.95 22.95 0 0 1-11.472-19.87H5.345Z" style="fill:#f4900c;fill-opacity:1;fill-rule:evenodd;stroke-width:.936656"/><g transform="matrix(2.17336 0 0 1.20748 -148.44 5.41)"><path d="M81.317 119.002a10.557 10.557 0 0 1-10.557 10.557 10.557 10.557 0 0 1-10.558-10.557 10.557 10.557 0 0 1 10.558-10.557 10.557 10.557 0 0 1 10.557 10.557" style="fill:#f4900c;fill-opacity:1;fill-rule:evenodd;stroke-width:.264583"/><circle cx="70.76" cy="119.002" r="10.085" style="fill:#fff8e8;fill-opacity:1;fill-rule:evenodd;stroke-width:.252742"/><path d="m70.76 119.002-6.784-3.917a1.7 1.7 0 0 1-.44-1.64c.158-.585 1.082-1.51 1.668-1.666.585-.157 1.21.01 1.64.44z" style="fill:#ea596e;fill-opacity:1;fill-rule:evenodd;stroke:#fff8e8;stroke-width:.24774;stroke-miterlimit:4;stroke-dasharray:none;stroke-opacity:1"/><path d="M62.927 119.002a1.7 1.7 0 0 1-1.2-1.2c-.158-.586.18-1.849.61-2.278a1.7 1.7 0 0 1 1.639-.439l6.784 3.917h-7.833m6.633-9.033c-.586-.157-1.849.181-2.278.61a1.7 1.7 0 0 0-.439 1.64l3.917 6.783v-7.833a1.7 1.7 0 0 0-1.2-1.2z" style="fill:#ea596e;fill-opacity:1;fill-rule:evenodd;stroke:#fff8e8;stroke-width:.218493;stroke-opacity:1"/><path d="m70.76 119.002 6.783-3.917a1.7 1.7 0 0 0 .44-1.64c-.157-.585-1.082-1.51-1.667-1.666a1.7 1.7 0 0 0-1.64.44z" style="fill:#ea596e;fill-opacity:1;fill-rule:evenodd;stroke:#fff8e8;stroke-width:.24774;stroke-miterlimit:4;stroke-dasharray:none;stroke-opacity:1"/><path d="M78.593 119.002a1.7 1.7 0 0 0 1.2-1.2c.157-.586-.182-1.849-.61-2.278a1.7 1.7 0 0 0-1.64-.439l-6.783 3.917h7.833m-6.633-9.033c.585-.157 1.848.181 2.277.61.429.428.596 1.053.44 1.64l-3.917 6.783v-7.833a1.7 1.7 0 0 1 1.2-1.2z" style="fill:#ea596e;fill-opacity:1;fill-rule:evenodd;stroke:#fff8e8;stroke-width:.218493;stroke-opacity:1"/><path d="m70.76 119.002-6.784 3.916a1.7 1.7 0 0 0-.44 1.64c.158.585 1.082 1.51 1.668 1.667s1.21-.01 1.64-.44z" style="fill:#ea596e;fill-opacity:1;fill-rule:evenodd;stroke:#fff8e8;stroke-width:.24774;stroke-miterlimit:4;stroke-dasharray:none;stroke-opacity:1"/><path d="M62.927 119.002a1.7 1.7 0 0 0-1.2 1.2c-.158.586.18 1.848.61 2.277a1.7 1.7 0 0 0 1.639.44l6.784-3.917h-7.833m6.633 9.033c-.586.157-1.849-.181-2.278-.61a1.7 1.7 0 0 1-.439-1.64l3.917-6.783v7.833a1.7 1.7 0 0 1-1.2 1.2z" style="fill:#ea596e;fill-opacity:1;fill-rule:evenodd;stroke:#fff8e8;stroke-width:.218493;stroke-opacity:1"/><path d="m70.76 119.002 6.783 3.916a1.7 1.7 0 0 1 .44 1.64c-.157.585-1.082 1.51-1.667 1.667a1.7 1.7 0 0 1-1.64-.44z" style="fill:#ea596e;fill-opacity:1;fill-rule:evenodd;stroke:#fff8e8;stroke-width:.24774;stroke-miterlimit:4;stroke-dasharray:none;stroke-opacity:1"/><path d="M78.593 119.002a1.7 1.7 0 0 1 1.2 1.2c.157.586-.182 1.848-.61 2.277a1.7 1.7 0 0 1-1.64.44l-6.783-3.917h7.833m-6.633 9.033c.585.157 1.848-.181 2.277-.61a1.7 1.7 0 0 0 .44-1.64l-3.917-6.783v7.833a1.7 1.7 0 0 0 1.2 1.2z" style="fill:#ea596e;fill-opacity:1;fill-rule:evenodd;stroke:#fff8e8;stroke-width:.218493;stroke-opacity:1"/><circle cx="70.76" cy="119.002" r="1.002" style="fill:#fff8e8;fill-opacity:1;fill-rule:evenodd;stroke-width:.0251186"/></g></g></svg>