<svg xmlns="http://www.w3.org/2000/svg" xml:space="preserve" viewBox="0 0 45 45"><path d="M0 0c0-9.941-8.059-18-18-18S-36-9.941-36 0s8.059 18 18 18S0 9.941 0 0" style="fill:#ffcc4d;fill-opacity:1;fill-rule:nonzero;stroke:none" transform="matrix(1.25 0 0 -1.25 45 22.5)"/><path d="M0 0c0-1.934-1.119-3.5-2.5-3.5S-5-1.934-5 0s1.119 3.5 2.5 3.5S0 1.933 0 0" style="fill:#664500;fill-opacity:1;fill-rule:nonzero;stroke:none" transform="matrix(1.25 0 0 -1.25 18.125 18.241)"/><path d="M0 0c0-1.934-1.119-3.5-2.5-3.5S-5-1.934-5 0s1.119 3.5 2.5 3.5S0 1.933 0 0" style="fill:#664500;fill-opacity:1;fill-rule:nonzero;stroke:none" transform="matrix(1.25 0 0 -1.25 33.125 18.241)"/><path d="M22.5 26.235c.315 7.22-.665 8.739 0 12.5 9.254 0 14.106-5.785 15.895-11.25.778-2.376-.62-2.844-2.89-2.5-4.296.722-7.77 1.25-13.005 1.25" style="fill:#664500;fill-opacity:1;fill-rule:nonzero;stroke:none" transform="translate(-.043)"/><path d="M22.586 26.235c-.316 7.22.665 8.739 0 12.5-9.254 0-14.107-5.785-15.895-11.25-.778-2.376.62-2.844 2.89-2.5 4.296.722 7.77 1.25 13.005 1.25" style="fill:#664500;fill-opacity:1;fill-rule:nonzero;stroke:none" transform="translate(-.043)"/><path d="M36.37 15.98a1.14 1.14 0 0 0 .506-.571c.254-.621-.059-1.358-.698-1.647-6.293-2.837-10.95-.335-11.146-.227-.586.324-.771 1.076-.412 1.68.358.601 1.121.828 1.708.507.166-.089 3.847-2.002 8.93.29.38.171.788.146 1.111-.033M8.41 15.98a1.14 1.14 0 0 1-.505-.571c-.255-.621.058-1.358.697-1.647 6.293-2.837 10.95-.335 11.146-.227.586.324.771 1.076.412 1.68-.358.601-1.121.828-1.708.507-.166-.089-3.847-2.002-8.93.29a1.24 1.24 0 0 1-1.111-.033" style="fill:#ffcc4d;fill-opacity:1;fill-rule:nonzero;stroke:none" transform="translate(.11 1.366)"/><g style="fill:#fcab40;fill-opacity:1"><path d="M-6.548 7.358c-1.614 1.672-1.09 4.828-.592 5.96.768 1.749 2.312 3.743 8.811 1.329.478-.178 1.006-1.498-.541-1.383-6.577.502-6.177-3.1-6.158-5.403.005-.519-.714-1.338-1.52-.503" style="fill:#664500;fill-opacity:1;fill-rule:nonzero;stroke:none" transform="scale(1.25 -.79094)rotate(-45 -25.913 -18.231)"/></g><g style="fill:#fcab40;fill-opacity:1"><path d="M-6.548 7.358c-1.614 1.672-1.09 4.828-.592 5.96.768 1.749 2.312 3.743 8.811 1.329.478-.178 1.006-1.498-.541-1.383-6.577.502-6.177-3.1-6.158-5.403.005-.519-.714-1.338-1.52-.503" style="fill:#664500;fill-opacity:1;fill-rule:nonzero;stroke:none" transform="scale(-1.25 -.79094)rotate(-45 -43.913 25.225)"/></g><g style="fill:#fcab40;fill-opacity:1"><path d="M-7.797 9.29c.388 3.286 4.374 7.54 8.292 5.044 1.312-.836-2.9-2.075-5.083-4.536s-3.301-1.29-3.209-.507" style="fill:#664500;fill-opacity:1;fill-rule:nonzero;stroke:none" transform="matrix(-.9206 -.52544 -.84044 .73789 37.028 5.207)"/></g><g style="fill:#fcab40;fill-opacity:1"><path d="M-7.797 9.29c.388 3.286 4.374 7.54 8.292 5.044 1.312-.836-2.9-2.075-5.083-4.536s-3.301-1.29-3.209-.507" style="fill:#664500;fill-opacity:1;fill-rule:nonzero;stroke:none" transform="matrix(.9206 -.52544 .84044 .73789 7.972 5.207)"/></g><path d="M22.512 27.503c.764 7.392-.263 6.164 0 9.714 8.325 0 12.334-3.909 14.55-9.458.964-2.415-.81-1.495-2.85-1.228-3.865.562-6.99.972-11.7.972" style="fill:#fff;fill-opacity:1;fill-rule:nonzero;stroke:none" transform="translate(2.728 3.886)scale(.8773)"/><path d="M22.562 27.503c-.763 7.392.264 6.164 0 9.714-8.325 0-12.334-3.909-14.55-9.458-.963-2.415.81-1.495 2.85-1.228 3.865.562 6.99.972 11.7.972" style="fill:#fff;fill-opacity:1;fill-rule:nonzero;stroke:none" transform="translate(2.728 3.886)scale(.8773)"/><path d="M21.5 37.489s.088-4.947.245-10.365L23.317 27c.24 4.676-.108 10.484-.108 10.484zm7.837-.855s.32-5.406-.056-9.865l1.569-.119c.375 4.45.053 9.978.053 9.978zm-13.388.101s-.321-5.406.055-9.865l-1.569-.118c-.375 4.45-.052 9.977-.052 9.977z" style="color:#000;font-style:normal;font-variant:normal;font-weight:400;font-stretch:normal;font-size:medium;line-height:normal;font-family:sans-serif;text-indent:0;text-align:start;text-decoration:none;text-decoration-line:none;text-decoration-style:solid;text-decoration-color:#000;letter-spacing:normal;word-spacing:normal;text-transform:none;direction:ltr;block-progression:tb;writing-mode:lr-tb;baseline-shift:baseline;text-anchor:start;white-space:normal;clip-rule:nonzero;display:inline;overflow:visible;visibility:visible;opacity:1;isolation:auto;mix-blend-mode:normal;color-interpolation:sRGB;color-interpolation-filters:linearRGB;solid-color:#000;solid-opacity:1;fill:#664500;fill-opacity:1;fill-rule:evenodd;stroke:none;stroke-width:.80000001px;stroke-linecap:butt;stroke-linejoin:miter;stroke-miterlimit:4;stroke-dasharray:none;stroke-dashoffset:0;stroke-opacity:1;color-rendering:auto;image-rendering:auto;shape-rendering:auto;text-rendering:auto" transform="translate(-.52 -.261)"/><path d="M21.5 37.489s.088-4.947.245-10.365L23.317 27c.24 4.676-.108 10.484-.108 10.484zm7.837-.855s.32-5.406-.056-9.865l1.569-.119c.375 4.45.053 9.978.053 9.978zm-13.388.101s-.321-5.406.055-9.865l-1.569-.118c-.375 4.45-.052 9.977-.052 9.977z" style="color:#000;font-style:normal;font-variant:normal;font-weight:400;font-stretch:normal;font-size:medium;line-height:normal;font-family:sans-serif;text-indent:0;text-align:start;text-decoration:none;text-decoration-line:none;text-decoration-style:solid;text-decoration-color:#000;letter-spacing:normal;word-spacing:normal;text-transform:none;direction:ltr;block-progression:tb;writing-mode:lr-tb;baseline-shift:baseline;text-anchor:start;white-space:normal;clip-rule:nonzero;display:inline;overflow:visible;visibility:visible;opacity:1;isolation:auto;mix-blend-mode:normal;color-interpolation:sRGB;color-interpolation-filters:linearRGB;solid-color:#000;solid-opacity:1;fill:#664500;fill-opacity:1;fill-rule:evenodd;stroke:none;stroke-width:.80000001px;stroke-linecap:butt;stroke-linejoin:miter;stroke-miterlimit:4;stroke-dasharray:none;stroke-dashoffset:0;stroke-opacity:1;color-rendering:auto;image-rendering:auto;shape-rendering:auto;text-rendering:auto" transform="translate(.235 -.261)"/></svg>