<svg xmlns="http://www.w3.org/2000/svg" xml:space="preserve" viewBox="0 0 45 45"><path d="M45.03 22.5c0 12.426-10.074 22.5-22.5 22.5S.03 34.926.03 22.5 10.103 0 22.53 0s22.5 10.075 22.5 22.5" style="fill:#ffcc4d;fill-opacity:1;fill-rule:nonzero;stroke:none"/><path d="M0 0c-.012.044-1.146 4.379-5.485 4.379S-10.959.044-10.97 0a.5.5 0 0 1 .232-.544.51.51 0 0 1 .596.06c.01.007 1.014.863 4.657.863 3.589 0 4.617-.83 4.656-.863A.5.5 0 0 1 0 0" style="fill:#664500;fill-opacity:1;fill-rule:nonzero;stroke:none" transform="matrix(1.25 0 0 -2.90625 29.385 37.34)"/><path d="M0 0c8.749 0 16.033-4.509 17.656-10.484C17.878-9.356 18-8.192 18-7c0 9.94-8.059 18-18 18-9.94 0-18-8.06-18-18 0-1.192.123-2.356.344-3.484C-16.033-4.509-8.748 0 0 0" style="fill:#bdddf4;fill-opacity:1;fill-rule:nonzero;stroke:none" transform="matrix(1.25 0 0 -1.25 22.53 13.743)"/><path d="M-3.913-2.887c.014.146.202 1.557.662 1.81.745.41 1.693-.077 2.209-.955C.33-4.37-.663-8.342-1.19-7.285c-.38.76.007 2.215-1.48 3.537-.684.053-1.28.48-1.243.86" style="fill:#664500;fill-opacity:1;fill-rule:nonzero;stroke:none" transform="matrix(.68246 2.7176 -1.63807 .40554 27.372 29.474)"/><path d="M26.92 20.346c0 3.225 2.638 5.837 5.895 5.837 3.255 0 5.893-2.612 5.893-5.837 0-3.223-2.638-5.832-5.893-5.832-3.257 0-5.896 2.61-5.896 5.832" style="fill:#664500;fill-opacity:1;fill-rule:nonzero;stroke:none"/><path d="M29.36 20.347c0 1.89 1.547 3.42 3.455 3.42 1.906 0 3.452-1.53 3.452-3.42 0-1.888-1.546-3.417-3.452-3.417-1.908 0-3.454 1.53-3.454 3.417" style="fill:#f5f8fa;fill-opacity:1;fill-rule:nonzero;stroke:none"/><path d="M-3.913-2.887c.014.146.202 1.557.662 1.81.745.41 1.693-.077 2.209-.955C.33-4.37-.663-8.342-1.19-7.285c-.38.76.007 2.215-1.48 3.537-.684.053-1.28.48-1.243.86" style="fill:#664500;fill-opacity:1;fill-rule:nonzero;stroke:none" transform="matrix(-.68246 2.7176 1.63807 .40554 17.628 29.474)"/><g style="fill:#f5f8fa;fill-opacity:1"><path d="M0 0c0-1.105-.904-2-2.02-2a2.01 2.01 0 0 0-2.019 2c0 1.104.904 1.998 2.019 1.998S0 1.104 0 0" style="fill:#664500;fill-opacity:1;fill-rule:nonzero;stroke:none" transform="matrix(2.91875 0 0 -2.91875 18.08 20.346)"/><path d="M0 0c0-1.105-.904-2-2.02-2a2.01 2.01 0 0 0-2.019 2c0 1.104.904 1.998 2.019 1.998S0 1.104 0 0" style="fill:#f5f8fa;fill-opacity:1;fill-rule:nonzero;stroke:none" transform="matrix(1.70988 0 0 -1.70988 15.64 20.347)"/></g><path d="M16.973 8.958a1.25 1.25 0 0 0-1.065-1.965c-6.793.221-9.966 4.644-10.098 4.832a1.25 1.25 0 0 0 2.045 1.438c.113-.157 2.647-3.593 8.134-3.771a1.25 1.25 0 0 0 .984-.534m11.054 0a1.25 1.25 0 0 1 1.065-1.965c6.793.221 9.966 4.644 10.098 4.832a1.25 1.25 0 0 1-2.045 1.438c-.113-.157-2.647-3.593-8.134-3.771a1.25 1.25 0 0 1-.984-.534m8.7 15.839c.156-.134.285-.344.362-.612.187-.658-.017-1.419-.455-1.7-4.318-2.768-7.595-.004-7.733.115-.413.358-.554 1.151-.316 1.77s.764.832 1.177.477c.116-.098 2.706-2.215 6.193.02.26.167.545.127.772-.07m-20.627 0c.155-.134.285-.344.36-.612.189-.658-.016-1.419-.454-1.7-4.317-2.768-7.595-.004-7.733.115-.412.358-.554 1.151-.316 1.77s.764.832 1.177.477c.117-.098 2.706-2.215 6.194.02.26.167.544.127.771-.07" style="fill:#664500;fill-opacity:1;fill-rule:nonzero;stroke:none"/></svg>