<?xml version="1.0" encoding="UTF-8" standalone="no"?>
<svg
   xmlns:dc="http://purl.org/dc/elements/1.1/"
   xmlns:cc="http://creativecommons.org/ns#"
   xmlns:rdf="http://www.w3.org/1999/02/22-rdf-syntax-ns#"
   xmlns:svg="http://www.w3.org/2000/svg"
   xmlns="http://www.w3.org/2000/svg"
   xmlns:sodipodi="http://sodipodi.sourceforge.net/DTD/sodipodi-0.dtd"
   xmlns:inkscape="http://www.inkscape.org/namespaces/inkscape"
   viewBox="0 0 45 45"
   style="enable-background:new 0 0 45 45;"
   xml:space="preserve"
   version="1.1"
   id="svg2"
   inkscape:version="0.91 r13725"
   sodipodi:docname="horror.svg"
   inkscape:export-filename="C:\Users\Soyez\Desktop\Stuff\My Art\somoji\svg\wat.png"
   inkscape:export-xdpi="1024"
   inkscape:export-ydpi="1024"><sodipodi:namedview
     pagecolor="#ffffff"
     bordercolor="#666666"
     borderopacity="1"
     objecttolerance="10"
     gridtolerance="10"
     guidetolerance="10"
     inkscape:pageopacity="0"
     inkscape:pageshadow="2"
     inkscape:window-width="1920"
     inkscape:window-height="1031"
     id="namedview6057"
     showgrid="false"
     inkscape:zoom="11.313709"
     inkscape:cx="-1.5827706"
     inkscape:cy="21.767658"
     inkscape:window-x="-8"
     inkscape:window-y="-8"
     inkscape:window-maximized="1"
     inkscape:current-layer="svg2"
     showguides="false" /><metadata
     id="metadata8"><rdf:RDF><cc:Work
         rdf:about=""><dc:format>image/svg+xml</dc:format><dc:type
           rdf:resource="http://purl.org/dc/dcmitype/StillImage" /><dc:title /></cc:Work></rdf:RDF></metadata><defs
     id="defs6"><clipPath
       id="clipPath16"
       clipPathUnits="userSpaceOnUse"><path
         id="path18"
         d="M 0,36 36,36 36,0 0,0 0,36 Z" /></clipPath></defs><g
     id="g44-2-1-2"
     transform="matrix(-2.9187476,0,0,-2.9187476,26.919492,20.345569)"
     style="fill:#664500;fill-opacity:1" /><g
     id="g5084"
     inkscape:export-xdpi="1024"
     inkscape:export-ydpi="1024"
     inkscape:export-filename="C:\Users\Soyez\Desktop\Stuff\My Art\somoji\horror.png"><path
       inkscape:connector-curvature="0"
       d="m 45.029271,22.5 c 0,12.42625 -10.07375,22.5 -22.5,22.5 -12.425,0 -22.5,-10.07375 -22.5,-22.5 0,-12.425 10.075,-22.5 22.5,-22.5 12.42625,0 22.5,10.075 22.5,22.5"
       style="fill:#ffcc4d;fill-opacity:1;fill-rule:nonzero;stroke:none"
       id="path22" /><g
       transform="matrix(1.25,0,0,-2.90625,29.385036,37.340868)"
       id="g32"><path
         id="path34"
         style="fill:#664500;fill-opacity:1;fill-rule:nonzero;stroke:none"
         d="m 0,0 c -0.012,0.044 -1.146,4.379 -5.485,4.379 -4.34,0 -5.474,-4.335 -5.485,-4.379 -0.053,-0.213 0.044,-0.431 0.232,-0.544 0.187,-0.112 0.433,-0.086 0.596,0.06 0.01,0.007 1.014,0.863 4.657,0.863 3.589,0 4.617,-0.83 4.656,-0.863 0.095,-0.09 0.219,-0.137 0.344,-0.137 0.084,0 0.169,0.021 0.246,0.064 C -0.043,-0.445 0.055,-0.218 0,0"
         inkscape:connector-curvature="0" /></g><g
       transform="matrix(1.25,0,0,-1.25,22.529271,13.742519)"
       id="g40"><path
         id="path42"
         style="fill:#bdddf4;fill-opacity:1;fill-rule:nonzero;stroke:none"
         d="M 0,0 C 8.749,0 16.033,-4.509 17.656,-10.484 17.878,-9.356 18,-8.192 18,-7 18,2.94 9.941,11 0,11 -9.94,11 -18,2.94 -18,-7 c 0,-1.192 0.123,-2.356 0.344,-3.484 C -16.033,-4.509 -8.748,0 0,0"
         inkscape:connector-curvature="0" /></g><g
       transform="matrix(0.68246468,2.7175923,-1.6380681,0.40553887,27.372054,29.47414)"
       id="g48-5-8"><path
         sodipodi:nodetypes="sssscs"
         id="path50-2-2"
         style="fill:#664500;fill-opacity:1;fill-rule:nonzero;stroke:none"
         d="m -3.9134163,-2.8872487 c 0.013978,0.1464047 0.2022927,1.5576896 0.6619933,1.8103104 0.7452858,0.40955941 1.6931608,-0.076916 2.2093513,-0.9554518 1.37298672,-2.3367695 0.37874438,-6.3096778 -0.1483075,-5.2528164 -0.379072,0.7601272 0.00784,2.2154198 -1.4797636,3.5372809 -0.6836604,0.053009 -1.2795907,0.4802904 -1.2432735,0.8606769 z"
         inkscape:connector-curvature="0" /></g><path
       inkscape:connector-curvature="0"
       d="m 26.919491,20.345569 c 0,3.225216 2.638548,5.837495 5.89587,5.837495 3.254404,0 5.892952,-2.612279 5.892952,-5.837495 0,-3.222297 -2.638548,-5.831658 -5.892952,-5.831658 -3.257322,0 -5.89587,2.609361 -5.89587,5.831658"
       style="fill:#664500;fill-opacity:1;fill-rule:nonzero;stroke:none"
       id="path46-4-8-5" /><path
       inkscape:connector-curvature="0"
       d="m 29.3608,20.346777 c 0,1.889417 1.545731,3.419759 3.453957,3.419759 1.906516,0 3.452247,-1.530342 3.452247,-3.419759 0,-1.887707 -1.545732,-3.416339 -3.452247,-3.416339 -1.908226,0 -3.453956,1.528632 -3.453956,3.416339"
       style="fill:#f5f8fa;fill-opacity:1;fill-rule:nonzero;stroke:none"
       id="path46-4-9-8-7-3" /><g
       transform="matrix(-0.68246468,2.7175923,1.6380681,0.40553887,17.627946,29.47414)"
       id="g48-5-8-2"><path
         sodipodi:nodetypes="sssscs"
         id="path50-2-2-9"
         style="fill:#664500;fill-opacity:1;fill-rule:nonzero;stroke:none"
         d="m -3.9134163,-2.8872487 c 0.013978,0.1464047 0.2022927,1.5576896 0.6619933,1.8103104 0.7452858,0.40955941 1.6931608,-0.076916 2.2093513,-0.9554518 1.37298672,-2.3367695 0.37874438,-6.3096778 -0.1483075,-5.2528164 -0.379072,0.7601272 0.00784,2.2154198 -1.4797636,3.5372809 -0.6836604,0.053009 -1.2795907,0.4802904 -1.2432735,0.8606769 z"
         inkscape:connector-curvature="0" /></g><g
       transform="matrix(1.4389415,0,0,1.4389415,-7.2396127,-15.445183)"
       id="g4329-1-8"><g
         id="g44-2-1-2-1"
         transform="matrix(2.0283991,0,0,-2.0283991,17.596352,24.872972)"
         style="fill:#664500;fill-opacity:1" /><g
         id="g44-2-0-1-2-9-5"
         transform="matrix(1.1882897,0,0,-1.1882897,15.899751,24.873812)"
         style="fill:#f5f8fa;fill-opacity:1"><g
           id="g4394-8-1"><path
             id="path46-4-8-5-4"
             style="fill:#664500;fill-opacity:1;fill-rule:nonzero;stroke:none"
             d="m 0,0 c 0,-1.105 -0.904,-2 -2.02,-2 -1.115,0 -2.019,0.895 -2.019,2 0,1.104 0.904,1.998 2.019,1.998 C -0.904,1.998 0,1.104 0,0"
             inkscape:connector-curvature="0"
             transform="matrix(1.7069904,0,0,1.7069904,1.4277672,7.0656171e-4)" /><path
             id="path46-4-9-8-7-3-3"
             style="fill:#f5f8fa;fill-opacity:1;fill-rule:nonzero;stroke:none"
             d="m 0,0 c 0,-1.105 -0.904,-2 -2.02,-2 -1.115,0 -2.019,0.895 -2.019,2 0,1.104 0.904,1.998 2.019,1.998 C -0.904,1.998 0,1.104 0,0"
             inkscape:connector-curvature="0" /></g></g></g><path
       id="path58"
       style="fill:#664500;fill-opacity:1;fill-rule:nonzero;stroke:none"
       d="m 16.973225,8.9584485 c 0.149133,-0.212975 0.233854,-0.475632 0.224677,-0.756732 -0.02203,-0.689901 -0.600219,-1.230575 -1.290121,-1.20855 C 9.1148779,7.2144385 5.9420089,11.63686 5.8100699,11.82523 c -0.395768,0.565215 -0.258246,1.345142 0.306969,1.74091 0.564192,0.395051 1.340945,0.259884 1.738036,-0.302908 0.113177,-0.157275 2.6469271,-3.5927785 8.1342701,-3.7714325 0.409516,-0.01388 0.76591,-0.222113 0.983873,-0.533387"
       inkscape:connector-curvature="0" /><path
       id="path58-6"
       style="fill:#664500;fill-opacity:1;fill-rule:nonzero;stroke:none"
       d="m 28.026778,8.9584485 c -0.149133,-0.212975 -0.233854,-0.475632 -0.224677,-0.756732 0.02203,-0.689901 0.600219,-1.230575 1.290121,-1.20855 6.7929,0.221272 9.965769,4.6436935 10.097708,4.8320635 0.395768,0.565215 0.258246,1.345142 -0.306969,1.74091 -0.564192,0.395051 -1.340945,0.259884 -1.738036,-0.302908 -0.113177,-0.157275 -2.646927,-3.5927785 -8.134267,-3.7714325 -0.409516,-0.01388 -0.76591,-0.222113 -0.983873,-0.533387"
       inkscape:connector-curvature="0" /><path
       id="path58-5-1"
       style="fill:#664500;fill-opacity:1;fill-rule:nonzero;stroke:none"
       d="m 36.727159,24.797473 c 0.155549,-0.134745 0.285273,-0.344381 0.361594,-0.612471 0.18762,-0.657764 -0.01653,-1.418968 -0.454892,-1.700495 -4.317534,-2.767845 -7.595138,-0.0032 -7.732737,0.115946 -0.412798,0.357607 -0.554396,1.150533 -0.316067,1.769927 0.237898,0.618273 0.763672,0.831559 1.176591,0.476808 0.116775,-0.09817 2.706107,-2.215636 6.193809,0.02033 0.260444,0.166351 0.544369,0.126858 0.771709,-0.07008"
       inkscape:connector-curvature="0" /><path
       id="path58-5-1-5"
       style="fill:#664500;fill-opacity:1;fill-rule:nonzero;stroke:none"
       d="m 16.099355,24.797473 c 0.155549,-0.134745 0.285273,-0.344381 0.361594,-0.612471 0.18762,-0.657764 -0.01653,-1.418968 -0.454892,-1.700495 -4.317534,-2.767845 -7.5951384,-0.0032 -7.7327374,0.115946 -0.412798,0.357607 -0.554396,1.150533 -0.316067,1.769927 0.237898,0.618273 0.763672,0.831559 1.176591,0.476808 0.116775,-0.09817 2.7061074,-2.215636 6.1938094,0.02033 0.260444,0.166351 0.544369,0.126858 0.771709,-0.07008"
       inkscape:connector-curvature="0" /></g></svg>