<svg xmlns="http://www.w3.org/2000/svg" xml:space="preserve" viewBox="0 0 45 45"><path d="M45.19 22.517c0 12.426-10.073 22.5-22.5 22.5-12.424 0-22.5-10.074-22.5-22.5S10.267.017 22.69.017c12.427 0 22.5 10.075 22.5 22.5" style="fill:#fdac40;fill-opacity:1;fill-rule:nonzero;stroke:none"/><path d="M-5.485 4.379c-2.95 0-6.92-4.595-4.088-4.595.98.027.463.299 4.107.299" style="fill:#664500;fill-opacity:1;fill-rule:nonzero;stroke:none" transform="matrix(1.14447 0 0 -1.8516 28.98 36.055)"/><path d="M-5.485 4.379c-2.95 0-6.92-4.595-4.088-4.595.98.027.463.299 4.107.299" style="fill:#664500;fill-opacity:1;fill-rule:nonzero;stroke:none" transform="matrix(-1.14447 0 0 -1.8516 16.402 36.055)"/><g style="fill:#da2f47;fill-opacity:1"><g style="fill:#da2f47;fill-opacity:1"><path d="M0 0a5 5 0 0 0-5-5 5 5 0 0 0-5 5 5 5 0 0 0 5 5 5 5 0 0 0 5-5" style="fill:#da2f47;fill-opacity:1;fill-rule:nonzero;stroke:none" transform="matrix(1.25 0 0 -1.25 42.69 27.744)"/></g><g style="fill:#da2f47;fill-opacity:1"><path d="M0 0a5 5 0 0 0-5-5 5 5 0 0 0-5 5 5 5 0 0 0 5 5 5 5 0 0 0 5-5" style="fill:#da2f47;fill-opacity:1;fill-rule:nonzero;stroke:none" transform="matrix(1.25 0 0 -1.25 15.19 27.744)"/></g></g><path d="M0 0c0-1.934-1.119-3.5-2.5-3.5S-5-1.934-5 0s1.119 3.5 2.5 3.5S0 1.933 0 0" style="fill:#664500;fill-opacity:1;fill-rule:nonzero;stroke:none" transform="matrix(1.25 0 0 -1.25 17.69 20.625)"/><path d="M0 0c0-1.934-1.119-3.5-2.5-3.5S-5-1.934-5 0s1.119 3.5 2.5 3.5S0 1.933 0 0" style="fill:#664500;fill-opacity:1;fill-rule:nonzero;stroke:none" transform="matrix(1.25 0 0 -1.25 33.94 20.625)"/><path d="M0 0a1 1 0 0 0-.371.072C-5.6 2.163-7.743 5.312-7.832 5.446A1 1 0 0 0-6.17 6.559c.019-.028 1.93-2.786 6.541-4.63A1 1 0 0 0 0 0" style="fill:#664500;fill-opacity:1;fill-rule:nonzero;stroke:none" transform="matrix(1.25 0 0 -1.25 37.69 21.562)"/><path d="M0 0a1.001 1.001 0 0 0-.372 1.929C4.24 3.773 6.151 6.531 6.17 6.559a1 1 0 0 0 1.662-1.113C7.743 5.312 5.599 2.163.371.072A1 1 0 0 0 0 0" style="fill:#664500;fill-opacity:1;fill-rule:nonzero;stroke:none" transform="matrix(1.25 0 0 -1.25 7.691 21.562)"/><path d="M0 0a5 5 0 0 0-5-5 5 5 0 0 0-5 5c0 2.762 4 10 5 10S0 2.762 0 0" style="fill:#5dadec;fill-opacity:1;fill-rule:nonzero;stroke:none" transform="matrix(.48102 0 0 -.48102 43.923 26.14)"/><path d="M0 0a5 5 0 0 0-5-5 5 5 0 0 0-5 5c0 2.762 4 10 5 10S0 2.762 0 0" style="fill:#5dadec;fill-opacity:1;fill-rule:nonzero;stroke:none" transform="matrix(.34502 0 0 -.34502 11.807 36.792)"/><path d="M0 0a5 5 0 0 0-5-5 5 5 0 0 0-5 5c0 2.762 4 10 5 10S0 2.762 0 0" style="fill:#5dadec;fill-opacity:1;fill-rule:nonzero;stroke:none" transform="matrix(.5429 0 0 -.5429 6.888 18.429)"/><path d="M22.72 40.506c-5.813-.012-6.026-8.477-2.459-8.477.94 0 1.499.932 2.426.932.779 0 1.515-.893 2.481-.893 3.468 0 3.331 8.45-2.449 8.438" style="fill:#e75a70;fill-opacity:1;fill-rule:nonzero;stroke:none"/></svg>