<svg xmlns="http://www.w3.org/2000/svg" xml:space="preserve" viewBox="0 0 45 45"><path d="M0 0c0-9.941-8.059-18-18-18S-36-9.941-36 0s8.059 18 18 18S0 9.941 0 0" style="fill:#ffcc4d;fill-opacity:1;fill-rule:nonzero;stroke:none" transform="matrix(1.25 0 0 -1.25 45 22.5)"/><path d="M0 0c0-1.934-1.119-3.5-2.5-3.5S-5-1.934-5 0s1.119 3.5 2.5 3.5S0 1.933 0 0" style="fill:#664500;fill-opacity:1;fill-rule:nonzero;stroke:none" transform="matrix(1.25 0 0 -1.25 19.086 18.241)"/><path d="M0 0c0-1.934-1.119-3.5-2.5-3.5S-5-1.934-5 0s1.119 3.5 2.5 3.5S0 1.933 0 0" style="fill:#664500;fill-opacity:1;fill-rule:nonzero;stroke:none" transform="matrix(1.25 0 0 -1.25 35.554 18.241)"/><path d="M0 0c1.335.412 3.014 2.29 3.014 3.633 0 2.62-3.35 1.75-4.033 1.623s-2.296-.791-2.312-1.065c.027-.142.587.094 1.058.234.47.14 3.287.587 3.287-1.115S-2.871.5-2.906.499l-.027-.007a.43.43 0 0 1-.309-.159l-.015-.021A.6.6 0 0 1-3.33.187q-.015-.041-.022-.085C-3.356.078-3.368.056-3.37.031c-.001-.01.004-.02.004-.031s-.005-.021-.004-.031c.002-.026.013-.046.018-.071q.007-.044.023-.086.021-.048.051-.088.022-.036.049-.068a.5.5 0 0 1 .082-.062l.071-.046a.4.4 0 0 1 .1-.027c.024-.006.044-.018.07-.02.035-.002 2.908-.44 2.908-2.143-.347-2.432-3.587-.218-3.67-.152 1.166-2.758 4.911-1.821 5.103.092C1.503-1.36.728-.513 0 0" style="fill:#664500;fill-opacity:1;fill-rule:nonzero;stroke:none" transform="matrix(1.25 0 0 -1.25 25.69 33.747)"/><path d="M37.44 11.57c.222.206.403.534.507.96.254 1.046-.059 2.287-.698 2.773-6.292 4.776-10.95.564-11.146.383-.586-.546-.77-1.813-.412-2.828.358-1.013 1.122-1.395 1.708-.854.166.149 3.847 3.369 8.93-.49.38-.286.789-.244 1.112.057M8.52 18.35c-.22-.171-.402-.443-.506-.796-.254-.867.06-1.895.698-2.298 6.293-3.958 10.95-.468 11.146-.317.586.452.771 1.502.412 2.343-.358.84-1.121 1.157-1.708.708-.166-.123-3.847-2.792-8.93.406a.93.93 0 0 1-1.111-.047" style="fill:#ffcc4d;fill-opacity:1;fill-rule:nonzero;stroke:none" transform="translate(.126 .125)"/><g style="fill:#fcab40;fill-opacity:1"><path d="M-7.797 9.29c.388 3.286 4.374 7.54 8.292 5.044 1.312-.836-2.9-2.075-5.083-4.536s-3.301-1.29-3.209-.507" style="fill:#664500;fill-opacity:1;fill-rule:nonzero;stroke:none" transform="matrix(-.94951 -.2903 -.79172 .5936 36.326 9.322)"/></g><g style="fill:#fcab40;fill-opacity:1"><path d="M-7.797 9.29c.388 3.286 4.374 7.54 8.292 5.044 1.312-.836-2.9-2.075-5.083-4.536s-3.301-1.29-3.209-.507" style="fill:#664500;fill-opacity:1;fill-rule:nonzero;stroke:none" transform="matrix(.94951 -.2903 .79172 .5936 8.687 9.318)"/></g><g style="fill:#fcab40;fill-opacity:1"><path d="M-7.797 9.29c.388 3.286 4.374 7.54 8.292 5.044 1.312-.836-2.9-2.075-5.083-4.536s-3.301-1.29-3.209-.507" style="fill:#664500;fill-opacity:1;fill-rule:nonzero;stroke:none" transform="matrix(-1.02395 -.14138 -.70301 .8436 35.276 2.934)"/></g><g style="fill:#fcab40;fill-opacity:1"><path d="M-7.797 9.29c.388 3.286 4.374 7.54 8.292 5.044 1.312-.836-2.9-2.075-5.083-4.536s-3.301-1.29-3.209-.507" style="fill:#664500;fill-opacity:1;fill-rule:nonzero;stroke:none" transform="matrix(1.02395 -.14138 .70301 .8436 9.724 2.929)"/></g><g style="fill:#e75a70;fill-opacity:1"><path d="M-.277.646s-5.265 3.026-4.427 10.127c.743 6.294 7.223 7.41 7.223 7.41s.617-2.06 1.43-4.013c-4.82-2.542-6.56-5.872-1.432-10.431C.906 1.667-.277.646-.277.646" style="fill:#e75a70;fill-opacity:1;fill-rule:nonzero;stroke:none" transform="matrix(.744 0 0 -.58517 15.104 15.731)"/></g><g style="fill:#e75a70;fill-opacity:1"><path d="M-.277.646s-5.265 3.026-4.427 10.127c.743 6.294 7.223 7.41 7.223 7.41s.617-2.06 1.43-4.013c-4.82-2.542-6.56-5.872-1.432-10.431C.906 1.667-.277.646-.277.646" style="fill:#e75a70;fill-opacity:1;fill-rule:nonzero;stroke:none" transform="matrix(0 .744 .58517 0 1.727 14.293)"/></g><g style="fill:#e75a70;fill-opacity:1"><path d="M-.277.646s-5.265 3.026-4.427 10.127c.743 6.294 7.223 7.41 7.223 7.41s.617-2.06 1.43-4.013c-4.82-2.542-6.56-5.872-1.432-10.431C.906 1.667-.277.646-.277.646" style="fill:#e75a70;fill-opacity:1;fill-rule:nonzero;stroke:none" transform="matrix(-.744 0 0 .58517 3.508 1.208)"/></g><g style="fill:#e75a70;fill-opacity:1"><path d="M-.277.646s-5.265 3.026-4.427 10.127c.743 6.294 7.223 7.41 7.223 7.41s.617-2.06 1.43-4.013c-4.82-2.542-6.56-5.872-1.432-10.431C.906 1.667-.277.646-.277.646" style="fill:#e75a70;fill-opacity:1;fill-rule:nonzero;stroke:none" transform="matrix(0 -.744 -.58517 0 16.457 2.796)"/></g></svg>