<svg xmlns="http://www.w3.org/2000/svg" xml:space="preserve" viewBox="0 0 45 45"><g style="opacity:.97"><path d="M0 0c-9.94 0-18-8.06-18-18 0-6.051 2.996-11.392 7.574-14.655.104 6.438-2.237 13.655-6.17 13.655-.464 0-.84-.066-1.153-.183.303.757.96 1.182 2.189 1.182 4.27 0 6.666-8.506 6.093-15.287A17.9 17.9 0 0 1 0-36c3.479 0 6.716 1.004 9.47 2.713C8.893-26.48 11.288-18 15.561-18c1.233 0 1.891-.426 2.192-1.183-.314.117-.691.183-1.157.183-3.938 0-6.279-7.199-6.17-13.655C15.005-29.392 18-24.051 18-18 18-8.06 9.941 0 0 0" style="fill:#ffcc4d;fill-opacity:1;fill-rule:nonzero;stroke:none" transform="matrix(1.25 0 0 -1.25 22.5 0)"/></g><path d="M16.25 28.75c-.353 4.856 1.503 13.75 6.25 13.75s6.25-6.107 6.25-13.75c0-3.446-2.621-.09-6.218-.145-3.478-.006-6.282-3.301-6.282.145" style="fill:#664500;fill-opacity:1;fill-rule:nonzero;stroke:none"/><g style="fill:#fcab40;fill-opacity:.99215686"><path d="M0 0c-.464 0-.84-.066-1.153-.183q.109.267.281.477C-2.734-1.998 1.444-9.54-.586-17h6.461C7.063-10.04 4.639 0 0 0" style="fill:#fcab40;fill-opacity:.99215686;fill-rule:nonzero;stroke:none" transform="matrix(1.25 0 0 -1.25 1.755 23.75)"/></g><path d="M0 0c-.313.116-.69.183-1.157.183-4.641 0-7.066-10.002-5.873-17h6.46C-2.476-9.772 1.086-2.729 0 0" style="fill:#fcab40;fill-opacity:1;fill-rule:nonzero;stroke:none" transform="matrix(1.25 0 0 -1.25 44.691 23.978)"/><path d="M0 0c0-2.762-2.362-4.726-4.151-4.814-1.233 4.578-3.307 6.501-4.833 6.759-.742.125-1.234.005-1.782-.135C-9.661 3.652-7.176 5.307-5 5c2.334-.329 5-2.238 5-5" style="fill:#ff7892;fill-opacity:1;fill-rule:nonzero;stroke:none" transform="matrix(1.25 0 0 -1.25 14.982 24.987)"/><path d="M30.018 24.993c0 3.453 2.953 5.908 5.19 6.018 1.54-5.723 4.133-8.127 6.04-8.448.927-.157 1.543-.008 2.228.168-1.381-2.303-4.489-4.371-7.208-3.988-2.917.412-6.25 2.798-6.25 6.25" style="fill:#ff7892;fill-opacity:1;fill-rule:nonzero;stroke:none"/><path d="M17.713 29.33s1.596 1.307 4.787 1.307 4.787-1.308 4.787-1.308-1.064 4.243-4.787 4.243-4.787-4.243-4.787-4.243" style="fill:#fff;fill-opacity:1;fill-rule:nonzero;stroke:none"/><path d="M19.634 17.205c-4.069-4.069-8.21-2.45-8.992-2.158-1.395.523-3.715 2.74-3.715 3.18-.001.688.558.808 1.248.809 2.4-.711 2.69-.915-1.425 1.803a1.25 1.25 0 0 0 1.5 2c.047-.035 4.734-3.5 10.5-3.5a1.25 1.25 0 0 0 .884-2.134" style="fill:#664500;fill-opacity:1;fill-rule:nonzero;stroke:none"/><ellipse cx="9.798" cy="18.8" rx="1.941" ry="1.147" style="fill:#fff;fill-opacity:1;stroke:none;stroke-opacity:1" transform="rotate(-10)"/><ellipse cx="15.082" cy="19.508" rx=".927" ry=".656" style="fill:#fff;fill-opacity:1;stroke:none;stroke-opacity:1" transform="rotate(-5)"/><path d="M25.241 17.205c4.07-4.069 8.21-2.45 8.993-2.158 1.395.523 3.714 2.74 3.714 3.18.002.688-.557.808-1.247.809-2.4-.711-2.69-.915 1.424 1.803a1.25 1.25 0 0 1-1.5 2c-.046-.035-4.734-3.5-10.5-3.5a1.25 1.25 0 0 1-.884-2.134" style="fill:#664500;fill-opacity:1;fill-rule:nonzero;stroke:none"/><ellipse cx="27.955" cy="19.472" rx="1.941" ry="1.147" style="fill:#fff;fill-opacity:1;stroke:none;stroke-opacity:1" transform="rotate(-5)"/><ellipse cx="32.837" cy="18.955" rx=".927" ry=".656" style="fill:#fff;fill-opacity:1;stroke:none;stroke-opacity:1"/><path d="M16.833 5.739a1.25 1.25 0 0 0-1.073.318C11.746 9.82 7.517 9.172 7.339 9.142A1.253 1.253 0 0 0 5.9 10.164a1.247 1.247 0 0 0 1.01 1.441c.227.04 5.597.924 10.558-3.723a1.249 1.249 0 0 0-.636-2.143" style="fill:#664500;fill-opacity:1;fill-rule:nonzero;stroke:none"/><path d="M0 0a1 1 0 0 0-.799 1.6C2.463 5.95 6.817 6 7.001 6a1 1 0 0 0 .004-2C6.85 3.998 3.436 3.914.801.4A1 1 0 0 0 0 0" style="fill:#664500;fill-opacity:1;fill-rule:nonzero;stroke:none" transform="rotate(-10 46.882 -158.087)scale(1.25)"/></svg>