<?xml version="1.0" encoding="UTF-8" standalone="no"?>
<svg
   xmlns:dc="http://purl.org/dc/elements/1.1/"
   xmlns:cc="http://creativecommons.org/ns#"
   xmlns:rdf="http://www.w3.org/1999/02/22-rdf-syntax-ns#"
   xmlns:svg="http://www.w3.org/2000/svg"
   xmlns="http://www.w3.org/2000/svg"
   xmlns:sodipodi="http://sodipodi.sourceforge.net/DTD/sodipodi-0.dtd"
   xmlns:inkscape="http://www.inkscape.org/namespaces/inkscape"
   viewBox="0 0 45 45"
   style="enable-background:new 0 0 45 45;"
   xml:space="preserve"
   version="1.1"
   id="svg2"
   inkscape:version="0.91 r13725"
   sodipodi:docname="kawaii.svg"
   inkscape:export-filename="C:\Users\Soyez\Desktop\Stuff\My Art\somoji\kawaii.png"
   inkscape:export-xdpi="1024"
   inkscape:export-ydpi="1024"><sodipodi:namedview
     pagecolor="#ffffff"
     bordercolor="#666666"
     borderopacity="1"
     objecttolerance="10"
     gridtolerance="10"
     guidetolerance="10"
     inkscape:pageopacity="0"
     inkscape:pageshadow="2"
     inkscape:window-width="1920"
     inkscape:window-height="1031"
     id="namedview24"
     showgrid="false"
     inkscape:zoom="11.313709"
     inkscape:cx="7.081445"
     inkscape:cy="24.840294"
     inkscape:window-x="-8"
     inkscape:window-y="-8"
     inkscape:window-maximized="1"
     inkscape:current-layer="layer1" /><metadata
     id="metadata8"><rdf:RDF><cc:Work
         rdf:about=""><dc:format>image/svg+xml</dc:format><dc:type
           rdf:resource="http://purl.org/dc/dcmitype/StillImage" /><dc:title /></cc:Work></rdf:RDF></metadata><defs
     id="defs6"><clipPath
       id="clipPath16"
       clipPathUnits="userSpaceOnUse"><path
         id="path18"
         d="M 0,36 36,36 36,0 0,0 0,36 Z" /></clipPath></defs><g
     id="g20"
     transform="matrix(1.25,0,0,-1.25,22.5,0)"
     style="opacity:0.97"
     inkscape:export-filename="C:\Users\Soyez\Desktop\Stuff\My Art\somoji\kawaii.png"
     inkscape:export-xdpi="90"
     inkscape:export-ydpi="90"><path
       inkscape:connector-curvature="0"
       d="m 0,0 c -9.94,0 -18,-8.06 -18,-18 0,-6.051 2.996,-11.392 7.574,-14.655 0.104,6.438 -2.237,13.655 -6.17,13.655 -0.464,0 -0.84,-0.066 -1.153,-0.183 0.303,0.757 0.96,1.182 2.189,1.182 4.27,0 6.666,-8.506 6.093,-15.287 C -6.714,-34.997 -3.478,-36 0,-36 c 3.479,0 6.716,1.004 9.47,2.713 -0.577,6.807 1.818,15.287 6.091,15.287 1.233,0 1.891,-0.426 2.192,-1.183 -0.314,0.117 -0.691,0.183 -1.157,0.183 -3.938,0 -6.279,-7.199 -6.17,-13.655 C 15.005,-29.392 18,-24.051 18,-18 18,-8.06 9.941,0 0,0"
       style="fill:#ffcc4d;fill-opacity:1;fill-rule:nonzero;stroke:none"
       id="path22" /></g><g
     id="g24"
     transform="matrix(1.25,0,0,-1.25,22.5,0)" /><g
     inkscape:groupmode="layer"
     id="layer1"
     inkscape:label="Layer 1"><path
       id="path38"
       style="enable-background:new 0 0 45 45;fill:#664500;fill-opacity:1;fill-rule:nonzero;stroke:none"
       d="m 16.25,28.75 c -0.353358,4.855604 1.502747,13.75 6.25,13.75 4.747253,0 6.25,-6.106979 6.25,-13.75 0,-3.44625 -2.621375,-0.09089 -6.218399,-0.144884 C 19.05375,28.598796 16.25,25.30375 16.25,28.75 Z"
       inkscape:connector-curvature="0"
       sodipodi:nodetypes="czccc" /><g
       style="enable-background:new 0 0 45 45"
       id="g4807"><g
         style="fill:#fcab40;fill-opacity:0.99215686"
         transform="matrix(1.25,0,0,-1.25,1.755375,23.75)"
         id="g40"><path
           id="path42"
           style="fill:#fcab40;fill-opacity:0.99215686;fill-rule:nonzero;stroke:none"
           d="m 0,0 c -0.464,0 -0.84,-0.066 -1.153,-0.183 0.072,0.179 0.167,0.336 0.281,0.477 C -2.734,-1.998 1.444,-9.54 -0.586,-17 l 6.461,0 C 7.063,-10.04 4.639,0 0,0"
           inkscape:connector-curvature="0" /></g><g
         transform="matrix(1.25,0,0,-1.25,44.691125,23.97825)"
         id="g44"><path
           id="path46"
           style="fill:#fcab40;fill-opacity:1;fill-rule:nonzero;stroke:none"
           d="m 0,0 c -0.313,0.116 -0.69,0.183 -1.157,0.183 -4.641,0 -7.066,-10.002 -5.873,-17 l 6.46,0 C -2.476,-9.772 1.086,-2.729 0,0"
           inkscape:connector-curvature="0" /></g></g><g
       style="enable-background:new 0 0 45 45"
       id="g28"
       transform="matrix(1.25,0,0,-1.25,14.981695,24.986778)"><path
         inkscape:connector-curvature="0"
         d="m 0,0 c 0,-2.762 -2.3617437,-4.7259962 -4.1514719,-4.8143845 -1.2328815,4.57851645 -3.3068104,6.5016806 -4.8320621,6.7589282 -0.7420971,0.1251615 -1.234564,0.00585 -1.782615,-0.1345245 C -9.6611859,3.6524192 -7.1750706,5.3066059 -5,5 -2.666052,4.6709981 0,2.762 0,0"
         style="fill:#ff7892;fill-opacity:1;fill-rule:nonzero;stroke:none"
         id="path30"
         sodipodi:nodetypes="ccscac" /></g><path
       inkscape:connector-curvature="0"
       d="m 30.018394,24.993251 c 0,3.4525 2.952179,5.907495 5.189341,6.01798 1.541102,-5.723145 4.133513,-8.1271 6.040077,-8.44866 0.927622,-0.156452 1.543205,-0.0073 2.228269,0.168156 -1.381204,-2.303 -4.488848,-4.370734 -7.207686,-3.987476 -2.917436,0.411252 -6.250001,2.7975 -6.250001,6.25"
       style="enable-background:new 0 0 45 45;fill:#ff7892;fill-opacity:1;fill-rule:nonzero;stroke:none"
       id="path30-8"
       sodipodi:nodetypes="ccscac" /><path
       id="path30-4"
       style="fill:#ffffff;fill-opacity:1;fill-rule:nonzero;stroke:none"
       d="m 17.713073,29.329292 c 0,0 1.595642,1.307525 4.786928,1.307525 3.191285,0 4.786926,-1.307525 4.786926,-1.307525 0,0 -1.063761,4.242802 -4.786926,4.242802 -3.723167,0 -4.786928,-4.242802 -4.786928,-4.242802"
       inkscape:connector-curvature="0"
       sodipodi:nodetypes="cscsc" /><path
       sodipodi:nodetypes="csccccscscc"
       id="path38-2"
       style="fill:#664500;fill-opacity:1;fill-rule:nonzero;stroke:none"
       d="m 19.634054,17.204882 c -4.06875,-4.06875 -8.210447,-2.450253 -8.992284,-2.157461 -1.395068,0.522443 -3.71474,2.739048 -3.71474,3.179048 -0.0012,0.68875 0.5575,0.808059 1.2475,0.809309 2.400003,-0.710988 2.690403,-0.915149 -1.424226,1.802854 -0.5525,0.41375 -0.66375,1.1975 -0.25,1.75 0.245,0.3275 0.62125,0.5 1.00125,0.5 0.26,0 0.52375,-0.08125 0.74875,-0.25 0.04625,-0.035 4.73375,-3.5 10.5,-3.5 0.505,0 0.96125,-0.305 1.155,-0.77125 0.19375,-0.4675 0.08625,-1.005 -0.27125,-1.3625"
       inkscape:connector-curvature="0" /><ellipse
       style="fill:#ffffff;fill-opacity:1;stroke:none;stroke-opacity:1"
       id="path4155"
       ry="1.1468277"
       rx="1.9405346"
       cy="18.799921"
       cx="9.7982464"
       transform="matrix(0.98480775,-0.17364817,0.17364817,0.98480775,0,0)" /><ellipse
       style="fill:#ffffff;fill-opacity:1;stroke:none;stroke-opacity:1"
       id="path4155-8"
       cx="15.082146"
       cy="19.508192"
       rx="0.9267953"
       ry="0.655891"
       transform="matrix(0.9961947,-0.08715574,0.08715574,0.9961947,0,0)" /><path
       sodipodi:nodetypes="csccccscscc"
       id="path38-2-7"
       style="fill:#664500;fill-opacity:1;fill-rule:nonzero;stroke:none"
       d="m 25.2414,17.204882 c 4.06875,-4.06875 8.210447,-2.450253 8.992284,-2.157461 1.395068,0.522443 3.71474,2.739048 3.71474,3.179048 0.0012,0.68875 -0.5575,0.808059 -1.2475,0.809309 -2.400003,-0.710988 -2.690403,-0.915149 1.424226,1.802854 0.5525,0.41375 0.66375,1.1975 0.25,1.75 -0.245,0.3275 -0.62125,0.5 -1.00125,0.5 -0.26,0 -0.52375,-0.08125 -0.74875,-0.25 -0.04625,-0.035 -4.73375,-3.5 -10.5,-3.5 -0.505,0 -0.96125,-0.305 -1.155,-0.77125 -0.19375,-0.4675 -0.08625,-1.005 0.27125,-1.3625"
       inkscape:connector-curvature="0" /><ellipse
       style="fill:#ffffff;fill-opacity:1;stroke:none;stroke-opacity:1"
       id="path4155-6"
       ry="1.1468277"
       rx="1.9405346"
       cy="19.471647"
       cx="27.955385"
       transform="matrix(0.9961947,-0.08715574,0.08715574,0.9961947,0,0)" /><ellipse
       style="fill:#ffffff;fill-opacity:1;stroke:none;stroke-opacity:1"
       id="path4155-8-9"
       cx="32.837139"
       cy="18.954645"
       rx="0.9267953"
       ry="0.655891" /></g><path
     id="path54"
     style="fill:#664500;fill-opacity:1;fill-rule:nonzero;stroke:none"
     d="M 16.832504,5.7389483 C 16.457046,5.672745 16.057788,5.7775062 15.759641,6.0574869 11.745507,9.8188331 7.5172921,9.1722889 7.3385785,9.1420462 6.6602209,9.0300491 6.0159756,9.4876283 5.9005026,10.164103 c -0.1159565,0.67893 0.3342863,1.321881 1.0113417,1.441264 0.2265058,0.03994 5.5959437,0.923252 10.5569397,-3.7233721 0.504636,-0.4720423 0.529942,-1.2634208 0.05768,-1.7668256 -0.192279,-0.2052572 -0.436682,-0.3308555 -0.693963,-0.376221"
     inkscape:connector-curvature="0" /><g
     id="g56"
     transform="matrix(1.2310097,-0.21706023,0.21706023,1.2310097,28.163779,5.7393182)"><path
       inkscape:connector-curvature="0"
       d="m 0,0 c -0.208,0 -0.419,0.065 -0.599,0.2 -0.442,0.331 -0.531,0.958 -0.2,1.4 3.262,4.35 7.616,4.4 7.8,4.4 0.552,0 1,-0.448 1,-1 C 8.001,4.449 7.556,4.002 7.005,4 6.85,3.998 3.436,3.914 0.801,0.4 0.604,0.138 0.304,0 0,0"
       style="fill:#664500;fill-opacity:1;fill-rule:nonzero;stroke:none"
       id="path58" /></g></svg>