<svg xmlns="http://www.w3.org/2000/svg" xml:space="preserve" viewBox="0 0 45 45"><path d="M45 22.736c0 12.426-10.074 22.5-22.5 22.5S0 35.162 0 22.736 10.075.236 22.5.236 45 10.311 45 22.736" style="fill:#ffcc4d;fill-opacity:1;fill-rule:nonzero;stroke:none"/><path d="M0 0a5 5 0 0 0-5-5 5 5 0 0 0-5 5 5 5 0 0 0 5 5 5 5 0 0 0 5-5" style="fill:#ff7892;fill-opacity:1;fill-rule:nonzero;stroke:none" transform="matrix(1.25 0 0 -1.25 42.5 28.75)"/><path d="M0 0a5 5 0 0 0-5-5 5 5 0 0 0-5 5 5 5 0 0 0 5 5 5 5 0 0 0 5-5" style="fill:#ff7892;fill-opacity:1;fill-rule:nonzero;stroke:none" transform="matrix(1.25 0 0 -1.25 15 28.75)"/><path d="M27.977 33.51c0 3.638-2.452 6.584-5.477 6.584s-5.477-2.946-5.477-6.584 2.452-4.088 5.477-4.088 5.477.45 5.477 4.088" style="fill:#664500;fill-opacity:1;fill-rule:nonzero;stroke:none"/><path d="M26.158 32.485c0 1.032-1.637 1.868-3.658 1.868s-3.658-.836-3.658-1.868c0-1.031 1.637-1.16 3.658-1.16s3.658.129 3.658 1.16" style="fill:#fff;fill-opacity:1;fill-rule:nonzero;stroke:none"/><g style="fill:#664500;fill-opacity:1"><path d="M0 0c0-1.934-1.119-3.5-2.5-3.5S-5-1.934-5 0s1.119 3.5 2.5 3.5S0 1.933 0 0" style="fill:#664500;fill-opacity:1;fill-rule:nonzero;stroke:none" transform="matrix(2.19063 0 0 -1.88135 35.807 19.491)"/></g><g style="fill:#fff;fill-opacity:1"><path d="M0 0c0-1.934-1.119-3.5-2.5-3.5S-5-1.934-5 0s1.119 3.5 2.5 3.5S0 1.933 0 0" style="fill:#fff;fill-opacity:1;fill-rule:nonzero;stroke:none" transform="matrix(.9556 0 0 -.82069 31.656 18.379)"/></g><g style="fill:#fff;fill-opacity:1"><path d="M0 0c0-1.934-1.119-3.5-2.5-3.5S-5-1.934-5 0s1.119 3.5 2.5 3.5S0 1.933 0 0" style="fill:#fff;fill-opacity:1;fill-rule:nonzero;stroke:none" transform="matrix(.4116 0 0 -.35349 33.551 22.268)"/></g><g style="fill:#664500;fill-opacity:1"><path d="M0 0c0-1.934-1.119-3.5-2.5-3.5S-5-1.934-5 0s1.119 3.5 2.5 3.5S0 1.933 0 0" style="fill:#664500;fill-opacity:1;fill-rule:nonzero;stroke:none" transform="matrix(2.19063 0 0 -1.88135 20.146 19.226)"/></g><g style="fill:#fff;fill-opacity:1"><path d="M0 0c0-1.934-1.119-3.5-2.5-3.5S-5-1.934-5 0s1.119 3.5 2.5 3.5S0 1.933 0 0" style="fill:#fff;fill-opacity:1;fill-rule:nonzero;stroke:none" transform="matrix(.9556 0 0 -.82069 15.995 18.114)"/></g><g style="fill:#fff;fill-opacity:1"><path d="M0 0c0-1.934-1.119-3.5-2.5-3.5S-5-1.934-5 0s1.119 3.5 2.5 3.5S0 1.933 0 0" style="fill:#fff;fill-opacity:1;fill-rule:nonzero;stroke:none" transform="matrix(.4116 0 0 -.35349 17.89 22.003)"/></g><path d="M0 0s5 1 8-2" style="fill:none;stroke:#664500;stroke-width:2;stroke-linecap:round;stroke-linejoin:round;stroke-miterlimit:4;stroke-dasharray:none;stroke-opacity:1" transform="matrix(1.25 0 0 -1.25 26.25 7.927)"/><path d="M0 0s-5 1-8-2" style="fill:none;stroke:#664500;stroke-width:2;stroke-linecap:round;stroke-linejoin:round;stroke-miterlimit:4;stroke-dasharray:none;stroke-opacity:1" transform="matrix(1.25 0 0 -1.25 18.75 7.927)"/></svg>