<?xml version="1.0" encoding="UTF-8" standalone="no"?>
<svg
   xmlns:dc="http://purl.org/dc/elements/1.1/"
   xmlns:cc="http://creativecommons.org/ns#"
   xmlns:rdf="http://www.w3.org/1999/02/22-rdf-syntax-ns#"
   xmlns:svg="http://www.w3.org/2000/svg"
   xmlns="http://www.w3.org/2000/svg"
   xmlns:sodipodi="http://sodipodi.sourceforge.net/DTD/sodipodi-0.dtd"
   xmlns:inkscape="http://www.inkscape.org/namespaces/inkscape"
   viewBox="0 0 36 36"
   version="1.1"
   id="svg10"
   sodipodi:docname="lime.svg"
   inkscape:version="1.0 (4035a4fb49, 2020-05-01)">
  <metadata
     id="metadata16">
    <rdf:RDF>
      <cc:Work
         rdf:about="">
        <dc:format>image/svg+xml</dc:format>
        <dc:type
           rdf:resource="http://purl.org/dc/dcmitype/StillImage" />
        <dc:title />
      </cc:Work>
    </rdf:RDF>
  </metadata>
  <defs
     id="defs14">
    <clipPath
       clipPathUnits="userSpaceOnUse"
       id="clipPath16">
      <path
         d="M 0,36 36,36 36,0 0,0 0,36 Z"
         id="path18" />
    </clipPath>
  </defs>
  <sodipodi:namedview
     inkscape:document-rotation="0"
     pagecolor="#ffffff"
     bordercolor="#666666"
     borderopacity="1"
     objecttolerance="10"
     gridtolerance="10"
     guidetolerance="10"
     inkscape:pageopacity="0"
     inkscape:pageshadow="2"
     inkscape:window-width="1920"
     inkscape:window-height="1027"
     id="namedview12"
     showgrid="false"
     inkscape:zoom="7.444263"
     inkscape:cx="17.149361"
     inkscape:cy="16.92861"
     inkscape:window-x="-8"
     inkscape:window-y="-8"
     inkscape:window-maximized="1"
     inkscape:current-layer="svg10" />
  <g
     inkscape:export-ydpi="1363.6766"
     inkscape:export-xdpi="1363.6766"
     inkscape:export-filename="F:\My Art\SVG &amp; SALES\MOREmoji\SET 3\png\lime.png"
     id="g895">
    <path
       style="fill:#3e721d;fill-opacity:1"
       id="path8"
       d="m 8.208,6.583 c 0,0 -4.27,-0.59 -6.857,4.599 -2.587,5.188 0.582,9.125 0.29,12.653 C 1.348,27.365 3.207,25.1 4.262,23.39 5.317,21.68 8.492,18.495 9.2,14.121 9.907,9.745 9.13,7.663 8.208,6.583 Z"
       fill="#77B255" />
    <path
       id="path4"
       d="M 15.001,16 C 14.697,16 14.396,15.862 14.2,15.6 13.513,14.684 12.892,13.645 12.235,12.544 9.967,8.749 7.396,4.446 0.783,2.976 0.244,2.856 -0.096,2.322 0.024,1.783 0.144,1.243 0.678,0.905 1.217,1.024 8.671,2.68 11.599,7.581 13.952,11.519 c 0.63,1.054 1.224,2.049 1.848,2.881 0.332,0.442 0.242,1.069 -0.2,1.4 -0.18,0.135 -0.39,0.2 -0.599,0.2 z"
       fill="#77b255"
       style="fill:#5c913b;fill-opacity:1" />
    <path
       style="fill:#9dd153;fill-opacity:1"
       id="path6"
       d="M 34.3,31.534 C 34.302,31.517 34.297,31.506 34.297,31.491 37.071,26.156 36.944,16.378 30.951,10.384 25.15,4.584 17.271,4.563 12.184,6.317 10.605,6.931 9.267,6.383 8.369,7.282 7.488,8.163 8.018,10.001 7.655,11.101 4.486,16.303 4.25,24.126 10.343,30.218 c 4.962,4.962 10.438,6.842 19.98,4.853 0.002,-0.002 0.005,-10e-4 0.008,-0.002 1.148,-0.218 2.95,0.523 3.566,-0.094 1.085,-1.085 0.309,-2.358 0.403,-3.441 z"
       fill="#FFCC4D" />
    <path
       style="fill:#5c913b;fill-opacity:1"
       id="path2"
       d="m 11.405,3.339 c 6.48,-1.275 8.453,1.265 11.655,0.084 3.202,-1.181 0.093,2.82 -0.745,3.508 -0.84,0.688 -8.141,4.809 -11.307,3.298 C 7.842,8.718 7.826,4.043 11.405,3.339 Z"
       fill="#5C913B" />
  </g>
</svg>
