<svg xmlns="http://www.w3.org/2000/svg" xml:space="preserve" viewBox="0 0 45 45"><path d="M0 0c0-9.941-8.059-18-18-18-9.94 0-18 8.059-18 18 0 9.94 8.06 18 18 18C-8.059 18 0 9.94 0 0" style="fill:#ffcc4d;fill-opacity:1;fill-rule:nonzero;stroke:none" transform="matrix(1.25 0 0 -1.25 45.02 22.5)"/><path d="M-9 1c-.679.131-2 0-2-2 0-4 4.41-11.057 10.815-11.057S11-5 11-1c0 2-1.321 2.132-2 2C6.027.422 3.555-.206-.116-.206S-6.027.422-9 1" style="fill:#664500;fill-opacity:1;fill-rule:nonzero;stroke:none" transform="matrix(1.45837 0 0 -1.46553 22.52 20.75)"/><path d="M9-.448c3.937 0 9.406.573 9.406.573s-.039-1.464-.806-2.495c-.597.842-5.22 1.006-8.6 1.006S2.188-1.568.423-2.414C-.45-1.242-.395.142-.395.142S5.064-.448 9-.448" style="fill:#fff;fill-opacity:1;fill-rule:nonzero;stroke:none" transform="matrix(1.45837 0 0 -1.75898 9.386 21.795)"/><path d="M22.52 13.849c10.936 0 20.04 5.636 22.07 13.105.277-1.41.43-2.865.43-4.355 0-12.425-10.074-22.5-22.5-22.5S.02 10.174.02 22.599c0 1.49.153 2.945.43 4.355 2.028-7.47 11.135-13.105 22.07-13.105" style="fill:#f4900c;fill-opacity:1;fill-rule:nonzero;stroke:none"/><path d="M27.816 34.811c0 .915-2.371 1.657-5.296 1.657s-5.297-.742-5.297-1.657c0-.914 2.371-2.78 5.297-2.78s5.296 1.866 5.296 2.78" style="fill:#e75a70;fill-opacity:1;stroke:none;stroke-width:30;stroke-linecap:round;stroke-linejoin:round;stroke-miterlimit:4;stroke-dasharray:none;stroke-opacity:1"/><g style="fill:#292f33;fill-opacity:1"><g style="fill:#292f33;fill-opacity:1"><path d="M0 0c-3.255 3.255-8.486 3.293-8.707 3.293a1 1 0 0 1-.001-2c.029 0 1.925-.022 3.983-.737-.593-.64-.982-1.634-.982-2.763 0-1.934 1.119-3.5 2.5-3.5s2.5 1.566 2.5 3.5c0 .174-.019.34-.037.507.013 0 .025-.007.037-.007A.999.999 0 0 1 0 0" style="fill:#292f33;fill-opacity:1;fill-rule:nonzero;stroke:none" transform="matrix(1.25 0 0 -1.25 19.653 10.37)"/></g><g style="fill:#292f33;fill-opacity:1"><path d="M0 0c-.221 0-5.451-.038-8.707-3.293A.999.999 0 0 1-8-5c.013 0 .024.007.036.007C-7.98-5.16-8-5.326-8-5.5-8-7.434-6.881-9-5.5-9S-3-7.434-3-5.5c0 1.129-.389 2.123-.982 2.763C-1.924-2.022-.028-2 .002-2A1 1 0 0 1 0 0" style="fill:#292f33;fill-opacity:1;fill-rule:nonzero;stroke:none" transform="matrix(1.25 0 0 -1.25 36.27 6.253)"/></g></g><path d="M-5.344-4.024c.438-1.01 1.231-1.683 2.137-1.683 1.196 0 2.195 1.174 2.442 2.745-1.52-.082-3.634-.718-4.58-1.062" style="fill:#664500;fill-opacity:1;fill-rule:nonzero;stroke:none" transform="matrix(1.25 0 0 -1.25 19.653 10.37)"/><path d="M-5.344-4.024c.438-1.01 1.231-1.683 2.137-1.683 1.196 0 2.195 1.174 2.442 2.745-1.52-.082-3.634-.718-4.58-1.062" style="fill:#664500;fill-opacity:1;fill-rule:nonzero;stroke:none" transform="rotate(180 12.687 5.197)scale(1.25)"/><path d="M0 0a1 1 0 0 0-.799 1.6C2.463 5.95 6.817 6 7.001 6a1 1 0 0 0 .004-2C6.85 3.998 3.436 3.914.801.4A1 1 0 0 0 0 0" style="fill:#b55005;fill-opacity:1;fill-rule:nonzero;stroke:none" transform="matrix(.96426 .67857 .80528 -.78442 7.391 17.287)"/><g style="fill:#f4900c;fill-opacity:1"><path d="M2.308 4.48C4.71 5.976 6.873 6 7 6a1 1 0 0 0 .004-2C6.85 3.998 3.436 3.914.801.4.761.346.656.205.671.273 1.177 2.467 2.152 4.2 2.309 4.48" style="fill:#f4900c;fill-opacity:1;fill-rule:nonzero;stroke:none" transform="matrix(.96426 .67857 .80528 -.78442 7.391 17.287)"/></g><path d="M0 0a1 1 0 0 0-.799 1.6C2.463 5.95 6.817 6 7.001 6a1 1 0 0 0 .004-2C6.85 3.998 3.436 3.914.801.4A1 1 0 0 0 0 0" style="fill:#b55005;fill-opacity:1;fill-rule:nonzero;stroke:none" transform="matrix(-.96426 .67857 -.80528 -.78442 37.648 17.287)"/><g style="fill:#f4900c;fill-opacity:1"><path d="M2.308 4.48C4.71 5.976 6.873 6 7 6a1 1 0 0 0 .004-2C6.85 3.998 3.436 3.914.801.4.761.346.656.205.671.273 1.177 2.467 2.152 4.2 2.309 4.48" style="fill:#f4900c;fill-opacity:1;fill-rule:nonzero;stroke:none" transform="matrix(-.96426 .67857 -.80528 -.78442 37.648 17.287)"/></g></svg>