<svg xmlns="http://www.w3.org/2000/svg" xml:space="preserve" viewBox="0 0 45 45"><path d="M0 0c0-9.941-8.059-18-18-18-9.94 0-18 8.059-18 18 0 9.94 8.06 18 18 18C-8.059 18 0 9.94 0 0" style="fill:#ffcc4d;fill-opacity:1;fill-rule:nonzero;stroke:none" transform="matrix(1.25 0 0 -1.25 45 22.5)"/><g style="fill:#000;fill-opacity:1"><path fill="none" d="M0 0a5.5 5.5 0 1 0-11.001.001A5.5 5.5 0 0 0 0 0" style="fill:#000;fill-opacity:0;fill-rule:nonzero;stroke:none" transform="matrix(1.25 0 0 -1.25 37.5 20.625)"/></g><path d="M0 0h-8a1 1 0 1 0 0 2h8a1 1 0 1 0 0-2" style="fill:#664500;fill-opacity:1;fill-rule:nonzero;stroke:none" transform="matrix(1.96184 0 0 -1.25 30.347 37.5)"/><path d="M0 0a5 5 0 0 0-5-5 5 5 0 0 0-5 5c0 2.762 4 10 5 10S0 2.762 0 0" style="fill:#5dadec;fill-opacity:1;fill-rule:nonzero;stroke:none" transform="matrix(1.25 0 0 -1.25 12.5 37.505)"/><path d="M22.5 13.743c10.936 0 20.041 5.636 22.07 13.105.278-1.41.43-2.865.43-4.355 0-12.425-10.074-22.5-22.5-22.5S0 10.068 0 22.493c0 1.49.154 2.945.43 4.355 2.029-7.469 11.135-13.105 22.07-13.105" style="fill:#bdddf4;fill-opacity:1;fill-rule:nonzero;stroke:none"/><path d="M21.25 20.625a6.876 6.876 0 0 1-13.75 0 6.876 6.876 0 0 1 13.75 0" style="fill:#f5f8fa;fill-opacity:1;fill-rule:nonzero;stroke:none"/><path d="M0 0a2.5 2.5 0 1 0-5 0 2.5 2.5 0 0 0 5 0" style="fill:#664500;fill-opacity:1;fill-rule:nonzero;stroke:none" transform="matrix(1.25 0 0 -1.25 19.979 20.625)"/><g style="fill:#f5f8fa;fill-opacity:1"><path d="M0 0a5.5 5.5 0 1 0-11.001.001A5.5 5.5 0 0 0 0 0" style="fill:#f5f8fa;fill-opacity:1;fill-rule:nonzero;stroke:none" transform="matrix(1.25 0 0 -1.25 37.505 20.626)"/></g><path d="M0 0a2.5 2.5 0 1 0-5 0 2.5 2.5 0 0 0 5 0" style="fill:#664500;fill-opacity:1;fill-rule:nonzero;stroke:none" transform="matrix(1.25 0 0 -1.25 36.234 20.626)"/><path d="M16.251 6.25a1.25 1.25 0 0 1 .999 2c-4.077 5.438-9.52 5.5-9.75 5.5a1.25 1.25 0 0 1-.005-2.5c.194-.002 4.461-.107 7.755-4.5a1.25 1.25 0 0 1 1.001-.5m12.502 0c.381 0 .756.173 1.001.5 3.3 4.401 7.576 4.499 7.758 4.5.687.008 1.242.57 1.238 1.256a1.247 1.247 0 0 1-1.246 1.244c-.23 0-5.671-.062-9.75-5.5a1.249 1.249 0 0 1 .999-2" style="fill:#664500;fill-opacity:1;fill-rule:nonzero;stroke:none"/></svg>