<svg xmlns="http://www.w3.org/2000/svg" xml:space="preserve" viewBox="0 0 45 45"><path d="M0 0c0-9.941-8.059-18-18-18S-36-9.941-36 0s8.059 18 18 18S0 9.941 0 0" style="fill:#ffcc4d;fill-opacity:1;fill-rule:nonzero;stroke:none" transform="matrix(1.25 0 0 -1.25 45.047 22.5)"/><path d="M0 0c0-1.934-1.119-3.5-2.5-3.5S-5-1.934-5 0s1.119 3.5 2.5 3.5S0 1.933 0 0" style="fill:#664500;fill-opacity:1;fill-rule:nonzero;stroke:none" transform="matrix(1.25044 0 0 -1.25044 18.17 23.137)"/><path d="M0 0c0-1.934-1.119-3.5-2.5-3.5S-5-1.934-5 0s1.119 3.5 2.5 3.5S0 1.933 0 0" style="fill:#664500;fill-opacity:1;fill-rule:nonzero;stroke:none" transform="matrix(1.25044 0 0 -1.25044 33.176 23.137)"/><path d="M44.617 26.84c.277-1.41.43-2.865.43-4.355 0-12.425-10.074-22.5-22.5-22.5S.047 10.06.047 22.485c0 1.49.154 2.945.43 4.355 2.029-7.469 10.942-8.617 21.805-8.617s20.306 1.148 22.335 8.617" style="fill:#292f33;fill-opacity:1;fill-rule:nonzero;stroke:none"/><path d="M44.617 25.984c.277.997.43 2.025.43 3.078 0 8.782-10.074 15.902-22.5 15.902s-22.5-7.12-22.5-15.902c0-1.053.154-2.081.43-3.078C2.506 31.263 11.419 28.7 22.282 28.7s20.306 2.564 22.335-2.715" style="fill:#292f33;fill-opacity:1;fill-rule:nonzero;stroke:none"/></svg>