<svg xmlns="http://www.w3.org/2000/svg" xml:space="preserve" viewBox="0 0 45 45"><path fill="#ea596e" d="M159.85 128.964a4 4 0 0 0-4.002-4h-28.007a4 4 0 0 0-4.001 4v28.008a4 4 0 0 0 4 4h28.008a4 4 0 0 0 4.001-4z" style="fill:#f4900c;fill-opacity:1;stroke-width:1.00027" transform="translate(-154.758 -156.162)scale(1.24966)"/><g fill="#fff"><path d="M145.433 140.336c-4.618 0-8.375 3.757-8.375 8.376s3.757 8.375 8.375 8.375 8.375-3.757 8.375-8.375-3.757-8.376-8.375-8.376m0 13.795a5.426 5.426 0 0 1-5.42-5.42 5.427 5.427 0 0 1 5.42-5.419 5.426 5.426 0 0 1 5.42 5.42 5.427 5.427 0 0 1-5.42 5.419" style="stroke-width:.9853" transform="translate(-159.242 -155.5)scale(1.24966)"/><path d="M145.433 134.358c-.817 0-1.478.662-1.478 1.478v5.978a1.478 1.478 0 1 0 2.956 0v-5.978c0-.816-.661-1.478-1.478-1.478" style="stroke-width:.985289" transform="translate(-159.242 -155.5)scale(1.24966)"/><path d="M139.93 139.277c.578.578 1.447.643 1.942.148l9.212-9.211c.495-.495.43-1.365-.148-1.942-.578-.578-1.447-.644-1.942-.149l-9.212 9.212c-.495.495-.43 1.364.148 1.942" style="stroke-width:.912796" transform="translate(-159.242 -155.5)scale(1.24966)"/><path d="M139.93 128.272c-.577.577-.643 1.447-.148 1.942l9.212 9.211c.495.495 1.364.43 1.942-.148s.643-1.447.148-1.942l-9.212-9.212c-.495-.495-1.364-.429-1.942.149" style="stroke-width:.912795" transform="translate(-159.242 -155.5)scale(1.24966)"/></g></svg>