<?xml version="1.0" encoding="UTF-8" standalone="no"?>
<svg
   xmlns:dc="http://purl.org/dc/elements/1.1/"
   xmlns:cc="http://creativecommons.org/ns#"
   xmlns:rdf="http://www.w3.org/1999/02/22-rdf-syntax-ns#"
   xmlns:svg="http://www.w3.org/2000/svg"
   xmlns="http://www.w3.org/2000/svg"
   xmlns:sodipodi="http://sodipodi.sourceforge.net/DTD/sodipodi-0.dtd"
   xmlns:inkscape="http://www.inkscape.org/namespaces/inkscape"
   inkscape:export-ydpi="1092.2667"
   inkscape:export-xdpi="1092.2667"
   inkscape:export-filename="F:\My Art\SVG &amp; SALES\MOREmoji\SET 3\png\nonbinary_sign_1.png"
   viewBox="0 0 45 45"
   style="enable-background:new 0 0 45 45;"
   xml:space="preserve"
   version="1.1"
   id="svg2"
   sodipodi:docname="nonbinary_sign_1.svg"
   inkscape:version="1.0 (4035a4fb49, 2020-05-01)"><sodipodi:namedview
     inkscape:document-rotation="0"
     pagecolor="#ffffff"
     bordercolor="#666666"
     borderopacity="1"
     objecttolerance="10"
     gridtolerance="10"
     guidetolerance="10"
     inkscape:pageopacity="0"
     inkscape:pageshadow="2"
     inkscape:window-width="1920"
     inkscape:window-height="1027"
     id="namedview24"
     showgrid="false"
     inkscape:zoom="11.910821"
     inkscape:cx="26.58403"
     inkscape:cy="18.673342"
     inkscape:window-x="-8"
     inkscape:window-y="-8"
     inkscape:window-maximized="1"
     inkscape:current-layer="svg2" /><metadata
     id="metadata8"><rdf:RDF><cc:Work
         rdf:about=""><dc:format>image/svg+xml</dc:format><dc:type
           rdf:resource="http://purl.org/dc/dcmitype/StillImage" /><dc:title /></cc:Work></rdf:RDF></metadata><defs
     id="defs6"><clipPath
       id="clipPath16"
       clipPathUnits="userSpaceOnUse"><path
         id="path18"
         d="M 0,36 36,36 36,0 0,0 0,36 Z" /></clipPath></defs><g
     id="g2739"
     transform="matrix(1.2496626,0,0,1.2496626,-154.75773,-156.16183)"><path
       style="fill:#f4900c;fill-opacity:1;stroke-width:1.00027"
       fill="#ea596e"
       d="m 159.84933,128.96427 c 0,-2.20959 -1.79149,-4.00108 -4.00108,-4.00108 h -28.00756 c -2.2096,0 -4.00108,1.79149 -4.00108,4.00108 v 28.00757 c 0,2.2096 1.79148,4.00108 4.00108,4.00108 h 28.00756 c 2.20959,0 4.00108,-1.79148 4.00108,-4.00108 z"
       id="path849-7" /><g
       transform="translate(-3.588455,0.52917497)"
       id="g2314"><path
         fill="#ffffff"
         d="m 145.43292,140.33648 c -4.61809,0 -8.37504,3.75695 -8.37504,8.37505 0,4.61809 3.75695,8.37503 8.37504,8.37503 4.61811,0 8.37505,-3.75694 8.37505,-8.37503 0,-4.6181 -3.75694,-8.37505 -8.37505,-8.37505 z m 0,13.79419 c -2.98841,0 -5.41914,-2.43171 -5.41914,-5.41914 0,-2.98743 2.43073,-5.41915 5.41914,-5.41915 2.98842,0 5.41916,2.43172 5.41916,5.41915 0,2.98743 -2.43074,5.41914 -5.41916,5.41914 z"
         id="path851-2-7-1-3"
         style="stroke-width:0.9853" /><path
         sodipodi:nodetypes="sssssss"
         fill="#ffffff"
         d="m 145.43292,134.35779 c -0.81681,0 -1.47794,0.66211 -1.47794,1.47791 v 5.97876 c 0,0.81581 0.66113,1.47792 1.47794,1.47792 0.81682,0 1.47795,-0.66211 1.47795,-1.47792 v -5.97876 c 0,-0.8158 -0.66113,-1.47791 -1.47795,-1.47791 z"
         id="path853-8-5-3-5"
         style="stroke-width:0.985289" /><path
         style="stroke-width:0.912796"
         id="path853-8-1-7-1-8-5"
         d="m 139.93027,139.2769 c 0.57762,0.5776 1.44695,0.64332 1.942,0.14828 l 9.21157,-9.21159 c 0.49506,-0.49506 0.42937,-1.36438 -0.14826,-1.942 -0.57764,-0.5776 -1.44694,-0.64335 -1.94202,-0.14827 l -9.21156,9.21156 c -0.49506,0.49508 -0.42936,1.36438 0.14827,1.94202 z"
         fill="#ffffff"
         sodipodi:nodetypes="sssssss" /><path
         sodipodi:nodetypes="sssssss"
         fill="#ffffff"
         d="m 139.93027,128.27158 c -0.57762,0.57763 -0.64332,1.44695 -0.14828,1.94201 l 9.21157,9.21156 c 0.49507,0.49509 1.36441,0.42937 1.942,-0.14824 0.57761,-0.57765 0.64336,-1.44694 0.14828,-1.94203 l -9.21157,-9.21156 c -0.49507,-0.49506 -1.36437,-0.42936 -1.942,0.14826 z"
         id="path853-8-1-7-1-8-3-1"
         style="stroke-width:0.912795" /></g></g></svg>
