<svg xmlns="http://www.w3.org/2000/svg" xml:space="preserve" viewBox="0 0 45 45"><path fill="#ea596e" d="M118.635 168.742a4 4 0 0 0-4.001-4H86.626a4 4 0 0 0-4 4v28.008a4 4 0 0 0 4 4h28.008a4 4 0 0 0 4.001-4z" style="fill:#77b255;fill-opacity:1;stroke-width:1.00027" transform="translate(-103.254 -205.735)scale(1.24966)"/><g fill="#fff"><path d="M100.63 180.535c-4.618 0-8.375 3.757-8.375 8.375s3.757 8.375 8.375 8.375 8.375-3.757 8.375-8.375-3.757-8.375-8.375-8.375m0 13.794a5.426 5.426 0 0 1-5.419-5.419 5.425 5.425 0 0 1 5.42-5.419 5.426 5.426 0 0 1 5.418 5.42 5.424 5.424 0 0 1-5.419 5.418" style="stroke-width:.9853" transform="translate(-103.254 -205.735)scale(1.24966)"/><path d="M100.63 168.207c-.817 0-1.478.662-1.478 1.478v12.328a1.478 1.478 0 1 0 2.956 0v-12.328c0-.816-.661-1.478-1.478-1.478" style="stroke-width:.985289" transform="translate(-103.254 -205.735)scale(1.24966)"/><path d="M93.89 178.922c.41.708 1.232.996 1.838.646l11.282-6.513c.606-.35.768-1.207.36-1.915-.409-.707-1.232-.995-1.838-.645l-11.282 6.513c-.606.35-.768 1.207-.36 1.914" style="stroke-width:.912796" transform="translate(-103.254 -205.735)scale(1.24966)"/><path d="M93.89 171.14c-.408.708-.246 1.565.36 1.915l11.282 6.513c.606.35 1.43.062 1.838-.646.408-.707.246-1.564-.36-1.914l-11.282-6.513c-.606-.35-1.429-.062-1.837.645" style="stroke-width:.912795" transform="translate(-103.254 -205.735)scale(1.24966)"/></g></svg>