<svg xmlns="http://www.w3.org/2000/svg" xml:space="preserve" viewBox="0 0 45 45"><path fill="#ea596e" d="M-39.006 129.616a4 4 0 0 1-4 4.001h-28.008a4 4 0 0 1-4.001-4.001v-28.008a4 4 0 0 1 4-4h28.008a4 4 0 0 1 4.001 4z" style="fill:#ffcc4d;fill-opacity:1;stroke-width:1.00027" transform="translate(93.744 -121.84)scale(1.24966)"/><g fill="#fff"><path d="M299.895 229.463c-4.688 0-8.502-3.814-8.502-8.503 0-4.688 3.814-8.502 8.502-8.502s8.503 3.814 8.503 8.502-3.815 8.503-8.503 8.503m0-14.004a5.51 5.51 0 0 0-5.501 5.501 5.51 5.51 0 0 0 5.501 5.502 5.51 5.51 0 0 0 5.502-5.502 5.51 5.51 0 0 0-5.502-5.501" style="stroke-width:1.00027" transform="rotate(45 454.23 -248.69)scale(1.1363)"/><path d="M299.895 238.465a1.5 1.5 0 0 1-1.5-1.5v-9.003a1.5 1.5 0 1 1 3 0v9.002a1.5 1.5 0 0 1-1.5 1.5" style="stroke-width:1.00026" transform="rotate(45 454.23 -248.69)scale(1.1363)"/><path d="M304.772 234.464h-9.753a1.5 1.5 0 1 1 0-3h9.753a1.5 1.5 0 1 1 0 3" style="stroke-width:1.00026" transform="rotate(45 454.23 -248.69)scale(1.1363)"/><path d="m298.824 198.313-6.344 6.344a1.5 1.5 0 1 0 2.122 2.122l3.782-3.783-.085 9.817h3l.086-9.817 3.804 3.805a1.501 1.501 0 0 0 2.122-2.122l-6.366-6.366a1.5 1.5 0 0 0-2.121 0" style="stroke-width:1.00028" transform="rotate(45 454.23 -248.69)scale(1.1363)"/><path d="M308.846 229.366a1.49 1.49 0 0 1-.322-2.094 10.64 10.64 0 0 0 2.07-6.312c0-5.908-4.79-10.698-10.699-10.698a10.686 10.686 0 0 0-10.588 9.223 1.49 1.49 0 0 1-1.687 1.28 1.5 1.5 0 0 1-1.277-1.695 13.684 13.684 0 1 1 24.6 9.965 1.5 1.5 0 0 1-2.097.331" style="stroke-width:1.00026" transform="rotate(45 454.23 -248.69)scale(1.1363)"/></g></svg>