<?xml version="1.0" encoding="UTF-8" standalone="no"?>
<svg
   xmlns:dc="http://purl.org/dc/elements/1.1/"
   xmlns:cc="http://creativecommons.org/ns#"
   xmlns:rdf="http://www.w3.org/1999/02/22-rdf-syntax-ns#"
   xmlns:svg="http://www.w3.org/2000/svg"
   xmlns="http://www.w3.org/2000/svg"
   xmlns:sodipodi="http://sodipodi.sourceforge.net/DTD/sodipodi-0.dtd"
   xmlns:inkscape="http://www.inkscape.org/namespaces/inkscape"
   inkscape:export-ydpi="1092.2667"
   inkscape:export-xdpi="1092.2667"
   inkscape:export-filename="F:\My Art\SVG &amp; SALES\MOREmoji\SET 3\png\nonbinary_sign_2.png"
   viewBox="0 0 45 45"
   style="enable-background:new 0 0 45 45;"
   xml:space="preserve"
   version="1.1"
   id="svg2"
   sodipodi:docname="nonbinary_sign_2.svg"
   inkscape:version="1.0 (4035a4fb49, 2020-05-01)"><sodipodi:namedview
     inkscape:document-rotation="0"
     pagecolor="#ffffff"
     bordercolor="#666666"
     borderopacity="1"
     objecttolerance="10"
     gridtolerance="10"
     guidetolerance="10"
     inkscape:pageopacity="0"
     inkscape:pageshadow="2"
     inkscape:window-width="1920"
     inkscape:window-height="1027"
     id="namedview24"
     showgrid="false"
     inkscape:zoom="4.2111111"
     inkscape:cx="-26.29017"
     inkscape:cy="29.453543"
     inkscape:window-x="-8"
     inkscape:window-y="-8"
     inkscape:window-maximized="1"
     inkscape:current-layer="svg2" /><metadata
     id="metadata8"><rdf:RDF><cc:Work
         rdf:about=""><dc:format>image/svg+xml</dc:format><dc:type
           rdf:resource="http://purl.org/dc/dcmitype/StillImage" /><dc:title /></cc:Work></rdf:RDF></metadata><defs
     id="defs6"><clipPath
       id="clipPath16"
       clipPathUnits="userSpaceOnUse"><path
         id="path18"
         d="M 0,36 36,36 36,0 0,0 0,36 Z" /></clipPath></defs><g
     id="g2719"
     transform="matrix(1.2496623,0,0,1.2496623,-103.25376,-205.73543)"><path
       id="path849-7-0"
       d="m 118.63506,168.74219 c 0,-2.20958 -1.79149,-4.00108 -4.00108,-4.00108 H 86.626412 c -2.2096,0 -4.00108,1.7915 -4.00108,4.00108 v 28.00758 c 0,2.2096 1.79148,4.00108 4.00108,4.00108 h 28.007568 c 2.20959,0 4.00108,-1.79148 4.00108,-4.00108 z"
       fill="#ea596e"
       style="fill:#77b255;fill-opacity:1;stroke-width:1.00027" /><g
       id="g1128"><path
         style="stroke-width:0.9853"
         id="path851-2-7-1"
         d="m 100.63019,180.53529 c -4.61809,0 -8.375036,3.75694 -8.375036,8.37504 0,4.6181 3.756946,8.37504 8.375036,8.37504 4.61811,0 8.37505,-3.75694 8.37505,-8.37504 0,-4.6181 -3.75694,-8.37504 -8.37505,-8.37504 z m 0,13.79419 c -2.988411,0 -5.419139,-2.43171 -5.419139,-5.41915 0,-2.98743 2.430728,-5.41915 5.419139,-5.41915 2.98842,0 5.41916,2.43172 5.41916,5.41915 0,2.98744 -2.43074,5.41915 -5.41916,5.41915 z"
         fill="#ffffff" /><path
         style="stroke-width:0.985289"
         id="path853-8-5-3"
         d="m 100.63019,168.20659 c -0.816809,0 -1.477942,0.66211 -1.477942,1.47792 v 12.32876 c 0,0.8158 0.661133,1.47791 1.477942,1.47791 0.81682,0 1.47796,-0.66211 1.47796,-1.47791 v -12.32876 c 0,-0.81581 -0.66114,-1.47792 -1.47796,-1.47792 z"
         fill="#ffffff"
         sodipodi:nodetypes="sssssss" /><path
         sodipodi:nodetypes="sssssss"
         fill="#ffffff"
         d="m 93.89085,178.92235 c 0.408442,0.70743 1.231143,0.9959 1.837455,0.64585 l 11.281815,-6.51357 c 0.60634,-0.35006 0.76788,-1.20677 0.35943,-1.9142 -0.40846,-0.70742 -1.23113,-0.99592 -1.83748,-0.64585 l -11.281812,6.51356 c -0.606322,0.35007 -0.767857,1.20676 -0.359408,1.91421 z"
         id="path853-8-1-7-1-8"
         style="stroke-width:0.912796" /><path
         style="stroke-width:0.912795"
         id="path853-8-1-7-1-8-3"
         d="m 93.890851,171.14042 c -0.408431,0.70744 -0.246902,1.56415 0.359407,1.91421 l 11.281832,6.51356 c 0.60633,0.35007 1.42903,0.0616 1.83746,-0.64583 0.40841,-0.70745 0.24693,-1.56415 -0.35942,-1.91422 l -11.281822,-6.51356 c -0.606326,-0.35006 -1.429009,-0.0616 -1.837457,0.64584 z"
         fill="#ffffff"
         sodipodi:nodetypes="sssssss" /></g></g></svg>
