<svg xmlns="http://www.w3.org/2000/svg" xml:space="preserve" viewBox="0 0 45 45"><defs><clipPath id="a" clipPathUnits="userSpaceOnUse"><path d="M50.327-59.917v2.5a5 5 0 0 0 4.999 5h35.002a5 5 0 0 0 4.999-5v-21.797c0-3.15-2.238-5.703-5-5.703h-35c-2.762 0-5 2.553-5 5.703v12.43z" style="fill:#5bcefa;fill-opacity:1;fill-rule:nonzero;stroke:none"/></clipPath></defs><g clip-path="url(#a)" transform="translate(-50.03 92.042)"><path d="M50.343-66.378v8.961a5 5 0 0 0 4.997 5h34.974a5 5 0 0 0 4.996-5v-8.961z" style="fill:#2d2d2d;fill-opacity:1;fill-rule:nonzero;stroke:none"/><path d="M95.31-67.189v-12.025c0-3.15-2.237-5.703-4.996-5.703H55.34c-2.76 0-4.997 2.553-4.997 5.703v12.025z" style="fill:#fff433;fill-opacity:1;fill-rule:nonzero;stroke:none"/><path d="M95.327-68.667v8.125h-45v-8.03z" style="opacity:1;fill:#9b59d0;fill-opacity:1;fill-rule:nonzero;stroke:none;stroke-width:.60000002;stroke-linecap:round;stroke-linejoin:round;stroke-miterlimit:4;stroke-dasharray:none;stroke-dashoffset:0;stroke-opacity:1"/><path d="M95.327-76.792v8.125h-45v-8.03z" style="opacity:1;fill:#fff;fill-opacity:1;fill-rule:nonzero;stroke:none;stroke-width:.60000002;stroke-linecap:round;stroke-linejoin:round;stroke-miterlimit:4;stroke-dasharray:none;stroke-dashoffset:0;stroke-opacity:1"/></g></svg>