<svg xmlns="http://www.w3.org/2000/svg" xml:space="preserve" viewBox="0 0 45 45"><path d="M0 0c0-9.941-8.059-18-18-18-9.94 0-18 8.059-18 18 0 9.94 8.06 18 18 18C-8.059 18 0 9.94 0 0" style="fill:#ffcc4d;fill-opacity:1;fill-rule:nonzero;stroke:none" transform="matrix(1.25 0 0 -1.25 45 22.5)"/><g style="fill:#ff7892;fill-opacity:1"><g style="fill:#ff7892;fill-opacity:1"><path d="M0 0a5 5 0 0 0-5-5 5 5 0 0 0-5 5 5 5 0 0 0 5 5 5 5 0 0 0 5-5" style="fill:#ff7892;fill-opacity:1;fill-rule:nonzero;stroke:none" transform="matrix(1.25 0 0 -1.25 42.5 28.514)"/></g><g style="fill:#ff7892;fill-opacity:1"><path d="M0 0a5 5 0 0 0-5-5 5 5 0 0 0-5 5 5 5 0 0 0 5 5 5 5 0 0 0 5-5" style="fill:#ff7892;fill-opacity:1;fill-rule:nonzero;stroke:none" transform="matrix(1.25 0 0 -1.25 15 28.514)"/></g></g><path d="M0 0c1.335.412 3.014 2.29 3.014 3.633 0 2.62-3.35 1.75-4.033 1.623s-2.296-.791-2.312-1.065c.027-.142.587.094 1.058.234.47.14 3.287.587 3.287-1.115S-2.871.5-2.906.499l-.027-.007a.43.43 0 0 1-.309-.159l-.015-.021A.6.6 0 0 1-3.33.187q-.015-.041-.022-.085C-3.356.078-3.368.056-3.37.031c-.001-.01.004-.02.004-.031s-.005-.021-.004-.031c.002-.026.013-.046.018-.071q.007-.044.023-.086.021-.048.051-.088.022-.036.049-.068a.5.5 0 0 1 .082-.062l.071-.046a.4.4 0 0 1 .1-.027c.024-.006.044-.018.07-.02.035-.002 2.908-.44 2.908-2.143-.347-2.432-3.587-.218-3.67-.152 1.166-2.758 4.911-1.821 5.103.092C1.503-1.36.728-.513 0 0" style="fill:#664500;fill-opacity:1;fill-rule:nonzero;stroke:none" transform="matrix(1.25 0 0 -1.25 25.69 33.747)"/><g style="fill:#664500;fill-opacity:1"><path d="M0 0c0-1.105-.904-2-2.02-2a2.01 2.01 0 0 0-2.019 2c0 1.104.904 1.998 2.019 1.998S0 1.104 0 0" style="fill:#664500;fill-opacity:1;fill-rule:nonzero;stroke:none" transform="matrix(1.98755 0 0 -1.98755 16.57 20.144)"/></g><g style="fill:#664500;fill-opacity:1"><path d="M0 1.006c0-1.105-.904-2-2.02-2a2.01 2.01 0 0 0-2.019 2c0 1.104.904 1.998 2.019 1.998S0 2.11 0 1.006" style="fill:#664500;fill-opacity:1;fill-rule:nonzero;stroke:none" transform="matrix(1.98755 0 0 -1.98755 36.459 22.146)"/></g><path d="M0 0s5 1 8-2" style="fill:none;stroke:#664500;stroke-width:2;stroke-linecap:round;stroke-linejoin:round;stroke-miterlimit:4;stroke-dasharray:none;stroke-opacity:1" transform="matrix(1.25 0 0 -1.25 28.25 10.8)"/><path d="M0 0s-5 1-8-2" style="fill:none;stroke:#664500;stroke-width:2;stroke-linecap:round;stroke-linejoin:round;stroke-miterlimit:4;stroke-dasharray:none;stroke-opacity:1" transform="matrix(1.25 0 0 -1.25 16.75 10.8)"/></svg>