<svg xmlns="http://www.w3.org/2000/svg" xml:space="preserve" viewBox="0 0 45 45"><path d="M45 22.517c0 12.426-10.074 22.5-22.5 22.5S0 34.943 0 22.517 10.075.017 22.5.017 45 10.092 45 22.517" style="fill:#ffcc4d;fill-opacity:1;fill-rule:nonzero;stroke:none"/><path d="M0 0c0-1.934-1.119-3.5-2.5-3.5S-5-1.934-5 0s1.119 3.5 2.5 3.5S0 1.933 0 0" style="fill:#664500;fill-opacity:1;fill-rule:nonzero;stroke:none" transform="matrix(1.25 0 0 -1.25 17.5 20.625)"/><path d="M0 0c0-1.934-1.119-3.5-2.5-3.5S-5-1.934-5 0s1.119 3.5 2.5 3.5S0 1.933 0 0" style="fill:#664500;fill-opacity:1;fill-rule:nonzero;stroke:none" transform="matrix(1.25 0 0 -1.25 33.75 20.625)"/><path d="M0 0a1 1 0 0 0-.371.072C-5.6 2.163-7.743 5.312-7.832 5.446A1 1 0 0 0-6.17 6.559c.019-.028 1.93-2.786 6.541-4.63A1 1 0 0 0 0 0" style="fill:#664500;fill-opacity:1;fill-rule:nonzero;stroke:none" transform="matrix(1.25 0 0 -1.25 37.5 21.562)"/><path d="M0 0a1.001 1.001 0 0 0-.372 1.929C4.24 3.773 6.151 6.531 6.17 6.559a1 1 0 0 0 1.662-1.113C7.743 5.312 5.599 2.163.371.072A1 1 0 0 0 0 0" style="fill:#664500;fill-opacity:1;fill-rule:nonzero;stroke:none" transform="matrix(1.25 0 0 -1.25 7.5 21.562)"/><path d="M-5.485 4.379c-2.95 0-6.92-4.595-4.088-4.595.98.027.463.299 4.107.299" style="fill:#664500;fill-opacity:1;fill-rule:nonzero;stroke:none" transform="matrix(1.89673 0 0 -2.39104 32.922 37.177)"/><path d="M-5.485 4.379c-2.95 0-6.92-4.595-4.088-4.595.98.027.463.299 4.107.299" style="fill:#664500;fill-opacity:1;fill-rule:nonzero;stroke:none" transform="matrix(-1.89673 0 0 -2.39104 12.078 37.177)"/><g style="fill:#e75a70;fill-opacity:1"><path d="M-5.485 4.379c-2.95 0-7.003-4.376-4.172-4.376.98.027.547.08 4.191.08" style="fill:#e75a70;fill-opacity:1;fill-rule:nonzero;stroke:none" transform="matrix(.91303 0 0 -.87127 27.544 35.468)"/></g><g style="fill:#e75a70;fill-opacity:1"><path d="M-5.485 4.379c-2.95 0-6.933-4.39-4.102-4.39.98.027.477.094 4.121.094" style="fill:#e75a70;fill-opacity:1;fill-rule:nonzero;stroke:none" transform="matrix(-.91303 0 0 -.87127 17.51 35.468)"/></g></svg>