<svg xmlns="http://www.w3.org/2000/svg" xml:space="preserve" viewBox="0 0 45 45"><path d="M0 0c0-9.941-8.059-18-18-18-9.94 0-18 8.059-18 18 0 9.94 8.06 18 18 18C-8.059 18 0 9.94 0 0" style="fill:#ffcc4d;fill-opacity:1;fill-rule:nonzero;stroke:none" transform="matrix(1.25 0 0 -1.25 45 22.5)"/><path d="M0 0c-5.554 0-7.802 4.367-7.895 4.553a1 1 0 0 0 1.788.898C-6.033 5.306-4.287 2 0 2a1 1 0 1 0 0-2" style="fill:#664500;fill-opacity:1;fill-rule:nonzero;stroke:none" transform="matrix(1.25 0 0 -1.25 37.5 18.125)"/><path d="M0 0a1 1 0 0 0 0 2c5.083 0 5.996 3.12 6.033 3.253.145.528.69.848 1.219.709a.995.995 0 0 0 .718-1.205C7.921 4.563 6.704 0 0 0" style="fill:#664500;fill-opacity:1;fill-rule:nonzero;stroke:none" transform="matrix(1.25 0 0 -1.25 7.5 18.125)"/><g style="fill:#664500;fill-opacity:1"><path d="M.2.468c-1.509-.3-3.732-.553-5.201 2.428a1 1 0 0 0 .64 1.261.997.997 0 0 0 1.256-.624c.044-.116.804-1.164 1.51-1.407.708-.243 2.405.23 1.84 1.12-1.067 1.68.462 2.1 1.61 1.013C3.228 2.959 1.777.782.2.469" style="fill:#664500;fill-opacity:1;fill-rule:nonzero;stroke:none" transform="matrix(1.07024 0 0 -1.25 26.886 33.473)"/></g><g style="fill:#664500;fill-opacity:1"><path d="M.2.468c-1.509-.3-3.732-.553-5.201 2.428a1 1 0 0 0 .64 1.261.997.997 0 0 0 1.256-.624c.044-.116.804-1.164 1.51-1.407.708-.243 2.405.23 1.84 1.12-1.067 1.68.462 2.1 1.61 1.013C3.228 2.959 1.777.782.2.469" style="fill:#664500;fill-opacity:1;fill-rule:nonzero;stroke:none" transform="matrix(-1.07024 0 0 -1.25 18.114 33.473)"/></g><path d="M0 0a5 5 0 0 0-6.077-3.615 5 5 0 0 0-3.615 6.076c.679 2.677 6.337 8.708 7.307 8.462C-1.417 10.677.679 2.677 0 0" style="fill:#5dadec;fill-opacity:1;fill-rule:nonzero;stroke:none" transform="matrix(.82912 0 0 -.82912 15.114 32.009)"/><path d="M0 0a5 5 0 0 1 6.077-3.615 5 5 0 0 1 3.616 6.076c-.679 2.677-6.338 8.708-7.307 8.462S-.679 2.677 0 0" style="fill:#5dadec;fill-opacity:1;fill-rule:nonzero;stroke:none" transform="matrix(.82912 0 0 -.82912 29.885 32.009)"/><g style="fill:#664500;fill-opacity:1"><path d="M0 0c0-1.105-.904-2-2.02-2a2.01 2.01 0 0 0-2.019 2c0 1.104.904 1.998 2.019 1.998S0 1.104 0 0" style="fill:#664500;fill-opacity:1;fill-rule:nonzero;stroke:none" transform="matrix(1.25 0 0 -1.25 17.512 22.145)"/></g><g style="fill:#664500;fill-opacity:1"><path d="M0 0c0-1.105-.904-2-2.02-2a2.01 2.01 0 0 0-2.019 2c0 1.104.904 1.998 2.019 1.998S0 1.104 0 0" style="fill:#664500;fill-opacity:1;fill-rule:nonzero;stroke:none" transform="matrix(1.25 0 0 -1.25 32.537 22.146)"/></g></svg>