<svg xmlns="http://www.w3.org/2000/svg" xml:space="preserve" viewBox="0 0 45 45"><g style="fill:#ffcc4d;fill-opacity:1"><path d="M0 0c-2.168 2.383-6.68 4.172-7.606 3.945-.753-.181-.636-6.386-.031-9.937C-5.074-1.742 0 0 0 0" style="fill:#ffcc4d;fill-opacity:1;fill-rule:nonzero;stroke:none" transform="matrix(3.30227 0 0 -2.09116 27.197 8.324)"/></g><g style="fill:#ffcc4d;fill-opacity:1"><path d="M1.312.926c-1.719 2.383-5.295 4.172-6.03 3.945-.596-.181-.503-6.386-.024-9.937C-2.71-.816 1.312.926 1.312.926" style="fill:#ff7892;fill-opacity:1;fill-rule:nonzero;stroke:none" transform="matrix(2.31313 0 0 -1.58235 14.941 10.926)"/></g><g style="fill:#ffcc4d;fill-opacity:1"><path d="M0 0c-2.168 2.383-6.68 4.172-7.606 3.945-.753-.181-.636-6.386-.031-9.937C-5.074-1.742 0 0 0 0" style="fill:#ffcc4d;fill-opacity:1;fill-rule:nonzero;stroke:none" transform="matrix(-3.30227 0 0 -2.09116 17.803 8.324)"/></g><g style="fill:#ffcc4d;fill-opacity:1"><path d="M1.312.926c-1.719 2.383-5.295 4.172-6.03 3.945-.596-.181-.503-6.386-.024-9.937C-2.71-.816 1.312.926 1.312.926" style="fill:#ff7892;fill-opacity:1;fill-rule:nonzero;stroke:none" transform="matrix(-2.31313 0 0 -1.58235 30.059 10.926)"/></g><path d="M0 0c0-9.941-8.059-18-18-18-9.94 0-18 8.059-18 18 0 9.94 8.06 18 18 18C-8.059 18 0 9.94 0 0" style="fill:#ffcc4d;fill-opacity:1;fill-rule:nonzero;stroke:none" transform="matrix(1.15972 0 0 -1.15972 43.375 24.125)"/><g style="fill:#664500;fill-opacity:1"><path d="M.2.468c-1.509-.3-3.732-.553-5.201 2.428a1 1 0 0 0 .64 1.261.997.997 0 0 0 1.256-.624c.044-.116.804-1.164 1.51-1.407.708-.243 2.405.23 1.84 1.12-1.067 1.68.462 2.1 1.61 1.013C3.228 2.959 1.777.782.2.469" style="fill:#664500;fill-opacity:1;fill-rule:nonzero;stroke:none" transform="matrix(1.07024 0 0 -1.25 26.886 33.473)"/></g><g style="fill:#664500;fill-opacity:1"><path d="M.2.468c-1.509-.3-3.732-.553-5.201 2.428a1 1 0 0 0 .64 1.261.997.997 0 0 0 1.256-.624c.044-.116.804-1.164 1.51-1.407.708-.243 2.405.23 1.84 1.12-1.067 1.68.462 2.1 1.61 1.013C3.228 2.959 1.777.782.2.469" style="fill:#664500;fill-opacity:1;fill-rule:nonzero;stroke:none" transform="matrix(-1.07024 0 0 -1.25 18.114 33.473)"/></g><g style="fill:#664500;fill-opacity:1"><path d="M0 0c0-1.105-.904-2-2.02-2a2.01 2.01 0 0 0-2.019 2c0 1.104.904 1.998 2.019 1.998S0 1.104 0 0" style="fill:#664500;fill-opacity:1;fill-rule:nonzero;stroke:none" transform="matrix(1.25 0 0 -1.25 17.512 22.145)"/></g><g style="fill:#664500;fill-opacity:1"><path d="M0 0c0-1.105-.904-2-2.02-2a2.01 2.01 0 0 0-2.019 2c0 1.104.904 1.998 2.019 1.998S0 1.104 0 0" style="fill:#664500;fill-opacity:1;fill-rule:nonzero;stroke:none" transform="matrix(1.25 0 0 -1.25 32.537 22.146)"/></g><g style="fill:#f4900c;fill-opacity:1"><g style="fill:#f4900c;fill-opacity:1"><g style="fill:#f4900c;fill-opacity:1"><path d="M4.65-3.008a.78.78 0 0 1 .553.513c.013.041 1.41 4.116 7.697 7.045.474.221.595.798.27 1.289-.327.49-.975.706-1.45.488q-.478-.222-.924-.453c-6.172-3.197-7.543-7.338-7.601-7.52-.153-.485.173-1.068.727-1.301a1.12 1.12 0 0 1 .729-.06" style="fill:#f4900c;fill-opacity:1;fill-rule:nonzero;stroke:none" transform="matrix(.25547 .70189 .92582 -.33697 3.135 20.144)"/></g><g style="fill:#f4900c;fill-opacity:1"><path d="M0 0a1.001 1.001 0 0 1 .347 1.938c-5.477 2.024-12.161.189-12.451.109a1 1 0 0 1 .535-1.928c.064.018 6.358 1.739 11.222-.058Q-.173 0 0 0" style="fill:#f4900c;fill-opacity:1;fill-rule:nonzero;stroke:none" transform="matrix(.73559 -.1297 -.17108 -.97027 11.502 30.132)"/></g></g><g style="fill:#f4900c;fill-opacity:1"><g style="fill:#f4900c;fill-opacity:1"><path d="M4.65-3.008a.78.78 0 0 1 .553.513c.013.041 1.41 4.116 7.697 7.045.474.221.595.798.27 1.289-.327.49-.975.706-1.45.488q-.478-.222-.924-.453c-6.172-3.197-7.543-7.338-7.601-7.52-.153-.485.173-1.068.727-1.301a1.12 1.12 0 0 1 .729-.06" style="fill:#f4900c;fill-opacity:1;fill-rule:nonzero;stroke:none" transform="matrix(-.25547 .70189 -.92582 -.33697 41.865 20.144)"/></g><g style="fill:#f4900c;fill-opacity:1"><path d="M0 0a1.001 1.001 0 0 1 .347 1.938c-5.477 2.024-12.161.189-12.451.109a1 1 0 0 1 .535-1.928c.064.018 6.358 1.739 11.222-.058Q-.173 0 0 0" style="fill:#f4900c;fill-opacity:1;fill-rule:nonzero;stroke:none" transform="matrix(-.73559 -.1297 .17108 -.97027 33.498 30.132)"/></g></g></g></svg>