<svg xmlns="http://www.w3.org/2000/svg" xml:space="preserve" viewBox="0 0 45 45"><path d="M0 0c0-9.941-8.059-18-18-18-9.94 0-18 8.059-18 18 0 9.94 8.06 18 18 18C-8.059 18 0 9.94 0 0" style="fill:#ffcc4d;fill-opacity:1;fill-rule:nonzero;stroke:none" transform="matrix(1.25 0 0 -1.25 45 22.5)"/><g style="fill:#664500;fill-opacity:1"><path d="M.2.468c-1.509-.3-3.732-.553-5.201 2.428a1 1 0 0 0 .64 1.261.997.997 0 0 0 1.256-.624c.044-.116.804-1.164 1.51-1.407.708-.243 2.405.23 1.84 1.12-1.067 1.68.462 2.1 1.61 1.013C3.228 2.959 1.777.782.2.469" style="fill:#664500;fill-opacity:1;fill-rule:nonzero;stroke:none" transform="matrix(1.07024 0 0 -1.25 26.886 33.473)"/></g><g style="fill:#664500;fill-opacity:1"><path d="M.2.468c-1.509-.3-3.732-.553-5.201 2.428a1 1 0 0 0 .64 1.261.997.997 0 0 0 1.256-.624c.044-.116.804-1.164 1.51-1.407.708-.243 2.405.23 1.84 1.12-1.067 1.68.462 2.1 1.61 1.013C3.228 2.959 1.777.782.2.469" style="fill:#664500;fill-opacity:1;fill-rule:nonzero;stroke:none" transform="matrix(-1.07024 0 0 -1.25 18.114 33.473)"/></g><g style="fill:#664500;fill-opacity:1"><path d="M0 0c0-1.934-1.119-3.5-2.5-3.5S-5-1.934-5 0s1.119 3.5 2.5 3.5S0 1.933 0 0" style="fill:#664500;fill-opacity:1;fill-rule:nonzero;stroke:none" transform="matrix(1.25 0 0 -1.25 18.794 20.196)"/></g><g style="fill:#ffcc4d;fill-opacity:1"><path d="M0 0a1 1 0 0 0-.799 1.6C2.463 5.95 6.817 6 7.001 6a1 1 0 0 0 .004-2C6.85 3.998 3.436 3.914.801.4A1 1 0 0 0 0 0" style="fill:#ffcc4d;fill-opacity:1;fill-rule:nonzero;stroke:none" transform="rotate(160 8.04 11.396)scale(1.25)"/></g><path d="M25.959 16.082c.368.1.775.03 1.096-.223 4.327-3.398 8.483-2.385 8.658-2.34a1.253 1.253 0 0 0 1.522-.892 1.247 1.247 0 0 0-.882-1.524c-.222-.06-5.494-1.407-10.841 2.79a1.249 1.249 0 0 0 .447 2.19" style="fill:#664500;fill-opacity:1;fill-rule:nonzero;stroke:none"/><path d="M0 0a1 1 0 0 0-.799 1.6C2.463 5.95 6.817 6 7.001 6a1 1 0 0 0 .004-2C6.85 3.998 3.436 3.914.801.4A1 1 0 0 0 0 0" style="fill:#664500;fill-opacity:1;fill-rule:nonzero;stroke:none" transform="rotate(165 8.464 9.295)scale(1.25)"/><path d="M36.092 20.196c0 2.417-1.399 4.375-3.125 4.375s-3.125-1.958-3.125-4.375 1.399-4.375 3.125-4.375 3.125 1.959 3.125 4.375" style="fill:#664500;fill-opacity:1;fill-rule:nonzero;stroke:none"/><path d="M0 0a1 1 0 0 0-.799 1.6C2.463 5.95 6.817 6 7.001 6a1 1 0 0 0 .004-2C6.85 3.998 3.436 3.914.801.4A1 1 0 0 0 0 0" style="fill:#664500;fill-opacity:1;fill-rule:nonzero;stroke:none" transform="rotate(160 7.865 11.756)scale(1.25)"/><path d="M25.728 20.113c.358.13.77.097 1.111-.127 4.607-3.008 8.659-1.637 8.83-1.576a1.253 1.253 0 0 0 1.593-.757c.232-.648-.1-1.36-.746-1.595-.216-.078-5.35-1.88-11.043 1.834a1.249 1.249 0 0 0 .255 2.221" style="fill:#664500;fill-opacity:1;fill-rule:nonzero;stroke:none"/></svg>