<svg xmlns="http://www.w3.org/2000/svg" xml:space="preserve" viewBox="0 0 45 45"><defs><clipPath id="a" clipPathUnits="userSpaceOnUse"><path d="M.297 32.125v2.5a5 5 0 0 0 4.999 5h35.002a5 5 0 0 0 4.999-5V12.829c0-3.15-2.238-5.704-4.999-5.704H5.296c-2.762 0-5 2.553-5 5.703v12.43z" style="fill:#5bcefa;fill-opacity:1;fill-rule:nonzero;stroke:none"/></clipPath></defs><g clip-path="url(#a)" transform="translate(-.515 -.28)"><path d="M.297 25.664v8.961a5 5 0 0 0 5 5h35a5 5 0 0 0 5-5v-8.96z" style="fill:#21b1ff;fill-opacity:1;fill-rule:nonzero;stroke:none"/><path d="M45.297 24.854V12.828c0-3.15-2.239-5.703-5-5.703h-35c-2.761 0-5 2.553-5 5.703v12.026z" style="fill:#ff218c;fill-opacity:1;fill-rule:nonzero;stroke:none"/><path d="M.297 28.423V18.136h45v10.478z" style="opacity:1;fill:#ffd800;fill-opacity:1;fill-rule:nonzero;stroke:none;stroke-width:.60000002;stroke-linecap:round;stroke-linejoin:round;stroke-miterlimit:4;stroke-dasharray:none;stroke-dashoffset:0;stroke-opacity:1"/></g></svg>