<svg xmlns="http://www.w3.org/2000/svg" width="210mm" height="297mm" viewBox="0 0 210 297"><defs><clipPath id="a" clipPathUnits="userSpaceOnUse"><path d="M117.982 131.46a1.775 1.775 0 0 1-1.809 1.74 1.775 1.775 0 0 1-1.74-1.81 1.775 1.775 0 0 1 1.81-1.74 1.775 1.775 0 0 1 1.74 1.81" style="fill:#77b255;fill-opacity:1;fill-rule:evenodd;stroke:none;stroke-width:.0237205;stroke-linecap:round;stroke-linejoin:round;stroke-miterlimit:4;stroke-dasharray:none;stroke-opacity:1;paint-order:normal"/></clipPath><clipPath id="b" clipPathUnits="userSpaceOnUse"><path d="M117.982 131.46a1.775 1.775 0 0 1-1.809 1.74 1.775 1.775 0 0 1-1.74-1.81 1.775 1.775 0 0 1 1.81-1.74 1.775 1.775 0 0 1 1.74 1.81" style="fill:#77b255;fill-opacity:1;fill-rule:evenodd;stroke:none;stroke-width:.0237205;stroke-linecap:round;stroke-linejoin:round;stroke-miterlimit:4;stroke-dasharray:none;stroke-opacity:1;paint-order:normal"/></clipPath><clipPath id="c" clipPathUnits="userSpaceOnUse"><path d="M117.982 131.46a1.775 1.775 0 0 1-1.809 1.74 1.775 1.775 0 0 1-1.74-1.81 1.775 1.775 0 0 1 1.81-1.74 1.775 1.775 0 0 1 1.74 1.81" style="fill:#77b255;fill-opacity:1;fill-rule:evenodd;stroke:none;stroke-width:.0237205;stroke-linecap:round;stroke-linejoin:round;stroke-miterlimit:4;stroke-dasharray:none;stroke-opacity:1;paint-order:normal"/></clipPath></defs><path d="M118.068 226.675c-6.231 3.626-5.14 7.863 4.699 11.153 23.22 7.766 43.125 1.123 67.867-22.828 43.662-42.266 21.914-69.048 22.525-77.56-25.965 30.651-41.668 59.715-95.09 89.235" style="fill:#497d28;fill-opacity:1;stroke:none;stroke-width:.249627px;stroke-linecap:butt;stroke-linejoin:miter;stroke-opacity:1" transform="translate(-57.074 -34.396)"/><path d="M199.56 164.705a13.007 13.007 0 0 1-.36 18.39 13.007 13.007 0 0 1-18.39-.359 13.007 13.007 0 0 1 .359-18.39 13.007 13.007 0 0 1 18.39.359z" style="fill:#77b255;fill-opacity:1;fill-rule:evenodd;stroke:none;stroke-width:.173836;stroke-linecap:round;stroke-linejoin:round;stroke-miterlimit:4;stroke-dasharray:none;stroke-opacity:1;paint-order:normal" transform="translate(-65.227 -48.306)scale(1.08103)"/><path d="M115.894 131.46a1.775 1.775 0 0 1-1.809 1.74 1.775 1.775 0 0 1-1.74-1.81 1.775 1.775 0 0 1 1.81-1.74 1.775 1.775 0 0 1 1.74 1.81" clip-path="url(#a)" style="fill:#497d28;fill-opacity:1;fill-rule:evenodd;stroke:none;stroke-width:.0237205;stroke-linecap:round;stroke-linejoin:round;stroke-miterlimit:4;stroke-dasharray:none;stroke-opacity:1;paint-order:normal" transform="rotate(-45 -557.943 1532.203)scale(7.92229)"/><path d="M159.333 179.748a20.514 20.514 0 0 1-.567 29.005 20.514 20.514 0 0 1-29.005-.566 20.514 20.514 0 0 1 .566-29.005 20.514 20.514 0 0 1 29.005.566z" style="fill:#77b255;fill-opacity:1;fill-rule:evenodd;stroke:none;stroke-width:.274172;stroke-linecap:round;stroke-linejoin:round;stroke-miterlimit:4;stroke-dasharray:none;stroke-opacity:1;paint-order:normal" transform="translate(25.969 21.867)scale(.68541)"/><path d="M115.894 131.46a1.775 1.775 0 0 1-1.809 1.74 1.775 1.775 0 0 1-1.74-1.81 1.775 1.775 0 0 1 1.81-1.74 1.775 1.775 0 0 1 1.74 1.81" clip-path="url(#b)" style="fill:#497d28;fill-opacity:1;fill-rule:evenodd;stroke:none;stroke-width:.0237205;stroke-linecap:round;stroke-linejoin:round;stroke-miterlimit:4;stroke-dasharray:none;stroke-opacity:1;paint-order:normal" transform="rotate(-45 -547.113 1558.362)scale(7.92229)"/><path d="M159.333 179.748a20.514 20.514 0 0 1-.567 29.005 20.514 20.514 0 0 1-29.005-.566 20.514 20.514 0 0 1 .566-29.005 20.514 20.514 0 0 1 29.005.566z" style="fill:#77b255;fill-opacity:1;fill-rule:evenodd;stroke:none;stroke-width:.274172;stroke-linecap:round;stroke-linejoin:round;stroke-miterlimit:4;stroke-dasharray:none;stroke-opacity:1;paint-order:normal" transform="translate(10.644 37.191)scale(.68541)"/><path d="M115.894 131.46a1.775 1.775 0 0 1-1.809 1.74 1.775 1.775 0 0 1-1.74-1.81 1.775 1.775 0 0 1 1.81-1.74 1.775 1.775 0 0 1 1.74 1.81" clip-path="url(#c)" style="fill:#497d28;fill-opacity:1;fill-rule:evenodd;stroke:none;stroke-width:.0237205;stroke-linecap:round;stroke-linejoin:round;stroke-miterlimit:4;stroke-dasharray:none;stroke-opacity:1;paint-order:normal" transform="rotate(-45 -536.268 1584.521)scale(7.92229)"/><path d="M199.56 164.705a13.007 13.007 0 0 1-.36 18.39 13.007 13.007 0 0 1-18.39-.359 13.007 13.007 0 0 1 .359-18.39 13.007 13.007 0 0 1 18.39.359z" style="fill:#77b255;fill-opacity:1;fill-rule:evenodd;stroke:none;stroke-width:.173836;stroke-linecap:round;stroke-linejoin:round;stroke-miterlimit:4;stroke-dasharray:none;stroke-opacity:1;paint-order:normal" transform="translate(-111.2 -2.333)scale(1.08103)"/><path d="M205.346 147.104c-1.923 46.806-39.683 77.513-87.278 79.571-3.958.875-9.867 6.82-.357 10.964 27.936 10.104 63.414-.568 79.956-14.91 32.713-29.28 22.82-71.779 18.27-79.536s-10.591 3.911-10.591 3.911" style="fill:#5c913b;fill-opacity:1;stroke:none;stroke-width:.249627px;stroke-linecap:butt;stroke-linejoin:miter;stroke-opacity:1" transform="translate(-57.074 -34.396)"/><path d="M0 0c1.248 0 1.372-1.252 1.248-2.495-.061-.611-.296-1.14.406-1.2C3.405-3.841 4.495-7.17 4.495-7.17L3.018-5.78c-.512.482.725-2.833-.523-2.833S1.248-7.426 0-7.426s-2.144-2.825-2.144-2.825-.975 3.404.896 5.275C0-3.728-2.495 0 0 0" style="fill:#3e721d;fill-opacity:1;fill-rule:nonzero;stroke:none" transform="matrix(-2.15572 0 0 -2.72462 157.961 93.17)"/></svg>