<svg xmlns="http://www.w3.org/2000/svg" xml:space="preserve" viewBox="0 0 45 45"><defs><clipPath id="a" clipPathUnits="userSpaceOnUse"><path d="M0 36h36V0H0z"/></clipPath><clipPath id="b" clipPathUnits="userSpaceOnUse"><path d="M0 36h36V0H0z"/></clipPath></defs><path d="M0 0c0-9.941-8.059-18-18-18-9.94 0-18 8.059-18 18 0 9.94 8.06 18 18 18C-8.059 18 0 9.94 0 0" style="fill:#ffcc4d;fill-opacity:1;fill-rule:nonzero;stroke:none" transform="matrix(.99653 0 0 -.99653 40.487 27.117)"/><path d="M0 0c-3.623 0-6.027.422-9 1-.679.131-2 0-2-2 0-4 4.595-9 11-9 6.404 0 11 5 11 9 0 2-1.321 2.132-2 2C6.027.422 3.623 0 0 0" style="fill:#664500;fill-opacity:1;fill-rule:nonzero;stroke:none" transform="matrix(.99653 0 0 -.99653 22.55 31.594)"/><path d="M0 0s3-1 9-1 9 1 9 1-2-4-9-4-9 4-9 4" style="fill:#fff;fill-opacity:1;fill-rule:nonzero;stroke:none" transform="matrix(.99653 0 0 -.99653 13.581 32.59)"/><path d="M0 0c0-1.934-1.119-3.5-2.5-3.5S-5-1.934-5 0s1.119 3.5 2.5 3.5S0 1.933 0 0" style="fill:#664500;fill-opacity:1;fill-rule:nonzero;stroke:none" transform="matrix(.99688 0 0 -.99688 19.06 25.563)"/><path d="M0 0c0-1.934-1.119-3.5-2.5-3.5S-5-1.934-5 0s1.119 3.5 2.5 3.5S0 1.933 0 0" style="fill:#664500;fill-opacity:1;fill-rule:nonzero;stroke:none" transform="matrix(.99688 0 0 -.99688 31.023 25.563)"/><path d="M43.083 22.623c-14.865.426-24.73-6.049-39.208-7.208.185-.533.909-2.07 1.488-2.65 13.09.946 22.66 4.779 37.299 7.316.44.986.434 2.466.42 2.542" style="fill:#292f33;fill-opacity:1;stroke:none;stroke-width:1.60000002;stroke-linecap:butt;stroke-linejoin:bevel;stroke-miterlimit:4;stroke-dasharray:none;stroke-opacity:1" transform="translate(2.982 5.618)scale(.8697)"/><path d="M36.258 23.052c-.58 2.493-2.839 4.544-7.327 4.265s-6.175-4.785-5.567-7.399c.595-2.56-.479-5.002 7.624-2.499s6.035 2.479 5.27 5.633" style="fill:#292f33;fill-opacity:1;stroke:none;stroke-width:1.60000002;stroke-linecap:butt;stroke-linejoin:bevel;stroke-miterlimit:4;stroke-dasharray:none;stroke-opacity:1" transform="translate(2.982 5.618)scale(.8697)"/><path d="M45.285 13.608c0 1.743-2.854 3.48-6.87 4.628-4.3-1.67-9.36-3.452-15.615-3.452-6.397 0-14.715 3.704-15.983 3.997C2.963 17.64.314 15.311.314 13.608c0-2.074 6.341-3.12 11.77-6.357C15.85 5.004 17.71-.022 22.8-.022c5.033 0 6.851 4.844 10.4 7.253 5.28 3.586 12.085 4.287 12.085 6.377" style="fill:#ccd6dd;fill-opacity:1;stroke:none;stroke-width:1.60000002;stroke-linecap:butt;stroke-linejoin:bevel;stroke-miterlimit:4;stroke-dasharray:none;stroke-opacity:1" transform="translate(-.25 .088)"/><path d="M44.738 14.93c-.758 1.556-2.835 3.61-5.163 5.72-4.3-1.67-10.45-4.231-16.775-4.231-6.326 0-13.895 3.019-16.758 4.219-2.727-2.522-4.275-3.965-5.135-5.5 0-2.074 5.326-3.57 11.145-6.033 4.784-2.026 5.66-7.492 10.748-7.492 5.033 0 6.012 5.087 10.333 7.364 5.648 2.975 11.605 3.864 11.605 5.953" style="fill:#292f33;fill-opacity:1;stroke:none;stroke-width:1.60000002;stroke-linecap:butt;stroke-linejoin:bevel;stroke-miterlimit:4;stroke-dasharray:none;stroke-opacity:1" transform="translate(-.25 .088)"/><g clip-path="url(#a)" transform="matrix(.20833 0 0 -.20833 18.8 14.225)"><path d="M0 0c0-2.761 0-5-5-5s-5 2.239-5 5A5 5 0 0 0 0 0" style="fill:#292f33;fill-opacity:1;fill-rule:nonzero;stroke:none" transform="translate(16 22)"/><path d="M0 0c0-2.761 0-5-5-5s-5 2.239-5 5A5 5 0 1 0 0 0" style="fill:#292f33;fill-opacity:1;fill-rule:nonzero;stroke:none" transform="translate(30 22)"/><path d="M0 0c-.252.612-1.003 1.061-1.903 1.061S-3.555.612-3.807 0a1.496 1.496 0 0 1 .404-2.939c.654 0 1.205.422 1.41 1.007.03-.001.059-.007.09-.007s.059.006.089.007A1.497 1.497 0 1 1 0 0" style="fill:#292f33;fill-opacity:1;fill-rule:nonzero;stroke:none" transform="translate(19.903 12.938)"/></g><g clip-path="url(#b)" transform="matrix(.24827 0 0 -.24827 18.093 15.174)"><path d="M0 0c0 6.242-4.411 9.988-9.927 9.988S-19.763 6.242-19.763 0c0-3.48-.102-6.485 3.898-7.89v-2.722c0-1.034.966-1.872 2-1.872s2 .838 2 1.872v1.97-1.97c0-1.034.965-1.872 1.999-1.872 1.036 0 2.001.838 2.001 1.872v1.97-1.97c0-1.034.966-1.872 2-1.872s2 .838 2 1.872v2.722C.135-6.485 0-3.48 0 0" style="fill:#ccd6dd;fill-opacity:1;fill-rule:nonzero;stroke:none" transform="translate(27.865 19.248)"/><path d="M0 0c0-1.724 0-3.121-3.121-3.121S-6.242-1.724-6.242 0A3.12 3.12 0 1 0 0 0" style="fill:#292f33;fill-opacity:1;fill-rule:nonzero;stroke:none" transform="translate(16.75 20.497)"/><path d="M0 0c0-1.724 0-3.121-3.121-3.121S-6.241-1.724-6.241 0A3.12 3.12 0 1 0 0 0" style="fill:#292f33;fill-opacity:1;fill-rule:nonzero;stroke:none" transform="translate(25.488 20.497)"/><path d="M0 0c-.157.382-.626.662-1.189.662C-1.75.662-2.22.382-2.376 0a.933.933 0 0 1 .251-1.834c.409 0 .753.263.88.628.019 0 .037-.004.056-.004s.038.004.057.004A.934.934 0 1 1 0 0" style="fill:#292f33;fill-opacity:1;fill-rule:nonzero;stroke:none" transform="translate(19.186 14.84)"/><path d="M0 0c0 .367.075.713.196 1.038-.985.447-1.831 1.082-2.503 1.97A303 303 0 0 0-5.434.313 3.47 3.47 0 0 1-7.499 1a3.5 3.5 0 0 1-3.5-3.5 3.49 3.49 0 0 1 3.045-3.454A3.49 3.49 0 0 1-4.499-9a3.5 3.5 0 0 1 3.5 3.5c0 .775-.261 1.485-.687 2.065.6.706 1.246 1.46 1.931 2.25A3 3 0 0 0 0 0" style="fill:#aab8c2;fill-opacity:1;fill-rule:nonzero;stroke:none" transform="translate(11 9)"/><path d="M0 0c.884.769 1.729 1.495 2.515 2.162a3.47 3.47 0 0 1 2.014-.644 3.5 3.5 0 0 1 3.5 3.5 3.49 3.49 0 0 1-2.945 3.444 3.49 3.49 0 0 1-3.456 3.056 3.5 3.5 0 0 1-3.5-3.5c0-.775.261-1.485.687-2.065-.594-.7-1.233-1.445-1.911-2.227C-1.795 2.855-.735 1.631 0 0" style="fill:#aab8c2;fill-opacity:1;fill-rule:nonzero;stroke:none" transform="translate(27.872 24.482)"/><path d="M0 0c.775 0 1.485.26 2.065.687.798-.679 1.661-1.419 2.563-2.205.735 1.631 1.796 2.855 3.097 3.726-.679.782-1.317 1.528-1.912 2.227.427.58.687 1.29.687 2.065A3.5 3.5 0 0 1 3 10 3.49 3.49 0 0 1-.454 6.954 3.49 3.49 0 0 1-3.5 3.5 3.5 3.5 0 0 1 0 0" style="fill:#aab8c2;fill-opacity:1;fill-rule:nonzero;stroke:none" transform="translate(3.5 26)"/><path d="M0 0a3.5 3.5 0 0 1-2.014-.645c-.952.809-1.99 1.701-3.079 2.654C-5.765 1.12-6.612.485-7.596.038-7.476-.287-7.4-.633-7.4-1a3 3 0 0 0-.245-1.185c.685-.79 1.331-1.544 1.931-2.25A3.48 3.48 0 0 1-6.4-6.5c0-1.934 1.566-3.5 3.5-3.5A3.49 3.49 0 0 1 .555-6.944 3.49 3.49 0 0 1 3.5-3.5C3.5-1.566 1.934 0 0 0" style="fill:#aab8c2;fill-opacity:1;fill-rule:nonzero;stroke:none" transform="translate(32.4 10)"/></g></svg>