<svg xmlns="http://www.w3.org/2000/svg" xml:space="preserve" viewBox="0 0 45 45"><path d="M-.094 24.395v8.96a5 5 0 0 0 5 5h35a5 5 0 0 0 5-5v-8.96z" style="fill:#000;fill-opacity:1;fill-rule:nonzero;stroke:none"/><path d="M44.906 23.584V11.559c0-3.15-2.238-5.704-5-5.704h-35c-2.761 0-5 2.554-5 5.704v12.025z" style="fill:#00f;fill-opacity:1;fill-rule:nonzero;stroke:none"/><path d="M-.094 27.154V16.867h45v10.477z" style="opacity:1;fill:red;fill-opacity:1;fill-rule:nonzero;stroke:none;stroke-width:.60000002;stroke-linecap:round;stroke-linejoin:round;stroke-miterlimit:4;stroke-dasharray:none;stroke-dashoffset:0;stroke-opacity:1"/><g style="font-style:normal;font-weight:400;font-size:40px;line-height:1.25;font-family:sans-serif;letter-spacing:0;word-spacing:0;fill:#ff0;fill-opacity:1;stroke:none"><path d="M-100.08 3.066q-.362 2.618-1.487 3.555-.99.82-3.02.82h-.372l-1.006 9.317q-.153 1.582.021 2.578.26 1.484 1.412 1.484.781 0 1.362-.586.578-.605 1.263-2.05.07-.157.246-.157.615.059.69.489.014.078-.011.156-.918 2.344-2.105 3.262-1.035.78-2.598.78-1.289 0-2.158-.839-.752-.723-.964-1.934-.201-1.152.129-4.511l.838-8.047-4.011-.04q-.458 5.977-1.471 10.567-.624 2.91-1.572 3.965-.752.84-2.021.84-2.246 0-2.78-3.047-.14-.8-.156-2.012.004-.312.433-.312.391 0 .45.332l.088.508q.294 1.68 1.661 1.68.723 0 1.377-.84.621-.801.978-2.11 1.124-3.848 1.724-9.57h-2.305q-1.448-.02-2.163.586-.685.547-.994 1.797-.05.273-.382.273-.37 0-.429-.332l-.02-.117q.037-2.91 1.424-4.024 1.213-.996 3.833-.976l10.288.078q1.504 0 2.131-.43.557-.39.835-1.367.064-.195.318-.195.45 0 .504.312z" aria-label="π" style="font-style:normal;font-variant:normal;font-weight:400;font-stretch:normal;font-family:&quot;Yu Mincho&quot;;-inkscape-font-specification:&quot;Yu Mincho&quot;;fill:#ff0;fill-opacity:1" transform="matrix(.4893 0 .0428 .45525 75.732 16.335)"/></g></svg>