<?xml version="1.0" encoding="UTF-8" standalone="no"?>
<svg
   xmlns:dc="http://purl.org/dc/elements/1.1/"
   xmlns:cc="http://creativecommons.org/ns#"
   xmlns:rdf="http://www.w3.org/1999/02/22-rdf-syntax-ns#"
   xmlns:svg="http://www.w3.org/2000/svg"
   xmlns="http://www.w3.org/2000/svg"
   xmlns:sodipodi="http://sodipodi.sourceforge.net/DTD/sodipodi-0.dtd"
   xmlns:inkscape="http://www.inkscape.org/namespaces/inkscape"
   viewBox="0 0 45 45"
   style="enable-background:new 0 0 45 45;"
   xml:space="preserve"
   version="1.1"
   id="svg2"
   inkscape:version="0.92.2 (5c3e80d, 2017-08-06)"
   sodipodi:docname="polyamory.svg"
   inkscape:export-filename="C:\Users\Soyez\Desktop\Stuff\My Art\somoji\set 2\polyamory.png"
   inkscape:export-xdpi="1092.2667"
   inkscape:export-ydpi="1092.2667"><sodipodi:namedview
     pagecolor="#ffffff"
     bordercolor="#666666"
     borderopacity="1"
     objecttolerance="10"
     gridtolerance="10"
     guidetolerance="10"
     inkscape:pageopacity="0"
     inkscape:pageshadow="2"
     inkscape:window-width="1920"
     inkscape:window-height="1027"
     id="namedview15"
     showgrid="false"
     inkscape:zoom="5.12"
     inkscape:cx="-0.1572645"
     inkscape:cy="43.59475"
     inkscape:window-x="-8"
     inkscape:window-y="-8"
     inkscape:window-maximized="1"
     inkscape:current-layer="svg2" /><metadata
     id="metadata8"><rdf:RDF><cc:Work
         rdf:about=""><dc:format>image/svg+xml</dc:format><dc:type
           rdf:resource="http://purl.org/dc/dcmitype/StillImage" /><dc:title></dc:title></cc:Work></rdf:RDF></metadata><defs
     id="defs6"><clipPath
       id="clipPath16"
       clipPathUnits="userSpaceOnUse"><path
         id="path18"
         d="M 0,36 36,36 36,0 0,0 0,36 Z" /></clipPath><clipPath
       id="clipPath16-9"
       clipPathUnits="userSpaceOnUse"><path
         inkscape:connector-curvature="0"
         id="path18-6"
         d="M 4,31 C 1.791,31 0,29.209 0,27 L 0,27 0,9 C 0,6.791 1.791,5 4,5 l 0,0 28,0 c 2.209,0 4,1.791 4,4 l 0,0 0,18 c 0,2.209 -1.791,4 -4,4 l 0,0 -28,0 z" /></clipPath><clipPath
       clipPathUnits="userSpaceOnUse"
       id="clipPath5047"><path
         style="fill:#5bcefa;fill-opacity:1;fill-rule:nonzero;stroke:none"
         d="m 25.204492,-54.863389 0,0.04687 0,2.453125 c 0,2.761254 2.232631,5.000004 4.98781,5.000004 l 34.924391,0 c 2.755183,0 4.987805,-2.23875 4.987805,-4.999999 l 0,-2.453125 0,-0.04687 0,-6.866211 0,-12.430661 c 0,-3.15007 -2.232622,-5.70313 -4.987805,-5.70313 l -34.924391,0 c -2.755179,0 -4.98781,2.55307 -4.98781,5.70312 l 0,12.430666 z"
         id="path5049"
         inkscape:connector-curvature="0"
         sodipodi:nodetypes="ccsssscccsssscc" /></clipPath><clipPath
       clipPathUnits="userSpaceOnUse"
       id="clipPath5116"><path
         sodipodi:nodetypes="ccsssscccsssscc"
         inkscape:connector-curvature="0"
         id="path5118"
         d="m -19.000001,-39.038681 0,0.04687 0,2.453125 c 0,2.761249 2.237602,4.999999 4.998918,4.999999 l 35.00217,0 c 2.761314,0 4.998914,-2.23875 4.998914,-4.999999 l 0,-2.453125 0,-0.04687 0,-6.866211 0,-12.430665 c 0,-3.15006 -2.2376,-5.703124 -4.998914,-5.703124 l -35.00217,0 c -2.761316,0 -4.998918,2.55307 -4.998918,5.703125 l 0,12.430665 z"
         style="fill:#333ebd;fill-opacity:1;fill-rule:nonzero;stroke:none" /></clipPath><clipPath
       clipPathUnits="userSpaceOnUse"
       id="clipPath5116-2"><path
         sodipodi:nodetypes="ccsssscccsssscc"
         inkscape:connector-curvature="0"
         id="path5118-6"
         d="m -19.000001,-39.038681 0,0.04687 0,2.453125 c 0,2.761249 2.237602,4.999999 4.998918,4.999999 l 35.00217,0 c 2.761314,0 4.998914,-2.23875 4.998914,-4.999999 l 0,-2.453125 0,-0.04687 0,-6.866211 0,-12.430665 c 0,-3.15006 -2.2376,-5.703124 -4.998914,-5.703124 l -35.00217,0 c -2.761316,0 -4.998918,2.55307 -4.998918,5.703125 l 0,12.430665 z"
         style="fill:#333ebd;fill-opacity:1;fill-rule:nonzero;stroke:none" /></clipPath><clipPath
       clipPathUnits="userSpaceOnUse"
       id="clipPath5250"><path
         sodipodi:nodetypes="ccsssscccsssscc"
         inkscape:connector-curvature="0"
         id="path5252"
         d="m -4.6455538,-44.034176 0,0.04687 0,2.453125 c 0,2.761249 2.2376019,4.999999 4.99891795,4.999999 l 35.00217185,0 c 2.76131,0 4.99891,-2.23875 4.99891,-4.999999 l 0,-2.453125 0,-0.04687 0,-6.866211 0,-12.430665 c 0,-3.15006 -2.2376,-5.703124 -4.99891,-5.703124 l -35.00217185,0 c -2.76131605,0 -4.99891805,2.55307 -4.99891805,5.703125 l 0,12.430665 z"
         style="fill:#000000;fill-opacity:1;fill-rule:nonzero;stroke:none" /></clipPath><clipPath
       clipPathUnits="userSpaceOnUse"
       id="clipPath5277"><path
         style="fill:#5bcefa;fill-opacity:1;fill-rule:nonzero;stroke:none"
         d="m 29.620147,-97.8367 0,0.0469 0,2.45313 c 0,2.76125 2.237602,5 4.998919,5 l 35.002168,0 c 2.761319,0 4.998913,-2.23875 4.998913,-5 l 0,-2.45312 0,-0.0469 0,-6.86621 0,-12.43067 c 0,-3.15006 -2.237594,-5.70313 -4.998913,-5.70313 l -35.002168,0 c -2.761317,0 -4.998919,2.55307 -4.998919,5.70313 l 0,12.43066 z"
         id="path5279"
         inkscape:connector-curvature="0"
         sodipodi:nodetypes="ccsssscccsssscc" /></clipPath><clipPath
       clipPathUnits="userSpaceOnUse"
       id="clipPath5277-8"><path
         style="fill:#5bcefa;fill-opacity:1;fill-rule:nonzero;stroke:none"
         d="m 29.620147,-97.8367 0,0.0469 0,2.45313 c 0,2.76125 2.237602,5 4.998919,5 l 35.002168,0 c 2.761319,0 4.998913,-2.23875 4.998913,-5 l 0,-2.45312 0,-0.0469 0,-6.86621 0,-12.43067 c 0,-3.15006 -2.237594,-5.70313 -4.998913,-5.70313 l -35.002168,0 c -2.761317,0 -4.998919,2.55307 -4.998919,5.70313 l 0,12.43066 z"
         id="path5279-0"
         inkscape:connector-curvature="0"
         sodipodi:nodetypes="ccsssscccsssscc" /></clipPath><clipPath
       clipPathUnits="userSpaceOnUse"
       id="clipPath5326"><path
         style="fill:#5bcefa;fill-opacity:1;fill-rule:nonzero;stroke:none"
         d="m 79.510932,-96.665226 0,0.0469 0,2.45313 c 0,2.76125 2.237602,5 4.998919,5 l 35.002169,0 c 2.76131,0 4.99891,-2.23875 4.99891,-5 l 0,-2.45312 0,-0.0469 0,-6.866204 0,-12.43067 c 0,-3.15006 -2.2376,-5.70313 -4.99891,-5.70313 l -35.002169,0 c -2.761317,0 -4.998919,2.55307 -4.998919,5.70313 l 0,12.43066 z"
         id="path5328"
         inkscape:connector-curvature="0"
         sodipodi:nodetypes="ccsssscccsssscc" /></clipPath><clipPath
       clipPathUnits="userSpaceOnUse"
       id="clipPath5250-2"><path
         sodipodi:nodetypes="ccsssscccsssscc"
         inkscape:connector-curvature="0"
         id="path5252-8"
         d="m -4.6455538,-44.034176 0,0.04687 0,2.453125 c 0,2.761249 2.2376019,4.999999 4.99891795,4.999999 l 35.00217185,0 c 2.76131,0 4.99891,-2.23875 4.99891,-4.999999 l 0,-2.453125 0,-0.04687 0,-6.866211 0,-12.430665 c 0,-3.15006 -2.2376,-5.703124 -4.99891,-5.703124 l -35.00217185,0 c -2.76131605,0 -4.99891805,2.55307 -4.99891805,5.703125 l 0,12.430665 z"
         style="fill:#000000;fill-opacity:1;fill-rule:nonzero;stroke:none" /></clipPath><clipPath
       clipPathUnits="userSpaceOnUse"
       id="clipPath5326-4"><path
         style="fill:#5bcefa;fill-opacity:1;fill-rule:nonzero;stroke:none"
         d="m 79.510932,-96.665226 0,0.0469 0,2.45313 c 0,2.76125 2.237602,5 4.998919,5 l 35.002169,0 c 2.76131,0 4.99891,-2.23875 4.99891,-5 l 0,-2.45312 0,-0.0469 0,-6.866204 0,-12.43067 c 0,-3.15006 -2.2376,-5.70313 -4.99891,-5.70313 l -35.002169,0 c -2.761317,0 -4.998919,2.55307 -4.998919,5.70313 l 0,12.43066 z"
         id="path5328-4"
         inkscape:connector-curvature="0"
         sodipodi:nodetypes="ccsssscccsssscc" /></clipPath><clipPath
       clipPathUnits="userSpaceOnUse"
       id="clipPath5277-0"><path
         style="fill:#5bcefa;fill-opacity:1;fill-rule:nonzero;stroke:none"
         d="m 29.620147,-97.8367 0,0.0469 0,2.45313 c 0,2.76125 2.237602,5 4.998919,5 l 35.002168,0 c 2.761319,0 4.998913,-2.23875 4.998913,-5 l 0,-2.45312 0,-0.0469 0,-6.86621 0,-12.43067 c 0,-3.15006 -2.237594,-5.70313 -4.998913,-5.70313 l -35.002168,0 c -2.761317,0 -4.998919,2.55307 -4.998919,5.70313 l 0,12.43066 z"
         id="path5279-01"
         inkscape:connector-curvature="0"
         sodipodi:nodetypes="ccsssscccsssscc" /></clipPath><clipPath
       clipPathUnits="userSpaceOnUse"
       id="clipPath5472"><path
         style="fill:#5bcefa;fill-opacity:1;fill-rule:nonzero;stroke:none"
         d="m 50.32685,-59.917429 0,0.0469 0,2.45313 c 0,2.76125 2.2376,5 4.99891,5 l 35.00217,0 c 2.76132,0 4.99892,-2.23875 4.99892,-5 l 0,-2.45312 0,-0.0469 0,-6.866211 0,-12.430671 c 0,-3.15006 -2.2376,-5.70313 -4.99892,-5.70313 l -35.00217,0 c -2.76131,0 -4.99891,2.55307 -4.99891,5.70313 l 0,12.43066 z"
         id="path5474"
         inkscape:connector-curvature="0"
         sodipodi:nodetypes="ccsssscccsssscc" /></clipPath><clipPath
       clipPathUnits="userSpaceOnUse"
       id="clipPath5472-9"><path
         style="fill:#5bcefa;fill-opacity:1;fill-rule:nonzero;stroke:none"
         d="m 50.32685,-59.917429 0,0.0469 0,2.45313 c 0,2.76125 2.2376,5 4.99891,5 l 35.00217,0 c 2.76132,0 4.99892,-2.23875 4.99892,-5 l 0,-2.45312 0,-0.0469 0,-6.866211 0,-12.430671 c 0,-3.15006 -2.2376,-5.70313 -4.99892,-5.70313 l -35.00217,0 c -2.76131,0 -4.99891,2.55307 -4.99891,5.70313 l 0,12.43066 z"
         id="path5474-1"
         inkscape:connector-curvature="0"
         sodipodi:nodetypes="ccsssscccsssscc" /></clipPath><clipPath
       clipPathUnits="userSpaceOnUse"
       id="clipPath5277-9"><path
         style="fill:#5bcefa;fill-opacity:1;fill-rule:nonzero;stroke:none"
         d="m 29.620147,-97.8367 0,0.0469 0,2.45313 c 0,2.76125 2.237602,5 4.998919,5 l 35.002168,0 c 2.761319,0 4.998913,-2.23875 4.998913,-5 l 0,-2.45312 0,-0.0469 0,-6.86621 0,-12.43067 c 0,-3.15006 -2.237594,-5.70313 -4.998913,-5.70313 l -35.002168,0 c -2.761317,0 -4.998919,2.55307 -4.998919,5.70313 l 0,12.43066 z"
         id="path5279-012"
         inkscape:connector-curvature="0"
         sodipodi:nodetypes="ccsssscccsssscc" /></clipPath><clipPath
       clipPathUnits="userSpaceOnUse"
       id="clipPath5666"><path
         style="fill:#5bcefa;fill-opacity:1;fill-rule:nonzero;stroke:none"
         d="m -45.480969,-1.7578976 0,0.0469 0,2.45312999 c 0,2.76125001 2.237602,5.00000001 4.998919,5.00000001 l 35.0021693,0 c 2.7613201,0 4.9989101,-2.23875 4.9989101,-5.00000001 l 0,-2.45311999 0,-0.0469 0,-6.866211 0,-12.4306694 c 0,-3.15006 -2.23759,-5.70313 -4.9989101,-5.70313 l -35.0021693,0 c -2.761317,0 -4.998919,2.55307 -4.998919,5.70313 l 0,12.4306594 z"
         id="path5668"
         inkscape:connector-curvature="0"
         sodipodi:nodetypes="ccsssscccsssscc" /></clipPath><clipPath
       clipPathUnits="userSpaceOnUse"
       id="clipPath5277-3"><path
         style="fill:#5bcefa;fill-opacity:1;fill-rule:nonzero;stroke:none"
         d="m 29.620147,-97.8367 0,0.0469 0,2.45313 c 0,2.76125 2.237602,5 4.998919,5 l 35.002168,0 c 2.761319,0 4.998913,-2.23875 4.998913,-5 l 0,-2.45312 0,-0.0469 0,-6.86621 0,-12.43067 c 0,-3.15006 -2.237594,-5.70313 -4.998913,-5.70313 l -35.002168,0 c -2.761317,0 -4.998919,2.55307 -4.998919,5.70313 l 0,12.43066 z"
         id="path5279-7"
         inkscape:connector-curvature="0"
         sodipodi:nodetypes="ccsssscccsssscc" /></clipPath><clipPath
       clipPathUnits="userSpaceOnUse"
       id="clipPath5742"><path
         style="fill:#5bcefa;fill-opacity:1;fill-rule:nonzero;stroke:none"
         d="m 85.499998,4.249988 0,0.0469 0,2.45313 c 0,2.76125 2.2376,5 4.99892,5 l 35.002162,0 c 2.76132,0 4.99892,-2.23875 4.99892,-5 l 0,-2.45312 0,-0.0469 0,-6.866211 0,-12.430672 c 0,-3.15006 -2.2376,-5.70313 -4.99892,-5.70313 l -35.002162,0 c -2.76132,0 -4.99892,2.55307 -4.99892,5.70313 l 0,12.430662 z"
         id="path5744"
         inkscape:connector-curvature="0"
         sodipodi:nodetypes="ccsssscccsssscc" /></clipPath><clipPath
       clipPathUnits="userSpaceOnUse"
       id="clipPath5774"><path
         style="fill:#5bcefa;fill-opacity:1;fill-rule:nonzero;stroke:none"
         d="m 92.581629,10.908983 0,0.0469 0,2.45313 c 0,2.76125 2.2376,5 4.99892,5 l 35.002161,0 c 2.76132,0 4.99892,-2.23875 4.99892,-5 l 0,-2.45312 0,-0.0469 0,-6.8662117 0,-12.43067 c 0,-3.1500593 -2.2376,-5.7031293 -4.99892,-5.7031293 l -35.002161,0 c -2.76132,0 -4.99892,2.55307 -4.99892,5.7031293 l 0,12.43066 z"
         id="path5776"
         inkscape:connector-curvature="0"
         sodipodi:nodetypes="ccsssscccsssscc" /></clipPath><clipPath
       clipPathUnits="userSpaceOnUse"
       id="clipPath5277-1"><path
         style="fill:#5bcefa;fill-opacity:1;fill-rule:nonzero;stroke:none"
         d="m 29.620147,-97.8367 0,0.0469 0,2.45313 c 0,2.76125 2.237602,5 4.998919,5 l 35.002168,0 c 2.761319,0 4.998913,-2.23875 4.998913,-5 l 0,-2.45312 0,-0.0469 0,-6.86621 0,-12.43067 c 0,-3.15006 -2.237594,-5.70313 -4.998913,-5.70313 l -35.002168,0 c -2.761317,0 -4.998919,2.55307 -4.998919,5.70313 l 0,12.43066 z"
         id="path5279-9"
         inkscape:connector-curvature="0"
         sodipodi:nodetypes="ccsssscccsssscc" /></clipPath><clipPath
       clipPathUnits="userSpaceOnUse"
       id="clipPath5326-5"><path
         style="fill:#5bcefa;fill-opacity:1;fill-rule:nonzero;stroke:none"
         d="m 79.510932,-96.665226 0,0.0469 0,2.45313 c 0,2.76125 2.237602,5 4.998919,5 l 35.002169,0 c 2.76131,0 4.99891,-2.23875 4.99891,-5 l 0,-2.45312 0,-0.0469 0,-6.866204 0,-12.43067 c 0,-3.15006 -2.2376,-5.70313 -4.99891,-5.70313 l -35.002169,0 c -2.761317,0 -4.998919,2.55307 -4.998919,5.70313 l 0,12.43066 z"
         id="path5328-8"
         inkscape:connector-curvature="0"
         sodipodi:nodetypes="ccsssscccsssscc" /></clipPath><clipPath
       clipPathUnits="userSpaceOnUse"
       id="clipPath5885"><path
         style="fill:#5bcefa;fill-opacity:1;fill-rule:nonzero;stroke:none"
         d="m 66.241905,48.800236 0,0.0469 0,2.45313 c 0,2.76125 2.2376,5 4.99892,5 l 35.002165,0 c 2.76132,0 4.99892,-2.23875 4.99892,-5 l 0,-2.45312 0,-0.0469 0,-6.866211 0,-12.43067 c 0,-3.15006 -2.2376,-5.70313 -4.99892,-5.70313 l -35.002165,0 c -2.76132,0 -4.99892,2.55307 -4.99892,5.70313 l 0,12.43066 z"
         id="path5887"
         inkscape:connector-curvature="0"
         sodipodi:nodetypes="ccsssscccsssscc" /></clipPath><clipPath
       clipPathUnits="userSpaceOnUse"
       id="clipPath5774-5"><path
         style="fill:#5bcefa;fill-opacity:1;fill-rule:nonzero;stroke:none"
         d="m 92.581629,10.908983 0,0.0469 0,2.45313 c 0,2.76125 2.2376,5 4.99892,5 l 35.002161,0 c 2.76132,0 4.99892,-2.23875 4.99892,-5 l 0,-2.45312 0,-0.0469 0,-6.8662117 0,-12.43067 c 0,-3.1500593 -2.2376,-5.7031293 -4.99892,-5.7031293 l -35.002161,0 c -2.76132,0 -4.99892,2.55307 -4.99892,5.7031293 l 0,12.43066 z"
         id="path5776-6"
         inkscape:connector-curvature="0"
         sodipodi:nodetypes="ccsssscccsssscc" /></clipPath></defs><g
     id="g20"
     transform="matrix(1.25,0,0,-1.4260104,46.640625,146.09375)" /><g
     id="g894"><g
       id="g5842"><path
         style="fill:#000000;fill-opacity:1;fill-rule:nonzero;stroke:none"
         d="m -0.0937453,24.394539 v 6.460937 0.04687 2.453126 c 0,2.76125 2.23875,5 5,5 H 39.906265 c 2.76125,0 4.99999,-2.23875 4.99999,-5 v -2.453126 -0.04687 -6.460937 z"
         id="path4223-5"
         inkscape:connector-curvature="0" /><path
         style="fill:#0000ff;fill-opacity:1;fill-rule:nonzero;stroke:none"
         d="m 44.906255,23.583989 v -12.02539 c 0,-3.1500603 -2.23874,-5.7031303 -4.99999,-5.7031303 l -35.0000103,10e-6 c -2.76125,0 -5,2.55307 -5,5.7031203 v 12.02539 z"
         id="path28-6-2"
         inkscape:connector-curvature="0" /><path
         style="opacity:1;fill:#ff0000;fill-opacity:1;fill-rule:nonzero;stroke:none;stroke-width:0.60000002;stroke-linecap:round;stroke-linejoin:round;stroke-miterlimit:4;stroke-dasharray:none;stroke-dashoffset:0;stroke-opacity:1"
         d="M -0.0937453,27.153687 V 16.866579 H 44.906255 v 10.477786 z"
         id="path4228-2"
         inkscape:connector-curvature="0" /></g><g
       transform="matrix(0.4892951,0,0.04280777,0.45525292,75.731763,16.334784)"
       id="text5831"
       style="font-style:normal;font-weight:normal;font-size:40px;line-height:1.25;font-family:sans-serif;letter-spacing:0px;word-spacing:0px;fill:#ffff00;fill-opacity:1;stroke:none"
       aria-label="π"><path
         inkscape:connector-curvature="0"
         id="path5836"
         style="font-style:normal;font-variant:normal;font-weight:normal;font-stretch:normal;font-family:'Yu Mincho';-inkscape-font-specification:'Yu Mincho';fill:#ffff00;fill-opacity:1"
         d="m -100.07986,3.0664063 q -0.36236,2.6171874 -1.48739,3.5546874 -0.98928,0.8203125 -3.02053,0.8203125 h -0.37109 l -1.00656,9.3164058 q -0.15287,1.582032 0.0214,2.578125 0.25972,1.484375 1.41207,1.484375 0.78125,0 1.36232,-0.585937 0.57766,-0.605469 1.26226,-2.050781 0.0703,-0.15625 0.24609,-0.15625 0.61573,0.05859 0.69091,0.488281 0.0138,0.07813 -0.0117,0.15625 -0.91803,2.34375 -2.10506,3.261719 -1.03518,0.78125 -2.59768,0.78125 -1.28906,0 -2.15866,-0.839844 -0.75146,-0.722656 -0.96334,-1.933594 -0.20164,-1.152344 0.12853,-4.511718 l 0.83808,-8.0468755 -4.01075,-0.039063 q -0.45815,5.9765635 -1.47143,10.5664065 -0.62361,2.910156 -1.57187,3.964844 -0.75149,0.839843 -2.02103,0.839843 -2.24609,0 -2.77921,-3.046875 -0.14016,-0.800782 -0.15671,-2.011718 0.004,-0.3125 0.4336,-0.3125 0.39063,0 0.44873,0.332031 l 0.0888,0.507812 q 0.2939,1.679688 1.66109,1.679688 0.72265,0 1.37649,-0.839844 0.6216,-0.800781 0.97856,-2.109375 1.12364,-3.847656 1.72386,-9.5703125 h -2.30469 q -1.44873,-0.019531 -2.1631,0.5859375 -0.68555,0.546875 -0.99418,1.796875 Q -118.65179,10 -118.98383,10 q -0.37109,0 -0.42919,-0.3320312 l -0.0204,-0.1171875 q 0.0377,-2.9101563 1.42489,-4.0234376 1.21244,-0.9960937 3.83302,-0.9765625 l 10.28712,0.078125 q 1.50391,0 2.13185,-0.4296875 0.55664,-0.3906249 0.83498,-1.3671874 0.0635,-0.1953125 0.3174,-0.1953125 0.44921,0 0.5039,0.3125 z" /></g></g></svg>