<svg xmlns="http://www.w3.org/2000/svg" xml:space="preserve" viewBox="0 0 45 45"><path d="M0 0c0-9.941-8.059-18-18-18-9.94 0-18 8.059-18 18 0 9.94 8.06 18 18 18C-8.059 18 0 9.94 0 0" style="fill:#ffcc4d;fill-opacity:1;fill-rule:nonzero;stroke:none" transform="matrix(1.25 0 0 -1.25 45.016 22.516)"/><path d="M0 0c0-1.934-1.119-3.5-2.5-3.5S-5-1.934-5 0s1.119 3.5 2.5 3.5S0 1.933 0 0" style="fill:#664500;fill-opacity:1;fill-rule:nonzero;stroke:none" transform="matrix(1.25 0 0 -1.25 17.516 20.64)"/><path d="M0 0c0-1.934-1.119-3.5-2.5-3.5S-5-1.934-5 0s1.119 3.5 2.5 3.5S0 1.933 0 0" style="fill:#664500;fill-opacity:1;fill-rule:nonzero;stroke:none" transform="matrix(1.25 0 0 -1.25 33.766 20.64)"/><path d="M0 0c-.012.044-3.807 5.854-5.485 5.854-1.677 0-5.475-5.81-5.485-5.854a.495.495 0 0 1 .231-.544.51.51 0 0 1 .596.06c.01.007 3.504 3.063 4.658 3.063S-.868-.451-.829-.484A.5.5 0 0 1 0 0" style="fill:#664500;fill-opacity:1;fill-rule:nonzero;stroke:none" transform="matrix(1.25 0 0 -1.25 29.371 36.33)"/></svg>