<svg xmlns="http://www.w3.org/2000/svg" xml:space="preserve" width="540" height="390"><rect width="540" height="130" fill="#ff000e" rx="66"/><rect width="540" height="130" y="260" fill="#880082" rx="66"/><path fill="#ff5000" d="M0 65h540v65H0z"/><path fill="#fad220" d="M0 130h540v65H0z"/><path fill="#138f3e" d="M0 195h540v65H0z"/><path fill="#3558a0" d="M0 260h540v65H0z"/><path fill="#292f33" d="M48.605 2.375C20.549 9.981 0 35.472 0 66v258c0 30.528 20.549 56.019 48.605 63.625l211.39-192.62L48.605 2.385z"/><path fill="#8a4b38" d="M20.23 18.434C7.767 30.426 0 47.259 0 66v258c0 18.742 7.767 35.574 20.23 47.566L214 194.996 20.23 18.426z"/><path fill="#5dadec" d="M3.428 45.039C1.234 51.626 0 58.658 0 66v258c0 7.342 1.234 14.374 3.428 20.961l164.57-149.96L3.428 45.041z"/><path fill="#f4abba" d="M0 83.832v222.34l122-111.17z"/><path fill="#fff" d="M0 125.75v138.5l76-69.252-76-69.252z"/><script/></svg>