<svg xmlns="http://www.w3.org/2000/svg" xml:space="preserve" viewBox="0 0 45 45"><g style="fill:#ffcc4d;fill-opacity:1"><path d="M0 0c0-9.941-8.059-18-18-18S-36-9.941-36 0s8.059 18 18 18S0 9.941 0 0" style="fill:#ffcc4d;fill-opacity:1;fill-rule:nonzero;stroke:none" transform="matrix(1.25 0 0 -1.25 44.882 22.635)"/></g><g style="fill:#664500;fill-opacity:1"><path d="M0 0c0-2.763-1.791-3-4-3s-4 .237-4 3c0 2.761 1.79 6 4 6s4-3.239 4-6" style="fill:#664500;fill-opacity:1;fill-rule:nonzero;stroke:none" transform="matrix(1.7267 0 0 -.97285 29.289 33.975)"/></g><g style="fill:#77b255;fill-opacity:1"><path d="M0 0c0-1.104-8.059-2-18-2s-18 .896-18 2 8.059 2 18 2S0 1.104 0 0" style="fill:#77b255;fill-opacity:1;fill-rule:nonzero;stroke:none" transform="matrix(.84177 0 0 -1.25 37.534 42.635)"/></g><g style="fill:#77b255;fill-opacity:1"><path d="M0 0c0-1.657.86-2-3-2s-3 .343-3 2 1.343 2 3 2 3-.343 3-2" style="fill:#77b255;fill-opacity:1;fill-rule:nonzero;stroke:none" transform="matrix(2.06699 0 0 -2.67813 28.583 37.837)"/></g><path d="M0 0c0-1.934-1.119-3.5-2.5-3.5S-5-1.934-5 0s1.119 3.5 2.5 3.5S0 1.933 0 0" style="fill:#664500;fill-opacity:1;fill-rule:nonzero;stroke:none" transform="matrix(1.25 0 0 -1.25 18.007 19.11)"/><path d="M0 0c0-1.934-1.119-3.5-2.5-3.5S-5-1.934-5 0s1.119 3.5 2.5 3.5S0 1.933 0 0" style="fill:#664500;fill-opacity:1;fill-rule:nonzero;stroke:none" transform="matrix(1.25 0 0 -1.25 33.007 19.11)"/><g style="fill:#ffcc4d;fill-opacity:1"><path d="M38.15 15.518a1.5 1.5 0 0 0-1.182-.263c-5.793 1.152-9.44-1.465-9.592-1.579-.58-.426-1.432-.363-1.902.143-.471.507-.389 1.263.187 1.696.192.144 4.79 3.52 11.948 2.098.728-.144 1.173-.79.996-1.44a1.22 1.22 0 0 0-.454-.655" style="fill:#ffcc4d;fill-opacity:1;fill-rule:nonzero;stroke:none" transform="matrix(.87951 0 0 1.49294 3.015 -8.383)"/><g style="fill:#ffcc4d;fill-opacity:1"><path d="M0 0a1 1 0 0 0-.799 1.6C2.463 5.95 6.817 6 7.001 6a1 1 0 0 0 .004-2C6.85 3.998 3.436 3.914.801.4A1 1 0 0 0 0 0" style="fill:#ffcc4d;fill-opacity:1;fill-rule:nonzero;stroke:none" transform="matrix(.92014 -1.17368 .75719 1.36858 9.048 14.786)"/></g></g><path d="M76.137 25.627c-.27.227-.657.347-1.062.298-5.445-.656-8.538 1.832-8.667 1.94-.492.405-1.282.4-1.764-.01-.485-.413-.485-1.074.001-1.483.163-.137 4.055-3.34 10.784-2.53.684.081 1.159.615 1.06 1.19a1 1 0 0 1-.352.595" style="fill:#f4900c;fill-opacity:1;fill-rule:nonzero;stroke:none" transform="translate(-38.426 -2.936)"/><g style="fill:#f4900c;fill-opacity:1"><path d="M0 0a1 1 0 0 0-.799 1.6C2.463 5.95 6.817 6 7.001 6a1 1 0 0 0 .004-2C6.85 3.998 3.436 3.914.801.4A1 1 0 0 0 0 0" style="fill:#f4900c;fill-opacity:1;fill-rule:nonzero;stroke:none" transform="scale(1.25 -1.05256)rotate(-45 -23.2 -17.589)"/></g><path d="M6.78 7.064c1.233.085 2.738-.584 2.662-2.58-.026-.68-.597-.982-1.41.366-.45.746-1.345.736-2.743-.198C3.111 3.381 2.181-2.12 1.048-.273.155 1.18 3.684 6.85 6.78 7.064" style="fill:#664500;fill-opacity:1;fill-rule:nonzero;stroke:none" transform="matrix(.65126 -1.24244 1.0605 .66545 7.1 19.243)"/><path d="M5.744 6.562c.616.043.798-.483.974.154.44 1.596 3.155-.323 3.258-1.67.082-1.082-2.263 1.078-2.282.579-.026-.681-.322-2.6-1.135-1.252-.45.746-.908.712-2.306-.222C2.074 2.88 1.633-1.922.5-.075c-.892 1.454 2.148 6.423 5.244 6.637" style="fill:#664500;fill-opacity:1;fill-rule:nonzero;stroke:none" transform="matrix(-.73015 -1.16217 -1.01288 .78592 38.15 18.136)"/></svg>