<svg xmlns="http://www.w3.org/2000/svg" xml:space="preserve" viewBox="0 0 45 45"><path d="M45 22.736c0 12.426-10.074 22.5-22.5 22.5S0 35.162 0 22.736 10.075.236 22.5.236 45 10.311 45 22.736" style="fill:#ffcc4d;fill-opacity:1;fill-rule:nonzero;stroke:none"/><g style="fill:#664500;fill-opacity:1"><path d="M0 0c0-1.934-1.119-3.5-2.5-3.5S-5-1.934-5 0s1.119 3.5 2.5 3.5S0 1.933 0 0" style="fill:#664500;fill-opacity:1;fill-rule:nonzero;stroke:none" transform="matrix(2.19063 0 0 -1.88135 35.807 19.491)"/></g><g style="fill:#fff;fill-opacity:1"><path d="M0 0c0-1.934-1.119-3.5-2.5-3.5S-5-1.934-5 0s1.119 3.5 2.5 3.5S0 1.933 0 0" style="fill:#fff;fill-opacity:1;fill-rule:nonzero;stroke:none" transform="matrix(.9556 0 0 -.82069 32.01 18.379)"/></g><g style="fill:#fff;fill-opacity:1"><path d="M0 0c0-1.934-1.119-3.5-2.5-3.5S-5-1.934-5 0s1.119 3.5 2.5 3.5S0 1.933 0 0" style="fill:#fff;fill-opacity:1;fill-rule:nonzero;stroke:none" transform="matrix(.4116 0 0 -.35349 33.905 22.268)"/></g><g style="fill:#664500;fill-opacity:1"><path d="M0 0c0-1.934-1.119-3.5-2.5-3.5S-5-1.934-5 0s1.119 3.5 2.5 3.5S0 1.933 0 0" style="fill:#664500;fill-opacity:1;fill-rule:nonzero;stroke:none" transform="matrix(2.19063 0 0 -1.88135 20.146 19.226)"/></g><g style="fill:#fff;fill-opacity:1"><path d="M0 0c0-1.934-1.119-3.5-2.5-3.5S-5-1.934-5 0s1.119 3.5 2.5 3.5S0 1.933 0 0" style="fill:#fff;fill-opacity:1;fill-rule:nonzero;stroke:none" transform="matrix(.9556 0 0 -.82069 16.349 18.114)"/></g><g style="fill:#fff;fill-opacity:1"><path d="M0 0c0-1.934-1.119-3.5-2.5-3.5S-5-1.934-5 0s1.119 3.5 2.5 3.5S0 1.933 0 0" style="fill:#fff;fill-opacity:1;fill-rule:nonzero;stroke:none" transform="matrix(.4116 0 0 -.35349 18.243 22.003)"/></g><path d="M0 0a1 1 0 0 0-.371.072C-5.6 2.163-7.743 5.312-7.832 5.446A1 1 0 0 0-6.17 6.559c.019-.028 1.93-2.786 6.541-4.63A1 1 0 0 0 0 0" style="fill:#664500;fill-opacity:1;fill-rule:nonzero;stroke:none" transform="matrix(1.25 0 0 -1.25 37.5 18.313)"/><path d="M0 0a1.001 1.001 0 0 0-.372 1.929C4.24 3.773 6.151 6.531 6.17 6.559a1 1 0 0 0 1.662-1.113C7.743 5.312 5.599 2.163.371.072A1 1 0 0 0 0 0" style="fill:#664500;fill-opacity:1;fill-rule:nonzero;stroke:none" transform="matrix(1.25 0 0 -1.25 7.5 18.313)"/><path d="M-1.222.15c-.009.044-.89 4.273-4.263 4.273C-8.859 4.423-9.74.194-9.748.15c-.041-.213.033-.431.18-.544.145-.112.336-.086.463.06.007.007.788 1.818 3.62 1.818 2.79 0 3.589-1.785 3.619-1.818a.35.35 0 0 1 .267-.137q.1 0 .192.064c.152.112.228.339.185.557" style="fill:#664500;fill-opacity:1;fill-rule:nonzero;stroke:none" transform="matrix(1.25 0 0 -1.25 29.356 33.849)"/><g style="fill:#5dadec;fill-opacity:1"><path d="M0 0a5 5 0 0 0-5-5 5 5 0 0 0-5 5 5 5 0 0 0 5 5 5 5 0 0 0 5-5" style="fill:#5dadec;fill-opacity:1;fill-rule:nonzero;stroke:none" transform="matrix(.87563 0 0 -.475 38.469 26.086)"/></g><g style="fill:#5dadec;fill-opacity:1"><path d="M0 0a5 5 0 0 0-5-5 5 5 0 0 0-5 5 5 5 0 0 0 5 5 5 5 0 0 0 5-5" style="fill:#5dadec;fill-opacity:1;fill-rule:nonzero;stroke:none" transform="matrix(.87563 0 0 -.475 15.288 26.086)"/></g></svg>