<?xml version="1.0" encoding="UTF-8" standalone="no"?>
<svg
   xmlns:dc="http://purl.org/dc/elements/1.1/"
   xmlns:cc="http://creativecommons.org/ns#"
   xmlns:rdf="http://www.w3.org/1999/02/22-rdf-syntax-ns#"
   xmlns:svg="http://www.w3.org/2000/svg"
   xmlns="http://www.w3.org/2000/svg"
   xmlns:sodipodi="http://sodipodi.sourceforge.net/DTD/sodipodi-0.dtd"
   xmlns:inkscape="http://www.inkscape.org/namespaces/inkscape"
   inkscape:version="1.0 (4035a4fb49, 2020-05-01)"
   sodipodi:docname="radish.svg"
   id="svg8"
   version="1.1"
   viewBox="0 0 36 36">
  <metadata
     id="metadata14">
    <rdf:RDF>
      <cc:Work
         rdf:about="">
        <dc:format>image/svg+xml</dc:format>
        <dc:type
           rdf:resource="http://purl.org/dc/dcmitype/StillImage" />
        <dc:title></dc:title>
      </cc:Work>
    </rdf:RDF>
  </metadata>
  <defs
     id="defs12">
    <clipPath
       id="clipPath943"
       clipPathUnits="userSpaceOnUse">
      <path
         fill="#F4900C"
         d="m 10.825108,30.434335 c 0,5.976932 -6.6306752,13.042113 -9.94648052,13.042113 -3.31580698,0 -9.94554448,-7.065574 -9.94648238,-13.042113 0,-5.976933 3.7209052,-7.492554 9.94648238,-7.492946 6.22557662,3.92e-4 9.94648052,1.516013 9.94648052,7.492946 z"
         id="path945"
         style="fill:#c43b62;fill-opacity:1;stroke-width:0.857914" />
    </clipPath>
    <clipPath
       id="clipPath1083"
       clipPathUnits="userSpaceOnUse">
      <path
         fill="#F4900C"
         d="m 19.088938,19.025061 c 0,10.942745 -12.1396355,23.877886 -18.21031047,23.877886 -6.07067663,0 -18.20859653,-12.93586 -18.21031353,-23.877886 0,-10.9427446 6.812344,-13.717588 18.21031353,-13.7183063 C 12.276597,5.307473 19.088938,8.0823164 19.088938,19.025061 Z"
         id="path1085"
         style="fill:#c43b62;fill-opacity:1;stroke-width:1.57069" />
    </clipPath>
    <clipPath
       clipPathUnits="userSpaceOnUse"
       id="clipPath943-3">
      <path
         style="fill:#c43b62;fill-opacity:1;stroke-width:0.857914"
         id="path945-1"
         d="m 10.825108,30.434335 c 0,5.976932 -6.6306752,13.042113 -9.94648052,13.042113 -3.31580698,0 -9.94554448,-7.065574 -9.94648238,-13.042113 0,-5.976933 3.7209052,-7.492554 9.94648238,-7.492946 6.22557662,3.92e-4 9.94648052,1.516013 9.94648052,7.492946 z"
         fill="#F4900C" />
    </clipPath>
    <clipPath
       clipPathUnits="userSpaceOnUse"
       id="clipPath1083-2">
      <path
         style="fill:#c43b62;fill-opacity:1;stroke-width:1.57069"
         id="path1085-0"
         d="m 19.088938,19.025061 c 0,10.942745 -12.1396355,23.877886 -18.21031047,23.877886 -6.07067663,0 -18.20859653,-12.93586 -18.21031353,-23.877886 0,-10.9427446 6.812344,-13.717588 18.21031353,-13.7183063 C 12.276597,5.307473 19.088938,8.0823164 19.088938,19.025061 Z"
         fill="#F4900C" />
    </clipPath>
    <clipPath
       id="clipPath943-3-6"
       clipPathUnits="userSpaceOnUse">
      <path
         fill="#F4900C"
         d="m 10.825108,30.434335 c 0,5.976932 -6.6306752,13.042113 -9.94648052,13.042113 -3.31580698,0 -9.94554448,-7.065574 -9.94648238,-13.042113 0,-5.976933 3.7209052,-7.492554 9.94648238,-7.492946 6.22557662,3.92e-4 9.94648052,1.516013 9.94648052,7.492946 z"
         id="path945-1-2"
         style="fill:#c43b62;fill-opacity:1;stroke-width:0.857914" />
    </clipPath>
  </defs>
  <sodipodi:namedview
     showguides="false"
     inkscape:current-layer="svg8"
     inkscape:window-maximized="1"
     inkscape:window-y="-8"
     inkscape:window-x="-8"
     inkscape:cy="23.189323"
     inkscape:cx="22.752233"
     inkscape:zoom="14.888526"
     showgrid="false"
     id="namedview10"
     inkscape:window-height="1027"
     inkscape:window-width="1920"
     inkscape:pageshadow="2"
     inkscape:pageopacity="0"
     guidetolerance="10"
     gridtolerance="10"
     objecttolerance="10"
     borderopacity="1"
     bordercolor="#666666"
     pagecolor="#ffffff">
    <inkscape:grid
       id="grid959"
       type="xygrid" />
  </sodipodi:namedview>
  <g
     inkscape:export-ydpi="1412.0905"
     inkscape:export-xdpi="1412.0905"
     inkscape:export-filename="F:\My Art\SVG &amp; SALES\MOREmoji\SET 3\png\radish.png"
     transform="matrix(0.9664329,0,0,0.9664329,0.60693553,0.60049536)"
     id="g1197">
    <path
       id="path1008"
       style="fill:#ef8ea7;fill-opacity:1;fill-rule:evenodd;stroke-width:0.519526"
       d="M 0.26529132,35.554182 C -1.4095993,33.879292 8.3554196,24.521022 9.8058202,26.013654 11.256222,27.506284 1.940182,37.229073 0.26529132,35.554182 Z"
       sodipodi:nodetypes="zzz" />
    <path
       sodipodi:nodetypes="cccscscc"
       style="fill:#5c913b;fill-opacity:1;stroke-width:1.31741"
       id="path2-8"
       d="M 30.845452,10.519679 25.683811,5.3580378 c 0.0741,-1.8642786 -1.493722,-9.2486152 -4.549547,-2.6111663 -3.057145,6.6375003 -0.212588,9.4820575 -0.286689,11.3463375 -0.0741,1.86428 1.70631,-0.233442 1.70631,-0.233442 0,0 -2.255975,1.622157 -0.390377,1.548003 1.864278,-0.0741 4.551847,2.613467 11.187978,-0.442306 6.637501,-3.057144 -0.641754,-4.519886 -2.506034,-4.445785 z"
       fill="#77b255" />
    <path
       fill="#77b255"
       d="M 28.660774,13.991855 C 33.651669,11.227857 34.302185,2.1851008 33.332997,3.1542909 34.302185,2.1851008 24.997813,2.5740009 22.235391,7.5664722 22.090345,5.4830466 19.426627,-2.9971844 16.809252,4.0787145 c -2.618848,7.0757965 0.922152,10.6167965 1.067197,12.7002235 0.145048,2.083427 1.886614,-0.05314 1.886614,-0.05314 0,0 -2.333565,1.544566 -0.248664,1.689716 2.083425,0.145046 5.429,3.490619 12.503426,0.873143 7.075797,-2.61885 -1.273624,-5.151757 -3.357051,-5.296804 z"
       id="path2"
       style="stroke-width:1.46986"
       sodipodi:nodetypes="ccccscscc" />
    <path
       fill="#F4900C"
       d="M 22.168462,29.247812 C 17.482331,33.933943 6.744286,34.274612 4.1445747,31.6749 1.5448627,29.075188 1.8865738,18.33757 6.5716612,13.651012 c 4.6861308,-4.686131 8.7917558,-2.957108 13.6731408,1.92366 4.88077,4.881385 6.609791,8.98701 1.92366,13.67314 z"
       id="path4"
       style="fill:#c43b62;fill-opacity:1;stroke-width:0.951251" />
    <g
       id="g926"
       transform="matrix(0.78403611,0.78403611,-0.78403611,0.78403611,37.542804,-3.1010798)"
       clip-path="url(#clipPath943)"
       style="fill:#ef8ea7;fill-opacity:1">
      <ellipse
         transform="rotate(-45)"
         ry="7.5989447"
         rx="3.5620053"
         cy="23.474453"
         cx="-30.258202"
         id="path891"
         style="fill:#ef8ea7;fill-opacity:1;fill-rule:evenodd" />
      <ellipse
         style="fill:#ef8ea7;fill-opacity:1;fill-rule:evenodd"
         id="path891-3"
         cx="-31.500767"
         cy="22.231886"
         rx="3.5620053"
         ry="7.5989447"
         transform="matrix(-0.70710678,-0.70710678,-0.70710678,0.70710678,0,0)" />
      <ellipse
         transform="scale(1,-1)"
         ry="7.5989447"
         rx="3.5620053"
         cy="-36.330082"
         cx="0.8786273"
         id="path891-3-6"
         style="fill:#ef8ea7;fill-opacity:1;fill-rule:evenodd" />
    </g>
  </g>
</svg>
