<svg xmlns="http://www.w3.org/2000/svg" viewBox="0 0 36 36"><defs><clipPath id="a" clipPathUnits="userSpaceOnUse"><path fill="#F4900C" d="M10.825 30.434c0 5.977-6.63 13.042-9.946 13.042s-9.946-7.065-9.947-13.042 3.721-7.492 9.947-7.493c6.225 0 9.946 1.516 9.946 7.493" style="fill:#c43b62;fill-opacity:1;stroke-width:.857914"/></clipPath></defs><path d="M.265 35.554c-1.675-1.675 8.09-11.033 9.54-9.54 1.451 1.492-7.865 11.215-9.54 9.54" style="fill:#ef8ea7;fill-opacity:1;fill-rule:evenodd;stroke-width:.519526" transform="translate(.607 .6)scale(.96643)"/><path fill="#77b255" d="m30.845 10.52-5.161-5.162c.074-1.864-1.494-9.249-4.55-2.611-3.057 6.637-.212 9.482-.286 11.346-.075 1.864 1.706-.233 1.706-.233s-2.256 1.622-.39 1.548c1.864-.074 4.551 2.613 11.187-.443 6.638-3.057-.641-4.52-2.506-4.445" style="fill:#5c913b;fill-opacity:1;stroke-width:1.31741" transform="translate(.607 .6)scale(.96643)"/><path fill="#77b255" d="M28.66 13.992c4.992-2.764 5.642-11.807 4.673-10.838.97-.969-8.335-.58-11.098 4.412-.145-2.083-2.808-10.563-5.426-3.487s.922 10.617 1.067 12.7 1.887-.053 1.887-.053-2.334 1.544-.249 1.69 5.43 3.49 12.504.873c7.076-2.62-1.274-5.152-3.357-5.297" style="stroke-width:1.46986" transform="translate(.607 .6)scale(.96643)"/><path fill="#F4900C" d="M22.168 29.248c-4.686 4.686-15.424 5.027-18.023 2.427S1.887 18.338 6.572 13.65c4.686-4.686 8.791-2.957 13.673 1.924 4.88 4.881 6.61 8.987 1.923 13.673" style="fill:#c43b62;fill-opacity:1;stroke-width:.951251" transform="translate(.607 .6)scale(.96643)"/><g clip-path="url(#a)" style="fill:#ef8ea7;fill-opacity:1" transform="rotate(45 21.337 43.331)scale(1.07158)"><ellipse cx="-30.258" cy="23.474" rx="3.562" ry="7.599" style="fill:#ef8ea7;fill-opacity:1;fill-rule:evenodd" transform="rotate(-45)"/><ellipse cx="-31.501" cy="22.232" rx="3.562" ry="7.599" style="fill:#ef8ea7;fill-opacity:1;fill-rule:evenodd" transform="scale(-1 1)rotate(-45)"/><ellipse cx=".879" cy="-36.33" rx="3.562" ry="7.599" style="fill:#ef8ea7;fill-opacity:1;fill-rule:evenodd" transform="scale(1 -1)"/></g></svg>