<svg xmlns="http://www.w3.org/2000/svg" xml:space="preserve" viewBox="0 0 45 45"><path d="M0 0c0-9.941-8.059-18-18-18S-36-9.941-36 0s8.059 18 18 18S0 9.941 0 0" style="fill:#ffcc4d;fill-opacity:1;fill-rule:nonzero;stroke:none" transform="matrix(1.25 0 0 -1.25 45 22.5)"/><path d="M0 0c0-1.934-1.119-3.5-2.5-3.5S-5-1.934-5 0s1.119 3.5 2.5 3.5S0 1.933 0 0" style="fill:#664500;fill-opacity:1;fill-rule:nonzero;stroke:none" transform="matrix(1.25 0 0 -1.25 18.125 18.241)"/><path d="M0 0c0-1.934-1.119-3.5-2.5-3.5S-5-1.934-5 0s1.119 3.5 2.5 3.5S0 1.933 0 0" style="fill:#664500;fill-opacity:1;fill-rule:nonzero;stroke:none" transform="matrix(1.25 0 0 -1.25 33.125 18.241)"/><path d="M37.44 11.57c.222.206.403.534.507.96.254 1.046-.059 2.287-.698 2.773-6.292 4.776-10.95.564-11.146.383-.586-.546-.77-1.813-.412-2.828.358-1.013 1.122-1.395 1.708-.854.166.149 3.847 3.369 8.93-.49.38-.286.789-.244 1.112.057M8.52 18.35c-.22-.171-.402-.443-.506-.796-.254-.867.06-1.895.698-2.298 6.293-3.958 10.95-.468 11.146-.317.586.452.771 1.502.412 2.343-.358.84-1.121 1.157-1.708.708-.166-.123-3.847-2.792-8.93.406a.93.93 0 0 1-1.111-.047" style="fill:#ffcc4d;fill-opacity:1;fill-rule:nonzero;stroke:none" transform="translate(.315 -1.388)"/><path d="M31.25 35.844h-17.5a1.25 1.25 0 1 1 0-2.5h17.5a1.249 1.249 0 1 1 0 2.5" style="fill:#664500;fill-opacity:1;fill-rule:nonzero;stroke:none"/><path d="M36.37 15.98a1.14 1.14 0 0 0 .506-.571c.254-.621-.059-1.358-.698-1.647-6.293-2.837-10.95-.335-11.146-.227-.586.324-.771 1.076-.412 1.68.358.601 1.121.828 1.708.507.166-.089 3.847-2.002 8.93.29.38.171.788.146 1.111-.033M8.41 15.98a1.14 1.14 0 0 1-.505-.571c-.255-.621.058-1.358.697-1.647 6.293-2.837 10.95-.335 11.146-.227.586.324.771 1.076.412 1.68-.358.601-1.121.828-1.708.507-.166-.089-3.847-2.002-8.93.29a1.24 1.24 0 0 1-1.111-.033" style="fill:#ffcc4d;fill-opacity:1;fill-rule:nonzero;stroke:none" transform="translate(.312 2.125)"/><g style="fill:#fcab40;fill-opacity:1"><path d="M-7.797 9.29c.388 3.286 4.374 7.54 8.292 5.044 1.312-.836-2.9-2.075-5.083-4.536s-3.301-1.29-3.209-.507" style="fill:#664500;fill-opacity:1;fill-rule:nonzero;stroke:none" transform="matrix(-.98656 -.32656 -.8226 .66773 36.53 3.99)"/></g><g style="fill:#fcab40;fill-opacity:1"><path d="M-7.797 9.29c.388 3.286 4.374 7.54 8.292 5.044 1.312-.836-2.9-2.075-5.083-4.536s-3.301-1.29-3.209-.507" style="fill:#664500;fill-opacity:1;fill-rule:nonzero;stroke:none" transform="matrix(.98656 -.32656 .8226 .66773 8.47 3.99)"/></g><path d="M0 0h-7a1 1 0 0 0 0 2h7a1 1 0 0 0 0-2" style="fill:#664500;fill-opacity:1;fill-rule:nonzero;stroke:none" transform="matrix(1.25 0 0 -1.25 18.75 18.031)"/><path d="M0 0h-7a1 1 0 1 0 0 2h7a1 1 0 1 0 0-2" style="fill:#664500;fill-opacity:1;fill-rule:nonzero;stroke:none" transform="matrix(1.25 0 0 -1.25 35 18.031)"/></svg>