<svg xmlns="http://www.w3.org/2000/svg" xml:space="preserve" viewBox="0 0 45 45"><defs><clipPath id="a" clipPathUnits="userSpaceOnUse"><path d="M93.984 69.922c0-3.15-2.237-5.703-4.999-5.703H53.983c-2.761 0-4.999 2.553-4.999 5.703v21.797a5 5 0 0 0 5 5h35.001a5 5 0 0 0 5-5V81.237z" style="fill:#8a1e04;fill-opacity:1;fill-rule:nonzero;stroke:none;stroke-width:.999997"/></clipPath></defs><g clip-path="url(#a)" transform="translate(-48.747 -57.13)"><path d="M48.984 85.885h45v10.833h-45z" style="fill:#fd8ba8;fill-opacity:1;fill-rule:evenodd;stroke-width:2.43439;stroke-linecap:round;stroke-linejoin:round;stroke-opacity:.630027;paint-order:stroke fill markers"/><path d="M48.984 75.052h45v10.833h-45z" style="fill:#fbf2ff;fill-opacity:1;fill-rule:evenodd;stroke-width:2.43439;stroke-linecap:round;stroke-linejoin:round;stroke-opacity:.630027;paint-order:stroke fill markers"/><path d="M48.984 64.219h45v10.833h-45z" style="fill:#fd8ba8;fill-opacity:1;fill-rule:evenodd;stroke-width:2.43439;stroke-linecap:round;stroke-linejoin:round;stroke-opacity:.630027;paint-order:stroke fill markers"/><g transform="translate(4.11 70.224)scale(.5968)"><circle cx="112.891" cy="18.12" r="1.155" style="fill:#f995c9;fill-opacity:1;fill-rule:evenodd;stroke-width:2.76189;stroke-linecap:round;stroke-linejoin:round;stroke-opacity:.630027;paint-order:stroke fill markers"/><circle cx="112.891" cy="18.12" r=".677" style="fill:#fff71e;fill-opacity:1;fill-rule:evenodd;stroke-width:1.61759;stroke-linecap:round;stroke-linejoin:round;stroke-opacity:.630027;paint-order:stroke fill markers"/><path d="M112.122 23.548c.592-1.373.611-3.712.611-3.712s-.27-.256-1.112-.842c0 0-2.774.578-4.094 1.763-1.402 1.258-1.138 3.717.31 4.363 1.771.792 3.45.366 4.285-1.572m1.534 0c-.592-1.373-.61-3.712-.61-3.712s.269-.256 1.111-.842c0 0 2.775.578 4.095 1.763 1.402 1.258 1.137 3.717-.31 4.363-1.772.792-3.451.366-4.286-1.572m-8.706-7.783s-.64 3.59 2.692 3.399 3.347-.357 3.599-.656c.252-.298.486-.714.422-1.684-.043-.23-1.055-1.817-2.573-2.663-1.607-.896-3.768-1.045-4.14 1.604m15.882 0s.639 3.59-2.693 3.399-3.346-.357-3.599-.656c-.252-.298-.486-.714-.421-1.684.042-.23 1.054-1.817 2.572-2.663 1.607-.896 3.768-1.045 4.14 1.604m-8.485.689h1.049s4.025-3.136 3.118-5.618c0 0-.78-2-3.6-2s-3.601 2-3.601 2c-1.064 2.493 3.034 5.618 3.034 5.618" style="fill:#c76bc5;fill-opacity:1;stroke:none;stroke-width:1px;stroke-linecap:butt;stroke-linejoin:miter;stroke-opacity:1"/></g></g></svg>