<?xml version="1.0" encoding="UTF-8" standalone="no"?>
<svg
   xmlns:dc="http://purl.org/dc/elements/1.1/"
   xmlns:cc="http://creativecommons.org/ns#"
   xmlns:rdf="http://www.w3.org/1999/02/22-rdf-syntax-ns#"
   xmlns:svg="http://www.w3.org/2000/svg"
   xmlns="http://www.w3.org/2000/svg"
   xmlns:sodipodi="http://sodipodi.sourceforge.net/DTD/sodipodi-0.dtd"
   xmlns:inkscape="http://www.inkscape.org/namespaces/inkscape"
   sodipodi:docname="sausage.svg"
   inkscape:version="1.0 (4035a4fb49, 2020-05-01)"
   id="svg1432"
   version="1.1"
   viewBox="0 0 210 297"
   height="297mm"
   width="210mm">
  <defs
     id="defs1426">
    <clipPath
       id="clipPath3083"
       clipPathUnits="userSpaceOnUse">
      <g
         transform="translate(-0.009692)"
         id="g3097">
        <ellipse
           transform="matrix(0.99452189,-0.10452847,-0.10452847,-0.99452189,0,0)"
           ry="1.0857824"
           rx="0.26726952"
           cy="-147.23386"
           cx="63.147415"
           id="ellipse3085"
           style="fill:#662113;fill-opacity:1;fill-rule:evenodd;stroke-width:0.264583" />
        <ellipse
           transform="matrix(0.99756405,-0.06975648,-0.06975648,-0.99756405,0,0)"
           style="fill:#662113;fill-opacity:1;fill-rule:evenodd;stroke-width:0.264583"
           id="ellipse3087"
           cx="69.373634"
           cy="-145.2619"
           rx="0.26726952"
           ry="1.0857824" />
        <ellipse
           transform="matrix(0.99939083,-0.0348995,-0.0348995,-0.99939083,0,0)"
           ry="1.0857824"
           rx="0.26726952"
           cy="-142.97591"
           cx="75.539749"
           id="ellipse3089"
           style="fill:#662113;fill-opacity:1;fill-rule:evenodd;stroke-width:0.264583" />
        <ellipse
           transform="matrix(0.99939083,0.0348995,0.0348995,-0.99939083,0,0)"
           style="fill:#662113;fill-opacity:1;fill-rule:evenodd;stroke-width:0.264583"
           id="ellipse3091"
           cx="86.474304"
           cy="-137.31827"
           rx="0.26726952"
           ry="1.0857824" />
        <ellipse
           transform="matrix(0.99756405,0.06975648,0.06975648,-0.99756405,0,0)"
           ry="1.0857824"
           rx="0.26726952"
           cy="-133.95348"
           cx="92.344269"
           id="ellipse3093"
           style="fill:#662113;fill-opacity:1;fill-rule:evenodd;stroke-width:0.264583" />
        <ellipse
           transform="matrix(0.99452189,0.10452847,0.10452847,-0.99452189,0,0)"
           style="fill:#662113;fill-opacity:1;fill-rule:evenodd;stroke-width:0.264583"
           id="ellipse3095"
           cx="98.077324"
           cy="-130.28844"
           rx="0.26726952"
           ry="1.0857824" />
      </g>
    </clipPath>
  </defs>
  <sodipodi:namedview
     inkscape:window-maximized="1"
     inkscape:window-y="-8"
     inkscape:window-x="-8"
     inkscape:window-height="1027"
     inkscape:window-width="1920"
     showguides="false"
     inkscape:lockguides="true"
     showgrid="false"
     inkscape:document-rotation="0"
     inkscape:current-layer="layer1"
     inkscape:document-units="mm"
     inkscape:cy="552.14273"
     inkscape:cx="378.72252"
     inkscape:zoom="7.9195959"
     inkscape:pageshadow="2"
     inkscape:pageopacity="0.0"
     borderopacity="1.0"
     bordercolor="#666666"
     pagecolor="#ffffff"
     id="base" />
  <metadata
     id="metadata1429">
    <rdf:RDF>
      <cc:Work
         rdf:about="">
        <dc:format>image/svg+xml</dc:format>
        <dc:type
           rdf:resource="http://purl.org/dc/dcmitype/StillImage" />
        <dc:title></dc:title>
      </cc:Work>
    </rdf:RDF>
  </metadata>
  <g
     id="layer1"
     inkscape:groupmode="layer"
     inkscape:label="Layer 1">
    <path
       sodipodi:nodetypes="cc"
       id="path3437"
       transform="scale(0.26458333)"
       d="m 346.83573,548.73828 c -231.22382,-365.82552 -115.61191,-182.91276 0,0 z"
       style="fill:#99aab5;fill-opacity:1;stroke-width:0.999999" />
    <g
       inkscape:export-ydpi="1199.0238"
       inkscape:export-xdpi="1199.0238"
       inkscape:export-filename="F:\My Art\SVG &amp; SALES\MOREmoji\SET 3\png\sausage.png"
       transform="rotate(-45,110.97123,167.39633)"
       id="g3549">
      <g
         id="g3537"
         transform="translate(0.0349)">
        <path
           id="path2697-8-1"
           d="m 115.87326,144.81292 c 0,0 -0.36343,-0.98549 -0.74433,-0.90227 -0.0693,0.0151 -0.007,0.15309 -0.0546,0.20562 -0.0619,0.0683 -0.27211,-0.14127 -0.25478,0.0657 0.004,0.0437 0.0698,0.10651 0.0622,0.15191 -0.0139,0.0835 -0.20824,0.0883 -0.18811,0.17047 0.0967,0.39478 1.17965,0.30858 1.17965,0.30858 z"
           style="fill:#c1694f;fill-opacity:1;stroke:none;stroke-width:0.181557px;stroke-linecap:butt;stroke-linejoin:miter;stroke-opacity:1"
           sodipodi:nodetypes="cssssscc" />
        <path
           sodipodi:nodetypes="cssssscc"
           style="fill:#c1694f;fill-opacity:1;stroke:none;stroke-width:0.181557px;stroke-linecap:butt;stroke-linejoin:miter;stroke-opacity:1"
           d="m 122.79029,144.81292 c 0,0 0.36343,-0.98549 0.74433,-0.90227 0.0693,0.0151 0.007,0.15309 0.0546,0.20562 0.0619,0.0683 0.27211,-0.14127 0.25478,0.0657 -0.004,0.0437 -0.0698,0.10651 -0.0622,0.15191 0.0139,0.0835 0.20824,0.0883 0.18811,0.17047 -0.0967,0.39478 -1.17965,0.30858 -1.17965,0.30858 z"
           id="path2697-8" />
      </g>
      <path
         style="fill:none;stroke:#c1694f;stroke-width:3;stroke-linecap:round;stroke-linejoin:miter;stroke-miterlimit:4;stroke-dasharray:none;stroke-opacity:1"
         d="m 116.54367,145.14277 c 0,0 0.3596,0.52917 2.823,0.52917 2.46341,0 2.82301,-0.52917 2.82301,-0.52917"
         id="path2693"
         sodipodi:nodetypes="czc" />
      <path
         style="color:#000000;font-style:normal;font-variant:normal;font-weight:normal;font-stretch:normal;font-size:medium;line-height:normal;font-family:sans-serif;font-variant-ligatures:normal;font-variant-position:normal;font-variant-caps:normal;font-variant-numeric:normal;font-variant-alternates:normal;font-variant-east-asian:normal;font-feature-settings:normal;font-variation-settings:normal;text-indent:0;text-align:start;text-decoration:none;text-decoration-line:none;text-decoration-style:solid;text-decoration-color:#000000;letter-spacing:normal;word-spacing:normal;text-transform:none;writing-mode:lr-tb;direction:ltr;text-orientation:mixed;dominant-baseline:auto;baseline-shift:baseline;text-anchor:start;white-space:normal;shape-padding:0;shape-margin:0;inline-size:0;clip-rule:nonzero;display:inline;overflow:visible;visibility:visible;isolation:auto;mix-blend-mode:normal;color-interpolation:sRGB;color-interpolation-filters:linearRGB;solid-color:#000000;solid-opacity:1;vector-effect:none;fill:#662113;fill-opacity:1;fill-rule:nonzero;stroke:none;stroke-width:3;stroke-linecap:round;stroke-linejoin:miter;stroke-miterlimit:4;stroke-dasharray:none;stroke-dashoffset:0;stroke-opacity:1;color-rendering:auto;image-rendering:auto;shape-rendering:auto;text-rendering:auto;enable-background:accumulate;stop-color:#000000"
         d="m 78.242188,138.95312 a 1.5,1.5 0 0 0 -0.861329,0.25977 1.5,1.5 0 0 0 -0.398437,2.08399 c 0,0 0.125618,0.16565 0.207031,0.24609 0.08141,0.0804 0.174837,0.1587 0.279297,0.23047 0.208919,0.14354 0.460657,0.26447 0.769531,0.36718 0.617749,0.20543 1.469483,0.3418 2.808594,0.3418 1.339111,0 2.190845,-0.13637 2.808594,-0.3418 0.308874,-0.10271 0.560612,-0.22364 0.769531,-0.36718 0.10446,-0.0718 0.197883,-0.15003 0.279297,-0.23047 0.08141,-0.0804 0.207031,-0.24609 0.207031,-0.24609 a 1.5,1.5 0 0 0 -0.398437,-2.08399 1.5,1.5 0 0 0 -1.796875,0.084 c -0.0055,0.003 0.03073,-0.0148 -0.0078,-0.002 -0.177904,0.0592 -0.737029,0.1875 -1.861328,0.1875 -1.124298,0 -1.683424,-0.12834 -1.861328,-0.1875 -0.02965,-0.01 0.0038,0.006 -0.0059,0.002 a 1.5,1.5 0 0 0 -0.9375,-0.34376 z"
         id="path2995"
         clip-path="url(#clipPath3083)"
         transform="translate(38.319963,4.6891772)" />
      <g
         id="g3472"
         transform="translate(28.831349,2.3972681)">
        <path
           sodipodi:nodetypes="sscssccss"
           fill="#d99e82"
           d="m 90.305357,152.31535 c -0.05876,-0.0588 -0.09519,-0.14016 -0.09519,-0.22997 v -6.58674 c -1.84e-4,-0.17942 0.145749,-0.32536 0.325163,-0.32517 0.179789,1.9e-4 0.325156,0.14555 0.325156,0.32516 v 6.58675 c 1.84e-4,0.17942 -0.145742,0.32534 -0.325163,0.32516 -0.0898,0 -0.171219,-0.0364 -0.229965,-0.0952 z"
           id="path3251-8"
           style="fill:#99aab5;fill-opacity:1;stroke-width:0.264583" />
        <path
           style="fill:#99aab5;fill-opacity:1;stroke-width:0.264583"
           id="path3251-8-9-0-0"
           d="m 91.321523,145.45809 c -0.07196,-0.0416 -0.128225,-0.11076 -0.151467,-0.1975 l -0.198234,-0.73981 c -0.0466,-0.17327 0.05657,-0.352 0.229922,-0.39826 0.173714,-0.0463 0.351737,0.0564 0.398236,0.22993 l 0.198234,0.73981 c 0.04662,0.17328 -0.05657,0.35199 -0.229927,0.39825 -0.08675,0.0232 -0.17477,0.009 -0.246791,-0.0324 z"
           fill="#d99e82"
           sodipodi:nodetypes="sscssccss" />
        <path
           sodipodi:nodetypes="sscssccss"
           fill="#d99e82"
           d="m 89.74913,145.45809 c 0.07196,-0.0416 0.128225,-0.11076 0.151467,-0.1975 l 0.198234,-0.73981 c 0.0466,-0.17327 -0.05657,-0.352 -0.229922,-0.39826 -0.173714,-0.0463 -0.351737,0.0564 -0.398236,0.22993 l -0.198234,0.73981 c -0.04662,0.17328 0.05657,0.35199 0.229927,0.39825 0.08675,0.0232 0.17477,0.009 0.246791,-0.0324 z"
           id="path3251-8-9-0-0-5"
           style="fill:#99aab5;fill-opacity:1;stroke-width:0.264583" />
        <path
           style="fill:#99aab5;fill-opacity:1;stroke-width:0.264583"
           d="m 91.464101,145.5153 c 0.179419,1.9e-4 0.325752,-0.14563 0.325562,-0.32505 -1.91e-4,-0.17979 -0.145952,-0.32556 -0.325562,-0.32556 h -1.865067 c -0.17961,0 -0.325372,0.14577 -0.325562,0.32556 -1.91e-4,0.17942 0.146142,0.32524 0.325562,0.32505 z"
           id="path3251-8-3-2"
           sodipodi:nodetypes="csccscc" />
      </g>
    </g>
  </g>
</svg>
