<svg xmlns="http://www.w3.org/2000/svg" width="210mm" height="297mm" viewBox="0 0 210 297"><defs><clipPath id="a" clipPathUnits="userSpaceOnUse"/></defs><path d="M346.836 548.738c-231.224-365.825-115.612-182.912 0 0" style="fill:#99aab5;fill-opacity:1;stroke-width:.999999" transform="scale(.26458)"/><path d="M115.873 144.813s-.363-.986-.744-.902c-.07.015-.007.153-.055.205-.062.069-.272-.141-.254.066.004.044.07.106.062.152-.014.083-.208.088-.188.17.096.395 1.18.309 1.18.309m6.916 0s.364-.986.745-.902c.069.015.007.153.054.205.062.069.272-.141.255.066-.004.044-.07.106-.062.152.014.083.208.088.188.17-.097.395-1.18.309-1.18.309" style="fill:#c1694f;fill-opacity:1;stroke:none;stroke-width:.181557px;stroke-linecap:butt;stroke-linejoin:miter;stroke-opacity:1" transform="rotate(-45 110.954 167.354)"/><path d="M116.544 145.143s.36.529 2.823.529 2.823-.53 2.823-.53" style="fill:none;stroke:#c1694f;stroke-width:3;stroke-linecap:round;stroke-linejoin:miter;stroke-miterlimit:4;stroke-dasharray:none;stroke-opacity:1" transform="rotate(-45 110.971 167.396)"/><path d="M78.242 138.953a1.5 1.5 0 0 0-.861.26 1.5 1.5 0 0 0-.399 2.084s.126.166.207.246q.123.122.28.23c.209.144.46.265.77.368.617.205 1.469.341 2.808.341s2.19-.136 2.808-.341c.31-.103.561-.224.77-.368q.156-.108.28-.23c.08-.08.206-.246.206-.246a1.5 1.5 0 0 0-.398-2.084 1.5 1.5 0 0 0-1.797.084c-.005.003.03-.015-.008-.002-.178.06-.737.187-1.861.187s-1.684-.128-1.861-.187c-.03-.01.003.006-.006.002a1.5 1.5 0 0 0-.938-.344" clip-path="url(#a)" style="color:#000;font-style:normal;font-variant:normal;font-weight:400;font-stretch:normal;font-size:medium;line-height:normal;font-family:sans-serif;font-variant-ligatures:normal;font-variant-position:normal;font-variant-caps:normal;font-variant-numeric:normal;font-variant-alternates:normal;font-variant-east-asian:normal;font-feature-settings:normal;font-variation-settings:normal;text-indent:0;text-align:start;text-decoration:none;text-decoration-line:none;text-decoration-style:solid;text-decoration-color:#000;letter-spacing:normal;word-spacing:normal;text-transform:none;writing-mode:lr-tb;direction:ltr;text-orientation:mixed;dominant-baseline:auto;baseline-shift:baseline;text-anchor:start;white-space:normal;shape-padding:0;shape-margin:0;inline-size:0;clip-rule:nonzero;display:inline;overflow:visible;visibility:visible;isolation:auto;mix-blend-mode:normal;color-interpolation:sRGB;color-interpolation-filters:linearRGB;solid-color:#000;solid-opacity:1;vector-effect:none;fill:#662113;fill-opacity:1;fill-rule:nonzero;stroke:none;stroke-width:3;stroke-linecap:round;stroke-linejoin:miter;stroke-miterlimit:4;stroke-dasharray:none;stroke-dashoffset:0;stroke-opacity:1;color-rendering:auto;image-rendering:auto;shape-rendering:auto;text-rendering:auto;stop-color:#000" transform="rotate(-45 97.472 118.795)"/><path fill="#d99e82" d="M90.305 152.315a.32.32 0 0 1-.095-.23V145.5a.325.325 0 1 1 .65 0v6.586a.325.325 0 0 1-.555.23m1.017-6.858a.33.33 0 0 1-.152-.197l-.198-.74a.325.325 0 1 1 .628-.169l.198.74a.325.325 0 0 1-.477.366m-1.571 0a.33.33 0 0 0 .15-.197l.199-.74a.325.325 0 1 0-.628-.169l-.199.74a.325.325 0 0 0 .477.366" style="fill:#99aab5;fill-opacity:1;stroke-width:.264583" transform="rotate(-45 99.45 131.395)"/><path d="M91.464 145.515a.325.325 0 1 0 0-.65H89.6a.326.326 0 0 0 0 .65z" style="fill:#99aab5;fill-opacity:1;stroke-width:.264583" transform="rotate(-45 99.45 131.395)"/></svg>