<?xml version="1.0" encoding="UTF-8" standalone="no"?>
<svg
   xmlns:dc="http://purl.org/dc/elements/1.1/"
   xmlns:cc="http://creativecommons.org/ns#"
   xmlns:rdf="http://www.w3.org/1999/02/22-rdf-syntax-ns#"
   xmlns:svg="http://www.w3.org/2000/svg"
   xmlns="http://www.w3.org/2000/svg"
   xmlns:sodipodi="http://sodipodi.sourceforge.net/DTD/sodipodi-0.dtd"
   xmlns:inkscape="http://www.inkscape.org/namespaces/inkscape"
   viewBox="0 0 45 45"
   style="enable-background:new 0 0 45 45;"
   xml:space="preserve"
   version="1.1"
   id="svg2"
   inkscape:version="0.91 r13725"
   sodipodi:docname="smug.svg"
   inkscape:export-filename="C:\Users\Soyez\Desktop\Stuff\My Art\somoji\smug.png"
   inkscape:export-xdpi="1024"
   inkscape:export-ydpi="1024"><sodipodi:namedview
     pagecolor="#ffffff"
     bordercolor="#666666"
     borderopacity="1"
     objecttolerance="10"
     gridtolerance="10"
     guidetolerance="10"
     inkscape:pageopacity="0"
     inkscape:pageshadow="2"
     inkscape:window-width="1920"
     inkscape:window-height="1031"
     id="namedview20"
     showgrid="false"
     inkscape:zoom="2.8284271"
     inkscape:cx="0.10265484"
     inkscape:cy="38.954768"
     inkscape:window-x="-8"
     inkscape:window-y="-8"
     inkscape:window-maximized="1"
     inkscape:current-layer="layer2"
     showguides="true" /><metadata
     id="metadata8"><rdf:RDF><cc:Work
         rdf:about=""><dc:format>image/svg+xml</dc:format><dc:type
           rdf:resource="http://purl.org/dc/dcmitype/StillImage" /><dc:title /></cc:Work></rdf:RDF></metadata><defs
     id="defs6"><clipPath
       id="clipPath16"
       clipPathUnits="userSpaceOnUse"><path
         id="path18"
         d="M 0,36 36,36 36,0 0,0 0,36 Z" /></clipPath></defs><g
     inkscape:groupmode="layer"
     id="layer1"
     inkscape:label="Layer 1"><g
       id="g20"
       transform="matrix(1.25,0,0,-1.25,45,22.5)"><path
         inkscape:connector-curvature="0"
         d="m 0,0 c 0,-9.941 -8.059,-18 -18,-18 -9.941,0 -18,8.059 -18,18 0,9.941 8.059,18 18,18 C -8.059,18 0,9.941 0,0"
         style="fill:#ffcc4d;fill-opacity:1;fill-rule:nonzero;stroke:none"
         id="path22" /></g><g
       id="g5756"
       transform="translate(0,1.3661545)"><g
         transform="matrix(1.25,0,0,-1.25,18.125,16.875)"
         id="g32"><path
           id="path34"
           style="fill:#664500;fill-opacity:1;fill-rule:nonzero;stroke:none"
           d="M 0,0 C 0,-1.934 -1.119,-3.5 -2.5,-3.5 -3.881,-3.5 -5,-1.934 -5,0 -5,1.933 -3.881,3.5 -2.5,3.5 -1.119,3.5 0,1.933 0,0"
           inkscape:connector-curvature="0" /></g><g
         transform="matrix(1.25,0,0,-1.25,33.125,16.875)"
         id="g36"><path
           id="path38"
           style="fill:#664500;fill-opacity:1;fill-rule:nonzero;stroke:none"
           d="M 0,0 C 0,-1.934 -1.119,-3.5 -2.5,-3.5 -3.881,-3.5 -5,-1.934 -5,0 -5,1.933 -3.881,3.5 -2.5,3.5 -1.119,3.5 0,1.933 0,0"
           inkscape:connector-curvature="0" /></g></g><path
       id="path26-3"
       style="fill:#664500;fill-opacity:1;fill-rule:nonzero;stroke:none"
       d="m 17.694877,37.450938 c -2.756553,0.100102 -5.959343,-1.589719 -4.06053,-5.382826 1.394622,-2.785928 4.741828,-3.878788 3.507354,-2.215675 -2.320189,3.12581 -1.739812,4.937235 0.196403,5.246031 1.936215,0.308797 4.883172,-0.358206 5.208666,-3.180368 0.183457,-1.590644 1.688023,1.845523 0.457149,3.438675 -0.753934,0.975837 -2.609729,1.996139 -5.309042,2.094163 z"
       inkscape:connector-curvature="0"
       sodipodi:nodetypes="sssssss" /><g
       id="g4248"
       transform="translate(0.31484938,-1.3877244)"><path
         inkscape:connector-curvature="0"
         d="m 37.44058,11.57068 c 0.220954,0.205573 0.402856,0.533647 0.506324,0.959812 0.254396,1.045562 -0.0586,2.286594 -0.697514,2.772307 -6.292666,4.775841 -10.950448,0.564601 -11.14591,0.382748 -0.586391,-0.545566 -0.771115,-1.812221 -0.412326,-2.827364 0.358141,-1.013302 1.121409,-1.395542 1.708041,-0.85465 0.165998,0.14945 3.847279,3.369185 8.930484,-0.488897 0.37957,-0.28713 0.78796,-0.244397 1.110901,0.05603"
         style="fill:#ffcc4d;fill-opacity:1;fill-rule:nonzero;stroke:none"
         id="path58-5-8-0-6" /><path
         inkscape:connector-curvature="0"
         d="M 8.5207873,18.349209 C 8.2998332,18.17884 8.1179312,17.906957 8.0144637,17.553778 7.760068,16.687283 8.0730617,15.658795 8.7119775,15.256267 15.004644,11.298353 19.662425,14.788362 19.857887,14.939071 c 0.586391,0.452129 0.771115,1.501851 0.412326,2.343136 -0.358141,0.839762 -1.121409,1.156536 -1.708041,0.70828 -0.165997,-0.123862 -3.847279,-2.792166 -8.9304836,0.405167 -0.3795695,0.237956 -0.7879595,0.202542 -1.1109011,-0.04644"
         style="fill:#ffcc4d;fill-opacity:1;fill-rule:nonzero;stroke:none"
         id="path58-5-8-0-9-0" /></g></g><g
     inkscape:groupmode="layer"
     id="layer2"
     inkscape:label="Layer 2"><g
       id="g5950"
       transform="translate(0.31234215,2.1251292)"><path
         inkscape:connector-curvature="0"
         d="m 36.369264,15.979142 c 0.220954,-0.122132 0.402856,-0.317026 0.506324,-0.570201 0.254396,-0.621142 -0.0586,-1.35841 -0.697514,-1.64696 -6.292666,-2.83721 -10.950448,-0.335415 -11.14591,-0.22738 -0.586391,0.324106 -0.771115,1.076594 -0.412326,1.679666 0.358141,0.601979 1.121409,0.829057 1.708041,0.507727 0.165998,-0.08879 3.847279,-2.00155 8.930484,0.290442 0.37957,0.170577 0.78796,0.145191 1.110901,-0.03329"
         style="fill:#ffcc4d;fill-opacity:1;fill-rule:nonzero;stroke:none"
         id="path58-5-8-0" /><path
         inkscape:connector-curvature="0"
         d="M 8.4108388,15.979142 C 8.1898847,15.857014 8.0079827,15.662116 7.9045152,15.408941 c -0.2543957,-0.621142 0.058598,-1.35841 0.6975138,-1.64696 6.292667,-2.83721 10.950448,-0.335415 11.14591,-0.22738 0.586391,0.324106 0.771115,1.076594 0.412326,1.679666 -0.358141,0.601979 -1.121409,0.829057 -1.708041,0.507727 -0.165997,-0.08879 -3.847279,-2.00155 -8.9304841,0.290442 -0.3795695,0.170577 -0.7879595,0.145191 -1.1109011,-0.03329"
         style="fill:#ffcc4d;fill-opacity:1;fill-rule:nonzero;stroke:none"
         id="path58-5-8-0-9" /></g><g
       style="enable-background:new 0 0 45 45"
       transform="translate(0.18835338,-0.04537332)"
       id="g4401"><g
         transform="matrix(-0.94951283,-0.29030341,-0.79171862,0.5936062,36.326461,9.3222113)"
         id="g56-4-0-9"
         style="fill:#fcab40;fill-opacity:1"><path
           sodipodi:nodetypes="sszs"
           id="path58-5-7-2"
           style="fill:#664500;fill-opacity:1;fill-rule:nonzero;stroke:none"
           d="M -7.7967371,9.2907689 C -7.4086039,12.576348 -3.4232573,16.829433 0.49478784,14.333815 1.8067665,13.498144 -2.4044926,12.259248 -4.5882223,9.798034 -6.771952,7.3368197 -7.8891189,8.5087496 -7.7967371,9.2907689 Z"
           inkscape:connector-curvature="0" /></g><g
         transform="matrix(0.94951283,-0.29030341,0.79171862,0.5936062,8.6872423,9.3175947)"
         id="g56-4-0-6-9"
         style="fill:#fcab40;fill-opacity:1"><path
           sodipodi:nodetypes="sszs"
           id="path58-5-7-5-5"
           style="fill:#664500;fill-opacity:1;fill-rule:nonzero;stroke:none"
           d="M -7.7967371,9.2907689 C -7.4086039,12.576348 -3.4232573,16.829433 0.49478784,14.333815 1.8067665,13.498144 -2.4044926,12.259248 -4.5882223,9.798034 -6.771952,7.3368197 -7.8891189,8.5087496 -7.7967371,9.2907689 Z"
           inkscape:connector-curvature="0" /></g></g><g
       style="fill:#fcab40;fill-opacity:1"
       id="g56-4-0-0"
       transform="matrix(-0.9865582,-0.37155658,-0.8226076,0.75975095,37.02829,2.8844075)"><path
         inkscape:connector-curvature="0"
         d="M -7.7967371,9.2907689 C -7.4086039,12.576348 -3.4232573,16.829433 0.49478784,14.333815 1.8067665,13.498144 -2.4044926,12.259248 -4.5882223,9.798034 -6.771952,7.3368197 -7.8891189,8.5087496 -7.7967371,9.2907689 Z"
         style="fill:#664500;fill-opacity:1;fill-rule:nonzero;stroke:none"
         id="path58-5-7-9"
         sodipodi:nodetypes="sszs" /></g><g
       style="fill:#fcab40;fill-opacity:1"
       id="g56-4-0-6-6"
       transform="matrix(0.9865582,0.37155658,0.8226076,-0.75975095,8.3484172,21.263711)"><path
         inkscape:connector-curvature="0"
         d="M -7.7967371,9.2907689 C -7.4086039,12.576348 -3.4881916,19.82897 1.86129,13.279303 3.7199367,11.003658 -0.88690222,15.175437 -3.1919736,12.121633 -5.4970451,9.0678284 -7.8891189,8.5087496 -7.7967371,9.2907689 Z"
         style="fill:#664500;fill-opacity:1;fill-rule:nonzero;stroke:none"
         id="path58-5-7-5-8"
         sodipodi:nodetypes="sszs" /></g></g></svg>