<svg xmlns="http://www.w3.org/2000/svg" xml:space="preserve" viewBox="0 0 45 45"><path d="M0 0c0-9.941-8.059-18-18-18S-36-9.941-36 0s8.059 18 18 18S0 9.941 0 0" style="fill:#ffcc4d;fill-opacity:1;fill-rule:nonzero;stroke:none" transform="matrix(1.25 0 0 -1.25 45 22.5)"/><path d="M0 0c0-1.934-1.119-3.5-2.5-3.5S-5-1.934-5 0s1.119 3.5 2.5 3.5S0 1.933 0 0" style="fill:#664500;fill-opacity:1;fill-rule:nonzero;stroke:none" transform="matrix(1.25 0 0 -1.25 18.125 18.241)"/><path d="M0 0c0-1.934-1.119-3.5-2.5-3.5S-5-1.934-5 0s1.119 3.5 2.5 3.5S0 1.933 0 0" style="fill:#664500;fill-opacity:1;fill-rule:nonzero;stroke:none" transform="matrix(1.25 0 0 -1.25 33.125 18.241)"/><path d="M16.458 4.718a1.25 1.25 0 0 0-1.073.318C11.37 8.798 7.142 8.151 6.964 8.121a1.253 1.253 0 0 0-1.438 1.022 1.247 1.247 0 0 0 1.01 1.441c.227.04 5.597.923 10.558-3.723a1.249 1.249 0 0 0-.636-2.143" style="fill:#664500;fill-opacity:1;fill-rule:nonzero;stroke:none" transform="translate(.375 3.5)"/><path d="M0 0a1 1 0 0 0-.799 1.6C2.463 5.95 6.817 6 7.001 6a1 1 0 0 0 .004-2C6.85 3.998 3.436 3.914.801.4A1 1 0 0 0 0 0" style="fill:#664500;fill-opacity:1;fill-rule:nonzero;stroke:none" transform="rotate(-10 61.048 -156.848)scale(1.25)"/><g style="fill:#ffcc4d;fill-opacity:1"><path d="M37.907 20.242c-.253.193-.631.317-1.038.316-5.467-.016-8.385 2.116-8.507 2.207-.463.346-1.25.412-1.758.146-.51-.266-.553-.761-.095-1.11.153-.117 3.82-2.853 10.576-2.834.687.002 1.195.36 1.135.799-.025.179-.139.343-.313.476" style="fill:#ffcc4d;fill-opacity:1;fill-rule:nonzero;stroke:none" transform="translate(-.125 1.354)"/><g style="fill:#ffcc4d;fill-opacity:1"><path d="M-1.469 1.315a1 1 0 0 0-.799 1.6c3.262 4.35 7.616 4.4 7.8 4.4a1 1 0 0 0 .004-2c-.155-.002-3.569-.086-6.204-3.6a1 1 0 0 0-.8-.4" style="fill:#ffcc4d;fill-opacity:1;fill-rule:nonzero;stroke:none" transform="matrix(.83178 .63419 .92926 -.48012 7.218 23.158)"/></g></g><path d="M0 0a5 5 0 0 0-5-5 5 5 0 0 0-5 5 5 5 0 0 0 5 5 5 5 0 0 0 5-5" style="fill:#ff7892;fill-opacity:1;fill-rule:nonzero;stroke:none" transform="matrix(1.25 0 0 -1.25 42.5 26.36)"/><path d="M0 0a5 5 0 0 0-5-5 5 5 0 0 0-5 5 5 5 0 0 0 5 5 5 5 0 0 0 5-5" style="fill:#ff7892;fill-opacity:1;fill-rule:nonzero;stroke:none" transform="matrix(1.25 0 0 -1.25 15 26.36)"/><g style="fill:#664500;fill-opacity:1"><path d="M-1.336 3.408c.835 2.408 4.55 3.58 5.83 3.55.706-.016.994-2.917.296-3.106-2.174-.59-3.468-1.089-4.914-2.542-.612-.615-1.52 1.211-1.212 2.098" style="fill:#664500;fill-opacity:1;fill-rule:nonzero;stroke:none" transform="matrix(-.90892 .0699 .06199 .61118 11.197 22.22)"/></g><g style="fill:#664500;fill-opacity:1"><path d="M-1.336 3.408c.835 2.408 4.55 3.58 5.83 3.55.706-.016.994-2.917.296-3.106-2.174-.59-3.468-1.089-4.914-2.542-.612-.615-1.52 1.211-1.212 2.098" style="fill:#664500;fill-opacity:1;fill-rule:nonzero;stroke:none" transform="matrix(.90892 .0699 -.06199 .61118 33.866 22.22)"/></g><path d="M0 0c-3.623 0-6.027.422-9 1-.679.131-3.73-.62-.6-1.854 2.3-.906 3.245-.588 9.65-.588 6.404 0 6.783-.378 9.4.62C12.62.383 9.679 1.131 9 1 6.027.422 3.623 0 0 0" style="fill:#664500;fill-opacity:1;fill-rule:nonzero;stroke:none" transform="matrix(1.25 0 0 -3.20377 22.5 27.724)"/><path d="M9-1c6 0 9.424 2.102 9.424 2.102S16-4 9-4-.977 1.128-.977 1.128 3-1 9-1" style="fill:#fff;fill-opacity:1;fill-rule:nonzero;stroke:none" transform="matrix(1.25 0 0 -1.4477 11.25 28.018)"/><g style="fill:#664500;fill-opacity:1"><path d="M-1.336 3.408C-.5 5.816 2.071 6.806 3.258 6.45c0 0 .158.1 1.512-2.644-2.174-.59-3.448-1.043-4.894-2.496-.612-.615-1.52 1.211-1.212 2.098" style="fill:#664500;fill-opacity:1;fill-rule:nonzero;stroke:none" transform="matrix(.24518 .86941 -.59553 .14931 17.99 28.141)"/></g><g style="fill:#664500;fill-opacity:1"><path d="M-1.336 3.408c.835 2.408 3.17 2.82 4.411 2.966.72.086 2.413-2.333 1.715-2.522-2.174-.59-3.468-1.089-4.914-2.542-.612-.615-1.52 1.211-1.212 2.098" style="fill:#664500;fill-opacity:1;fill-rule:nonzero;stroke:none" transform="matrix(-.24518 .86941 .59553 .14931 27.145 28.141)"/></g><g style="fill:#664500;fill-opacity:1"><path d="M-1.336 3.408c.835 2.408 4.55 3.58 5.83 3.55.889-3.922.701-2.082.296-3.106C3.403.349 1.322 2.763-.124 1.31c-.612-.615-1.52 1.211-1.212 2.098" style="fill:#664500;fill-opacity:1;fill-rule:nonzero;stroke:none" transform="matrix(-.1321 .83944 .32088 .14416 21.822 28.931)"/></g><g style="fill:#664500;fill-opacity:1"><path d="M-1.336 3.408C-.5 5.816 3.293 6.952 4.571 6.92c.417-2.132.45-1.778.62-3.11.664-5.207-3.87-1.048-5.315-2.5-.612-.616-1.52 1.21-1.212 2.097" style="fill:#664500;fill-opacity:1;fill-rule:nonzero;stroke:none" transform="matrix(.1321 .83944 -.32088 .14416 23.178 28.931)"/></g><g style="fill:#f4900c;fill-opacity:1"><path d="M-.967-1.095c-1.876 3.792 3.915 5.833 5.194 5.803.706-.017.995-2.917.296-3.107C2.349 1.011.898.811-.391-.94c-.214-.292-.187-.942-.576-.155" style="fill:#f4900c;fill-opacity:1;fill-rule:nonzero;stroke:none" transform="matrix(-.22668 .59555 -.59113 -.11276 16.12 33.057)"/></g><g style="fill:#f4900c;fill-opacity:1"><path d="M-1.002-1.082C-2.878 2.71 2.914 4.751 4.192 4.721c.707-.016.995-2.917.296-3.106C2.315 1.025.863.825-.425-.927c-.215-.291-.188-.941-.577-.155" style="fill:#f4900c;fill-opacity:1;fill-rule:nonzero;stroke:none" transform="matrix(.22668 .59555 .59113 -.11276 28.669 33.079)"/></g><g style="fill:#f4900c;fill-opacity:1"><path d="M-.967-1.095c-1.876 3.792 3.915 5.833 5.194 5.803.706-.017.995-2.917.296-3.107C2.349 1.011.898.811-.391-.94c-.214-.292-.187-.942-.576-.155" style="fill:#f4900c;fill-opacity:1;fill-rule:nonzero;stroke:none" transform="matrix(.08899 .53276 -.61266 .02648 22.148 34.012)"/></g><g style="fill:#f4900c;fill-opacity:1"><path d="M-.967-1.095c-1.876 3.792 3.915 5.833 5.194 5.803.706-.017.995-2.917.296-3.107C2.349 1.011.898.811-.391-.94c-.214-.292-.187-.942-.576-.155" style="fill:#f4900c;fill-opacity:1;fill-rule:nonzero;stroke:none" transform="matrix(-.08899 .53276 .61266 .02648 22.852 34.012)"/></g><g style="fill:#b55005;fill-opacity:1"><path d="M0 0s-1.394 1.291-.103 2.686c1.291 1.393 2.686.101 2.686.101l6.471-5.994c-.102.096.45.879.368.955L.44 6.067S-.954 7.358.337 8.751c1.292 1.394 2.686.103 2.686.103l8.448-7.825c-.02.018.609.731.597.742l-9.794 9.072s-1.394 1.291-.103 2.685c1.292 1.393 2.686.102 2.686.102l9.793-9.072c.012-.01.683.664.703.645l-9.154 8.479s-1.394 1.291-.103 2.685c1.292 1.393 2.686.102 2.686.102l9.679-8.965c2.866-2.655 3.512-1.958 3.512-1.958l-2.588 2.397-2.989 2.767s-1.394 1.291-.102 2.685 2.685.104 2.685.104l7.667-7.102c4.618-4.278 4.895-11.491.616-16.11-4.278-4.619-11.492-4.894-16.111-.617-.244.226-.682.663-.663.684l-.033-.038z" style="fill:#b55005;fill-opacity:1;fill-rule:nonzero;stroke:none" transform="rotate(-169.999 15.355 18.137)scale(.61627)"/></g><path d="M25.768 26.093s.88-1.395-.517-2.274c-1.396-.88-2.275.516-2.275.516l-4.08 6.483c.065-.104-.575-.637-.523-.719l5.663-8.995s.879-1.396-.517-2.275-2.275.517-2.275.517l-5.326 8.462c.012-.02-.676-.476-.668-.488l6.175-9.81s.879-1.395-.517-2.274-2.275.517-2.275.517l-6.175 9.808c-.008.013-.721-.402-.734-.382l5.77-9.168s.88-1.396-.516-2.274-2.275.517-2.275.517L8.6 23.95c-1.806 2.87-2.506 2.43-2.506 2.43l1.633-2.592 1.884-2.992s.878-1.396-.517-2.275c-1.397-.878-2.276.517-2.276.517l-4.833 7.678C-.927 31.341.462 37.453 5.088 40.365s10.737 1.522 13.65-3.104c.154-.244.423-.709.402-.721l.037.024z" style="fill:#f4900c;fill-opacity:1;fill-rule:nonzero;stroke:none" transform="rotate(25 -21.254 47.963)scale(.7098)"/><path d="M37.907 20.242c-.253.193-.631.317-1.038.316-5.467-.016-8.385 2.116-8.507 2.207-.463.346-1.25.412-1.758.146-.51-.266-.553-.761-.095-1.11.153-.117 3.82-2.853 10.576-2.834.687.002 1.195.36 1.135.799-.025.179-.139.343-.313.476" style="fill:#f4900c;fill-opacity:1;fill-rule:nonzero;stroke:none" transform="matrix(1 0 0 1.27372 -.125 -5.191)"/><g style="fill:#f4900c;fill-opacity:1"><path d="M-1.469 1.315a1 1 0 0 0-.799 1.6c3.262 4.35 7.616 4.4 7.8 4.4a1 1 0 0 0 .004-2c-.155-.002-3.569-.086-6.204-3.6a1 1 0 0 0-.8-.4" style="fill:#f4900c;fill-opacity:1;fill-rule:nonzero;stroke:none" transform="matrix(.83178 .80778 .92926 -.61154 7.218 22.58)"/></g></svg>