<svg xmlns="http://www.w3.org/2000/svg" xml:space="preserve" viewBox="0 0 45 45"><path d="M0 0c0-9.941-8.059-18-18-18-9.94 0-18 8.059-18 18 0 9.94 8.06 18 18 18C-8.059 18 0 9.94 0 0" style="fill:#ffcc4d;fill-opacity:1;fill-rule:nonzero;stroke:none" transform="matrix(1.25 0 0 -1.25 45 22.5)"/><g style="fill:#664500;fill-opacity:1"><path d="M.2.468c-1.509-.3-3.732-.553-5.201 2.428a1 1 0 0 0 .64 1.261.997.997 0 0 0 1.256-.624c.044-.116.804-1.164 1.51-1.407.708-.243 2.405.23 1.84 1.12-1.067 1.68.462 2.1 1.61 1.013C3.228 2.959 1.777.782.2.469" style="fill:#664500;fill-opacity:1;fill-rule:nonzero;stroke:none" transform="matrix(1.07024 0 0 -1.25 26.886 33.473)"/></g><g style="fill:#664500;fill-opacity:1"><path d="M.2.468c-1.509-.3-3.732-.553-5.201 2.428a1 1 0 0 0 .64 1.261.997.997 0 0 0 1.256-.624c.044-.116.804-1.164 1.51-1.407.708-.243 2.405.23 1.84 1.12-1.067 1.68.462 2.1 1.61 1.013C3.228 2.959 1.777.782.2.469" style="fill:#664500;fill-opacity:1;fill-rule:nonzero;stroke:none" transform="matrix(-1.07024 0 0 -1.25 18.114 33.473)"/></g><path d="M0 0c-.114.085-1.931 1.426-4.646 2.344.027.115.046.233.046.356 0 .369-.138.703-.359.964 1.803.521 3.334.536 3.361.536a1 1 0 0 1-.002 2c-.22 0-5.451-.037-8.707-3.293A1 1 0 0 1-9.6 1.2c4.59 0 8.364-2.772 8.402-2.801a1 1 0 0 1 1.399.203A1 1 0 0 1 0 0" style="fill:#664500;fill-opacity:1;fill-rule:nonzero;stroke:none" transform="matrix(1.25 0 0 -1.25 38.25 25.25)"/><path d="M19.634 21.616C15.565 17.548 9.027 17.5 8.75 17.5a1.25 1.25 0 0 0 0 2.5c.033 0 1.948.02 4.2.67a1.87 1.87 0 0 0-.449 1.205c0 .154.024.301.06.445-3.396 1.148-5.667 2.824-5.81 2.93a1.25 1.25 0 0 0 1.5 2c.047-.035 4.734-3.5 10.5-3.5a1.25 1.25 0 0 0 .884-2.134" style="fill:#664500;fill-opacity:1;fill-rule:nonzero;stroke:none"/></svg>