<svg xmlns="http://www.w3.org/2000/svg" xml:space="preserve" viewBox="0 0 45 45"><defs><clipPath id="c" clipPathUnits="userSpaceOnUse"><path d="M4 31a4 4 0 0 1-4-4V9a4 4 0 0 1 4-4h28a4 4 0 0 1 4 4v18a4 4 0 0 1-4 4z"/></clipPath><clipPath id="a" clipPathUnits="userSpaceOnUse"><path d="M4 31a4 4 0 0 1-4-4V9a4 4 0 0 1 4-4h28a4 4 0 0 1 4 4v18a4 4 0 0 1-4 4z"/></clipPath><clipPath id="b" clipPathUnits="userSpaceOnUse"><path d="M18 31 0 5h11.96L18 13.67 24.04 5H36Z" style="fill:#2b0000;fill-opacity:1;fill-rule:evenodd;stroke:none;stroke-width:3.31246;stroke-linecap:round;stroke-linejoin:round"/></clipPath></defs><g clip-path="url(#a)" transform="matrix(1.25 0 0 -1.25 0 45)"><path d="M36 9.5H0V5h36z" style="fill:#fff;fill-opacity:1;fill-rule:nonzero;stroke:none"/><path d="M36 13.93H0v-4.6h36z" style="fill:#292f33;fill-opacity:1;fill-rule:nonzero;stroke:none"/><path d="M36 18.17H0v-4.5h36z" style="fill:#fff;fill-opacity:1;fill-rule:nonzero;stroke:none"/><path d="M36 22.5H0V18h36z" style="fill:#292f33;fill-opacity:1;fill-rule:nonzero;stroke:none"/><path d="M36 26.83H0v-4.5h36z" style="fill:#fff;fill-opacity:1;fill-rule:nonzero;stroke:none"/><path d="M36 31H0v-4.33h36z" style="fill:#292f33;fill-opacity:1;fill-rule:nonzero;stroke:none"/></g><g clip-path="url(#b)" transform="matrix(1.25 0 0 -1.25 0 45)"><g clip-path="url(#c)"><path d="M36.002 9.5H0V5h36.002z" style="fill:#880082;fill-opacity:1;fill-rule:nonzero;stroke:none;stroke-width:1.00004"/><path d="M36.002 13.93H0v-4.6h36.002z" style="fill:#3558a0;fill-opacity:1;fill-rule:nonzero;stroke:none;stroke-width:1.00004"/><path d="M36 18.17H0v-4.5h36z" style="fill:#138f3e;fill-opacity:1;fill-rule:nonzero;stroke:none"/><path d="M36 22.5H0V18h36z" style="fill:#fad220;fill-opacity:1;fill-rule:nonzero;stroke:none"/><path d="M36 26.83H0v-4.5h36z" style="fill:#ff5000;fill-opacity:1;fill-rule:nonzero;stroke:none"/><path d="M36 31H0v-4.33h36z" style="fill:#ff000e;fill-opacity:1;fill-rule:nonzero;stroke:none"/></g></g></svg>