<svg xmlns="http://www.w3.org/2000/svg" width="210mm" height="297mm" viewBox="0 0 210 297"><path fill="#f4900c" d="m159.01 159.106-8.995-.136v.694h.004c.005.157.094.314.286.432l1.827 1.119 1.828 1.118c.404.247 1.097.224 1.462 0 .366-.224.183-.335.548-.56.366-.223.548-.111.914-.334l1.828-1.119c.202-.123.302-.285.303-.447z" style="fill:#662113;fill-opacity:1;stroke-width:.264583" transform="translate(-849.614 -828.727)scale(6.20748)"/><path fill="#d3790d" d="M156.47 160.802c.002.12.017.123.021.367.008.473.635.387.623-.4-.001-.091.004-.27.004-.27z" opacity=".5" style="fill:#ffd983;fill-opacity:1;stroke-width:.264583" transform="translate(-849.614 -828.727)scale(6.20748)"/><path fill="#ffac33" d="m158.713 158.631-3.656-2.237c-.403-.247-1.058-.247-1.462 0l-1.828 1.119c-.365.224-.182.335-.548.56-.365.223-.548.11-.914.335-.365.223-.403.647 0 .894l3.656 2.237c.403.248 1.096.225 1.461 0 .366-.223.183-.335.549-.559.365-.223.548-.112.914-.335l1.827-1.119c.404-.247.404-.648 0-.895" style="fill:#8a4b38;fill-opacity:1;stroke-width:.264583" transform="translate(-849.614 -828.727)scale(6.20748)"/><path fill="#ffd983" d="m158.442 158.855-3.742-2.237s-.399-.21-.748 0l-1.843 1.101c-.316.19-.273.387-.59.577s-.618.146-.935.335c-.374.224 0 .448 0 .448l3.742 2.237s.374.223.748 0c.317-.19.245-.37.561-.56.317-.189.647-.163.964-.352l1.842-1.102s.35-.238.001-.447" style="fill:#cc927a;fill-opacity:1;stroke-width:.264583" transform="translate(-849.614 -828.727)scale(6.20748)"/><path fill="#d3790d" d="M154.003 157.936c-.906-.26-1.283-.115-1.213.593.018.183-.229.492-.478.672-.58.418-.316 1.096.682.577.5-.26 1.235-.255 2.13.004.752.217 1.28.685 1.346 1.02.313-.043.505-.179.648-.303-.064-.138-.451-.75-.89-.934-.829-.347-.042-.88.572-1.017.555-.124 0-.535-.848-.506-.847.03-.63.274-1.95-.106z" style="opacity:.75;fill:#ffd983;fill-opacity:1;stroke-width:.264583" transform="translate(-849.614 -828.727)scale(6.20748)"/><path fill="#ffac33" d="M155.617 158.271c.121.07.122.493 0 .562l-.88.502a.5.5 0 0 1-.441 0l-.88-.502c-.123-.069-.123-.493 0-.562l.88-.19a.5.5 0 0 1 .44 0z" style="stroke-width:.264583" transform="translate(-849.614 -828.727)scale(6.20748)"/><path fill="#ffd983" d="M155.617 158.271c.121.07.122.182 0 .25l-.88.503a.5.5 0 0 1-.441 0l-.88-.502c-.123-.07-.123-.182 0-.251l.88-.502a.5.5 0 0 1 .44 0z" style="stroke-width:.264583" transform="translate(-849.614 -828.727)scale(6.20748)"/></svg>