<svg xmlns="http://www.w3.org/2000/svg" xml:space="preserve" viewBox="0 0 45 45"><path fill="#ea596e" d="M136.176 255.806a4 4 0 0 1-4 4h-28.008a4 4 0 0 1-4.001-4v-28.008a4 4 0 0 1 4-4.001h28.008a4 4 0 0 1 4.001 4.001z" style="fill:#006a4d;fill-opacity:1;stroke-width:1.00027" transform="translate(-125.174 -279.535)scale(1.24966)"/><path fill="#fff" d="M184.53 197.826c-3.315-3.315-3.315-8.71 0-12.024 3.315-3.315 8.71-3.315 12.024 0 3.315 3.315 3.315 8.709 0 12.024s-8.709 3.315-12.024 0m9.902-9.902a5.51 5.51 0 0 0-7.78 0 5.51 5.51 0 0 0 0 7.78 5.51 5.51 0 0 0 7.78 0 5.51 5.51 0 0 0 0-7.78" style="stroke-width:1.00027" transform="rotate(-45 -107.926 333.093)scale(1.0747)"/><path fill="#fff" d="M178.165 204.191a1.5 1.5 0 0 1 0-2.122l6.365-6.365a1.5 1.5 0 1 1 2.122 2.122l-6.365 6.365a1.5 1.5 0 0 1-2.122 0" style="stroke-width:1.00026" transform="rotate(-45 -107.926 333.093)scale(1.0747)"/><path fill="#fff" d="m184.442 204.81-6.896-6.896a1.5 1.5 0 1 1 2.122-2.122l6.896 6.896a1.5 1.5 0 1 1-2.122 2.122" style="stroke-width:1.00026" transform="rotate(-45 -107.926 333.093)scale(1.0747)"/><path fill="#fff" d="m210.7 190.753-6.343-6.344a1.5 1.5 0 1 0-2.122 2.122l3.782 3.783-9.816-.086v3l9.816.086-3.804 3.805a1.501 1.501 0 0 0 2.122 2.122l6.365-6.366a1.5 1.5 0 0 0 0-2.122" style="stroke-width:1.00028" transform="rotate(-45 -107.926 333.093)scale(1.0747)"/><g style="fill:#fff"><path d="M208.385 201.423a1.5 1.5 0 0 1-1.5-1.5v-10.061a1.5 1.5 0 1 1 3 0v10.06a1.5 1.5 0 0 1-1.5 1.5" style="fill:#fff;stroke-width:1.00026" transform="rotate(-45 -119.512 365.009)scale(1.0747)"/><path d="m212.545 198.497-9.821-5.67a1.5 1.5 0 1 1 1.5-2.599l9.821 5.67a1.5 1.5 0 1 1-1.5 2.6" style="fill:#fff;stroke-width:1.00026" transform="rotate(-45 -119.512 365.009)scale(1.0747)"/><path d="m204.224 198.497 9.821-5.67a1.5 1.5 0 1 0-1.5-2.599l-9.821 5.67a1.5 1.5 0 1 0 1.5 2.6" style="fill:#fff;stroke-width:1.00026" transform="rotate(-45 -119.512 365.009)scale(1.0747)"/></g></svg>