<svg xmlns="http://www.w3.org/2000/svg" xml:space="preserve" viewBox="0 0 45 45"><defs><clipPath id="a" clipPathUnits="userSpaceOnUse"><path d="M85.352 21.61c0-6.758-1.467-12.235-3.277-12.235h-22.94c-1.81 0-3.276 5.477-3.276 12.236v46.763c0 5.924 1.467 10.728 3.277 10.728h22.94c1.81 0 3.276-4.804 3.276-10.728V45.886Z" style="fill:#8a1e04;fill-opacity:1;fill-rule:nonzero;stroke:none;stroke-width:1.18578"/></clipPath></defs><g clip-path="url(#a)" transform="matrix(1.52583 0 0 .4661 -84.995 2.718)"><path d="M55.859 9.375h29.492v9.961H55.859z" style="opacity:1;fill:#5bcefa;fill-opacity:1;fill-rule:evenodd;stroke-width:1.88976;stroke-linecap:round;stroke-linejoin:round;stroke-opacity:.630027;paint-order:stroke fill markers"/><path d="M55.859 19.336h29.492v9.961H55.859z" style="fill:#f7dae6;fill-opacity:1;fill-rule:evenodd;stroke-width:1.88976;stroke-linecap:round;stroke-linejoin:round;stroke-opacity:.630027;paint-order:stroke fill markers"/><path d="M55.859 29.297h29.492v9.961H55.859z" style="fill:#f7afcf;fill-opacity:1;fill-rule:evenodd;stroke-width:1.88976;stroke-linecap:round;stroke-linejoin:round;stroke-opacity:.630027;paint-order:stroke fill markers"/><path d="M55.859 39.258h29.492v9.961H55.859z" style="fill:#f688b9;fill-opacity:1;fill-rule:evenodd;stroke-width:1.88976;stroke-linecap:round;stroke-linejoin:round;stroke-opacity:.630027;paint-order:stroke fill markers"/><path d="M55.859-79.102h29.492v9.961H55.859z" style="fill:#5bcefa;fill-opacity:1;fill-rule:evenodd;stroke-width:1.88976;stroke-linecap:round;stroke-linejoin:round;stroke-opacity:.630027;paint-order:stroke fill markers" transform="scale(1 -1)"/><path d="M55.859-69.141h29.492v9.961H55.859z" style="fill:#f7dae6;fill-opacity:1;fill-rule:evenodd;stroke-width:1.88976;stroke-linecap:round;stroke-linejoin:round;stroke-opacity:.630027;paint-order:stroke fill markers" transform="scale(1 -1)"/><path d="M55.859-59.18h29.492v9.961H55.859z" style="fill:#f7afcf;fill-opacity:1;fill-rule:evenodd;stroke-width:1.88976;stroke-linecap:round;stroke-linejoin:round;stroke-opacity:.630027;paint-order:stroke fill markers" transform="scale(1 -1)"/></g></svg>