<svg xmlns="http://www.w3.org/2000/svg" xml:space="preserve" viewBox="0 0 45 45"><defs><clipPath id="a" clipPathUnits="userSpaceOnUse"><path d="M45.237 12.791c0-3.15-2.238-5.703-4.999-5.703H5.236c-2.761 0-4.999 2.553-4.999 5.703v21.797a5 5 0 0 0 4.999 5h35.002a5 5 0 0 0 4.999-5V24.106z" style="fill:#8a1e04;fill-opacity:1;fill-rule:nonzero;stroke:none;stroke-width:.999999"/></clipPath></defs><g clip-path="url(#a)"><path d="M.237 16.374h45v4.643h-45z" style="fill:#99ecff;fill-opacity:1;fill-rule:evenodd;stroke-width:1.59368;stroke-linecap:round;stroke-linejoin:round;stroke-opacity:.630027;paint-order:stroke fill markers"/><path d="M.237 11.731h45v4.643h-45z" style="fill:#ccf5ff;fill-opacity:1;fill-rule:evenodd;stroke-width:1.59368;stroke-linecap:round;stroke-linejoin:round;stroke-opacity:.630027;paint-order:stroke fill markers"/><path d="M.237 7.088h45v4.643h-45z" style="fill:#ff8abe;fill-opacity:1;fill-rule:evenodd;stroke-width:1.59368;stroke-linecap:round;stroke-linejoin:round;stroke-opacity:.630027;paint-order:stroke fill markers"/><path d="M.237 21.017h45v4.643h-45z" style="fill:#75dfff;fill-opacity:1;fill-rule:evenodd;stroke-width:1.59368;stroke-linecap:round;stroke-linejoin:round;stroke-opacity:.630027;paint-order:stroke fill markers"/><path d="M.237-39.588h45v4.643h-45z" style="fill:#ff8abe;fill-opacity:1;fill-rule:evenodd;stroke-width:1.59368;stroke-linecap:round;stroke-linejoin:round;stroke-opacity:.630027;paint-order:stroke fill markers" transform="scale(1 -1)"/><path d="M.237-34.945h45v4.643h-45z" style="fill:#ccf5ff;fill-opacity:1;fill-rule:evenodd;stroke-width:1.59368;stroke-linecap:round;stroke-linejoin:round;stroke-opacity:.630027;paint-order:stroke fill markers" transform="scale(1 -1)"/><path d="M.237-30.302h45v4.643h-45z" style="fill:#99ecff;fill-opacity:1;fill-rule:evenodd;stroke-width:1.59368;stroke-linecap:round;stroke-linejoin:round;stroke-opacity:.630027;paint-order:stroke fill markers" transform="scale(1 -1)"/></g></svg>