<?xml version="1.0" encoding="UTF-8" standalone="no"?>
<svg
   xmlns:dc="http://purl.org/dc/elements/1.1/"
   xmlns:cc="http://creativecommons.org/ns#"
   xmlns:rdf="http://www.w3.org/1999/02/22-rdf-syntax-ns#"
   xmlns:svg="http://www.w3.org/2000/svg"
   xmlns="http://www.w3.org/2000/svg"
   xmlns:sodipodi="http://sodipodi.sourceforge.net/DTD/sodipodi-0.dtd"
   xmlns:inkscape="http://www.inkscape.org/namespaces/inkscape"
   viewBox="0 0 45 45"
   style="enable-background:new 0 0 45 45;"
   xml:space="preserve"
   version="1.1"
   id="svg2"
   inkscape:version="0.91 r13725"
   sodipodi:docname="trepidation.svg"
   inkscape:export-filename="C:\Users\Soyez\Desktop\Stuff\My Art\somoji\trepidation.png"
   inkscape:export-xdpi="1024"
   inkscape:export-ydpi="1024"><sodipodi:namedview
     pagecolor="#ffffff"
     bordercolor="#666666"
     borderopacity="1"
     objecttolerance="10"
     gridtolerance="10"
     guidetolerance="10"
     inkscape:pageopacity="0"
     inkscape:pageshadow="2"
     inkscape:window-width="1920"
     inkscape:window-height="1031"
     id="namedview18"
     showgrid="false"
     inkscape:zoom="11.313709"
     inkscape:cx="14.259066"
     inkscape:cy="21.13565"
     inkscape:window-x="-8"
     inkscape:window-y="-8"
     inkscape:window-maximized="1"
     inkscape:current-layer="svg2" /><metadata
     id="metadata8"><rdf:RDF><cc:Work
         rdf:about=""><dc:format>image/svg+xml</dc:format><dc:type
           rdf:resource="http://purl.org/dc/dcmitype/StillImage" /></cc:Work></rdf:RDF></metadata><defs
     id="defs6"><inkscape:path-effect
       effect="spiro"
       id="path-effect4186"
       is_visible="true" /><inkscape:path-effect
       effect="spiro"
       id="path-effect4180"
       is_visible="true" /><clipPath
       id="clipPath16"
       clipPathUnits="userSpaceOnUse"><path
         id="path18"
         d="M 0,36 36,36 36,0 0,0 0,36 Z" /></clipPath></defs><path
     id="path22"
     style="fill:#ffcc4d;fill-opacity:1;fill-rule:nonzero;stroke:none"
     d="M 45,22.5 C 45,34.92625 34.92625,45 22.5,45 10.075,45 0,34.92625 0,22.5 0,10.075 10.075,0 22.5,0 34.92625,0 45,10.075 45,22.5"
     inkscape:connector-curvature="0" /><g
     id="g24"
     transform="matrix(1.25,0,0,-1.25,17.5,20.625)"><path
       inkscape:connector-curvature="0"
       d="M 0,0 C 0,-1.934 -1.119,-3.5 -2.5,-3.5 -3.881,-3.5 -5,-1.934 -5,0 -5,1.933 -3.881,3.5 -2.5,3.5 -1.119,3.5 0,1.933 0,0"
       style="fill:#664500;fill-opacity:1;fill-rule:nonzero;stroke:none"
       id="path26" /></g><g
     id="g28"
     transform="matrix(1.25,0,0,-1.25,33.75,20.625)"><path
       inkscape:connector-curvature="0"
       d="M 0,0 C 0,-1.934 -1.119,-3.5 -2.5,-3.5 -3.881,-3.5 -5,-1.934 -5,0 -5,1.933 -3.881,3.5 -2.5,3.5 -1.119,3.5 0,1.933 0,0"
       style="fill:#664500;fill-opacity:1;fill-rule:nonzero;stroke:none"
       id="path30" /></g><path
     style="fill:#664500;fill-opacity:1;fill-rule:evenodd;stroke:none;stroke-width:1px;stroke-linecap:butt;stroke-linejoin:miter;stroke-opacity:1"
     d="m 14.026842,30.169351 c 1.873779,-0.0095 1.805105,2.354898 4.358753,2.11734 4.839493,-0.450204 9.032421,-3.745591 11.366945,-1.304509 1.08959,1.139323 3.262923,4.082361 1.346271,4.096225 -2.328825,0.01685 -2.516599,-2.344762 -4.346425,-2.188373 -2.243386,0.191735 -5.652314,2.341194 -8.648345,2.296251 -4.339204,-0.06509 -6.218945,-5.006119 -4.077199,-5.016934 z"
     id="path4184"
     inkscape:connector-curvature="0"
     sodipodi:nodetypes="sssssss" /><g
     id="g4201"
     transform="translate(8.25,-20.0625)"><g
       inkscape:export-ydpi="1024"
       inkscape:export-xdpi="1024"
       inkscape:export-filename="C:\Users\Soyez\Desktop\Stuff\My Art\somoji\g20.png"
       transform="matrix(1.25,0,0,-1.25,29.25,35.875299)"
       id="g44"><path
         id="path46"
         style="fill:#664500;fill-opacity:1;fill-rule:nonzero;stroke:none"
         d="m 0,0 c -5.554,0 -7.802,4.367 -7.895,4.553 -0.247,0.494 -0.046,1.095 0.448,1.342 0.492,0.246 1.092,0.047 1.34,-0.444 C -6.033,5.306 -4.287,2 0,2 0.553,2 1,1.552 1,1 1,0.448 0.553,0 0,0"
         inkscape:connector-curvature="0" /></g><g
       inkscape:export-ydpi="1024"
       inkscape:export-xdpi="1024"
       inkscape:export-filename="C:\Users\Soyez\Desktop\Stuff\My Art\somoji\g20.png"
       transform="matrix(1.25,0,0,-1.25,-0.75000003,35.875299)"
       id="g48"><path
         id="path50"
         style="fill:#664500;fill-opacity:1;fill-rule:nonzero;stroke:none"
         d="m 0,0 c -0.552,0 -1,0.448 -1,1 0,0.552 0.448,1 1,1 5.083,0 5.996,3.12 6.033,3.253 0.145,0.528 0.69,0.848 1.219,0.709 C 7.782,5.823 8.103,5.289 7.97,4.757 7.921,4.563 6.704,0 0,0"
         inkscape:connector-curvature="0" /></g></g></svg>