<svg xmlns="http://www.w3.org/2000/svg" xml:space="preserve" viewBox="0 0 45 45"><defs><clipPath id="a" clipPathUnits="userSpaceOnUse"><path d="M4 31a4 4 0 0 1-4-4V9a4 4 0 0 1 4-4h28a4 4 0 0 1 4 4v18a4 4 0 0 1-4 4z" style="stroke-width:1"/></clipPath></defs><g clip-path="url(#a)" transform="matrix(1.25 0 0 -1.25 0 45)"><path d="M36 9.5H0V5h36z" style="fill:#880082;fill-opacity:1;fill-rule:nonzero;stroke:none"/><path d="M36 13.93H0v-4.6h36z" style="fill:#3558a0;fill-opacity:1;fill-rule:nonzero;stroke:none"/><path d="M36 18.17H0v-4.5h36z" style="fill:#138f3e;fill-opacity:1;fill-rule:nonzero;stroke:none"/><path d="M36 22.5H0V18h36z" style="fill:#fad220;fill-opacity:1;fill-rule:nonzero;stroke:none"/><path d="M36 26.83H0v-4.5h36z" style="fill:#ff5000;fill-opacity:1;fill-rule:nonzero;stroke:none"/><path d="M36 31H0v-4.33h36z" style="fill:#ff000e;fill-opacity:1;fill-rule:nonzero;stroke:none"/></g><path d="M15.364 34.49c-.136-.108-.589-1.026-.759-1.54-.559-1.685-.462-4.059.282-6.89.28-1.065.982-3.095 1.215-3.516.037-.065.242-.498.456-.962.817-1.77 2.044-3.735 2.749-4.404.18-.17.181-.241.008-.422-.518-.544-.862-1.798-.753-2.753.34-2.997 3.697-4.54 6.193-2.848 1.814 1.23 2.268 3.876.959 5.59-.207.272-.22.205.126.632.417.514.812 1.071 1.216 1.72.631 1.015.854 1.44 1.865 3.563.682 1.432 1.422 3.947 1.662 5.65.335 2.376.187 3.739-.567 5.227-.298.588-.253.554-.718.527q-1.797-.107-3.482-3.082c-.967-1.708-2.21-4.5-3.035-6.818a16 16 0 0 0-.303-.813c-.036-.036-.12.04-.12.108 0 .265-1.18 3.518-1.837 5.061-1.42 3.34-2.436 4.904-3.657 5.638-.507.305-1.31.483-1.5.332" style="fill:#fff;fill-opacity:1;stroke:none;stroke-width:.0468809"/><path d="M15.364 34.49c-.136-.108-.589-1.026-.759-1.54-.559-1.685-.462-4.059.282-6.89.28-1.065.982-3.095 1.215-3.516.037-.065.242-.498.456-.962.817-1.77 2.044-3.735 2.749-4.404.18-.17.181-.241.008-.422-.518-.544-.862-1.798-.753-2.753.34-2.997 3.697-4.54 6.193-2.848 1.814 1.23 2.268 3.876.959 5.59-.207.272-.22.205.126.632.417.514.812 1.071 1.216 1.72.631 1.015.854 1.44 1.865 3.563.682 1.432 1.422 3.947 1.662 5.65.335 2.376.187 3.739-.567 5.227-.298.588-.253.554-.718.527q-1.797-.107-3.482-3.082c-.967-1.708-2.21-4.5-3.035-6.818a16 16 0 0 0-.303-.813c-.036-.036-.12.04-.12.108 0 .265-1.18 3.518-1.837 5.061-1.42 3.34-2.435 4.904-3.657 5.638-.507.305-1.31.483-1.5.332m1.168-2.91c.026-.033.072-.28.103-.551.095-.819.782-4.216.87-4.305.014-.013.123.076.243.198.505.512 1.31.714 2.363.593.628-.072.648-.087.86-.643 1.483-3.876 2.335-7.33 2.14-8.667-.153-1.044-.483-1.826-.85-2.016-.205-.106-.286-.039-.673.556-1.668 2.564-3.147 5.904-3.854 8.705-.251.997-.241.966-.304.903-.11-.11.555-2.424 1.13-3.927.7-1.826 1.912-4.223 2.93-5.791.35-.541.356-.608.051-.608-1.672 0-4.239 3.568-5.85 8.133-.273.776-.6 1.871-.6 2.015 0 .408.948.665 1.741.472.182-.044.34-.07.352-.058s-.02.188-.071.39c-.289 1.14-.717 3.361-.823 4.268-.035.303.11.502.242.332m12.155-.434c.124-.15-.233-2.02-.802-4.189-.104-.396-.176-.732-.162-.746.015-.015.161-.003.325.028.698.128 1.239.037 1.582-.267l.204-.182-.18-.58c-.716-2.319-2.074-5.123-3.355-6.93-1.088-1.533-2.229-2.462-3.103-2.524-.447-.032-.445.004.033.72 1.799 2.691 3.298 5.887 4.054 8.642.196.713.22.867.13.837-.03-.01-.114-.25-.187-.531-.64-2.47-1.876-5.27-3.483-7.887-.833-1.357-1.134-1.737-1.321-1.665-.102.039-.076.108.128.329.244.264.434.671.588 1.26.29 1.11.165 2.453-.439 4.706l-.17.632.246.728c.528 1.569 1.33 3.546 1.453 3.585.045.014.294.046.554.071 1.037.099 1.916-.14 2.356-.64.098-.111.2-.203.227-.203.098 0 .947 3.672 1.023 4.422.04.396.16.551.299.384m-8.59-14.671c.385-.29.817-.51 1.16-.59.39-.09.383-.083.22-.233-.29-.263-.064-.515.401-.451.147.02.21.01.227-.036.013-.035-.243-.472-.57-.97-.666-1.017-.668-1.022-.58-1.077.1-.062.149.001.759.981.573.922.632 1.003.7.961.02-.012.26-.401.534-.864.536-.906.558-.933.657-.834.056.057.006.162-.356.743-.48.77-.485.786-.246.805.165.014.177.025.19.187.01.127-.012.195-.087.266-.117.109-.086.195.07.195.385 0 1.17.399 1.746.886.401.34.439.345.616.087 1.406-2.05.467-4.809-1.914-5.62-1.118-.382-2.502-.117-3.456.66a3.7 3.7 0 0 0-.757 4.863c.234.36.259.361.685.04m-.401-1.02a1.2 1.2 0 0 1-.167-.779l.036-.22.033.283c.018.156.076.409.128.562.11.326.101.369-.03.154m1.2-.073a.62.62 0 0 1-.174-.419c.003-.11.026-.084.143.166q.216.466.03.253m4.472-.785c-.016-.36-.172-1.048-.307-1.35-.137-.307-.096-.32.076-.021.212.367.274.639.257 1.142-.009.255-.02.358-.026.229m-3.549-2.122c.132-.128.59-.19.797-.108.065.026-.02.048-.281.071a5 5 0 0 0-.469.058q-.092.025-.047-.02m1.665-1.04c-.34-.06-.42-.087-.338-.115.15-.05.516.008.713.114.193.104.197.104-.375.002z" style="fill:#050505;stroke:none;stroke-width:.0468809"/></svg>