<svg xmlns="http://www.w3.org/2000/svg" xml:space="preserve" viewBox="0 0 45 45"><path d="M0 0c0-9.941-8.059-18-18-18S-36-9.941-36 0s8.059 18 18 18S0 9.941 0 0" style="fill:#ffcc4d;fill-opacity:1;fill-rule:nonzero;stroke:none" transform="matrix(1.25 0 0 -1.25 45 22.5)"/><path d="M0-.462c-3.623 0-6.027.61-9 1.446-.679.19-2 0-2-2.892C-11-7.69-6.405-14.92 0-14.92c6.404 0 11 7.23 11 13.012C11 .984 9.679 1.175 9 .984 6.027.148 3.623-.462 0-.462" style="fill:#664500;fill-opacity:1;fill-rule:nonzero;stroke:none" transform="matrix(.96587 0 0 .24207 22.5 35.88)"/><path fill="none" d="M25.626 16.887c0 2.418-1.4 4.376-3.126 4.376-1.727 0-3.126-1.958-3.126-4.376 0-2.417 1.4-4.377 3.126-4.377 1.727 0 3.126 1.96 3.126 4.377" style="fill:#66d900;fill-opacity:0;fill-rule:nonzero;stroke:none"/><path d="M0 0c0-1.934-1.119-3.5-2.5-3.5S-5-1.934-5 0s1.119 3.5 2.5 3.5S0 1.933 0 0" style="fill:#664500;fill-opacity:1;fill-rule:nonzero;stroke:none" transform="matrix(1.25044 0 0 -1.25044 18.123 16.887)"/><path d="M0 0c0-1.934-1.119-3.5-2.5-3.5S-5-1.934-5 0s1.119 3.5 2.5 3.5S0 1.933 0 0" style="fill:#664500;fill-opacity:1;fill-rule:nonzero;stroke:none" transform="matrix(1.25044 0 0 -1.25044 33.129 16.887)"/><path d="M0 0s5 1 8-2" style="fill:none;stroke:#664500;stroke-width:2;stroke-linecap:round;stroke-linejoin:round;stroke-miterlimit:4;stroke-dasharray:none;stroke-opacity:1" transform="scale(1.43662 -1.43662)rotate(10 51.908 100.995)"/><path d="M0 0s-5 1-8-2" style="fill:none;stroke:#664500;stroke-width:2;stroke-linecap:round;stroke-linejoin:round;stroke-miterlimit:4;stroke-dasharray:none;stroke-opacity:1" transform="scale(1.43662 -1.43662)rotate(-10 -36.246 -78.02)"/><path d="M30.241 15.566c-2.216 0-3.686.148-5.504.352-.416.046-1.223 0-1.223-.704 0-1.407 2.81-3.165 6.727-3.165s6.728 1.758 6.728 3.165c0 .704-.808.75-1.224.704-1.818-.204-3.288-.352-5.504-.352m-15.005 0c-2.216 0-3.686.148-5.505.351-.415.046-1.223 0-1.223-.703 0-1.407 2.81-3.165 6.728-3.165 3.916 0 6.727 1.758 6.727 3.165 0 .703-.808.75-1.223.703-1.818-.203-3.288-.351-5.504-.351" style="fill:#ffcc4d;fill-opacity:1;fill-rule:nonzero;stroke:none" transform="translate(-.238 .014)"/><path d="M0 0s4 1 6-1" style="fill:none;stroke:#664500;stroke-width:2;stroke-linecap:round;stroke-linejoin:round;stroke-miterlimit:4;stroke-dasharray:none;stroke-opacity:1" transform="scale(1.79467 -1.59981)rotate(5 120.788 161.277)"/><path d="M.02-.225s-4 1-6-1" style="fill:none;stroke:#664500;stroke-width:2;stroke-linecap:round;stroke-linejoin:round;stroke-miterlimit:4;stroke-dasharray:none;stroke-opacity:1" transform="scale(1.79467 -1.59981)rotate(-5 -105.661 -125.758)"/></svg>