<svg xmlns="http://www.w3.org/2000/svg" xml:space="preserve" viewBox="0 0 45 45"><path d="M0 0c0-9.941-8.059-18-18-18-9.94 0-18 8.059-18 18 0 9.94 8.06 18 18 18C-8.059 18 0 9.94 0 0" style="fill:#ffcc4d;fill-opacity:1;fill-rule:nonzero;stroke:none" transform="matrix(1.25 0 0 -1.25 45 22.5)"/><g style="fill:#664500;fill-opacity:1"><path d="M.2.468c-1.509-.3-3.732-.553-5.201 2.428a1 1 0 0 0 .64 1.261.997.997 0 0 0 1.256-.624c.044-.116.804-1.164 1.51-1.407.708-.243 2.405.23 1.84 1.12-1.067 1.68.462 2.1 1.61 1.013C3.228 2.959 1.777.782.2.469" style="fill:#664500;fill-opacity:1;fill-rule:nonzero;stroke:none" transform="matrix(1.07024 0 0 -1.25 26.886 33.473)"/></g><g style="fill:#664500;fill-opacity:1"><path d="M.2.468c-1.509-.3-3.732-.553-5.201 2.428a1 1 0 0 0 .64 1.261.997.997 0 0 0 1.256-.624c.044-.116.804-1.164 1.51-1.407.708-.243 2.405.23 1.84 1.12-1.067 1.68.462 2.1 1.61 1.013C3.228 2.959 1.777.782.2.469" style="fill:#664500;fill-opacity:1;fill-rule:nonzero;stroke:none" transform="matrix(-1.07024 0 0 -1.25 18.114 33.473)"/></g><path d="M0 0a5 5 0 0 0-5-5 5 5 0 0 0-5 5 5 5 0 0 0 5 5 5 5 0 0 0 5-5" style="fill:#ff7892;fill-opacity:1;fill-rule:nonzero;stroke:none" transform="matrix(1.25 0 0 -1.25 42.5 27.45)"/><path d="M0 0a5 5 0 0 0-5-5 5 5 0 0 0-5 5 5 5 0 0 0 5 5 5 5 0 0 0 5-5" style="fill:#ff7892;fill-opacity:1;fill-rule:nonzero;stroke:none" transform="matrix(1.25 0 0 -1.25 15 27.45)"/><path d="M0 0s5 1 8-2" style="fill:none;stroke:#664500;stroke-width:2;stroke-linecap:round;stroke-linejoin:round;stroke-miterlimit:4;stroke-dasharray:none;stroke-opacity:1" transform="rotate(25 -14.98 66.165)scale(1.43662)"/><path d="M0 0s-5 1-8-2" style="fill:none;stroke:#664500;stroke-width:2;stroke-linecap:round;stroke-linejoin:round;stroke-miterlimit:4;stroke-dasharray:none;stroke-opacity:1" transform="rotate(-25 37.48 -35.326)scale(1.43662)"/><path d="M0 0s4 1 6-1" style="fill:none;stroke:#664500;stroke-width:2;stroke-linecap:round;stroke-linejoin:round;stroke-miterlimit:4;stroke-dasharray:none;stroke-opacity:1" transform="matrix(1.78784 .13943 -.15642 1.59372 26.67 22.324)"/><path d="M.02-.225s-4 1-6-1" style="fill:none;stroke:#664500;stroke-width:2;stroke-linecap:round;stroke-linejoin:round;stroke-miterlimit:4;stroke-dasharray:none;stroke-opacity:1" transform="matrix(1.78784 -.13943 .15642 1.59372 18.33 22.686)"/></svg>