<svg xmlns="http://www.w3.org/2000/svg" xml:space="preserve" viewBox="0 0 45 45"><path d="M45.02 22.5c0 12.426-10.074 22.5-22.5 22.5S.02 34.926.02 22.5 10.095 0 22.52 0s22.5 10.075 22.5 22.5" style="fill:#ffcc4d;fill-opacity:1;fill-rule:nonzero;stroke:none"/><path d="M0 0h-8a1 1 0 1 0 0 2h8a1 1 0 1 0 0-2" style="fill:#664500;fill-opacity:1;fill-rule:nonzero;stroke:none" transform="matrix(-1.631 0 0 -1.25 15.976 35.625)"/><path d="M-3.913-2.887c.014.146.202 1.557.662 1.81.745.41 1.693-.077 2.209-.955C.33-4.37-.663-8.342-1.19-7.285c-.38.76.007 2.215-1.48 3.537-.684.053-1.28.48-1.243.86" style="fill:#664500;fill-opacity:1;fill-rule:nonzero;stroke:none" transform="matrix(.68246 2.7176 -1.63807 .40554 27.372 29.474)"/><path d="M26.92 20.346c0 3.225 2.638 5.837 5.895 5.837 3.255 0 5.893-2.612 5.893-5.837 0-3.223-2.638-5.832-5.893-5.832-3.257 0-5.896 2.61-5.896 5.832" style="fill:#664500;fill-opacity:1;fill-rule:nonzero;stroke:none"/><path d="M-3.913-2.887c.014.146.202 1.557.662 1.81.745.41 1.693-.077 2.209-.955C.33-4.37-.663-8.342-1.19-7.285c-.38.76.007 2.215-1.48 3.537-.684.053-1.28.48-1.243.86" style="fill:#664500;fill-opacity:1;fill-rule:nonzero;stroke:none" transform="matrix(-.68246 2.7176 1.63807 .40554 17.628 29.474)"/><path d="M17.596 24.873c0 2.241-1.833 4.057-4.097 4.057-2.262 0-4.095-1.816-4.095-4.057 0-2.24 1.833-4.053 4.095-4.053 2.264 0 4.097 1.814 4.097 4.053" style="fill:#664500;fill-opacity:1;fill-rule:nonzero;stroke:none" transform="translate(-7.24 -15.445)scale(1.43894)"/><path d="M15.9 24.874c0 1.313-1.074 2.376-2.4 2.376a2.39 2.39 0 0 1-2.4-2.376c0-1.312 1.074-2.374 2.4-2.374s2.4 1.062 2.4 2.374m14.335 0c0 1.313-1.074 2.376-2.4 2.376a2.39 2.39 0 0 1-2.4-2.376c0-1.312 1.075-2.374 2.4-2.374 1.326 0 2.4 1.062 2.4 2.374" style="fill:#f5f8fa;fill-opacity:1;fill-rule:nonzero;stroke:none" transform="translate(-7.24 -15.445)scale(1.43894)"/><path d="M5.81 11.827a1.25 1.25 0 0 0 1.065 1.965c6.793-.221 9.966-4.644 10.098-4.832a1.25 1.25 0 0 0-2.045-1.438c-.114.157-2.647 3.593-8.135 3.771a1.25 1.25 0 0 0-.984.534m22.218-2.869a1.25 1.25 0 0 1 1.065-1.965c6.793.221 9.966 4.644 10.098 4.832a1.25 1.25 0 0 1-2.045 1.438c-.113-.157-2.647-3.593-8.134-3.771a1.25 1.25 0 0 1-.984-.534" style="fill:#664500;fill-opacity:1;fill-rule:nonzero;stroke:none"/></svg>