<svg xmlns="http://www.w3.org/2000/svg" xml:space="preserve" viewBox="0 0 45 45"><defs><clipPath id="a" clipPathUnits="userSpaceOnUse"/></defs><g style="fill:#ffcc4d;fill-opacity:1;stroke:none;stroke-opacity:1"><path d="M0 0c0-9.941-8.059-18-18-18-9.94 0-18 8.059-18 18 0 9.94 8.06 18 18 18C-8.059 18 0 9.94 0 0" style="fill:#ffcc4d;fill-opacity:1;fill-rule:nonzero;stroke:none;stroke-opacity:1" transform="matrix(1.25 0 0 -1.25 45 22.496)"/></g><g clip-path="url(#a)"><path d="m12.488 44.5 5-.053V22.43h-5zm15.024-22.07h5V44.5l-5-.053z" style="fill:#5dadec;fill-opacity:1;fill-rule:nonzero;stroke:none"/></g><g style="fill:#664500;fill-opacity:1"><path d="M0 0c0-1.105-.904-2-2.02-2a2.01 2.01 0 0 0-2.019 2c0 1.104.904 1.998 2.019 1.998S0 1.104 0 0" style="fill:#664500;fill-opacity:1;fill-rule:nonzero;stroke:none" transform="matrix(1.25 0 0 -1.25 17.512 22.145)"/></g><g style="fill:#664500;fill-opacity:1"><path d="M0 0c0-1.105-.904-2-2.02-2a2.01 2.01 0 0 0-2.019 2c0 1.104.904 1.998 2.019 1.998S0 1.104 0 0" style="fill:#664500;fill-opacity:1;fill-rule:nonzero;stroke:none" transform="matrix(1.25 0 0 -1.25 32.537 22.146)"/></g><path d="M14.39 33.251s1.688-1.017 2.768-1.222c.915-.173 1.507 1.258 2.382 1.793.876.536 2.035-1.295 2.96-1.295s2.084 1.83 2.96 1.295 1.467-1.966 2.382-1.793c1.08.205 2.767 1.222 2.767 1.222" style="fill:none;fill-opacity:1;fill-rule:evenodd;stroke:#664500;stroke-width:2.5;stroke-linecap:round;stroke-linejoin:miter;stroke-miterlimit:4;stroke-dasharray:none;stroke-opacity:1"/><path d="M0 0c.181.033 4.473.763 8.461-2.933a1 1 0 0 0 .054-1.413.997.997 0 0 0-1.413-.054C3.874-1.409.495-1.944.352-1.969a1.003 1.003 0 0 0-1.155.812A.997.997 0 0 0 0 0" style="fill:#664500;fill-opacity:1;fill-rule:nonzero;stroke:none" transform="translate(7.668 20.025)scale(1.25)"/><path d="M0 0c.181.033 4.473.763 8.461-2.933a1 1 0 0 0 .054-1.413.997.997 0 0 0-1.413-.054C3.874-1.409.495-1.944.352-1.969a1.003 1.003 0 0 0-1.155.812A.997.997 0 0 0 0 0" style="fill:#664500;fill-opacity:1;fill-rule:nonzero;stroke:none" transform="matrix(-1.25 0 0 1.25 37.332 20.025)"/></svg>