<?xml version="1.0" encoding="UTF-8" standalone="no"?>
<svg
   xmlns:dc="http://purl.org/dc/elements/1.1/"
   xmlns:cc="http://creativecommons.org/ns#"
   xmlns:rdf="http://www.w3.org/1999/02/22-rdf-syntax-ns#"
   xmlns:svg="http://www.w3.org/2000/svg"
   xmlns="http://www.w3.org/2000/svg"
   xmlns:sodipodi="http://sodipodi.sourceforge.net/DTD/sodipodi-0.dtd"
   xmlns:inkscape="http://www.inkscape.org/namespaces/inkscape"
   viewBox="0 0 45 45"
   style="enable-background:new 0 0 45 45;"
   xml:space="preserve"
   version="1.1"
   id="svg2"
   inkscape:version="0.91 r13725"
   sodipodi:docname="wtf.svg"
   inkscape:export-filename="C:\Users\Soyez\Desktop\Stuff\My Art\somoji\wtf.png"
   inkscape:export-xdpi="1024"
   inkscape:export-ydpi="1024"><sodipodi:namedview
     pagecolor="#ffffff"
     bordercolor="#666666"
     borderopacity="1"
     objecttolerance="10"
     gridtolerance="10"
     guidetolerance="10"
     inkscape:pageopacity="0"
     inkscape:pageshadow="2"
     inkscape:window-width="1920"
     inkscape:window-height="1031"
     id="namedview6057"
     showgrid="false"
     inkscape:zoom="16"
     inkscape:cx="23.496273"
     inkscape:cy="34.696667"
     inkscape:window-x="-8"
     inkscape:window-y="-8"
     inkscape:window-maximized="1"
     inkscape:current-layer="svg2"
     showguides="false" /><metadata
     id="metadata8"><rdf:RDF><cc:Work
         rdf:about=""><dc:format>image/svg+xml</dc:format><dc:type
           rdf:resource="http://purl.org/dc/dcmitype/StillImage" /><dc:title /></cc:Work></rdf:RDF></metadata><defs
     id="defs6"><clipPath
       id="clipPath16"
       clipPathUnits="userSpaceOnUse"><path
         id="path18"
         d="M 0,36 36,36 36,0 0,0 0,36 Z" /></clipPath></defs><path
     id="path22"
     style="fill:#ffcc4d;fill-opacity:1;fill-rule:nonzero;stroke:none"
     d="m 45.019514,22.5 c 0,12.42625 -10.07375,22.5 -22.5,22.5 -12.425,0 -22.5,-10.07375 -22.5,-22.5 0,-12.425 10.075,-22.5 22.5,-22.5 12.42625,0 22.5,10.075 22.5,22.5"
     inkscape:connector-curvature="0" /><path
     inkscape:connector-curvature="0"
     d="m 22.519514,13.749667 c 10.93625,0 20.04125,5.63625 22.07,13.105 0.2775,-1.41 0.43,-2.865 0.43,-4.355 0,-12.424998 -10.07375,-22.49999608 -22.5,-22.49999608 -12.425,0 -22.49999984,10.07499808 -22.49999984,22.49999608 0,1.49 0.15375,2.945 0.43,4.355 2.02874984,-7.46875 11.13499984,-13.105 22.06999984,-13.105"
     style="fill:#bdddf4;fill-opacity:1;fill-rule:nonzero;stroke:none"
     id="path42-85" /><g
     id="g48"
     transform="matrix(-2.868491,0,0,-1.25,11.026035,35.625)"><path
       inkscape:connector-curvature="0"
       d="m 0,0 -8,0 c -0.552,0 -1,0.447 -1,1 0,0.553 0.448,1 1,1 L 0,2 C 0.553,2 1,1.553 1,1 1,0.447 0.553,0 0,0"
       style="fill:#664500;fill-opacity:1;fill-rule:nonzero;stroke:none"
       id="path50" /></g><g
     id="g48-5-8"
     transform="matrix(0.68246468,2.7175923,-1.6380681,0.40553887,27.372054,29.47414)"><path
       inkscape:connector-curvature="0"
       d="m -3.9134163,-2.8872487 c 0.013978,0.1464047 0.2022927,1.5576896 0.6619933,1.8103104 0.7452858,0.40955941 1.6931608,-0.076916 2.2093513,-0.9554518 1.37298672,-2.3367695 0.37874438,-6.3096778 -0.1483075,-5.2528164 -0.379072,0.7601272 0.00784,2.2154198 -1.4797636,3.5372809 -0.6836604,0.053009 -1.2795907,0.4802904 -1.2432735,0.8606769 z"
       style="fill:#664500;fill-opacity:1;fill-rule:nonzero;stroke:none"
       id="path50-2-2"
       sodipodi:nodetypes="sssscs" /></g><g
     id="g44-2-1-2"
     transform="matrix(-2.9187476,0,0,-2.9187476,26.919492,20.345569)"
     style="fill:#664500;fill-opacity:1" /><path
     id="path46-4-8-5"
     style="fill:#664500;fill-opacity:1;fill-rule:nonzero;stroke:none"
     d="m 26.919491,20.345569 c 0,3.225216 2.638548,5.837495 5.89587,5.837495 3.254404,0 5.892952,-2.612279 5.892952,-5.837495 0,-3.222297 -2.638548,-5.831658 -5.892952,-5.831658 -3.257322,0 -5.89587,2.609361 -5.89587,5.831658"
     inkscape:connector-curvature="0" /><path
     id="path46-4-9-8-7-3"
     style="fill:#f5f8fa;fill-opacity:1;fill-rule:nonzero;stroke:none"
     d="m 30.343043,20.347264 c 0,1.351968 1.106045,2.447 2.471471,2.447 1.364203,0 2.470248,-1.095032 2.470248,-2.447 0,-1.350745 -1.106045,-2.444554 -2.470248,-2.444554 -1.365426,0 -2.471471,1.093809 -2.471471,2.444554"
     inkscape:connector-curvature="0" /><g
     id="g48-5-8-2"
     transform="matrix(-0.68246468,2.7175923,1.6380681,0.40553887,17.627946,29.47414)"><path
       inkscape:connector-curvature="0"
       d="m -3.9134163,-2.8872487 c 0.013978,0.1464047 0.2022927,1.5576896 0.6619933,1.8103104 0.7452858,0.40955941 1.6931608,-0.076916 2.2093513,-0.9554518 1.37298672,-2.3367695 0.37874438,-6.3096778 -0.1483075,-5.2528164 -0.379072,0.7601272 0.00784,2.2154198 -1.4797636,3.5372809 -0.6836604,0.053009 -1.2795907,0.4802904 -1.2432735,0.8606769 z"
       style="fill:#664500;fill-opacity:1;fill-rule:nonzero;stroke:none"
       id="path50-2-2-9"
       sodipodi:nodetypes="sssscs" /></g><g
     id="g4329-1-8"
     transform="matrix(1.4389415,0,0,1.4389415,-7.2396127,-15.445183)"><g
       style="fill:#664500;fill-opacity:1"
       transform="matrix(2.0283991,0,0,-2.0283991,17.596352,24.872972)"
       id="g44-2-1-2-1" /><g
       style="fill:#f5f8fa;fill-opacity:1"
       transform="matrix(1.1882897,0,0,-1.1882897,15.899751,24.873812)"
       id="g44-2-0-1-2-9-5"><g
         id="g4394-8-1"><path
           transform="matrix(1.7069904,0,0,1.7069904,1.4277672,7.0656171e-4)"
           inkscape:connector-curvature="0"
           d="m 0,0 c 0,-1.105 -0.904,-2 -2.02,-2 -1.115,0 -2.019,0.895 -2.019,2 0,1.104 0.904,1.998 2.019,1.998 C -0.904,1.998 0,1.104 0,0"
           style="fill:#664500;fill-opacity:1;fill-rule:nonzero;stroke:none"
           id="path46-4-8-5-4" /><path
           inkscape:connector-curvature="0"
           d="m 0,0 c 0,-1.105 -0.904,-2 -2.02,-2 -1.115,0 -2.019,0.895 -2.019,2 0,1.104 0.904,1.998 2.019,1.998 C -0.904,1.998 0,1.104 0,0"
           style="fill:#f5f8fa;fill-opacity:1;fill-rule:nonzero;stroke:none"
           id="path46-4-9-8-7-3-3" /></g></g></g><path
     inkscape:connector-curvature="0"
     d="m 5.8094247,11.826578 c -0.149133,0.212975 -0.233854,0.475632 -0.224677,0.756732 0.02203,0.689901 0.600219,1.230575 1.290121,1.20855 6.7929033,-0.221272 9.9657723,-4.6436933 10.0977113,-4.8320633 0.395768,-0.565215 0.258246,-1.345142 -0.306969,-1.74091 -0.564192,-0.395051 -1.340945,-0.259884 -1.738036,0.302908 -0.113177,0.157275 -2.646927,3.5927783 -8.1342704,3.7714323 -0.409516,0.01388 -0.76591,0.222113 -0.983873,0.533387"
     style="fill:#664500;fill-opacity:1;fill-rule:nonzero;stroke:none"
     id="path58" /><path
     inkscape:connector-curvature="0"
     d="m 39.190575,11.826578 c 0.149133,0.212975 0.233854,0.475632 0.224677,0.756732 -0.02203,0.689901 -0.600219,1.230575 -1.290121,1.20855 -6.7929,-0.221272 -9.965769,-4.6436933 -10.097708,-4.8320633 -0.395768,-0.565215 -0.258246,-1.345142 0.306969,-1.74091 0.564192,-0.395051 1.340945,-0.259884 1.738036,0.302908 0.113177,0.157275 2.646927,3.5927783 8.134267,3.7714323 0.409516,0.01388 0.76591,0.222113 0.983873,0.533387"
     style="fill:#664500;fill-opacity:1;fill-rule:nonzero;stroke:none"
     id="path58-6" /></svg>