<svg xmlns="http://www.w3.org/2000/svg" xml:space="preserve" viewBox="0 0 45 45"><path d="M45.02 22.5c0 12.426-10.074 22.5-22.5 22.5S.02 34.926.02 22.5 10.095 0 22.52 0s22.5 10.075 22.5 22.5" style="fill:#ffcc4d;fill-opacity:1;fill-rule:nonzero;stroke:none"/><path d="M22.52 13.75c10.936 0 20.04 5.636 22.07 13.105.277-1.41.43-2.865.43-4.355C45.02 10.075 34.946 0 22.52 0S.02 10.075.02 22.5c0 1.49.153 2.945.43 4.355 2.028-7.47 11.135-13.105 22.07-13.105" style="fill:#bdddf4;fill-opacity:1;fill-rule:nonzero;stroke:none"/><path d="M0 0h-8a1 1 0 1 0 0 2h8a1 1 0 1 0 0-2" style="fill:#664500;fill-opacity:1;fill-rule:nonzero;stroke:none" transform="matrix(-2.8685 0 0 -1.25 11.026 35.625)"/><path d="M-3.913-2.887c.014.146.202 1.557.662 1.81.745.41 1.693-.077 2.209-.955C.33-4.37-.663-8.342-1.19-7.285c-.38.76.007 2.215-1.48 3.537-.684.053-1.28.48-1.243.86" style="fill:#664500;fill-opacity:1;fill-rule:nonzero;stroke:none" transform="matrix(.68246 2.7176 -1.63807 .40554 27.372 29.474)"/><path d="M26.92 20.346c0 3.225 2.638 5.837 5.895 5.837 3.255 0 5.893-2.612 5.893-5.837 0-3.223-2.638-5.832-5.893-5.832-3.257 0-5.896 2.61-5.896 5.832" style="fill:#664500;fill-opacity:1;fill-rule:nonzero;stroke:none"/><path d="M30.343 20.347c0 1.352 1.106 2.447 2.472 2.447 1.364 0 2.47-1.095 2.47-2.447 0-1.35-1.106-2.444-2.47-2.444-1.366 0-2.472 1.094-2.472 2.444" style="fill:#f5f8fa;fill-opacity:1;fill-rule:nonzero;stroke:none"/><path d="M-3.913-2.887c.014.146.202 1.557.662 1.81.745.41 1.693-.077 2.209-.955C.33-4.37-.663-8.342-1.19-7.285c-.38.76.007 2.215-1.48 3.537-.684.053-1.28.48-1.243.86" style="fill:#664500;fill-opacity:1;fill-rule:nonzero;stroke:none" transform="matrix(-.68246 2.7176 1.63807 .40554 17.628 29.474)"/><g style="fill:#f5f8fa;fill-opacity:1"><path d="M0 0c0-1.105-.904-2-2.02-2a2.01 2.01 0 0 0-2.019 2c0 1.104.904 1.998 2.019 1.998S0 1.104 0 0" style="fill:#664500;fill-opacity:1;fill-rule:nonzero;stroke:none" transform="matrix(2.91875 0 0 -2.91875 18.08 20.346)"/><path d="M0 0c0-1.105-.904-2-2.02-2a2.01 2.01 0 0 0-2.019 2c0 1.104.904 1.998 2.019 1.998S0 1.104 0 0" style="fill:#f5f8fa;fill-opacity:1;fill-rule:nonzero;stroke:none" transform="matrix(1.70988 0 0 -1.70988 15.64 20.347)"/></g><path d="M5.81 11.827a1.25 1.25 0 0 0 1.065 1.965c6.793-.221 9.966-4.644 10.098-4.832a1.25 1.25 0 0 0-2.045-1.438c-.114.157-2.647 3.593-8.135 3.771a1.25 1.25 0 0 0-.984.534m33.381 0a1.25 1.25 0 0 1-1.065 1.965c-6.793-.221-9.966-4.644-10.098-4.832a1.25 1.25 0 0 1 2.045-1.438c.114.157 2.647 3.593 8.135 3.771.41.014.766.222.984.534" style="fill:#664500;fill-opacity:1;fill-rule:nonzero;stroke:none"/></svg>