<svg xmlns="http://www.w3.org/2000/svg" xml:space="preserve" viewBox="0 0 45 45"><defs><clipPath id="b" clipPathUnits="userSpaceOnUse"><path d="M35.834 28.907c.07.01.385.01.454 0s.077-.02.071-.092l-.016-.24a10.3 10.3 0 0 0-.369-2.122c-.089-.308-.25-.778-.276-.808a.06.06 0 0 1-.015-.034c0-.044-.217-.542-.38-.87-1.579-3.19-4.9-5.67-8.948-6.684a15.3 15.3 0 0 0-7.874.088c-2.257.616-4.286 1.674-5.868 3.059-1.206 1.056-2.107 2.2-2.761 3.508-.172.344-.397.855-.397.903 0 .01-.004.02-.01.02-.047 0-.359 1.018-.481 1.57-.116.521-.264 1.599-.231 1.684.006.016.037.017.323.015l.317-.003.008-.033a3 3 0 0 0 .031-.178c.48-3.07 1.974-5.626 4.323-7.39a14 14 0 0 1 1.43-.919c2.182-1.217 5.073-1.94 7.765-1.94 1.591 0 3.389.355 5.101 1.009 3.23 1.234 5.613 3.31 6.818 5.94.054.12.104.222.109.228a2 2 0 0 0 .085.236c.372.934.607 1.912.711 2.958.008.081.011.085.08.095m-23.84.003a10 10 0 0 0 .893-.018 1 1 0 0 0 .031-.106 9.8 9.8 0 0 1 1.382-2.991c.053-.076.096-.14.096-.143 0-.008.19-.259.297-.391 1.386-1.73 3.464-3.02 5.813-3.607 1.45-.364 2.72-.42 4.116-.184 2.84.48 5.29 1.95 6.7 4.015.052.076.098.141.104.145a1 1 0 0 0 .085.153c.533.84.934 1.875 1.138 2.933.019.095.037.177.042.182s.155.007.333.006l.325-.003-.003-.076c-.015-.438-.238-1.35-.477-1.95-.17-.43-.575-1.213-.637-1.237q-.015-.006-.016-.02a2 2 0 0 0-.107-.174c-1.235-1.86-3.447-3.405-6.017-4.203-1.873-.581-3.265-.672-4.985-.324a9 9 0 0 0-.732.172c-2.632.693-4.96 2.029-6.478 3.717-.204.227-.623.76-.637.81-.002.01-.01.019-.015.019s-.06.076-.121.17a7.2 7.2 0 0 0-1.117 2.852c-.03.187-.034.245-.014.253m-1.764-.004c.009.014.687.015.708.002a1 1 0 0 0 .051-.17c.246-1.065.641-2.1 1.122-2.94a2 2 0 0 0 .098-.185l.129-.206c1.047-1.689 2.612-3.072 4.533-4.004a12 12 0 0 1 1.376-.567c2.009-.71 4.32-.966 6.31-.698 1.156.155 2.205.445 3.43.948.37.153.98.465 1.418.728 1.389.83 2.545 1.917 3.37 3.165.164.25.39.62.406.666a6 6 0 0 0 .11.217c.459.876.801 1.881.984 2.893q.023.123.04.138c.02.014.382.02.461.006l.04-.006v-.056a9.3 9.3 0 0 0-.494-2.365c-.115-.327-.33-.837-.352-.837q-.01-.001-.01-.018c0-.042-.311-.62-.474-.881-.894-1.432-2.136-2.605-3.793-3.583a9 9 0 0 0-.578-.324 14.6 14.6 0 0 0-4.796-1.51c-2.022-.25-4.518.063-6.63.834-.658.24-1.54.645-1.912.877l-.228.136a10.85 10.85 0 0 0-3.75 3.635c-.188.301-.465.803-.454.821q.004.01-.01.017c-.068.026-.506 1.077-.707 1.696-.166.509-.424 1.53-.398 1.571m5.327.012c3.754.013 7.018.011 7.024-.005.01-.026-.913-1.858-.941-1.869-.013-.005-.1-.02-.192-.032l-1.828-.258c-.134-.019-.209-.034-.209-.042 0-.007.235-.243.523-.524a34 34 0 0 0 .642-.638c.267-.258.428-.42.434-.437.003-.01-.051-.342-.12-.737l-.26-1.475c-.002-.01.003-.022.01-.025.008-.003.466.23 1.018.516l1.003.522 1.004-.532a28 28 0 0 1 1.012-.524c.005.005-.074.501-.175 1.103a75 75 0 0 0-.183 1.122c0 .027.525.552.553.552q.01.001.006.008c-.003.005.233.24.525.522.291.281.53.516.53.521 0 .015-.018.018-1.696.265a16 16 0 0 0-.515.081l-.039.01-.451.923c-.249.507-.452.932-.452.944v.022l4.45-.007a464 464 0 0 0 4.46-.017c.018-.02-.059-.433-.146-.78a7.3 7.3 0 0 0-.762-1.88c-.135-.23-.384-.601-.411-.612q-.021-.01-.015-.01c.057-.005-.567-.726-.892-1.031-1.527-1.433-3.52-2.29-5.795-2.493a14 14 0 0 0-1.392.005c-2.147.21-4.046 1.015-5.66 2.4-.283.243-1.041 1.027-1.071 1.106a7 7 0 0 0-.426.553 9.6 9.6 0 0 0-1.262 2.546q-.06.179-.047.19c.007.007.597.012 1.746.017m21.921.988c-.01.028-29.731.029-29.742.001a11 11 0 0 1 .025-.822c.227-3.788 1.934-6.961 4.972-9.242 2.484-1.866 5.714-2.958 9.208-3.113.31-.014 1.332-.014 1.63 0 3.535.164 6.949 1.483 9.501 3.672 1.638 1.405 2.881 3.139 3.59 5.005.04.104.077.198.083.209a6 6 0 0 0 .108.339c.321.97.506 1.897.59 2.966.02.246.045.96.035.985m-41.824-6.568v16.25H49.82v-32.5H-4.346Z" style="fill:#fafda5;stroke-width:.0108333"/></clipPath><clipPath id="a" clipPathUnits="userSpaceOnUse"><path d="M45.237 12.791c0-3.15-2.238-5.703-4.999-5.703H5.236c-2.761 0-4.999 2.553-4.999 5.703v21.797a5 5 0 0 0 4.999 5h35.002a5 5 0 0 0 4.999-5V24.106z" style="fill:#8a1e04;fill-opacity:1;fill-rule:nonzero;stroke:none;stroke-width:.999997"/></clipPath></defs><g clip-path="url(#a)"><path d="M-4.346 7.088h54.167v32.5H-4.346z" style="opacity:1;fill:#fff;fill-opacity:1;fill-rule:evenodd;stroke:none;stroke-width:1.88976;stroke-linecap:round;stroke-linejoin:round;stroke-opacity:.630027;paint-order:stroke fill markers"/><g clip-path="url(#b)"><path d="M45.237 12.791c0-3.15-2.238-5.703-4.999-5.703H5.236c-2.761 0-4.999 2.553-4.999 5.703v21.797a5 5 0 0 0 4.999 5h35.002a5 5 0 0 0 4.999-5V24.106z" style="fill:#8a1e04;fill-opacity:1;fill-rule:nonzero;stroke:none;stroke-width:.999999"/><path d="M.237 7.088h45v4.643h-45z" style="fill:#ff6691;fill-opacity:1;fill-rule:evenodd;stroke-width:1.59368;stroke-linecap:round;stroke-linejoin:round;stroke-opacity:.630027;paint-order:stroke fill markers"/><path d="M.237 11.731h45v4.643h-45z" style="fill:#ff9997;fill-opacity:1;fill-rule:evenodd;stroke-width:1.59368;stroke-linecap:round;stroke-linejoin:round;stroke-opacity:.630027;paint-order:stroke fill markers"/><path d="M.237 16.374h45v4.643h-45z" style="fill:#ffb782;fill-opacity:1;fill-rule:evenodd;stroke-width:1.59368;stroke-linecap:round;stroke-linejoin:round;stroke-opacity:.630027;paint-order:stroke fill markers"/><path d="M.237 21.017h45v4.643h-45z" style="fill:#fbffa6;fill-opacity:1;fill-rule:evenodd;stroke-width:1.59368;stroke-linecap:round;stroke-linejoin:round;stroke-opacity:.630027;paint-order:stroke fill markers"/><path d="M.237-39.588h45v4.643h-45z" style="fill:#a317ff;fill-opacity:1;fill-rule:evenodd;stroke-width:1.59368;stroke-linecap:round;stroke-linejoin:round;stroke-opacity:.630027;paint-order:stroke fill markers" transform="scale(1 -1)"/><path d="M.237-34.945h45v4.643h-45z" style="fill:#9c84ff;fill-opacity:1;fill-rule:evenodd;stroke-width:1.59368;stroke-linecap:round;stroke-linejoin:round;stroke-opacity:.630027;paint-order:stroke fill markers" transform="scale(1 -1)"/><path d="M.237-30.302h45v4.643h-45z" style="fill:#84bbff;fill-opacity:1;fill-rule:evenodd;stroke-width:1.59368;stroke-linecap:round;stroke-linejoin:round;stroke-opacity:.630027;paint-order:stroke fill markers" transform="scale(1 -1)"/></g></g></svg>