<svg xmlns="http://www.w3.org/2000/svg" xml:space="preserve" viewBox="0 0 45 45"><path d="M45 22.5C45 34.926 34.926 45 22.5 45S0 34.926 0 22.5 10.074 0 22.5 0 45 10.074 45 22.5" style="fill:#ffcc4d;fill-opacity:1;fill-rule:nonzero;stroke:none"/><path d="M0 0a1 1 0 0 0-.371.072C-5.6 2.163-7.743 5.312-7.832 5.446A1 1 0 0 0-6.17 6.559c.019-.028 1.93-2.786 6.541-4.63A1 1 0 0 0 0 0" style="fill:#664500;fill-opacity:1;fill-rule:nonzero;stroke:none" transform="scale(1.25 -1.25)rotate(20 37.955 81.953)"/><path d="M0 0a1.001 1.001 0 0 0-.372 1.929C4.24 3.773 6.151 6.531 6.17 6.559a1 1 0 0 0 1.662-1.113C7.743 5.312 5.599 2.163.371.072A1 1 0 0 0 0 0" style="fill:#664500;fill-opacity:1;fill-rule:nonzero;stroke:none" transform="scale(1.25 -1.25)rotate(-20 -19.952 -20.13)"/><path d="M0 0c-.15 0-.303.034-.446.105-3.512 1.757-7.071.019-7.106 0a1 1 0 1 0-.894 1.79c.182.089 4.498 2.196 8.894 0A1 1 0 0 0 0 0" style="fill:#664500;fill-opacity:1;fill-rule:nonzero;stroke:none" transform="matrix(1.25 0 0 -1.25 18.749 14.89)"/><path d="M0 0c-.15 0-.303.034-.446.105-3.513 1.756-7.071.019-7.106 0a1 1 0 1 0-.894 1.79c.181.089 4.501 2.196 8.894 0A1 1 0 0 0 0 0" style="fill:#664500;fill-opacity:1;fill-rule:nonzero;stroke:none" transform="matrix(1.25 0 0 -1.25 36.249 14.89)"/><g style="fill:#5dadec;fill-opacity:1"><path d="M0 0a5 5 0 0 0-5-5 5 5 0 0 0-5 5 5 5 0 0 0 5 5 5 5 0 0 0 5-5" style="fill:#5dadec;fill-opacity:1;fill-rule:nonzero;stroke:none" transform="matrix(.89053 0 0 -.48308 42.304 15)"/></g><path d="M0 0c0-2.763-1.791-2.489-4-2.489S-8-2.763-8 0c0 2.761 1.79 6 4 6s4-3.239 4-6" style="fill:#664500;fill-opacity:1;fill-rule:nonzero;stroke:none" transform="matrix(2.63405 0 0 -2.02394 33.036 31.127)"/><path d="M0 0c0-1.657-1.343-1.473-3-1.473S-6-1.657-6 0s1.343 2 3 2 3-.343 3-2" style="fill:#e75a70;fill-opacity:1;fill-rule:nonzero;stroke:none" transform="matrix(2.63405 0 0 -2.02394 30.402 30.993)"/><g style="fill:#fff;fill-opacity:1;stroke:none;stroke-opacity:1"><path d="M-3-.58c-1.657 0-3.82-1.077-3.82.58 0 .886 1.925 2 3.82 2S.73.855.73.1C.73-1.634-1.342-.58-3-.58" style="fill:#fff;fill-opacity:1;fill-rule:nonzero;stroke:none;stroke-opacity:1" transform="matrix(1.22794 0 0 -.8505 26.238 22.583)"/></g><g style="fill:#b55005;fill-opacity:1"><path d="M0 0s-1.394 1.291-.103 2.686c1.291 1.393 2.686.101 2.686.101l6.471-5.994c-.102.096.45.879.368.955L.44 6.067S-.954 7.358.337 8.751c1.292 1.394 2.686.103 2.686.103l8.448-7.825c-.02.018.609.731.597.742l-9.794 9.072s-1.394 1.291-.103 2.685c1.292 1.393 2.686.102 2.686.102l9.793-9.072c.012-.01.683.664.703.645l-9.154 8.479s-1.394 1.291-.103 2.685c1.292 1.393 2.686.102 2.686.102l9.679-8.965c2.866-2.655 3.512-1.958 3.512-1.958l-2.588 2.397-2.989 2.767s-1.394 1.291-.102 2.685 2.685.104 2.685.104l7.667-7.102c4.618-4.278 4.895-11.491.616-16.11-4.278-4.619-11.492-4.894-16.111-.617-.244.226-.682.663-.663.684l-.033-.038z" style="fill:#b55005;fill-opacity:1;fill-rule:nonzero;stroke:none" transform="rotate(-170 13.207 17.325)scale(.73605)"/></g><path d="M25.768 26.093s.88-1.395-.517-2.274c-1.396-.88-2.275.516-2.275.516l-4.08 6.483c.065-.104-.575-.637-.523-.719l5.663-8.995s.879-1.396-.517-2.275-2.275.517-2.275.517l-5.326 8.462c.012-.02-.676-.476-.668-.488l6.175-9.81s.879-1.395-.517-2.274-2.275.517-2.275.517l-6.175 9.808c-.008.013-.721-.402-.734-.382l5.77-9.168s.88-1.396-.516-2.274-2.275.517-2.275.517L8.6 23.95c-1.806 2.87-2.506 2.43-2.506 2.43l1.633-2.592 1.884-2.992s.878-1.396-.517-2.275c-1.397-.878-2.276.517-2.276.517l-4.833 7.678C-.927 31.341.462 37.453 5.088 40.365s10.737 1.522 13.65-3.104c.154-.244.423-.709.402-.721l.037.024z" style="fill:#f4900c;fill-opacity:1;fill-rule:nonzero;stroke:none" transform="rotate(25 -8.673 31.26)scale(.84776)"/></svg>