<svg xmlns="http://www.w3.org/2000/svg" xml:space="preserve" viewBox="0 0 45 45"><defs><clipPath id="b" clipPathUnits="userSpaceOnUse"><path d="M17.813 13.288a1.25 1.25 0 0 0-.135-2.231c-6.25-2.67-10.995-.003-11.194.112a1.25 1.25 0 0 0 1.246 2.167c.169-.094 3.917-2.137 8.966.02.377.16.788.122 1.117-.068" style="fill:#292f33;fill-opacity:1;fill-rule:nonzero;stroke:none"/></clipPath><clipPath id="a" clipPathUnits="userSpaceOnUse"><path d="M45.004 22.501c0 12.427-10.074 22.5-22.5 22.5s-22.5-10.073-22.5-22.5c0-2.473.399-4.852 1.136-7.078C12.592 9.868 12.463 9.813 22.504.001c12.426 0 22.5 10.075 22.5 22.5" style="fill:#77b255;fill-opacity:1;fill-rule:nonzero;stroke:none"/></clipPath></defs><circle cx="14.5" cy="7" r="5.5" style="fill:#f4abba;fill-opacity:1;stroke:none;stroke-width:30;stroke-linecap:round;stroke-linejoin:round;stroke-miterlimit:4;stroke-dasharray:none;stroke-opacity:1"/><circle cx="9.25" cy="10.375" r="5.5" style="fill:#f4abba;fill-opacity:1;stroke:none;stroke-width:30;stroke-linecap:round;stroke-linejoin:round;stroke-miterlimit:4;stroke-dasharray:none;stroke-opacity:1"/><circle cx="19.062" cy="6.75" r="5.5" style="fill:#f4abba;fill-opacity:1;stroke:none;stroke-width:30;stroke-linecap:round;stroke-linejoin:round;stroke-miterlimit:4;stroke-dasharray:none;stroke-opacity:1"/><circle cx="7.437" cy="14.813" r="5.5" style="fill:#f4abba;fill-opacity:1;stroke:none;stroke-width:30;stroke-linecap:round;stroke-linejoin:round;stroke-miterlimit:4;stroke-dasharray:none;stroke-opacity:1"/><path d="M45.004 22.501c0 12.427-10.074 22.5-22.5 22.5s-22.5-10.073-22.5-22.5c0-2.473.399-4.852 1.136-7.078C12.592 9.868 12.463 9.813 22.504.001c12.426 0 22.5 10.075 22.5 22.5" style="fill:#77b255;fill-opacity:1;fill-rule:nonzero;stroke:none"/><g style="fill:#292f33;fill-opacity:1"><path d="M0 0h-8a1 1 0 0 0-1 1c0 .553.448 3.528 5 3.528C.553 4.528 1 1.553 1 1a1 1 0 0 0-1-1" style="fill:#292f33;fill-opacity:1;fill-rule:nonzero;stroke:none" transform="matrix(-1.631 0 0 -1.25 15.976 35.625)"/></g><g style="fill:#292f33;fill-opacity:1"><path d="M-3.913-2.887c.014.146.202 1.557.662 1.81.745.41 1.693-.077 2.209-.955C.33-4.37-.663-8.342-1.19-7.285c-.38.76.007 2.215-1.48 3.537-.684.053-1.28.48-1.243.86" style="fill:#292f33;fill-opacity:1;fill-rule:nonzero;stroke:none" transform="matrix(.68246 2.7176 -1.63807 .40554 27.372 29.474)"/></g><path d="M26.92 20.346c0 3.225 2.638 5.837 5.895 5.837 3.255 0 5.893-2.612 5.893-5.837 0-3.223-2.638-5.832-5.893-5.832-3.257 0-5.896 2.61-5.896 5.832" style="fill:#292f33;fill-opacity:1;fill-rule:nonzero;stroke:none"/><path d="M36.267 20.347c0 1.89-1.546 3.42-3.454 3.42-1.906 0-3.452-1.53-3.452-3.42 0-1.888 1.546-3.417 3.452-3.417 1.908 0 3.454 1.53 3.454 3.417" style="fill:#f5f8fa;fill-opacity:1;fill-rule:nonzero;stroke:none"/><path d="M38.556 13.288a1.25 1.25 0 0 0-.135-2.231c-6.25-2.67-10.995-.003-11.194.112a1.25 1.25 0 0 0 1.245 2.167c.17-.094 3.918-2.137 8.966.02.377.16.788.122 1.118-.068" style="fill:#292f33;fill-opacity:1;fill-rule:nonzero;stroke:none"/><g style="fill:#dd2e44;fill-opacity:1"><path d="M0 0h-3c-.55 0-1-.45-1-1v-4c0-.55.45-1 1-1s1 .45 1 1v-3.5c0-.825.675-1.5 1.5-1.5S1-9.325 1-8.5V-1C1-.45.55 0 0 0" style="fill:#dd2e44;fill-opacity:1;fill-rule:nonzero;stroke:none" transform="matrix(1.25 0 0 -1.12626 28.833 33.535)"/></g><g clip-path="url(#a)"><g style="fill:#dd2e44;fill-opacity:1"><path d="M0 0h-3c-.55 0-1-.45-1-1v-4c0-.55.45-1 1-1s1 .45 1 1v-3.5c0-.825.675-1.5 1.5-1.5S1-9.325 1-8.5V-1C1-.45.55 0 0 0" style="fill:#dd2e44;fill-opacity:1;fill-rule:nonzero;stroke:none" transform="matrix(1.25 0 0 -1.12626 7.625 10.869)"/></g><g style="fill:#dd2e44;fill-opacity:1"><path d="M0 0h-3c-.55 0-1-.45-1-1v-4c0-.55.45-1 1-1s1 .45 1 1v-3.5c0-.825.675-1.5 1.5-1.5S1-9.325 1-8.5V-1C1-.45.55 0 0 0" style="fill:#dd2e44;fill-opacity:1;fill-rule:nonzero;stroke:none" transform="matrix(-1.25 0 0 -1.12626 9.25 7.056)"/></g><g style="fill:#dd2e44;fill-opacity:1"><path d="M0 0h-3c-.55 0-1-.45-1-1v-4c0-.55.45-1 1-1s1 .45 1 1v-3.5c0-.825.675-1.5 1.5-1.5S1-9.325 1-8.5V-1C1-.45.55 0 0 0" style="fill:#dd2e44;fill-opacity:1;fill-rule:nonzero;stroke:none" transform="matrix(1.25 0 0 -1.12626 20.79 -.406)"/></g></g><g style="fill:#292f33;fill-opacity:1"><path d="M-3.913-2.887c.014.146.202 1.557.662 1.81.745.41 1.693-.077 2.209-.955C.33-4.37-.663-8.342-1.19-7.285c-.38.76.007 2.215-1.48 3.537-.684.053-1.28.48-1.243.86" style="fill:#292f33;fill-opacity:1;fill-rule:nonzero;stroke:none" transform="matrix(-.68246 2.7176 1.63807 .40554 17.628 29.474)"/></g><path d="M18.08 20.346c0 3.225-2.638 5.837-5.895 5.837-3.255 0-5.893-2.612-5.893-5.837 0-3.223 2.638-5.832 5.893-5.832 3.257 0 5.896 2.61 5.896 5.832" style="fill:#292f33;fill-opacity:1;fill-rule:nonzero;stroke:none"/><path d="M15.64 20.347c0 1.89-1.547 3.42-3.455 3.42-1.906 0-3.452-1.53-3.452-3.42 0-1.888 1.546-3.417 3.452-3.417 1.908 0 3.454 1.53 3.454 3.417" style="fill:#f5f8fa;fill-opacity:1;fill-rule:nonzero;stroke:none"/><path d="M45.007 22.503c0 12.426-10.074 22.5-22.5 22.5s-22.5-10.074-22.5-22.5c0-2.473.4-4.853 1.136-7.079C12.596 9.87 12.467 9.814 22.507.003c12.426 0 22.5 10.075 22.5 22.5" clip-path="url(#b)" style="fill:#292f33;fill-opacity:1;fill-rule:nonzero;stroke:none"/></svg>